<svg width="198" height="154" viewBox="0 0 198 154" fill="none" xmlns="http://www.w3.org/2000/svg">
<path d="M66.7412 3H27C20.3726 3 15 8.37257 15 15V132.728V133C15 139.627 20.3726 145 27 145H172C178.627 145 184 139.627 184 133V27.856C184 21.2285 178.627 15.856 172 15.856H91.5359C88.8735 15.856 86.2867 14.9706 84.1827 13.3392L74.0944 5.5168C71.9904 3.88539 69.4036 3 66.7412 3Z" fill="#E2D7B1"/>
<g filter="url(#filter0_d_766_154)">
<path d="M172 23H26.1112C19.4405 23 14.0502 28.4403 14.1117 35.1107L15.0527 137.111C15.1134 143.695 20.468 149 27.0522 149H172C178.627 149 184 143.627 184 137V35C184 28.3726 178.627 23 172 23Z" fill="#DBD2AD"/>
</g>
<defs>
<filter id="filter0_d_766_154" x="0.111328" y="0" width="197.889" height="154" filterUnits="userSpaceOnUse" color-interpolation-filters="sRGB">
<feFlood flood-opacity="0" result="BackgroundImageFix"/>
<feColorMatrix in="SourceAlpha" type="matrix" values="0 0 0 0 0 0 0 0 0 0 0 0 0 0 0 0 0 0 127 0" result="hardAlpha"/>
<feOffset dy="-9"/>
<feGaussianBlur stdDeviation="7"/>
<feComposite in2="hardAlpha" operator="out"/>
<feColorMatrix type="matrix" values="0 0 0 0 0 0 0 0 0 0 0 0 0 0 0 0 0 0 0.25 0"/>
<feBlend mode="normal" in2="BackgroundImageFix" result="effect1_dropShadow_766_154"/>
<feBlend mode="normal" in="SourceGraphic" in2="effect1_dropShadow_766_154" result="shape"/>
</filter>
</defs>
</svg>
