<svg width="197" height="150" viewBox="0 0 197 150" fill="none" xmlns="http://www.w3.org/2000/svg">
<path d="M63.003 3H34C22.9543 3 14 11.9543 14 23V132.728C14 139.506 19.4942 145 26.2716 145H163C174.046 145 183 136.046 183 125V35.856C183 24.8103 174.046 15.856 163 15.856H93.2741C88.8368 15.856 84.5255 14.3803 81.0188 11.6613L75.2583 7.19467C71.7517 4.47565 67.4403 3 63.003 3Z" fill="#F6F602"/>
<g filter="url(#filter0_d_780_252)">
<path d="M171 23H26.1142C19.4424 23 14.0515 28.4421 14.1147 35.1137L15.043 133.114C15.1053 139.696 20.4594 145 27.0424 145H171C177.627 145 183 139.627 183 133V35C183 28.3726 177.627 23 171 23Z" fill="#DFDF02"/>
</g>
<g clip-path="url(#clip0_780_252)">
<mask id="mask0_780_252" style="mask-type:luminance" maskUnits="userSpaceOnUse" x="73" y="59" width="50" height="50">
<path d="M73 59H123V109H73V59Z" fill="white"/>
</mask>
<g mask="url(#mask0_780_252)">
<path d="M85.1438 68.4438C83.8938 71.2438 84.3875 76.2605 84.5875 79.7688C83.2375 80.5167 81.5042 79.2042 80.5229 79.2042C79.5021 79.2042 78.2833 79.875 78.0917 80.875C77.9542 81.5959 78.2771 82.6459 80.5938 83.5605C81.4896 83.9146 83.6208 84.3313 84.1146 85.4938C84.8083 87.1271 80.5521 94.6667 73.8688 95.7667C73.6164 95.8084 73.3884 95.9419 73.2284 96.1414C73.0685 96.341 72.9879 96.5926 73.0021 96.848C73.1188 98.8792 77.6729 99.675 79.6917 99.9875C79.8979 100.267 80.0646 101.446 80.3292 102.344C80.4479 102.746 80.7542 103.227 81.5417 103.227C82.5688 103.227 84.275 102.435 87.2458 102.927C90.1583 103.413 92.8958 107.542 98.1521 107.542C103.038 107.542 105.952 103.394 108.756 102.927C110.379 102.658 111.773 102.744 113.331 103.048C114.404 103.258 115.367 103.375 115.673 102.321C115.942 101.41 116.106 100.254 116.308 99.9813C118.308 99.6709 122.883 98.8771 122.998 96.8459C123.012 96.5905 122.932 96.3389 122.772 96.1393C122.612 95.9398 122.384 95.8063 122.131 95.7646C115.56 94.6813 111.175 87.1646 111.885 85.4917C112.377 84.3313 114.494 83.9188 115.406 83.5584C117.102 82.8896 117.952 82.0667 117.933 81.1146C117.91 79.8959 116.444 79.1688 115.365 79.1688C114.267 79.1688 112.69 80.4688 111.413 79.7646C111.613 76.2271 112.104 71.2334 110.856 68.4355C108.492 63.1375 103.231 60.4584 97.9729 60.4584C92.7479 60.4584 87.5271 63.1 85.1438 68.4438Z" fill="black"/>
</g>
</g>
<defs>
<filter id="filter0_d_780_252" x="0.114258" y="0" width="196.886" height="150" filterUnits="userSpaceOnUse" color-interpolation-filters="sRGB">
<feFlood flood-opacity="0" result="BackgroundImageFix"/>
<feColorMatrix in="SourceAlpha" type="matrix" values="0 0 0 0 0 0 0 0 0 0 0 0 0 0 0 0 0 0 127 0" result="hardAlpha"/>
<feOffset dy="-9"/>
<feGaussianBlur stdDeviation="7"/>
<feComposite in2="hardAlpha" operator="out"/>
<feColorMatrix type="matrix" values="0 0 0 0 0 0 0 0 0 0 0 0 0 0 0 0 0 0 0.25 0"/>
<feBlend mode="normal" in2="BackgroundImageFix" result="effect1_dropShadow_780_252"/>
<feBlend mode="normal" in="SourceGraphic" in2="effect1_dropShadow_780_252" result="shape"/>
</filter>
<clipPath id="clip0_780_252">
<rect width="50" height="50" fill="white" transform="translate(73 59)"/>
</clipPath>
</defs>
</svg>
