<svg width="1259" height="503" viewBox="0 0 1259 503" fill="none" xmlns="http://www.w3.org/2000/svg">
<path d="M-241.618 131.524C-245.093 139.045 -241.813 147.958 -234.292 151.432L-111.74 208.053C-104.22 211.528 -95.3064 208.248 -91.8318 200.727C-88.3573 193.207 -91.6371 184.294 -99.1575 180.819L-208.093 130.49L-157.763 21.5542C-154.289 14.0338 -157.569 5.12061 -165.089 1.64607C-172.609 -1.82848 -181.523 1.45136 -184.997 8.97178L-241.618 131.524ZM1246.15 555.234C1254.34 553.995 1259.98 546.351 1258.74 538.16L1238.55 404.678C1237.31 396.487 1229.66 390.851 1221.47 392.09C1213.28 393.329 1207.64 400.973 1208.88 409.165L1226.83 527.815L1108.18 545.762C1099.99 547.001 1094.35 554.645 1095.59 562.836C1096.83 571.027 1104.48 576.663 1112.67 575.424L1246.15 555.234ZM-222.821 151.892C-22.5194 78.1864 554.835 51.0355 1235 552.476L1252.81 528.329C566.043 22.027 -21.7671 45.9429 -233.181 123.738L-222.821 151.892Z" fill="#EB6A4B"/>
</svg>
