<svg width="395" height="646" viewBox="0 0 395 646" fill="none" xmlns="http://www.w3.org/2000/svg">
<path d="M352.66 461.846C350.101 481.329 332.233 495.049 312.75 492.49L-4.74318 450.789C-24.2261 448.23 -37.9458 430.362 -35.3868 410.879C-32.8278 391.396 -14.9593 377.676 4.52365 380.235L286.74 417.302L323.807 135.086C326.366 115.603 344.234 101.884 363.717 104.443C383.2 107.002 396.92 124.87 394.361 144.353L352.66 461.846ZM-1747.26 634.969C-1766.9 634.326 -1782.3 617.883 -1781.65 598.243L-1771.17 278.195C-1770.53 258.555 -1754.09 243.155 -1734.45 243.798C-1714.81 244.442 -1699.41 260.884 -1700.05 280.524L-1709.37 565.011L-1424.88 574.328C-1405.24 574.971 -1389.84 591.413 -1390.48 611.053C-1391.13 630.693 -1407.57 646.093 -1427.21 645.45L-1747.26 634.969ZM289.162 478.881C160.757 311.645 -94.1009 116.574 -439.079 78.3886C-782.609 40.3641 -1221.95 157.259 -1721.77 625.377L-1770.41 573.439C-1259.17 94.6203 -800.057 -33.1619 -431.251 7.66058C-63.8936 48.3226 207.458 255.622 345.604 435.544L289.162 478.881Z" fill="#EB6A4B"/>
</svg>
