<svg width="401" height="120" viewBox="0 0 401 120" fill="none" xmlns="http://www.w3.org/2000/svg">
<path d="M46.2152 36.0977C46.2152 42.4393 44.9081 46.9171 42.294 49.5312C40.6481 51.1771 37.9857 52 34.3066 52H13.3214C8.91618 52 5.91484 51.2013 4.31735 49.6038C3.20395 48.4904 2.4052 46.8445 1.92111 44.6661C1.43702 42.4393 1.19498 39.1717 1.19498 34.8633H15.4998C15.5966 37.8646 15.8628 39.5831 16.2985 40.0188C16.6858 40.4061 17.8234 40.5997 19.7113 40.5997H27.0453C29.1753 40.5997 30.4097 40.4303 30.7486 40.0914C31.1842 39.6558 31.4021 38.5666 31.4021 36.8238C31.4021 35.3232 31.1842 34.355 30.7486 33.9193C30.4097 33.5805 29.1511 33.29 26.9727 33.048L11.9417 31.3052C8.84357 30.9664 6.54415 30.0466 5.04348 28.5459C2.86508 26.3675 1.77589 22.3496 1.77589 16.4921C1.77589 10.5379 3.08292 6.25369 5.697 3.63962C7.3429 1.99371 9.95697 1.17076 13.5392 1.17076H33.0722C37.5258 1.17076 40.5271 1.9453 42.0762 3.49439C43.238 4.6562 44.0852 6.27789 44.6177 8.35947C45.1502 10.3926 45.4406 13.4908 45.489 17.654H31.1842C31.0874 15.0883 30.8212 13.5876 30.3855 13.1519C29.9982 12.7647 28.9816 12.571 27.3357 12.571H20.0744C18.3801 12.571 17.4119 12.6921 17.1699 12.9341C16.7826 13.3214 16.589 14.3138 16.589 15.9112C16.589 17.4119 16.8068 18.3801 17.2425 18.8158C17.5329 19.1062 18.7916 19.3725 21.0184 19.6145L36.1945 21.3572C39.2927 21.7445 41.5679 22.6643 43.0202 24.1165C45.1502 26.2465 46.2152 30.2402 46.2152 36.0977ZM69.8876 24.6248H77.5846C79.9082 24.6248 81.2637 24.4312 81.651 24.0439C82.4255 23.3178 82.8128 21.5025 82.8128 18.5979C82.8128 15.7418 82.4255 13.9749 81.651 13.2972C81.2153 12.9099 79.8598 12.7163 77.5846 12.7163H69.8876V24.6248ZM97.6985 8.72254C98.5214 10.9009 98.9329 14.2169 98.9329 18.6705C98.9329 23.1242 98.5214 26.4644 97.6985 28.6912C96.8755 30.8696 95.7379 32.6123 94.2857 33.9193C92.5913 35.42 89.4448 36.1703 84.8459 36.1703H69.8876V52H54.2758V1.17076H84.8459C89.4448 1.17076 92.5913 1.9211 94.2857 3.42177C95.7379 4.72881 96.8755 6.49573 97.6985 8.72254ZM136.034 52L132.839 41.0354H117.227L114.105 52H98.4932L113.887 5.7454C114.565 3.71223 115.194 2.40519 115.775 1.82428C116.405 1.24338 117.566 0.952927 119.261 0.952927H131.75C133.444 0.952927 134.606 1.26758 135.236 1.89689C135.865 2.4778 136.494 3.76064 137.123 5.7454L152.517 52H136.034ZM124.634 15.1851L120.277 30.1434H129.79L125.433 15.1851H124.634ZM228.628 1.17076L218.172 47.4254C217.784 49.2165 217.131 50.4751 216.211 51.2013C215.34 51.879 214.009 52.2178 212.217 52.2178H201.761C199.97 52.2178 198.615 51.879 197.695 51.2013C196.823 50.4751 196.218 49.2165 195.879 47.4254L191.232 24.6248H190.579L186.004 47.4254C185.665 49.2165 185.036 50.4751 184.116 51.2013C183.245 51.879 181.914 52.2178 180.122 52.2178H169.593C167.802 52.2178 166.447 51.879 165.527 51.2013C164.656 50.4751 164.026 49.2165 163.639 47.4254L153.183 1.17076H170.174L175.403 35.299H176.129L182.301 5.81801C182.64 4.07529 183.245 2.84087 184.116 2.11474C185.036 1.3886 186.367 1.02554 188.11 1.02554H194.863C196.654 1.02554 197.985 1.3886 198.857 2.11474C199.728 2.79246 200.333 4.02688 200.672 5.81801L206.844 35.299H207.498L212.726 1.17076H228.628ZM283.033 1.17076V52H272.213C270.568 52 269.261 51.7338 268.292 51.2013C267.324 50.6688 266.404 49.7006 265.533 48.2967L249.849 22.9547H249.486V52H234.745V1.17076H248.033C249.679 1.17076 250.986 1.43701 251.954 1.96951C252.971 2.50201 253.891 3.47018 254.714 4.87404L267.929 27.1663H268.292V1.17076H283.033ZM47.3044 99.6683C47.2559 104.751 46.9171 108.6 46.2878 111.214C45.7069 113.828 44.7387 115.788 43.3832 117.095C41.4469 119.032 38.1309 120 33.4352 120H16.4438C11.6997 120 8.35948 119.032 6.42313 117.095C2.74406 113.513 0.904528 106.01 0.904528 94.5854C0.904528 83.1609 2.74406 75.6575 6.42313 72.0753C8.35948 70.1389 11.6997 69.1708 16.4438 69.1708H33.4352C38.1309 69.1708 41.4469 70.1389 43.3832 72.0753C44.6903 73.3823 45.6585 75.3429 46.2878 77.957C46.9171 80.5226 47.2559 84.2985 47.3044 89.2846H32.7091C32.5639 84.831 32.1524 82.2653 31.4747 81.5876C31.0874 81.2004 29.974 81.0067 28.1345 81.0067H21.6719C19.8324 81.0067 18.719 81.2004 18.3317 81.5876C17.4119 82.5074 16.952 86.84 16.952 94.5854C16.952 102.331 17.4119 106.663 18.3317 107.583C18.719 107.97 19.8324 108.164 21.6719 108.164H28.1345C29.974 108.164 31.0874 107.97 31.4747 107.583C32.1524 106.905 32.5639 104.267 32.7091 99.6683H47.3044ZM88.24 120L85.0451 109.035H69.4332L66.3109 120H50.699L66.093 73.7454C66.7707 71.7122 67.4001 70.4052 67.981 69.8243C68.6103 69.2434 69.7721 68.9529 71.4664 68.9529H83.9559C85.6502 68.9529 86.812 69.2676 87.4413 69.8969C88.0706 70.4778 88.6999 71.7606 89.3292 73.7454L104.723 120H88.24ZM76.8398 83.1851L72.483 98.1434H81.9953L77.6385 83.1851H76.8398ZM170.642 69.1708V120H155.902V89.212H155.176L146.027 117.095C145.639 118.209 145.228 118.983 144.792 119.419C144.356 119.806 143.679 120 142.759 120H137.531C136.611 120 135.909 119.782 135.425 119.346C134.989 118.911 134.602 118.16 134.263 117.095L125.114 89.212H124.388V120H110.083V69.1708H129.543C130.657 69.1708 131.455 69.3886 131.94 69.8243C132.472 70.2116 132.908 70.9861 133.247 72.1479L140.29 95.2389H140.944L147.551 72.1479C147.89 70.9861 148.302 70.2116 148.786 69.8243C149.318 69.3886 150.141 69.1708 151.255 69.1708H170.642ZM195.968 92.6248H203.665C205.989 92.6248 207.344 92.4312 207.731 92.0439C208.506 91.3178 208.893 89.5025 208.893 86.5979C208.893 83.7418 208.506 81.9749 207.731 81.2972C207.296 80.9099 205.94 80.7163 203.665 80.7163H195.968V92.6248ZM223.779 76.7225C224.602 78.9009 225.013 82.2169 225.013 86.6705C225.013 91.1242 224.602 94.4644 223.779 96.6912C222.956 98.8696 221.818 100.612 220.366 101.919C218.672 103.42 215.525 104.17 210.926 104.17H195.968V120H180.356V69.1708H210.926C215.525 69.1708 218.672 69.9211 220.366 71.4218C221.818 72.7288 222.956 74.4957 223.779 76.7225ZM271.493 80.8615H247.095V90.9547H264.159V101.847H247.095V120H231.483V69.1708H271.493V80.8615ZM293.831 120H278.219V69.1708H293.831V120ZM319.425 91.6082H327.848C330.171 91.6082 331.527 91.4146 331.914 91.0273C332.689 90.3012 333.076 88.6553 333.076 86.0896C333.076 83.5724 332.689 81.9749 331.914 81.2972C331.478 80.9099 330.123 80.7163 327.848 80.7163H319.425V91.6082ZM333.003 108.745C332.906 105.986 332.447 104.243 331.624 103.517C330.946 102.887 329.421 102.573 327.049 102.573H319.425V120H303.813V69.1708H336.271C341.112 69.1708 344.403 70.0421 346.146 71.7848C347.356 72.9951 348.204 74.4473 348.688 76.1416C349.22 77.7875 349.486 80.2806 349.486 83.6208C349.486 88.1712 348.809 91.3904 347.453 93.2783C346.098 95.1663 343.871 96.4249 340.773 97.0542V97.1995C343.581 97.8288 345.614 98.8212 346.872 100.177C348.179 101.532 348.881 103.928 348.978 107.365C349.123 112.013 349.39 116.224 349.777 120H333.875C333.439 117.144 333.148 113.392 333.003 108.745ZM400.375 108.237V120H358.84V69.1708H400.375V80.9341H374.452V88.7763H393.331V99.6683H374.452V108.237H400.375Z" fill="url(#paint0_linear_840_285)"/>
<defs>
<linearGradient id="paint0_linear_840_285" x1="17.42" y1="64.5" x2="397.021" y2="64.5" gradientUnits="userSpaceOnUse">
<stop stop-color="#0C2E64"/>
<stop offset="0.390625" stop-color="#EB6A4B"/>
<stop offset="0.96875" stop-color="#589B9A"/>
</linearGradient>
</defs>
</svg>
