<svg width="300" height="338" viewBox="0 0 300 338" fill="none" xmlns="http://www.w3.org/2000/svg">
<path d="M45.2334 86.8853C-16.6717 114.399 -1.85048 185.147 13.2982 217.082C5.43595 167.951 23.125 136.017 32.9523 126.191C87.4877 146.826 98.2556 101.216 96.8226 75.8316C139.567 116.119 184.235 92.618 201.226 75.8316C200.735 139.211 242.783 135.812 263.868 126.191C286.468 135.034 287.205 190.471 284.749 217.083C323.562 143.387 279.221 99.9877 252.199 87.5002C253.182 105.187 240.326 103.468 233.775 100.397C223.949 98.4325 226.815 55.361 229.476 34.0708C225.546 3.1183 191.809 -1.34534 175.432 0.291901C186.732 8.15177 189.148 27.3144 188.943 35.9132C181.574 73.2528 150.662 73.1709 136.127 68.4625C85.7682 45.7394 120.537 0.222649 122.002 0.291901C67.4669 -2.65596 64.0686 37.959 69.1864 58.635C73.6082 94.0093 65.2969 102.853 60.5885 102.853C47.3231 104.818 44.8245 93.0267 45.2334 86.8853Z" fill="#EB6A4B"/>
<path d="M194.471 131.104H102.964C97.4368 131.104 90.6813 136.017 91.2954 136.631C88.3475 143.018 82.288 150.347 79.6268 153.213L55.0613 168.566C42.1644 172.865 42.7785 193.132 43.3927 193.746C42.9054 196.669 40.8883 200.217 38.5539 203.475C34.6042 208.987 31.724 215.366 31.724 222.147V246.496C31.724 252.304 37.4688 260.388 40.1005 265.566C43.1421 271.551 41.9123 280.769 44.4774 286.973C46.427 291.688 49.7515 294.893 51.9906 296.307L68.0618 308.436C78.9951 316.688 86.2137 329.832 98.488 335.912C99.353 336.341 100.195 336.608 101.122 336.84H185.258C199.015 338.314 206.958 332.132 209.21 328.856C210.34 325.733 212.724 320.826 214.885 317.573C215.916 316.022 217.349 314.806 218.874 313.736L232.758 303.998C239.012 296.782 247.397 285.421 251.918 276.845C254.048 272.804 256.084 268.657 258.869 265.037C264.088 258.252 266.801 249.872 266.55 241.316L265.907 219.477C265.785 215.304 263.412 211.616 260.4 208.726C254.883 203.432 252.843 197.287 252.199 193.746C248.726 179.942 248.719 174.094 245.444 170.409L215.351 150.756C212.895 137 200.407 131.923 194.471 131.104Z" fill="#EB6A4B"/>
<path d="M228.443 218.639C208.176 233.992 185.658 237.882 171.942 241.362C178.697 263.471 202.853 259.581 211.861 255.487C233.97 243.695 230.899 225.599 228.443 218.639Z" fill="white"/>
<path d="M70.4813 218.639C90.7478 233.992 113.266 237.882 126.982 241.362C120.226 263.471 96.0703 259.581 87.063 255.487C64.954 243.695 68.0247 225.599 70.4813 218.639Z" fill="white"/>
</svg>
