<svg width="193" height="488" viewBox="0 0 193 488" fill="none" xmlns="http://www.w3.org/2000/svg">
<path d="M26.2627 459.795C27.8064 467.934 35.6559 473.281 43.795 471.737L176.431 446.582C184.57 445.038 189.917 437.189 188.373 429.05C186.829 420.91 178.98 415.564 170.841 417.107L52.9423 439.468L30.5819 321.569C29.0383 313.43 21.1888 308.083 13.0496 309.627C4.91042 311.171 -0.436306 319.02 1.10735 327.159L26.2627 459.795ZM1979.71 471.902C1987.94 470.959 1993.85 463.522 1992.9 455.291L1977.52 321.17C1976.58 312.94 1969.14 307.033 1960.91 307.976C1952.68 308.92 1946.78 316.357 1947.72 324.587L1961.39 443.806L1842.17 457.476C1833.94 458.419 1828.03 465.856 1828.98 474.087C1829.92 482.317 1837.36 488.224 1845.59 487.28L1979.71 471.902ZM53.3972 465.444C164.811 301.879 394.361 104.9 720.024 47.4661C1045.12 -9.86805 1468.46 71.4444 1968.67 468.746L1987.33 445.254C1481.97 43.862 1050.16 -41.22 714.813 17.922C380.037 76.9637 143.871 279.332 28.6028 448.556L53.3972 465.444Z" fill="#EB6A4B"/>
</svg>
