<svg width="96" height="93" viewBox="0 0 96 93" fill="none" xmlns="http://www.w3.org/2000/svg">
<path d="M0.55586 55.3403C0.557417 59.556 1.67742 63.6958 3.80156 67.3372C5.9257 70.9786 8.97794 73.9913 12.6468 76.0677C16.3156 78.1442 20.4696 79.21 24.685 79.1566C28.9003 79.1031 33.026 77.9322 36.641 75.7634H38.5301L34.7391 88.4002C34.5865 88.9084 34.5549 89.4453 34.6467 89.9679C34.7385 90.4905 34.9512 90.9843 35.2679 91.4101C35.5845 91.8359 35.9963 92.1817 36.4704 92.42C36.9444 92.6584 37.4677 92.7826 37.9983 92.7827H58.4214C58.952 92.7826 59.4752 92.6584 59.9493 92.42C60.4233 92.1817 60.8351 91.8359 61.1518 91.4101C61.4684 90.9843 61.6811 90.4905 61.7729 89.9679C61.8648 89.4453 61.8331 88.9084 61.6806 88.4002L57.8895 75.7634H59.7787C62.927 77.6553 66.47 78.7937 70.131 79.0898C73.7921 79.3858 77.472 78.8314 80.8833 77.47C84.2947 76.1085 87.3451 73.9768 89.7963 71.2414C92.2475 68.506 94.0331 65.241 95.0136 61.7013C95.9942 58.1616 96.1432 54.4431 95.4489 50.8364C94.7546 47.2296 93.2358 43.8322 91.0113 40.9095C88.7867 37.9868 85.9166 35.6179 82.6251 33.988C79.3336 32.358 75.7098 31.5111 72.0368 31.5133H71.0454C72.1046 27.9573 72.3186 24.203 71.6704 20.5495C71.0223 16.8961 69.5298 13.4446 67.312 10.4699C65.0941 7.49523 62.2122 5.07962 58.8958 3.41553C55.5795 1.75145 51.9203 0.884888 48.2098 0.884888C44.4994 0.884888 40.8402 1.75145 37.5238 3.41553C34.2074 5.07962 31.3255 7.49523 29.1077 10.4699C26.8899 13.4446 25.3974 16.8961 24.7492 20.5495C24.101 24.203 24.3151 27.9573 25.3742 31.5133H24.3828C18.0656 31.5201 12.009 34.0326 7.54208 38.4996C3.07512 42.9665 0.56262 49.0231 0.55586 55.3403Z" fill="#3537A6"/>
</svg>
