<svg width="83" height="102" viewBox="0 0 83 102" fill="none" xmlns="http://www.w3.org/2000/svg">
<path fillRule="evenodd" clipRule="evenodd" d="M35.6057 2.91156C36.3045 2.02614 37.1948 1.31058 38.2098 0.818603C39.2248 0.32663 40.3381 0.0710449 41.4661 0.0710449C42.594 0.0710449 43.7074 0.32663 44.7224 0.818603C45.7374 1.31058 46.6277 2.02614 47.3265 2.91156L80.1895 44.557C81.5757 46.3135 82.3296 48.4857 82.3296 50.7232C82.3296 52.9607 81.5757 55.133 80.1895 56.8894L47.3265 98.5349C46.6278 99.4212 45.7372 100.138 44.7217 100.63C43.7062 101.123 42.5922 101.379 41.4636 101.379C40.3349 101.379 39.221 101.123 38.2055 100.63C37.19 100.138 36.2994 99.4212 35.6007 98.5349L2.74267 56.8944C1.35647 55.138 0.602539 52.9657 0.602539 50.7282C0.602539 48.4907 1.35647 46.3184 2.74267 44.562L35.6057 2.91654V2.91156Z" fill="#6821A0"/>
</svg>
