<svg width="99" height="104" viewBox="0 0 99 104" fill="none" xmlns="http://www.w3.org/2000/svg">
<path d="M43.8307 77.9804C40.6334 81.7648 36.3377 84.4826 31.5271 85.7645C26.7166 87.0464 21.6242 86.8303 16.9419 85.1457C12.2596 83.461 8.21419 80.3893 5.35526 76.3479C2.49633 72.3065 0.96243 67.4913 0.961914 62.5563C0.961914 51.5549 8.86463 44.4746 19.4016 35.032C28.5937 26.7912 39.7961 16.7512 49.4874 0.750244C59.1786 16.7512 70.3811 26.7912 79.5732 35.032C90.1101 44.4746 98.0128 51.5549 98.0128 62.5563C98.0123 67.4913 96.4784 72.3065 93.6195 76.3479C90.7606 80.3893 86.7152 83.461 82.0328 85.1457C77.3505 86.8303 72.2582 87.0464 67.4476 85.7645C62.637 84.4826 58.3413 81.7648 55.1441 77.9804C58.2366 84.9236 61.9048 91.6009 66.1108 97.9438C67.7121 100.347 65.9722 103.76 63.0745 103.76H35.9002C32.9956 103.76 31.2557 100.347 32.8639 97.9438C37.07 91.6009 40.7381 84.9236 43.8307 77.9804Z" fill="#209681"/>
</svg>
