<svg width="192" height="192" viewBox="0 0 192 192" fill="none" xmlns="http://www.w3.org/2000/svg">
<path fill-rule="evenodd" clip-rule="evenodd" d="M94.7019 124.77C138.597 126.753 174.986 115.705 175.979 100.092C176.972 84.4788 142.193 70.214 98.2981 68.2303C54.4029 66.2467 18.0138 77.2954 17.0207 92.9083C16.0277 108.521 50.8067 122.786 94.7019 124.77ZM94.7656 123.768C135.921 125.628 170.061 114.927 171.019 99.8676C171.976 84.808 139.39 71.0922 98.2344 69.2323C57.0789 67.3725 22.9393 78.073 21.9815 93.1326C21.0236 108.192 53.6102 121.908 94.7656 123.768Z" fill="url(#paint0_linear_2311_1905)"/>
<path d="M77.2929 92.5961C77.6301 96.2238 77.9466 95.1441 74.2767 96.1206C70.6068 97.0972 68.9071 99.2301 66.4102 99.395L62.821 102.705L54.3252 103.266C51.3354 103.463 55.18 100.726 54.0108 99.884C53.3259 95.1612 49.6048 94.3474 47.3778 96.0838C46.9309 94.8317 47.842 97.0208 47.6129 94.5562L47.5473 93.85L56.3812 93.2666C56.6065 94.9792 56.8786 95.9504 57.1974 96.1801C57.4809 96.3843 58.2632 96.4441 59.5446 96.3594L64.522 96.0307C65.9676 95.9352 66.7964 95.783 67.0083 95.574C67.2808 95.3052 67.3708 94.6723 67.2781 93.6754C67.1983 92.8169 66.999 92.2728 66.6801 92.0431C66.4321 91.8645 65.5625 91.7547 64.0711 91.7139L53.7772 91.3907C51.6565 91.3357 50.047 90.9126 48.9487 90.1214C47.3544 88.9728 46.4016 86.7231 46.0901 83.3723C45.7735 79.9661 46.4327 77.4567 48.0678 75.8441C49.0974 74.8288 50.8277 74.2409 53.259 74.0803L66.5157 73.2048C69.5383 73.0052 71.6165 73.3137 72.7502 74.1305C73.6004 74.743 74.2616 75.6328 74.7337 76.7997C75.2032 77.9389 75.5651 79.6982 75.8193 82.0776L66.1109 82.7188C65.9087 81.2554 65.6482 80.4089 65.3294 80.1792C65.046 79.975 64.3457 79.9098 63.2287 79.9836L58.3005 80.309C57.1506 80.385 56.5 80.4976 56.3486 80.6469C56.1063 80.8858 56.0277 81.4622 56.1126 82.3761C56.1924 83.2345 56.3918 83.7786 56.7106 84.0083C56.9232 84.1615 57.7915 84.2574 59.3157 84.296L69.7082 84.6127C71.8315 84.6954 73.4246 85.1196 74.4874 85.8853C76.0463 87.0083 76.9814 89.2452 77.2929 92.5961Z" fill="url(#paint1_linear_2311_1905)"/>
<path d="M112.688 87.709C112.926 90.619 112.9 92.8357 112.612 94.3593C112.003 96.278 110.58 95.8423 109.347 94.7581C108.136 95.9526 107.035 93.5334 103.848 93.7439L100.25 94.7232L91.5568 100.807C88.3371 101.02 87.2866 100.532 85.8695 99.5108C83.1821 97.6264 81.5346 93.4165 80.9271 86.881C80.3196 80.3455 81.1691 75.9707 83.4755 73.7565C84.6867 72.562 86.9022 71.8584 90.1219 71.6458L101.654 70.8842C104.841 70.6737 107.143 71.079 108.56 72.0999C109.516 72.789 110.278 73.8672 110.844 75.3344C111.407 76.7739 111.838 78.9187 112.136 81.7689L102.231 82.4231C101.895 79.8819 101.479 78.4326 100.983 78.0753C100.7 77.8711 99.9341 77.8102 98.6856 77.8927L94.2996 78.1824C93.0511 78.2648 92.3058 78.4255 92.0635 78.6644C91.4882 79.2318 91.4065 81.7309 91.8183 86.1617C92.2302 90.5926 92.7727 93.0505 93.4459 93.5354C93.7293 93.7396 94.4952 93.8005 95.7437 93.718L100.13 93.4284C101.378 93.3459 102.124 93.1852 102.366 92.9463C102.79 92.5282 102.929 91.0005 102.783 88.3632L112.688 87.709Z" fill="url(#paint2_linear_2311_1905)"/>
<path d="M144.103 74.8096L127.545 75.9032L128.081 81.6772L139.662 80.9123L140.242 87.1432L128.66 87.908L129.096 92.5942L129.018 91.7517L126.376 89.9131L123.891 92.938L119.07 95.1636L118.563 93.9663L116.327 69.9151L143.481 68.1218L144.103 74.8096Z" fill="url(#paint3_linear_2311_1905)"/>
<path d="M31.2998 122.563C31.1594 122.613 31.0123 122.592 30.8587 122.501C30.681 122.41 30.4821 122.352 30.262 122.326C30.214 122.329 30.1807 122.362 30.1624 122.424C30.144 122.487 30.1079 122.489 30.0542 122.431C30.0929 122.327 30.0695 122.206 29.9842 122.069C29.9437 122.153 29.9281 122.246 29.9376 122.347C29.8174 122.355 29.7036 122.302 29.5961 122.186C29.5924 122.146 29.6006 122.105 29.6209 122.062C29.619 122.042 29.6791 122.038 29.8011 122.051L29.7785 121.807C29.8045 121.826 29.8155 121.815 29.8118 121.775C29.808 121.734 29.8311 121.722 29.8811 121.74C29.8551 121.721 29.8523 121.69 29.8726 121.648C29.8688 121.608 29.842 121.579 29.792 121.562C29.7698 121.584 29.7717 121.604 29.7977 121.623C29.8255 121.662 29.8292 121.702 29.809 121.744C29.7811 121.705 29.7284 121.658 29.6506 121.602C29.5747 121.566 29.5137 121.56 29.4675 121.583L29.4251 121.128C29.3196 121.033 29.1909 120.949 29.0392 120.878C28.8893 120.827 28.8641 120.686 28.9636 120.455C29.0578 120.428 29.1493 120.371 29.2379 120.284C29.3265 120.196 29.3531 120.093 29.3178 119.973L29.6062 119.954C29.8443 119.653 30.0832 119.362 30.3232 119.081C30.539 118.801 30.778 118.511 31.0401 118.208C30.5593 118.24 30.0694 118.303 29.5703 118.397C29.0472 118.492 28.6117 118.491 28.2639 118.391C28.1974 118.457 28.1041 118.493 27.9839 118.501C27.8397 118.511 27.7243 118.569 27.6375 118.677C27.5838 118.62 27.5338 118.602 27.4877 118.626C27.4415 118.649 27.3915 118.632 27.3378 118.575C27.3708 118.409 27.4594 118.322 27.6036 118.312C27.7219 118.284 27.8263 118.237 27.9168 118.169C27.8687 118.173 27.8327 118.175 27.8087 118.177C27.7587 118.16 27.6838 118.134 27.5839 118.1C27.5193 118.186 27.4408 118.252 27.3484 118.299C27.2301 118.327 27.1507 118.383 27.1102 118.467C26.9806 118.374 26.8585 118.362 26.744 118.43C26.6035 118.48 26.5121 118.537 26.4697 118.601C26.4659 118.561 26.452 118.541 26.428 118.543C26.3799 118.546 26.354 118.527 26.3502 118.487C26.3446 118.426 26.3768 118.383 26.4471 118.358C26.4933 118.335 26.4904 118.304 26.4386 118.267C26.4292 118.166 26.4513 118.144 26.5051 118.202C26.5588 118.259 26.6207 118.275 26.691 118.25C26.6872 118.21 26.6714 118.17 26.6436 118.131L26.5185 117.956C26.33 118.009 26.1747 118.03 26.0526 118.017C25.9306 118.005 25.7892 118.045 25.6285 118.137C25.5969 118.058 25.5811 118.018 25.5811 118.018C25.5792 117.998 25.5736 117.937 25.5641 117.836C25.6862 117.848 25.7758 117.771 25.8328 117.604L25.8717 117.632C25.8736 117.652 25.8875 117.672 25.9134 117.69C25.9134 117.69 25.9143 117.7 25.9162 117.721C26.1877 117.519 26.4639 117.369 26.7448 117.268C27.0257 117.168 27.3057 117.058 27.5847 116.938C27.6992 116.869 27.8526 116.828 28.0449 116.816C28.2113 116.784 28.3138 116.716 28.3524 116.612C28.4043 116.649 28.4764 116.644 28.5688 116.598C28.6371 116.552 28.6981 116.558 28.7519 116.616C28.7721 116.574 28.7933 116.542 28.8155 116.52C28.8376 116.498 28.8699 116.455 28.9124 116.391C29.1103 116.44 29.2887 116.407 29.4475 116.295C29.6045 116.162 29.792 116.099 30.0103 116.105C30.0824 116.1 30.1147 116.057 30.1071 115.976C30.2254 115.948 30.3576 115.939 30.5037 115.95C30.6479 115.94 30.7486 115.852 30.8056 115.685C30.6539 115.614 30.5457 115.621 30.4811 115.707C30.3906 115.774 30.2973 115.811 30.2012 115.817C30.2177 115.734 30.2832 115.659 30.3977 115.59C30.5104 115.501 30.6369 115.432 30.7774 115.382C30.9362 115.269 31.1228 115.196 31.3373 115.161C31.5498 115.106 31.7883 115.07 32.0527 115.053C32.1008 115.05 32.1359 115.037 32.158 115.015C32.1543 114.975 32.1625 114.933 32.1828 114.891C32.5358 114.786 32.8407 114.685 33.0976 114.586C33.3526 114.467 33.7157 114.342 34.187 114.209C34.2111 114.207 34.2212 114.186 34.2174 114.145C34.2137 114.105 34.2349 114.073 34.2811 114.049C34.3551 114.065 34.405 114.082 34.4309 114.101C34.455 114.099 34.4901 114.087 34.5363 114.063C34.5712 113.918 34.6709 113.82 34.8353 113.768C34.9998 113.717 35.0866 113.609 35.0955 113.445C35.2397 113.436 35.3302 113.369 35.367 113.244C35.4038 113.119 35.4832 113.063 35.6053 113.075C35.8928 112.526 36.235 112.045 36.6319 111.632C37.0509 111.196 37.407 110.734 37.7002 110.246C37.8369 110.156 37.8996 110.05 37.8883 109.928C37.9123 109.926 37.9253 109.936 37.9272 109.956C37.9512 109.954 37.9872 109.952 38.0353 109.949C38.0627 109.723 38.1678 109.553 38.3507 109.439C38.5557 109.303 38.6691 109.092 38.6908 108.805C39.0047 108.539 39.2658 108.227 39.4741 107.866C39.7065 107.504 39.9917 107.19 40.3296 106.923C40.3829 106.716 40.451 106.538 40.534 106.39C40.641 106.24 40.7489 106.1 40.8578 105.971C40.9888 105.82 41.1078 105.669 41.2148 105.519C41.3218 105.37 41.4029 105.201 41.4581 105.014C41.7258 104.772 41.9297 104.494 42.0697 104.179C42.2337 103.862 42.4496 103.583 42.7173 103.341C42.7725 103.154 42.8545 102.995 42.9634 102.866C43.0944 102.715 43.1995 102.545 43.2787 102.356C43.5888 102.05 43.849 101.727 44.0593 101.387C44.2695 101.047 44.5325 100.755 44.8483 100.509C44.8686 100.467 44.8898 100.435 44.9119 100.413C44.9581 100.39 44.9664 100.349 44.9367 100.29C45.3373 99.9166 45.65 99.5086 45.8749 99.0657C46.2902 98.5898 46.6842 98.1459 47.057 97.734C47.4539 97.3205 47.7999 96.8797 48.0949 96.4118C48.2151 96.4039 48.2955 96.3578 48.336 96.2736C48.3987 96.1675 48.4513 96.0825 48.4937 96.0185C48.6803 95.9451 48.8161 95.8444 48.9009 95.7165C48.9858 95.5885 49.0956 95.4692 49.2304 95.3584C49.3081 95.4144 49.3682 95.4104 49.4107 95.3464C49.4771 95.2809 49.5575 95.2348 49.6517 95.2082C49.6814 95.2674 49.664 95.3399 49.5994 95.4257C49.5329 95.4913 49.4655 95.5467 49.3972 95.5919C49.5692 95.6214 49.7764 95.6383 50.0186 95.6426C50.259 95.6268 50.4892 95.6319 50.7093 95.6582C50.9515 95.6626 51.1726 95.6989 51.3724 95.7673C51.5944 95.8138 51.772 95.904 51.9054 96.0378C51.887 96.1002 51.8806 96.1618 51.8863 96.2226C51.89 96.2631 51.8549 96.2756 51.7809 96.2601C51.8568 96.2958 51.9365 96.3721 52.0199 96.4889C52.1014 96.5855 52.1763 96.6111 52.2447 96.5658C52.3465 96.6202 52.4131 96.6872 52.4447 96.7666C52.5003 96.8445 52.591 96.9098 52.7169 96.9627C52.6763 97.0469 52.6848 97.1381 52.7423 97.2362C52.8219 97.3125 52.9117 97.3677 53.0116 97.4019C53.0121 97.6668 53.0356 97.9201 53.0822 98.1616C53.127 98.3829 53.1607 98.6151 53.1833 98.8582C53.228 99.0795 53.2367 99.3031 53.2094 99.5292C53.206 99.7536 53.1556 99.9914 53.058 100.242C53.0731 100.404 53.0733 100.537 53.0587 100.64C53.0422 100.722 53.0146 100.816 52.9759 100.921C52.9594 101.003 52.9319 101.097 52.8932 101.201C52.8786 101.304 52.8797 101.447 52.8967 101.629C52.7661 102.045 52.6633 102.501 52.5883 102.995C52.5374 103.487 52.4337 103.932 52.2772 104.33C52.3422 104.509 52.349 104.713 52.2976 104.94C52.2443 105.148 52.1651 105.336 52.06 105.506C52.092 105.851 52.0621 106.179 51.9701 106.491C51.9022 106.801 51.8593 107.12 51.8414 107.447C51.8173 107.449 51.7961 107.481 51.7778 107.543C51.7815 107.584 51.7584 107.595 51.7085 107.578C51.7122 107.619 51.7261 107.638 51.7502 107.637C51.7982 107.633 51.8242 107.652 51.8279 107.693C51.6973 108.109 51.612 108.492 51.5719 108.841C51.5299 109.17 51.5037 109.538 51.4933 109.947C51.5749 110.043 51.6628 110.078 51.757 110.052C51.8494 110.005 51.9437 109.978 52.0398 109.972C52.1878 110.003 52.3247 110.045 52.4505 110.098C52.5763 110.15 52.7234 110.171 52.8916 110.16C52.9878 110.154 53.071 110.138 53.1412 110.113C53.2095 110.068 53.2826 110.073 53.3603 110.129C53.4122 110.167 53.4372 110.175 53.4353 110.155C53.4334 110.135 53.4565 110.123 53.5046 110.12C53.736 110.268 54.0145 110.402 54.3401 110.523C54.6658 110.644 54.9361 110.82 55.1509 111.051C55.1066 111.094 55.1003 111.156 55.1318 111.235C55.1615 111.294 55.1903 111.344 55.2181 111.382C55.2218 111.423 55.2256 111.464 55.2294 111.504C55.2331 111.545 55.223 111.566 55.199 111.567C55.2268 111.606 55.2555 111.655 55.2852 111.714C55.3149 111.774 55.3917 111.819 55.5156 111.852C55.5194 111.893 55.4991 111.935 55.4548 111.978C55.4086 112.002 55.3634 112.035 55.3191 112.079C55.3785 112.197 55.41 112.277 55.4138 112.317C55.4397 112.336 55.4685 112.385 55.5 112.465C55.4039 112.471 55.3725 112.524 55.406 112.624C55.4616 112.702 55.4423 112.754 55.348 112.78L55.3734 113.054C55.3532 113.096 55.3449 113.137 55.3487 113.178C55.3506 113.198 55.3303 113.24 55.2879 113.304C54.9627 113.448 54.6226 113.562 54.2677 113.647C53.9109 113.711 53.5431 113.786 53.1642 113.873C52.7834 113.938 52.3915 114.015 51.9885 114.103C51.5855 114.191 51.1734 114.31 50.752 114.46C50.7318 114.502 50.7115 114.544 50.6912 114.586C50.6691 114.608 50.6728 114.649 50.7025 114.708C50.5343 114.719 50.4501 114.724 50.4501 114.724C50.4077 114.788 50.3773 114.852 50.3589 114.914C50.3646 114.975 50.3342 115.038 50.2677 115.103C50.2795 115.49 50.2099 115.912 50.0591 116.371C49.9082 116.829 49.7406 117.238 49.5563 117.597C49.4489 117.481 49.4218 117.32 49.4751 117.113C49.5264 116.885 49.4763 116.735 49.3245 116.664C49.2675 116.831 49.2345 116.996 49.2255 117.16C49.2387 117.302 49.2528 117.453 49.2679 117.616C49.2198 117.619 49.1958 117.62 49.1958 117.62C49.1477 117.623 49.1347 117.614 49.1569 117.592C49.179 117.57 49.1753 117.53 49.1456 117.471C49.0089 117.561 48.986 117.706 49.077 117.903C48.9846 117.95 48.9292 118.005 48.9108 118.067C48.8924 118.13 48.8741 118.192 48.8557 118.254C48.8632 118.335 48.8458 118.408 48.8033 118.472C48.7868 118.554 48.7314 118.609 48.6372 118.636C48.6315 118.575 48.6129 118.505 48.5814 118.425C48.5757 118.365 48.5368 118.337 48.4647 118.341C48.5293 118.255 48.5227 118.185 48.4449 118.129C48.3285 118.177 48.2501 118.243 48.2095 118.328C48.1709 118.432 48.1322 118.537 48.0935 118.641C48.0808 118.764 48.0542 118.868 48.0136 118.952C47.975 119.057 47.9104 119.142 47.8199 119.209C47.7643 119.132 47.7299 119.022 47.7167 118.88C47.7035 118.738 47.6922 118.617 47.6828 118.515C47.6145 118.561 47.598 118.643 47.6333 118.763C47.6687 118.883 47.6512 118.956 47.581 118.981C47.5348 119.004 47.4978 118.996 47.47 118.957C47.4662 118.917 47.4403 118.898 47.3922 118.901C47.3479 118.945 47.3036 118.989 47.2593 119.032C47.2409 119.095 47.2355 119.166 47.243 119.248C47.1507 119.294 47.0906 119.298 47.0628 119.259C47.0368 119.241 46.9999 119.233 46.9518 119.236C46.9424 119.135 46.9339 119.044 46.9264 118.963C46.9447 118.9 46.9502 118.829 46.9426 118.748C46.9408 118.727 46.9278 118.718 46.9038 118.72C46.9056 118.74 46.9056 118.74 46.9038 118.72C46.8732 118.13 46.8353 117.593 46.7901 117.107C46.767 116.598 46.756 116.09 46.757 115.58C46.2061 115.637 45.5359 115.711 44.7465 115.804C43.957 115.897 43.2897 116.003 42.7444 116.12C42.6741 116.145 42.6289 116.179 42.6086 116.221C42.6124 116.261 42.5921 116.303 42.5478 116.347C42.4979 116.33 42.483 116.3 42.5033 116.258C42.5236 116.216 42.5097 116.197 42.4616 116.2C42.4654 116.24 42.4293 116.243 42.3534 116.207C42.2757 116.151 42.2415 116.174 42.2509 116.275C41.7683 116.286 41.3034 116.358 40.8561 116.489C40.4069 116.601 39.9439 116.692 39.4669 116.765C39.3265 116.815 39.1721 116.845 39.0039 116.856C38.8337 116.847 38.6942 116.907 38.5854 117.037C38.4633 117.025 38.3782 117.02 38.3301 117.023C38.3042 117.004 38.2672 116.997 38.2192 117C37.3811 117.871 36.5921 118.748 35.8521 119.633C35.1121 120.518 34.3063 121.345 33.4348 122.116C33.3368 122.102 33.2416 122.119 33.1492 122.166C33.0347 122.235 32.9442 122.302 32.8777 122.367C32.7538 122.335 32.6235 122.364 32.4868 122.454C32.352 122.565 32.1847 122.586 31.9848 122.518C31.8444 122.568 31.765 122.624 31.7466 122.686C31.6208 122.634 31.4987 122.621 31.3804 122.65C31.2381 122.679 31.141 122.676 31.0891 122.638C31.1353 122.615 31.1704 122.602 31.1945 122.601C31.2185 122.599 31.2536 122.587 31.2998 122.563ZM46.0724 110.947C46.063 110.846 46.0944 110.793 46.1665 110.788C46.2607 110.761 46.3392 110.695 46.4019 110.589C46.4575 110.667 46.5195 110.683 46.5878 110.638C46.6802 110.591 46.7504 110.566 46.7985 110.563C46.7745 109.525 46.8053 108.554 46.8907 107.652C46.9761 106.749 47.0355 105.828 47.0691 104.888C46.6354 105.426 46.2536 106.002 45.9237 106.615C45.6159 107.206 45.2312 107.751 44.7698 108.25C44.4676 108.902 44.1127 109.507 43.705 110.064C43.2972 110.621 42.8895 111.177 42.4818 111.734L42.4959 111.886C43.1058 111.683 43.6973 111.542 44.2704 111.463C44.8416 111.365 45.4423 111.192 46.0724 110.947Z" fill="url(#paint4_linear_2311_1905)"/>
<path d="M54.1529 113.868C54.1741 113.317 54.2953 112.799 54.5164 112.316C54.7375 111.832 54.9974 111.377 55.2963 110.949C55.6191 110.52 55.967 110.1 56.3398 109.688C56.7127 109.276 57.0845 108.854 57.4555 108.422C57.5036 108.419 57.5396 108.416 57.5637 108.415C57.5858 108.393 57.6329 108.379 57.705 108.375C57.7767 108.105 57.9391 107.901 58.1922 107.762C58.4453 107.622 58.6187 107.407 58.7126 107.116C58.9086 107.143 59.0361 107.084 59.095 106.937C59.1761 106.769 59.3128 106.678 59.5051 106.666C59.7469 106.405 59.9915 106.175 60.2389 105.975C60.4845 105.755 60.743 105.544 61.0145 105.343C61.0626 105.34 61.0727 105.319 61.0449 105.28C61.0412 105.239 61.0513 105.218 61.0753 105.217C61.2526 105.042 61.4206 104.898 61.5794 104.786C61.7623 104.672 61.9562 104.547 62.1613 104.411C62.503 104.185 62.8169 103.919 63.103 103.615C63.3891 103.311 63.727 103.044 64.1168 102.814C64.163 102.791 64.2222 102.777 64.2943 102.772C64.3645 102.747 64.4217 102.713 64.4661 102.669C64.5344 102.624 64.5888 102.559 64.6294 102.475C64.694 102.389 64.7604 102.323 64.8288 102.278C64.849 102.236 64.8721 102.224 64.898 102.243C64.9461 102.24 64.9812 102.227 65.0034 102.205C65.0717 102.16 65.116 102.116 65.1363 102.074C65.1787 102.01 65.2221 101.957 65.2664 101.913C65.3107 101.869 65.368 101.835 65.4382 101.81C65.5084 101.785 65.5777 101.75 65.646 101.704C65.9397 101.481 66.2472 101.277 66.5686 101.093C66.9141 100.907 67.2568 100.691 67.5966 100.444C67.7074 100.335 67.807 100.237 67.8957 100.149C68.0083 100.06 68.121 99.9713 68.2336 99.8823C68.3684 99.7715 68.5522 99.6676 68.785 99.5707C69.0179 99.4738 69.2248 99.3582 69.4058 99.2239C69.4685 99.1179 69.558 99.0406 69.6744 98.9922C69.8149 98.9421 69.9044 98.8649 69.9431 98.7604C70.0595 98.7119 70.1889 98.6728 70.3312 98.643C70.4717 98.593 70.6112 98.5328 70.7497 98.4625C70.8864 98.3719 70.975 98.2845 71.0156 98.2003C71.4388 98.0705 71.7852 97.8947 72.0548 97.673C72.3244 97.4514 72.6569 97.2562 73.0524 97.0874C73.0486 97.0468 73.0578 97.0157 73.0799 96.9938C73.1243 96.9501 73.1195 96.8995 73.0658 96.8419C73.465 96.7136 73.818 96.6087 74.1249 96.5273C74.4317 96.4459 74.7644 96.3832 75.1231 96.3391C75.6264 96.5505 76.2183 96.6744 76.8989 96.711C77.5775 96.7274 78.1676 96.8311 78.669 97.0222C78.7449 97.058 78.8031 97.0337 78.8436 96.9495C79.0251 97.0802 79.2628 97.1664 79.5569 97.2082C79.851 97.2499 80.0749 97.3167 80.2285 97.4084C80.6248 97.7696 81.0322 98.1198 81.4507 98.459C81.8692 98.7983 82.2655 99.1595 82.6397 99.5424C82.5954 99.5861 82.589 99.6477 82.6206 99.7272C82.6762 99.805 82.7299 99.8626 82.7817 99.9C82.7859 100.205 82.7623 100.472 82.711 100.7C82.6596 100.927 82.5952 101.146 82.5179 101.354C82.4406 101.563 82.3512 101.773 82.2499 101.984C82.1707 102.172 82.1073 102.401 82.0597 102.669C81.9654 102.696 81.9091 102.74 81.8907 102.802C81.8963 102.863 81.8909 102.935 81.8744 103.018C81.8263 103.021 81.7912 103.033 81.7691 103.055C81.771 103.075 81.7479 103.087 81.6998 103.09C81.7516 103.128 81.7545 103.158 81.7083 103.181C81.6621 103.205 81.664 103.225 81.7139 103.242C81.2341 103.804 80.8061 104.403 80.43 105.039C80.0538 105.676 79.6018 106.276 79.0739 106.841C79.0814 106.922 79.063 106.984 79.0187 107.028C78.9725 107.052 78.9541 107.114 78.9636 107.215C78.8047 107.328 78.6718 107.459 78.5648 107.609C78.4559 107.738 78.323 107.869 78.166 108.002C77.863 108.124 77.5229 108.238 77.1459 108.344C76.767 108.431 76.414 108.535 76.0869 108.659C76.0793 108.578 76.0275 108.541 75.9314 108.547C75.8592 108.552 75.7501 108.549 75.604 108.538C75.5484 108.46 75.4818 108.393 75.404 108.337C75.3262 108.281 75.2263 108.247 75.1043 108.235C75.1151 108.091 75.0697 107.992 74.9679 107.938C74.8661 107.883 74.7421 107.851 74.596 107.84C74.4721 107.807 74.3481 107.775 74.2242 107.742C74.1243 107.708 74.0687 107.63 74.0574 107.509C74.0517 107.448 73.9888 107.422 73.8686 107.429C73.7461 107.152 73.7197 106.869 73.7895 106.579C73.8593 106.289 73.8791 105.981 73.849 105.657C73.8245 105.394 73.7889 105.141 73.7423 104.9C73.7197 104.657 73.7702 104.419 73.8937 104.187C73.8677 104.168 73.8501 104.108 73.8407 104.007C73.4212 104.177 73.0194 104.408 72.6353 104.698C72.4948 104.748 72.3793 104.807 72.2888 104.874C72.2205 104.919 72.154 104.984 72.0895 105.07C71.6295 105.325 71.1954 105.598 70.7872 105.89C70.4031 106.18 70.0069 106.472 69.5988 106.764C69.3937 106.899 69.1767 107.036 68.9476 107.174C68.7407 107.289 68.5347 107.415 68.3297 107.551C67.9197 107.822 67.5125 108.124 67.108 108.457C66.7036 108.789 66.2863 109.113 65.856 109.426C65.6085 109.626 65.3361 109.817 65.0387 110C64.7634 110.161 64.5021 110.341 64.2546 110.541C64.0958 110.653 63.9509 110.785 63.8198 110.937C63.711 111.066 63.5771 111.187 63.4183 111.3C63.241 111.474 63.0711 111.598 62.9085 111.67C62.77 111.74 62.711 111.886 62.7317 112.109C62.6578 112.094 62.6106 112.107 62.5904 112.149C62.5701 112.191 62.522 112.195 62.4461 112.159C62.0031 112.596 61.5739 113.052 61.1587 113.528C60.7434 114.004 60.3411 114.489 59.9518 114.984C60.0757 115.016 60.1886 115.06 60.2904 115.114C60.4162 115.167 60.5623 115.178 60.7287 115.146C60.8729 115.137 60.9912 115.109 61.0836 115.062C61.1981 114.993 61.3294 114.974 61.4774 115.005C61.5254 115.002 61.5513 115.021 61.5551 115.061C61.557 115.081 61.582 115.09 61.6301 115.087C61.8002 115.096 61.9675 115.075 62.132 115.023C62.3205 114.97 62.5109 114.937 62.7032 114.924C62.7734 114.899 62.8455 114.894 62.9195 114.91C62.9935 114.925 63.0666 114.931 63.1387 114.926C63.4474 114.865 63.7431 114.794 64.0259 114.715C64.3308 114.613 64.6275 114.553 64.916 114.534C65.0361 114.526 65.1332 114.529 65.2072 114.545C65.3052 114.559 65.3736 114.513 65.4122 114.409C65.819 114.362 66.233 114.263 66.6544 114.113C67.0757 113.963 67.4537 113.866 67.7883 113.824C67.8364 113.821 67.8715 113.808 67.8937 113.786C67.9139 113.744 67.9472 113.712 67.9933 113.688C68.3982 113.621 68.754 113.546 69.0609 113.465C69.3898 113.362 69.7289 113.237 70.0782 113.092C71.3832 112.822 72.5652 112.53 73.6243 112.216C74.7054 111.879 75.8505 111.579 77.0594 111.316C77.7857 111.064 78.4566 110.867 79.0721 110.724C79.6857 110.562 80.4066 110.381 81.2347 110.184C81.8186 109.962 82.5006 109.754 83.2806 109.56C84.0847 109.364 84.7417 109.147 85.2516 108.91C85.59 108.908 85.9237 108.855 86.2527 108.752C86.5798 108.628 86.9078 108.515 87.2368 108.412C87.3126 108.448 87.3654 108.495 87.3951 108.554C87.4488 108.612 87.5016 108.659 87.5534 108.697C87.4224 108.848 87.2626 108.95 87.0741 109.003C86.8856 109.057 86.7776 109.196 86.7503 109.422C86.558 109.435 86.4204 109.515 86.3374 109.664C86.2544 109.812 86.1336 109.942 85.9747 110.055C85.8583 110.103 85.7419 110.151 85.6255 110.2C85.5072 110.228 85.3898 110.266 85.2734 110.315C85.0443 110.452 84.8153 110.59 84.5862 110.727C84.3793 110.843 84.1724 110.958 83.9655 111.074C83.9693 111.114 83.973 111.155 83.9768 111.195C84.0046 111.234 84.0204 111.274 84.0241 111.315C83.9318 111.362 83.8384 111.398 83.7442 111.425C83.6499 111.451 83.6315 111.514 83.689 111.612C83.4284 111.67 83.3056 111.78 83.3207 111.942C82.7311 112.103 82.2228 112.229 81.7958 112.318C81.3688 112.407 80.9512 112.598 80.543 112.89C80.0533 113.085 79.5636 113.281 79.0739 113.476C78.5824 113.651 78.1306 113.865 77.7187 114.116C77.7262 114.197 77.7872 114.203 77.9018 114.135C77.889 114.258 77.8355 114.333 77.7413 114.359C77.6692 114.364 77.5822 114.339 77.4804 114.285C77.0223 114.56 76.4633 114.79 75.8035 114.976C75.1437 115.163 74.5505 115.416 74.0241 115.736C73.8318 115.749 73.6183 115.793 73.3836 115.87C73.1729 115.945 72.9761 116.04 72.7932 116.154C72.7527 116.238 72.7685 116.278 72.8406 116.273C72.9108 116.248 72.9367 116.266 72.9184 116.329C72.8797 116.433 72.8373 116.497 72.7911 116.521C72.743 116.524 72.6598 116.54 72.5415 116.568C72.418 116.8 72.2241 116.925 71.9597 116.943C71.6953 116.96 71.4874 117.065 71.3361 117.259C71.0533 117.339 70.7225 117.422 70.3436 117.508C69.9887 117.592 69.7115 117.733 69.5122 117.93C69.392 117.938 69.3189 117.932 69.293 117.914C68.9291 118.162 68.4376 118.337 67.8183 118.439C67.223 118.54 66.7074 118.716 66.2714 118.969C65.9755 118.907 65.7057 118.996 65.462 119.237C65.1292 119.3 64.7734 119.374 64.3945 119.46C64.0396 119.545 63.6727 119.63 63.2937 119.716C62.9389 119.801 62.558 119.867 62.1513 119.914C61.7686 119.96 61.3951 119.974 61.0308 119.958C60.9549 119.922 60.9189 119.924 60.9226 119.965C60.9283 120.025 60.9061 120.047 60.8562 120.03C60.5121 119.971 60.1801 119.912 59.8601 119.851C59.566 119.81 59.2701 119.748 58.9722 119.665C58.7003 119.602 58.4366 119.497 58.1812 119.351C57.9517 119.223 57.7406 119.033 57.5478 118.781C57.496 118.744 57.459 118.736 57.4368 118.758C57.4406 118.798 57.4175 118.81 57.3676 118.793C57.0141 118.633 56.7141 118.398 56.4677 118.088C56.2231 117.798 55.9453 117.541 55.6343 117.317C55.6376 117.093 55.5726 116.914 55.4392 116.78C55.304 116.626 55.1383 116.535 54.9423 116.507C54.9715 116.301 54.9637 116.088 54.919 115.866C54.8502 115.647 54.7814 115.427 54.7126 115.207C54.642 114.967 54.5722 114.738 54.5034 114.518C54.4328 114.278 54.401 114.066 54.4081 113.882C54.3562 113.845 54.3202 113.847 54.2999 113.889C54.2537 113.913 54.2047 113.906 54.1529 113.868Z" fill="url(#paint5_linear_2311_1905)"/>
<path d="M82.9187 111.969C82.94 111.417 83.0612 110.899 83.2822 110.416C83.5033 109.932 83.7633 109.477 84.0621 109.05C84.385 108.62 84.7329 108.2 85.1057 107.788C85.4785 107.376 85.8504 106.954 86.2214 106.522C86.2694 106.519 86.3055 106.516 86.3295 106.515C86.3517 106.493 86.3988 106.48 86.4709 106.475C86.5426 106.205 86.705 106.001 86.9581 105.862C87.2112 105.723 87.3846 105.507 87.4784 105.216C87.6745 105.244 87.802 105.184 87.8609 105.038C87.942 104.869 88.0787 104.779 88.271 104.766C88.5127 104.505 88.7574 104.275 89.0048 104.075C89.2504 103.855 89.5089 103.645 89.7804 103.443C89.8285 103.44 89.8386 103.419 89.8108 103.38C89.807 103.34 89.8172 103.319 89.8412 103.317C90.0184 103.142 90.1865 102.999 90.3453 102.886C90.5282 102.772 90.7221 102.647 90.9271 102.511C91.2689 102.285 91.5827 102.02 91.8689 101.715C92.155 101.411 92.4929 101.144 92.8827 100.915C92.9289 100.891 92.988 100.877 93.0601 100.872C93.1304 100.847 93.1876 100.813 93.2319 100.769C93.3003 100.724 93.3547 100.659 93.3952 100.575C93.4598 100.489 93.5263 100.424 93.5946 100.378C93.6149 100.336 93.638 100.325 93.6639 100.343C93.712 100.34 93.7471 100.328 93.7692 100.306C93.8376 100.26 93.8819 100.217 93.9022 100.175C93.9446 100.111 93.9879 100.057 94.0322 100.013C94.0766 99.9694 94.1338 99.9351 94.2041 99.91C94.2743 99.885 94.3436 99.8499 94.4119 99.8046C94.7055 99.5813 95.0131 99.3776 95.3345 99.1933C95.68 99.0074 96.0226 98.7911 96.3625 98.5444C96.4732 98.4352 96.5729 98.3369 96.6615 98.2495C96.7742 98.1605 96.8868 98.0715 96.9995 97.9826C97.1343 97.8717 97.3181 97.7679 97.5509 97.6709C97.7837 97.574 97.9907 97.4584 98.1716 97.3242C98.2343 97.2181 98.3239 97.1409 98.4403 97.0924C98.5808 97.0424 98.6703 96.9651 98.709 96.8606C98.8254 96.8122 98.9548 96.7731 99.0971 96.7433C99.2375 96.6932 99.377 96.6331 99.5156 96.5627C99.6523 96.4722 99.7409 96.3848 99.7814 96.3006C100.205 96.1707 100.551 95.9949 100.821 95.7733C101.09 95.5516 101.423 95.3564 101.818 95.1876C101.814 95.1471 101.824 95.1159 101.846 95.0941C101.89 95.0504 101.885 94.9997 101.832 94.9421C102.231 94.8138 102.584 94.709 102.891 94.6276C103.198 94.5462 103.53 94.4834 103.889 94.4393C104.392 94.6507 104.984 94.7747 105.665 94.8113C106.343 94.8276 106.933 94.9313 107.435 95.1224C107.511 95.1582 107.569 95.134 107.61 95.0498C107.791 95.1805 108.029 95.2667 108.323 95.3084C108.617 95.3502 108.841 95.4169 108.994 95.5087C109.391 95.8698 109.798 96.22 110.217 96.5593C110.635 96.8986 111.031 97.2597 111.406 97.6427C111.361 97.6864 111.355 97.7479 111.386 97.8274C111.442 97.9053 111.496 97.9629 111.548 98.0002C111.552 98.3057 111.528 98.5723 111.477 98.7999C111.425 99.0275 111.361 99.2458 111.284 99.4547C111.206 99.6637 111.117 99.8734 111.016 100.084C110.937 100.273 110.873 100.501 110.826 100.769C110.731 100.796 110.675 100.84 110.657 100.903C110.662 100.963 110.657 101.035 110.64 101.118C110.592 101.121 110.557 101.133 110.535 101.155C110.537 101.176 110.514 101.187 110.466 101.19C110.518 101.228 110.52 101.258 110.474 101.282C110.428 101.305 110.43 101.325 110.48 101.342C110 101.904 109.572 102.503 109.196 103.139C108.82 103.776 108.368 104.376 107.84 104.941C107.847 105.022 107.829 105.085 107.785 105.128C107.738 105.152 107.72 105.214 107.729 105.316C107.571 105.428 107.438 105.559 107.331 105.709C107.222 105.838 107.089 105.969 106.932 106.102C106.629 106.224 106.289 106.338 105.912 106.445C105.533 106.531 105.18 106.636 104.853 106.759C104.845 106.678 104.793 106.641 104.697 106.647C104.625 106.652 104.516 106.649 104.37 106.638C104.314 106.56 104.248 106.493 104.17 106.437C104.092 106.381 103.992 106.347 103.87 106.335C103.881 106.191 103.836 106.093 103.734 106.038C103.632 105.984 103.508 105.951 103.362 105.94C103.238 105.908 103.114 105.875 102.99 105.843C102.89 105.808 102.835 105.731 102.823 105.609C102.818 105.548 102.755 105.522 102.634 105.53C102.512 105.252 102.486 104.969 102.555 104.679C102.625 104.389 102.645 104.082 102.615 103.758C102.59 103.494 102.555 103.242 102.508 103C102.486 102.757 102.536 102.519 102.66 102.287C102.634 102.268 102.616 102.208 102.607 102.107C102.187 102.277 101.785 102.508 101.401 102.798C101.261 102.848 101.145 102.907 101.055 102.974C100.986 103.019 100.92 103.085 100.855 103.171C100.395 103.425 99.9612 103.698 99.5531 103.99C99.1689 104.281 98.7728 104.572 98.3646 104.864C98.1596 105 97.9426 105.136 97.7135 105.274C97.5066 105.389 97.3006 105.515 97.0956 105.651C96.6855 105.923 96.2783 106.225 95.8739 106.557C95.4695 106.89 95.0522 107.213 94.6218 107.527C94.3744 107.726 94.102 107.918 93.8046 108.1C93.5293 108.261 93.268 108.442 93.0205 108.641C92.8617 108.754 92.7167 108.886 92.5857 109.037C92.4768 109.166 92.343 109.287 92.1841 109.4C92.0069 109.575 91.837 109.698 91.6744 109.77C91.5358 109.84 91.4769 109.987 91.4976 110.21C91.4236 110.194 91.3765 110.207 91.3562 110.249C91.336 110.292 91.2879 110.295 91.212 110.259C90.769 110.696 90.3398 111.152 89.9245 111.628C89.5093 112.104 89.107 112.589 88.7177 113.084C88.8416 113.116 88.9545 113.16 89.0563 113.214C89.1821 113.267 89.3282 113.278 89.4946 113.247C89.6388 113.237 89.7571 113.209 89.8495 113.162C89.964 113.093 90.0953 113.074 90.2432 113.105C90.2913 113.102 90.3172 113.121 90.321 113.161C90.3229 113.182 90.3479 113.19 90.3959 113.187C90.5661 113.196 90.7334 113.175 90.8979 113.123C91.0864 113.07 91.2768 113.037 91.4691 113.025C91.5393 112.999 91.6114 112.995 91.6854 113.01C91.7594 113.026 91.8324 113.031 91.9045 113.026C92.2132 112.965 92.509 112.895 92.7918 112.815C93.0967 112.713 93.3934 112.653 93.6818 112.634C93.802 112.626 93.8991 112.63 93.9731 112.645C94.0711 112.659 94.1395 112.614 94.1781 112.509C94.5848 112.462 94.9989 112.363 95.4202 112.213C95.8416 112.063 96.2196 111.967 96.5542 111.924C96.6023 111.921 96.6374 111.909 96.6595 111.887C96.6798 111.845 96.713 111.812 96.7592 111.788C97.1641 111.721 97.5199 111.646 97.8267 111.565C98.1557 111.462 98.4948 111.337 98.844 111.192C100.149 110.922 101.331 110.63 102.39 110.316C103.471 109.979 104.616 109.68 105.825 109.416C106.552 109.164 107.222 108.967 107.838 108.825C108.452 108.662 109.172 108.482 110.001 108.284C110.584 108.062 111.266 107.854 112.046 107.66C112.851 107.464 113.508 107.248 114.017 107.01C114.356 107.008 114.69 106.955 115.019 106.852C115.346 106.729 115.674 106.615 116.003 106.512C116.079 106.548 116.131 106.595 116.161 106.654C116.215 106.712 116.267 106.76 116.319 106.797C116.188 106.948 116.028 107.051 115.84 107.104C115.651 107.157 115.544 107.297 115.516 107.523C115.324 107.535 115.186 107.616 115.103 107.764C115.02 107.912 114.899 108.042 114.741 108.155C114.624 108.203 114.508 108.252 114.391 108.3C114.273 108.328 114.156 108.367 114.039 108.415C113.81 108.553 113.581 108.69 113.352 108.827C113.145 108.943 112.938 109.059 112.731 109.174C112.735 109.215 112.739 109.255 112.743 109.296C112.77 109.335 112.786 109.374 112.79 109.415C112.698 109.462 112.604 109.499 112.51 109.525C112.416 109.552 112.397 109.614 112.455 109.712C112.194 109.77 112.071 109.88 112.087 110.042C111.497 110.204 110.989 110.329 110.562 110.418C110.135 110.508 109.717 110.698 109.309 110.99C108.819 111.186 108.33 111.381 107.84 111.576C107.348 111.752 106.896 111.965 106.485 112.216C106.492 112.297 106.553 112.304 106.668 112.235C106.655 112.358 106.601 112.433 106.507 112.459C106.435 112.464 106.348 112.439 106.246 112.385C105.788 112.66 105.229 112.89 104.569 113.077C103.91 113.263 103.316 113.516 102.79 113.836C102.598 113.849 102.384 113.894 102.149 113.97C101.939 114.045 101.742 114.14 101.559 114.254C101.519 114.338 101.534 114.378 101.606 114.373C101.677 114.348 101.703 114.367 101.684 114.429C101.646 114.534 101.603 114.598 101.557 114.621C101.509 114.624 101.426 114.64 101.307 114.668C101.184 114.9 100.99 115.025 100.726 115.043C100.461 115.06 100.253 115.166 100.102 115.359C99.8192 115.439 99.4884 115.522 99.1094 115.608C98.7545 115.693 98.4774 115.833 98.278 116.03C98.1579 116.038 98.0848 116.033 98.0589 116.014C97.695 116.262 97.2035 116.437 96.5842 116.539C95.9889 116.64 95.4733 116.817 95.0373 117.07C94.7414 117.008 94.4715 117.097 94.2278 117.337C93.8951 117.4 93.5393 117.474 93.1604 117.56C92.8055 117.645 92.4385 117.73 92.0596 117.817C91.7047 117.901 91.3239 117.967 90.9172 118.014C90.5345 118.06 90.161 118.074 89.7967 118.058C89.7208 118.022 89.6848 118.024 89.6885 118.065C89.6942 118.126 89.672 118.148 89.6221 118.13C89.278 118.072 88.946 118.012 88.626 117.952C88.3319 117.91 88.0359 117.848 87.7381 117.766C87.4662 117.702 87.2025 117.597 86.9471 117.451C86.7176 117.323 86.5064 117.134 86.3137 116.881C86.2619 116.844 86.2249 116.836 86.2027 116.858C86.2065 116.899 86.1834 116.91 86.1334 116.893C85.78 116.733 85.48 116.498 85.2336 116.188C84.989 115.899 84.7112 115.642 84.4002 115.418C84.4035 115.193 84.3384 115.014 84.2051 114.88C84.0698 114.726 83.9042 114.635 83.7081 114.607C83.7374 114.401 83.7296 114.188 83.6849 113.967C83.6161 113.747 83.5473 113.527 83.4785 113.308C83.4078 113.068 83.3381 112.838 83.2693 112.618C83.1986 112.378 83.1668 112.166 83.1739 111.982C83.1221 111.945 83.086 111.947 83.0658 111.989C83.0196 112.013 82.9706 112.006 82.9187 111.969Z" fill="url(#paint6_linear_2311_1905)"/>
<path d="M124.834 93.0867C124.856 93.0648 124.892 93.0624 124.942 93.0795C125.014 93.0748 125.048 93.0521 125.045 93.0116C125.039 92.9508 125.023 92.9111 124.997 92.8924C124.993 92.8519 125.002 92.8106 125.022 92.7685C125.046 92.7669 125.059 92.7762 125.061 92.7965C125.085 92.7949 125.109 92.7933 125.133 92.7917C125.22 92.6841 125.292 92.557 125.351 92.4104C125.434 92.2622 125.494 92.1258 125.531 92.001C125.622 91.9339 125.7 91.8676 125.766 91.802C125.831 91.7162 125.856 91.5923 125.841 91.4302C126.041 91.4985 126.197 91.4882 126.309 91.3992C126.42 91.29 126.551 91.2711 126.703 91.3427C126.749 91.3192 126.747 91.299 126.698 91.2819C126.67 91.243 126.679 91.2118 126.725 91.1883C126.807 91.2849 126.895 91.33 126.992 91.3236C127.112 91.3157 127.204 91.4013 127.269 91.5805C127.386 91.532 127.47 91.5264 127.522 91.5638C127.596 91.5793 127.682 91.594 127.78 91.6079C127.761 91.6703 127.766 91.7209 127.794 91.7599C127.82 91.7785 127.846 91.7972 127.872 91.8159C127.922 91.833 127.961 91.861 127.988 91.8999C128.014 91.9186 128.019 91.9692 128.002 92.0518C128.125 92.0642 128.245 92.0562 128.363 92.028C128.419 92.1059 128.466 92.2251 128.505 92.3856C128.566 92.5242 128.592 92.6652 128.581 92.8086C128.664 92.9254 128.736 93.0532 128.798 93.1918C128.883 93.3289 128.933 93.4784 128.948 93.6405C129.052 93.7152 129.105 93.7627 129.107 93.7829C129.11 93.8235 129.087 93.8352 129.037 93.8181C128.985 93.7807 128.987 93.801 129.043 93.8789C129.176 94.0128 129.327 94.0741 129.495 94.063C129.662 94.0317 129.805 94.012 129.925 94.0041C130.334 93.9771 130.683 93.9642 130.974 93.9654C131.286 93.9448 131.586 93.9148 131.872 93.8755C132.085 93.8207 132.299 93.7861 132.515 93.7718C132.73 93.7373 132.924 93.7449 133.098 93.7945C133.368 93.8379 133.634 93.8407 133.897 93.8029C134.183 93.7636 134.473 93.7547 134.765 93.7762C134.948 93.6622 135.139 93.6393 135.339 93.7077C135.563 93.7744 135.805 93.7788 136.066 93.7208C136.086 93.6787 136.097 93.6678 136.099 93.6881C136.123 93.6865 136.157 93.6638 136.201 93.6202C136.595 93.6961 137.044 93.7072 137.547 93.6536C137.674 93.7267 137.811 93.7686 137.957 93.7794C138.126 93.7683 138.308 93.7766 138.504 93.8044C138.77 93.8072 139.052 93.8498 139.35 93.932C139.646 93.994 139.924 93.996 140.185 93.938C140.289 94.0127 140.402 94.0663 140.526 94.0989C140.674 94.1299 140.807 94.1212 140.923 94.0727C141.029 94.1677 141.156 94.2408 141.306 94.292C141.456 94.3433 141.594 94.3954 141.72 94.4482C141.868 94.4792 142.006 94.5312 142.133 94.6043C142.283 94.6556 142.424 94.738 142.555 94.8517C142.583 94.8906 142.606 94.8789 142.625 94.8165C142.641 94.7339 142.666 94.7424 142.7 94.8421C143.059 95.063 143.373 95.3276 143.644 95.6359C143.913 95.9239 144.216 96.1994 144.555 96.4625C144.563 96.5435 144.582 96.6237 144.614 96.7032C144.645 96.7826 144.698 96.8301 144.772 96.8456C144.711 96.9719 144.701 97.1255 144.742 97.3062C144.781 97.4667 144.786 97.6498 144.757 97.8556C144.737 97.8977 144.716 97.9297 144.693 97.9516C144.695 97.9718 144.686 98.003 144.666 98.0451C144.668 98.0654 144.671 98.0958 144.674 98.1363C144.7 98.1549 144.714 98.1744 144.716 98.1947C144.72 98.2352 144.7 98.2773 144.655 98.321C144.609 98.3444 144.565 98.3881 144.522 98.4521C144.445 98.661 144.346 98.8918 144.224 99.1445C144.126 99.3955 144.013 99.6069 143.884 99.7785C143.862 99.8003 143.804 99.8245 143.709 99.8511C143.547 99.923 143.413 100.044 143.308 100.214C143.201 100.364 143.056 100.496 142.873 100.61C142.806 100.675 142.703 100.733 142.562 100.783C142.376 100.857 142.224 100.917 142.108 100.966C141.992 101.014 141.839 101.065 141.651 101.118C141.405 101.338 141.117 101.49 140.786 101.573C140.453 101.636 140.166 101.797 139.924 102.058C139.894 101.999 139.831 101.972 139.735 101.979C139.554 102.113 139.346 102.208 139.109 102.265C138.896 102.32 138.663 102.406 138.408 102.525C138.293 102.594 138.192 102.672 138.103 102.759C138.036 102.825 137.945 102.882 137.829 102.93C137.636 102.943 137.505 102.962 137.435 102.987C137.367 103.032 137.277 103.109 137.166 103.219C137.05 103.267 136.896 103.308 136.706 103.341C136.516 103.374 136.338 103.416 136.174 103.468C136.126 103.471 136.103 103.493 136.107 103.533C136.109 103.553 136.099 103.574 136.077 103.596C135.96 103.645 135.829 103.664 135.683 103.653C135.561 103.641 135.469 103.698 135.409 103.824C135.333 103.788 135.248 103.784 135.153 103.81C135.081 103.815 135.026 103.87 134.987 103.974C134.891 103.98 134.839 103.943 134.832 103.862C134.51 104.046 134.161 104.192 133.784 104.298C133.431 104.403 133.09 104.507 132.761 104.61C132.432 104.714 132.068 104.829 131.669 104.958C131.292 105.064 130.915 105.17 130.538 105.277C130.599 105.416 130.693 105.511 130.818 105.564C130.968 105.615 131.108 105.688 131.238 105.781C131.578 105.799 131.875 105.871 132.128 105.997C132.204 106.033 132.28 106.069 132.356 106.105C132.43 106.12 132.484 106.178 132.517 106.278C132.857 106.296 133.178 106.366 133.48 106.489C133.78 106.592 134.07 106.725 134.352 106.89C134.623 106.954 134.873 107.039 135.101 107.146C135.353 107.252 135.573 107.411 135.762 107.623C136.065 107.766 136.369 107.909 136.672 108.052C136.998 108.173 137.301 108.316 137.583 108.481C137.864 108.646 138.111 108.833 138.324 109.043C138.561 109.252 138.743 109.515 138.869 109.833C138.919 109.85 138.946 109.879 138.95 109.919C138.954 109.96 138.981 109.989 139.03 110.006C138.992 110.11 138.939 110.195 138.873 110.261C138.83 110.325 138.788 110.389 138.746 110.453C138.755 110.554 138.774 110.634 138.804 110.693C138.741 110.799 138.653 110.887 138.538 110.956C138.462 110.92 138.388 110.894 138.314 110.879C138.264 110.862 138.213 110.834 138.161 110.797C138.115 110.82 138.093 110.852 138.097 110.893C138.125 110.932 138.113 110.933 138.061 110.895C138.095 110.995 138.126 111.075 138.156 111.134C138.208 111.171 138.214 111.242 138.176 111.346C138.107 111.392 138.058 111.385 138.029 111.326C138.021 111.245 137.981 111.206 137.909 111.211C137.808 111.422 137.657 111.493 137.457 111.424C137.258 111.356 137.048 111.309 136.828 111.283C136.861 111.382 136.916 111.45 136.992 111.486C137.067 111.522 137.109 111.58 137.117 111.661C137.12 111.702 137.099 111.733 137.053 111.757C137.005 111.76 136.97 111.773 136.948 111.794C136.744 111.686 136.531 111.608 136.309 111.561C136.085 111.495 135.862 111.428 135.638 111.361C135.438 111.293 135.225 111.215 134.999 111.128C134.798 111.04 134.605 110.92 134.422 110.769C134.354 110.814 134.27 110.83 134.172 110.816C134.098 110.8 134.035 110.774 133.984 110.737C133.985 110.757 133.975 110.778 133.953 110.8C133.955 110.82 133.93 110.811 133.878 110.774C133.982 110.849 134.098 110.923 134.225 110.996C134.351 111.049 134.455 111.123 134.536 111.22C134.42 111.268 134.249 111.249 134.023 111.162C133.82 111.053 133.642 110.963 133.49 110.891L133.31 110.903C132.999 110.679 132.634 110.53 132.216 110.456C131.822 110.38 131.471 110.24 131.162 110.036C130.226 109.853 129.297 109.619 128.376 109.333C127.478 109.046 126.582 108.769 125.686 108.502C125.59 108.508 125.544 108.532 125.548 108.572C125.418 108.479 125.241 108.389 125.015 108.302C124.813 108.213 124.614 108.155 124.418 108.127C124.37 108.13 124.323 108.144 124.277 108.167C124.253 108.169 124.216 108.161 124.166 108.144L124.163 108.113L124.124 108.085C124.072 108.048 123.998 108.033 123.902 108.039C123.828 108.023 123.729 107.999 123.605 107.967C123.479 107.914 123.378 107.86 123.3 107.804C123.22 107.727 123.157 107.701 123.111 107.724C123.063 107.727 123.007 107.772 122.942 107.858C122.902 107.942 122.85 108.037 122.787 108.143C122.725 108.249 122.662 108.355 122.599 108.461C122.561 108.566 122.532 108.649 122.514 108.712C122.429 108.84 122.354 108.946 122.29 109.032C122.225 109.118 122.175 109.233 122.14 109.378C122.172 109.458 122.177 109.508 122.154 109.53C122.132 109.552 122.125 109.604 122.132 109.685C122.02 109.774 121.946 109.891 121.911 110.036C121.876 110.181 121.803 110.298 121.69 110.387C121.666 110.388 121.654 110.389 121.654 110.389C121.652 110.369 121.627 110.36 121.579 110.363C121.538 110.448 121.473 110.523 121.382 110.59C121.316 110.656 121.266 110.771 121.233 110.937C121.185 110.94 121.162 110.951 121.164 110.972C121.166 110.992 121.153 110.983 121.125 110.944C121.066 111.09 120.982 111.228 120.873 111.358C120.763 111.467 120.691 111.604 120.658 111.77C120.322 112.322 119.985 112.864 119.648 113.396C119.335 113.926 118.998 114.468 118.638 115.022L118.494 115.031C118.476 115.094 118.444 115.147 118.4 115.19C118.382 115.253 118.363 115.315 118.345 115.377C118.295 115.36 118.247 115.363 118.201 115.387C118.18 115.429 118.144 115.431 118.093 115.394C118.089 115.354 118.107 115.291 118.148 115.207C118.212 115.121 118.253 115.037 118.269 114.954C118.216 114.897 118.165 114.87 118.117 114.873C118.069 114.876 118.007 114.87 117.933 114.854C117.906 115.08 117.828 115.279 117.699 115.451C117.596 115.641 117.556 115.868 117.581 116.131C117.484 116.137 117.428 116.049 117.411 115.867C117.396 115.705 117.41 115.592 117.452 115.528C117.42 115.449 117.369 115.411 117.296 115.416C117.248 115.419 117.189 115.433 117.119 115.458C117.075 115.502 117.042 115.545 117.022 115.587C117.004 115.649 117.021 115.709 117.075 115.767C116.959 115.815 116.863 115.822 116.787 115.786C116.737 115.769 116.685 115.732 116.631 115.674C116.578 115.616 116.523 115.549 116.467 115.471C116.436 115.391 116.394 115.333 116.342 115.296C116.254 115.383 116.239 115.486 116.298 115.604C116.36 115.743 116.383 115.864 116.368 115.967C116.42 116.004 116.465 115.97 116.504 115.866C116.569 115.78 116.627 115.756 116.679 115.793C116.64 115.898 116.574 115.973 116.482 116.02C116.392 116.087 116.308 116.103 116.232 116.067C116.264 116.147 116.257 116.198 116.211 116.222C116.188 116.243 116.18 116.285 116.186 116.346C116.145 116.43 116.16 116.459 116.23 116.434C116.326 116.428 116.352 116.447 116.308 116.49C116.366 116.588 116.331 116.611 116.206 116.558C116.106 116.524 116.084 116.546 116.139 116.624C116.017 116.612 115.937 116.535 115.9 116.395C115.887 116.253 115.874 116.111 115.861 115.97C115.801 115.851 115.724 115.795 115.627 115.801C115.616 115.68 115.604 115.548 115.591 115.406C115.603 115.283 115.569 115.173 115.487 115.077C115.57 114.929 115.613 114.732 115.614 114.488C115.617 114.263 115.608 114.029 115.585 113.786C115.588 113.562 115.604 113.337 115.631 113.111C115.659 112.884 115.737 112.686 115.866 112.514C115.857 112.413 115.839 112.353 115.813 112.334C115.787 112.315 115.759 112.276 115.73 112.217C115.956 111.53 116.172 110.863 116.378 110.218C116.606 109.55 116.848 108.902 117.104 108.274C117.167 108.168 117.239 108.031 117.32 107.862C117.425 107.692 117.481 107.515 117.488 107.331C117.466 107.088 117.373 106.87 117.21 106.677C117.071 106.482 116.908 106.422 116.721 106.495C116.669 106.458 116.641 106.409 116.635 106.348C116.629 106.287 116.649 106.235 116.693 106.191C116.613 106.115 116.545 106.028 116.487 105.93C116.428 105.811 116.369 105.703 116.312 105.605C116.367 105.418 116.387 105.243 116.372 105.081C116.357 104.919 116.337 104.706 116.313 104.443C116.348 104.298 116.396 104.172 116.459 104.066C116.522 103.96 116.548 103.846 116.536 103.725C116.706 103.734 116.907 103.68 117.138 103.563C117.369 103.446 117.592 103.38 117.809 103.366C117.953 103.356 118.086 103.358 118.208 103.37C118.352 103.36 118.44 103.263 118.471 103.077C118.523 103.115 118.574 103.142 118.624 103.159C118.672 103.156 118.722 103.173 118.774 103.21C118.918 103.201 119.047 103.162 119.162 103.093C119.3 103.023 119.409 102.893 119.489 102.704C119.634 102.45 119.753 102.167 119.845 101.855C119.961 101.542 120.1 101.217 120.262 100.88C120.47 100.52 120.656 100.171 120.818 99.8341C120.978 99.477 121.126 99.1207 121.263 98.7651C120.332 98.6431 119.428 98.6723 118.55 98.8526C117.67 99.0126 116.827 99.1804 116.021 99.3559C116.102 99.1875 116.239 99.0969 116.431 99.0842C116.622 99.0512 116.798 98.9988 116.961 98.9269C116.933 98.888 116.906 98.8592 116.88 98.8405C116.854 98.8218 116.827 98.793 116.8 98.7541C115.968 98.911 115.19 99.1254 114.465 99.3975C113.741 99.6696 113.034 99.8691 112.344 99.9962C112.298 100.02 112.266 100.063 112.248 100.125C112.251 100.165 112.218 100.198 112.148 100.223C111.928 100.197 111.748 100.219 111.61 100.289C111.445 100.341 111.288 100.341 111.138 100.29C111.129 100.189 111.16 100.136 111.232 100.131C111.303 100.106 111.308 100.034 111.249 99.9157C111.276 99.9546 111.313 99.9624 111.36 99.9389C111.38 99.8968 111.388 99.8555 111.384 99.815C111.327 99.7169 111.266 99.7107 111.201 99.7965C111.111 99.8637 111.036 99.838 110.977 99.7196C110.86 99.7681 110.769 99.8251 110.702 99.8906C110.61 99.9375 110.478 99.9462 110.306 99.9168C110.254 99.8795 110.224 99.8203 110.217 99.7393C110.183 99.6395 110.128 99.5617 110.05 99.5057C110.129 99.317 110.133 99.1027 110.063 98.8627C110.149 98.7551 110.25 98.6669 110.364 98.5982C110.453 98.5108 110.515 98.3946 110.55 98.2496C110.602 98.2869 110.651 98.2939 110.697 98.2704C110.743 98.247 110.792 98.254 110.844 98.2913C111.431 98.1098 111.98 97.9003 112.49 97.6628C112.488 97.6425 112.487 97.6324 112.487 97.6324C112.556 97.5871 112.684 97.5378 112.873 97.4846C113.059 97.4111 113.188 97.3619 113.258 97.3369C113.537 97.2165 113.819 97.1266 114.104 97.067C114.41 96.9856 114.678 96.8762 114.907 96.7387C115.377 96.5854 115.874 96.471 116.399 96.3956C116.922 96.2999 117.457 96.2034 118.005 96.1061C118.979 95.9195 119.926 95.704 120.847 95.4598C121.767 95.2155 122.666 95.0033 123.544 94.823C123.546 94.8432 123.55 94.8837 123.556 94.9445C123.583 94.9835 123.62 94.9912 123.667 94.9678C123.711 94.9241 123.767 94.8796 123.836 94.8343C123.928 94.7874 123.996 94.7422 124.041 94.6985C124.085 94.6548 124.17 94.5269 124.295 94.3147C124.42 94.1026 124.492 93.9654 124.511 93.903C124.533 93.8812 124.531 93.8609 124.505 93.8422C124.501 93.8017 124.498 93.7612 124.494 93.7207C124.584 93.6535 124.674 93.5763 124.762 93.4889C124.849 93.3812 124.873 93.2472 124.834 93.0867ZM126.703 101.097C126.893 101.064 127.119 101.018 127.38 100.96C127.64 100.902 127.796 100.759 127.848 100.532C128.032 100.438 128.218 100.354 128.405 100.281C128.613 100.186 128.813 100.121 129.003 100.089C129.17 100.057 129.31 100.007 129.425 99.9384C129.539 99.8697 129.678 99.7994 129.841 99.7275C130.097 99.629 130.391 99.5382 130.722 99.4552C131.077 99.3706 131.37 99.2697 131.601 99.1526C131.639 99.0481 131.705 98.9724 131.797 98.9255C131.921 98.9581 132.005 98.9526 132.05 98.9089C132.118 98.8636 132.202 98.858 132.302 98.8922C132.664 98.6237 133.069 98.4237 133.516 98.2922C133.963 98.1608 134.366 97.9405 134.724 97.6315C134.262 97.6009 133.754 97.6038 133.201 97.6403C132.673 97.6753 132.159 97.7398 131.66 97.8339C131.327 97.8966 131.002 97.9181 130.686 97.8982C130.37 97.8783 130.069 97.8981 129.785 97.9577C129.38 98.0252 129.013 98.1106 128.684 98.2139C128.353 98.2969 128.01 98.3807 127.655 98.4652C127.547 98.8597 127.4 99.2262 127.214 99.5646C127.027 99.9031 126.881 100.28 126.774 100.694C126.78 100.755 126.807 100.784 126.855 100.781C126.901 100.757 126.916 100.787 126.9 100.87C126.831 100.915 126.784 100.928 126.758 100.909C126.732 100.891 126.7 100.934 126.661 101.038C126.689 101.077 126.703 101.097 126.703 101.097ZM144.537 97.4421C144.543 97.5028 144.538 97.5746 144.521 97.6572C144.503 97.7195 144.519 97.7694 144.571 97.8068C144.542 97.7476 144.548 97.686 144.59 97.622C144.631 97.5378 144.613 97.4778 144.537 97.4421Z" fill="url(#paint7_linear_2311_1905)"/>
<path d="M136.751 115.599C136.611 115.649 136.464 115.628 136.31 115.536C136.132 115.446 135.934 115.388 135.713 115.362C135.665 115.365 135.632 115.398 135.614 115.46C135.595 115.522 135.559 115.525 135.506 115.467C135.544 115.363 135.521 115.242 135.436 115.105C135.395 115.189 135.38 115.282 135.389 115.383C135.269 115.391 135.155 115.337 135.048 115.222C135.044 115.182 135.052 115.14 135.072 115.098C135.07 115.078 135.13 115.074 135.253 115.086L135.23 114.843C135.256 114.862 135.267 114.851 135.263 114.81C135.259 114.77 135.282 114.758 135.332 114.775C135.307 114.757 135.304 114.726 135.324 114.684C135.32 114.644 135.293 114.615 135.243 114.598C135.221 114.62 135.223 114.64 135.249 114.659C135.277 114.697 135.281 114.738 135.26 114.78C135.233 114.741 135.18 114.694 135.102 114.638C135.026 114.602 134.965 114.596 134.919 114.619L134.877 114.163C134.771 114.068 134.642 113.985 134.491 113.914C134.341 113.862 134.315 113.721 134.415 113.491C134.509 113.464 134.601 113.407 134.689 113.32C134.778 113.232 134.805 113.128 134.769 113.008L135.058 112.989C135.296 112.688 135.535 112.397 135.775 112.117C135.99 111.837 136.229 111.546 136.491 111.244C136.011 111.275 135.521 111.338 135.022 111.432C134.499 111.528 134.063 111.526 133.715 111.427C133.649 111.493 133.556 111.529 133.435 111.537C133.291 111.547 133.176 111.605 133.089 111.713C133.035 111.655 132.985 111.638 132.939 111.662C132.893 111.685 132.843 111.668 132.789 111.61C132.822 111.445 132.911 111.358 133.055 111.348C133.173 111.32 133.278 111.272 133.368 111.205C133.32 111.208 133.284 111.211 133.26 111.212C133.21 111.195 133.135 111.17 133.035 111.136C132.971 111.221 132.892 111.288 132.8 111.335C132.682 111.363 132.602 111.419 132.562 111.503C132.432 111.41 132.31 111.397 132.195 111.466C132.055 111.516 131.963 111.573 131.921 111.637C131.917 111.597 131.903 111.577 131.879 111.579C131.831 111.582 131.805 111.563 131.802 111.523C131.796 111.462 131.828 111.419 131.898 111.394C131.945 111.371 131.942 111.34 131.89 111.303C131.881 111.202 131.903 111.18 131.956 111.237C132.01 111.295 132.072 111.311 132.142 111.286C132.139 111.246 132.123 111.206 132.095 111.167L131.97 110.992C131.781 111.045 131.626 111.066 131.504 111.053C131.382 111.041 131.241 111.081 131.08 111.173C131.048 111.093 131.032 111.054 131.032 111.054C131.031 111.034 131.025 110.973 131.016 110.871C131.138 110.884 131.227 110.806 131.284 110.64L131.323 110.668C131.325 110.688 131.339 110.707 131.365 110.726C131.365 110.726 131.366 110.736 131.368 110.756C131.639 110.555 131.915 110.404 132.196 110.304C132.477 110.204 132.757 110.094 133.036 109.974C133.151 109.905 133.304 109.864 133.496 109.851C133.663 109.82 133.765 109.752 133.804 109.648C133.856 109.685 133.928 109.68 134.02 109.633C134.088 109.588 134.15 109.594 134.203 109.652C134.224 109.61 134.245 109.578 134.267 109.556C134.289 109.534 134.321 109.491 134.364 109.427C134.562 109.475 134.74 109.443 134.899 109.331C135.056 109.198 135.243 109.135 135.462 109.141C135.534 109.136 135.566 109.093 135.559 109.012C135.677 108.984 135.809 108.975 135.955 108.986C136.099 108.976 136.2 108.888 136.257 108.721C136.105 108.65 135.997 108.657 135.933 108.743C135.842 108.81 135.749 108.847 135.653 108.853C135.669 108.77 135.735 108.695 135.849 108.626C135.962 108.537 136.088 108.467 136.229 108.417C136.388 108.305 136.574 108.231 136.789 108.197C137.001 108.142 137.24 108.106 137.504 108.089C137.552 108.085 137.587 108.073 137.609 108.051C137.606 108.01 137.614 107.969 137.634 107.927C137.987 107.822 138.292 107.721 138.549 107.622C138.804 107.503 139.167 107.377 139.638 107.244C139.662 107.243 139.673 107.222 139.669 107.181C139.665 107.141 139.686 107.109 139.732 107.085C139.806 107.101 139.856 107.118 139.882 107.136C139.906 107.135 139.941 107.122 139.988 107.099C140.023 106.954 140.122 106.856 140.287 106.804C140.451 106.752 140.538 106.645 140.547 106.481C140.691 106.472 140.782 106.404 140.818 106.28C140.855 106.155 140.935 106.099 141.057 106.111C141.344 105.562 141.686 105.081 142.083 104.667C142.502 104.232 142.858 103.77 143.152 103.282C143.288 103.191 143.351 103.085 143.34 102.964C143.364 102.962 143.377 102.972 143.379 102.992C143.403 102.99 143.439 102.988 143.487 102.985C143.514 102.759 143.619 102.589 143.802 102.475C144.007 102.339 144.12 102.127 144.142 101.841C144.456 101.575 144.717 101.262 144.926 100.902C145.158 100.54 145.443 100.226 145.781 99.9589C145.834 99.7516 145.902 99.5738 145.985 99.4256C146.092 99.2759 146.2 99.1363 146.309 99.0068C146.44 98.8554 146.559 98.7049 146.666 98.5551C146.773 98.4054 146.854 98.2369 146.909 98.0498C147.177 97.8079 147.381 97.5295 147.521 97.2144C147.685 96.8978 147.901 96.6186 148.169 96.3767C148.224 96.1896 148.306 96.0313 148.415 95.9018C148.546 95.7504 148.651 95.5804 148.73 95.3917C149.04 95.0859 149.3 94.7629 149.511 94.4229C149.721 94.0829 149.984 93.7903 150.3 93.5452C150.32 93.5031 150.341 93.4711 150.363 93.4493C150.41 93.4259 150.418 93.3845 150.388 93.3253C150.789 92.9524 151.101 92.5444 151.326 92.1015C151.742 91.6256 152.136 91.1817 152.508 90.7698C152.905 90.3563 153.251 89.9155 153.546 89.4476C153.667 89.4397 153.747 89.3936 153.787 89.3094C153.85 89.2033 153.903 89.1183 153.945 89.0543C154.132 88.9809 154.267 88.8802 154.352 88.7523C154.437 88.6243 154.547 88.505 154.682 88.3942C154.76 88.4502 154.82 88.4462 154.862 88.3822C154.929 88.3167 155.009 88.2706 155.103 88.244C155.133 88.3032 155.115 88.3757 155.051 88.4615C154.984 88.5271 154.917 88.5825 154.849 88.6277C155.021 88.6572 155.228 88.6741 155.47 88.6784C155.71 88.6626 155.941 88.6677 156.161 88.694C156.403 88.6984 156.624 88.7347 156.824 88.8031C157.046 88.8496 157.223 88.9398 157.357 89.0736C157.338 89.136 157.332 89.1976 157.338 89.2584C157.341 89.2989 157.306 89.3114 157.232 89.2959C157.308 89.3316 157.388 89.4079 157.471 89.5247C157.553 89.6213 157.628 89.6469 157.696 89.6016C157.798 89.656 157.865 89.723 157.896 89.8024C157.952 89.8803 158.042 89.9456 158.168 89.9985C158.128 90.0827 158.136 90.1739 158.194 90.272C158.273 90.3483 158.363 90.4035 158.463 90.4377C158.463 90.7026 158.487 90.9559 158.534 91.1974C158.578 91.4187 158.612 91.6509 158.635 91.894C158.679 92.1153 158.688 92.3389 158.661 92.565C158.657 92.7894 158.607 93.0272 158.509 93.2782C158.524 93.4403 158.525 93.5728 158.51 93.6757C158.494 93.7583 158.466 93.8518 158.427 93.9563C158.411 94.0389 158.383 94.1325 158.345 94.237C158.33 94.3399 158.331 94.4825 158.348 94.6648C158.217 95.0811 158.115 95.5364 158.04 96.0305C157.989 96.5231 157.885 96.9682 157.729 97.3659C157.794 97.545 157.8 97.7484 157.749 97.9761C157.696 98.1834 157.617 98.3721 157.511 98.5421C157.543 98.8866 157.513 99.2147 157.422 99.5265C157.354 99.8368 157.311 100.156 157.293 100.483C157.269 100.484 157.248 100.516 157.229 100.579C157.233 100.619 157.21 100.631 157.16 100.614C157.164 100.654 157.178 100.674 157.202 100.672C157.25 100.669 157.276 100.688 157.279 100.728C157.149 101.145 157.063 101.527 157.023 101.877C156.981 102.206 156.955 102.574 156.945 102.983C157.026 103.079 157.114 103.114 157.208 103.087C157.301 103.041 157.395 103.014 157.491 103.008C157.639 103.039 157.776 103.081 157.902 103.133C158.028 103.186 158.175 103.207 158.343 103.196C158.439 103.19 158.522 103.174 158.593 103.149C158.661 103.104 158.734 103.109 158.812 103.165C158.864 103.202 158.889 103.211 158.887 103.191C158.885 103.17 158.908 103.159 158.956 103.156C159.187 103.303 159.466 103.438 159.792 103.559C160.117 103.68 160.387 103.856 160.602 104.086C160.558 104.13 160.552 104.192 160.583 104.271C160.613 104.33 160.642 104.379 160.669 104.418C160.673 104.459 160.677 104.499 160.681 104.54C160.685 104.58 160.674 104.601 160.65 104.603C160.678 104.642 160.707 104.691 160.737 104.75C160.766 104.809 160.843 104.855 160.967 104.888C160.971 104.928 160.951 104.97 160.906 105.014C160.86 105.038 160.815 105.071 160.77 105.115C160.83 105.233 160.861 105.313 160.865 105.353C160.891 105.372 160.92 105.421 160.951 105.5C160.855 105.507 160.824 105.56 160.857 105.66C160.913 105.737 160.894 105.79 160.799 105.816L160.825 106.09C160.805 106.132 160.796 106.173 160.8 106.214C160.802 106.234 160.782 106.276 160.739 106.34C160.414 106.484 160.074 106.598 159.719 106.683C159.362 106.747 158.994 106.822 158.616 106.908C158.235 106.974 157.843 107.051 157.44 107.139C157.037 107.227 156.625 107.346 156.203 107.496C156.183 107.538 156.163 107.58 156.143 107.622C156.12 107.644 156.124 107.684 156.154 107.744C155.986 107.755 155.902 107.76 155.902 107.76C155.859 107.824 155.829 107.887 155.81 107.95C155.816 108.011 155.786 108.074 155.719 108.139C155.731 108.526 155.661 108.948 155.51 109.407C155.36 109.865 155.192 110.274 155.008 110.632C154.9 110.517 154.873 110.356 154.926 110.148C154.978 109.921 154.928 109.771 154.776 109.7C154.719 109.867 154.686 110.032 154.677 110.196C154.69 110.337 154.704 110.489 154.719 110.651C154.671 110.655 154.647 110.656 154.647 110.656C154.599 110.659 154.586 110.65 154.608 110.628C154.63 110.606 154.627 110.566 154.597 110.507C154.46 110.597 154.437 110.741 154.528 110.939C154.436 110.986 154.381 111.041 154.362 111.103C154.344 111.165 154.325 111.228 154.307 111.29C154.315 111.371 154.297 111.444 154.255 111.508C154.238 111.59 154.183 111.645 154.089 111.671C154.083 111.611 154.064 111.541 154.033 111.461C154.027 111.4 153.988 111.372 153.916 111.377C153.981 111.291 153.974 111.22 153.896 111.164C153.78 111.213 153.701 111.279 153.661 111.363C153.622 111.468 153.584 111.572 153.545 111.677C153.532 111.8 153.506 111.904 153.465 111.988C153.426 112.092 153.362 112.178 153.271 112.245C153.216 112.167 153.181 112.058 153.168 111.916C153.155 111.774 153.144 111.652 153.134 111.551C153.066 111.596 153.049 111.679 153.085 111.799C153.12 111.919 153.103 111.991 153.032 112.016C152.986 112.04 152.949 112.032 152.921 111.993C152.918 111.953 152.892 111.934 152.844 111.937C152.799 111.981 152.755 112.025 152.711 112.068C152.692 112.131 152.687 112.202 152.694 112.283C152.602 112.33 152.542 112.334 152.514 112.295C152.488 112.277 152.451 112.269 152.403 112.272C152.394 112.171 152.385 112.08 152.378 111.998C152.396 111.936 152.402 111.864 152.394 111.783C152.392 111.763 152.379 111.754 152.355 111.755C152.357 111.776 152.357 111.776 152.355 111.755C152.325 111.166 152.287 110.629 152.241 110.142C152.218 109.634 152.207 109.125 152.208 108.616C151.657 108.672 150.987 108.747 150.198 108.84C149.408 108.933 148.741 109.038 148.196 109.156C148.126 109.181 148.08 109.214 148.06 109.257C148.064 109.297 148.044 109.339 147.999 109.383C147.949 109.366 147.934 109.336 147.955 109.294C147.975 109.252 147.961 109.233 147.913 109.236C147.917 109.276 147.881 109.279 147.805 109.243C147.727 109.187 147.693 109.209 147.702 109.311C147.22 109.322 146.755 109.394 146.307 109.525C145.858 109.636 145.395 109.728 144.918 109.8C144.778 109.85 144.624 109.881 144.455 109.892C144.285 109.883 144.146 109.943 144.037 110.073C143.915 110.06 143.83 110.056 143.782 110.059C143.756 110.04 143.719 110.032 143.671 110.036C142.833 110.906 142.043 111.784 141.303 112.669C140.563 113.553 139.758 114.381 138.886 115.152C138.788 115.138 138.693 115.155 138.601 115.202C138.486 115.27 138.396 115.337 138.329 115.403C138.205 115.37 138.075 115.399 137.938 115.49C137.803 115.601 137.636 115.622 137.436 115.554C137.296 115.604 137.216 115.66 137.198 115.722C137.072 115.669 136.95 115.657 136.832 115.685C136.689 115.715 136.592 115.711 136.541 115.674C136.587 115.651 136.622 115.638 136.646 115.636C136.67 115.635 136.705 115.622 136.751 115.599ZM151.524 103.983C151.514 103.881 151.546 103.828 151.618 103.824C151.712 103.797 151.791 103.731 151.853 103.625C151.909 103.702 151.971 103.719 152.039 103.673C152.132 103.627 152.202 103.602 152.25 103.598C152.226 102.56 152.257 101.59 152.342 100.688C152.427 99.785 152.487 98.8638 152.52 97.9239C152.087 98.4621 151.705 99.0377 151.375 99.6506C151.067 100.242 150.683 100.787 150.221 101.286C149.919 101.938 149.564 102.543 149.156 103.099C148.749 103.656 148.341 104.213 147.933 104.77L147.947 104.922C148.557 104.719 149.149 104.578 149.722 104.499C150.293 104.4 150.894 104.228 151.524 103.983Z" fill="url(#paint8_linear_2311_1905)"/>
<defs>
<linearGradient id="paint0_linear_2311_1905" x1="17" y1="96.5" x2="176" y2="96.5" gradientUnits="userSpaceOnUse">
<stop stop-color="#F8F8F8"/>
<stop offset="1" stop-color="#ADADAD"/>
</linearGradient>
<linearGradient id="paint1_linear_2311_1905" x1="17" y1="96.5" x2="176" y2="96.5" gradientUnits="userSpaceOnUse">
<stop stop-color="#F8F8F8"/>
<stop offset="1" stop-color="#ADADAD"/>
</linearGradient>
<linearGradient id="paint2_linear_2311_1905" x1="17" y1="96.5" x2="176" y2="96.5" gradientUnits="userSpaceOnUse">
<stop stop-color="#F8F8F8"/>
<stop offset="1" stop-color="#ADADAD"/>
</linearGradient>
<linearGradient id="paint3_linear_2311_1905" x1="17" y1="96.5" x2="176" y2="96.5" gradientUnits="userSpaceOnUse">
<stop stop-color="#F8F8F8"/>
<stop offset="1" stop-color="#ADADAD"/>
</linearGradient>
<linearGradient id="paint4_linear_2311_1905" x1="17" y1="96.5" x2="176" y2="96.5" gradientUnits="userSpaceOnUse">
<stop stop-color="#F8F8F8"/>
<stop offset="1" stop-color="#ADADAD"/>
</linearGradient>
<linearGradient id="paint5_linear_2311_1905" x1="17" y1="96.5" x2="176" y2="96.5" gradientUnits="userSpaceOnUse">
<stop stop-color="#F8F8F8"/>
<stop offset="1" stop-color="#ADADAD"/>
</linearGradient>
<linearGradient id="paint6_linear_2311_1905" x1="17" y1="96.5" x2="176" y2="96.5" gradientUnits="userSpaceOnUse">
<stop stop-color="#F8F8F8"/>
<stop offset="1" stop-color="#ADADAD"/>
</linearGradient>
<linearGradient id="paint7_linear_2311_1905" x1="17" y1="96.5" x2="176" y2="96.5" gradientUnits="userSpaceOnUse">
<stop stop-color="#F8F8F8"/>
<stop offset="1" stop-color="#ADADAD"/>
</linearGradient>
<linearGradient id="paint8_linear_2311_1905" x1="17" y1="96.5" x2="176" y2="96.5" gradientUnits="userSpaceOnUse">
<stop stop-color="#F8F8F8"/>
<stop offset="1" stop-color="#ADADAD"/>
</linearGradient>
</defs>
</svg>
