<svg width="256" height="256" viewBox="0 0 256 256" fill="none" xmlns="http://www.w3.org/2000/svg">
<path fill-rule="evenodd" clip-rule="evenodd" d="M125.956 168.673C188.071 171.492 239.565 155.791 240.971 133.604C242.376 111.417 193.16 91.1461 131.045 88.3273C68.9287 85.5085 17.4346 101.209 16.0294 123.396C14.6241 145.583 63.8397 165.854 125.956 168.673ZM126.046 167.249C184.285 169.892 232.595 154.686 233.951 133.285C235.306 111.885 189.193 92.3941 130.954 89.7512C72.7155 87.1083 24.4047 102.314 23.0492 123.715C21.6938 145.115 67.8068 164.606 126.046 167.249Z" fill="url(#paint0_linear_2311_1907)"/>
<path d="M101.32 122.952C101.797 128.108 102.245 126.573 97.0519 127.961C91.8586 129.349 89.4535 132.38 85.9201 132.614L80.841 137.317L68.8186 138.115C64.5879 138.395 70.0282 134.506 68.3738 133.309C67.4046 126.598 62.1389 125.441 58.9875 127.909C58.355 126.129 59.6444 129.24 59.3202 125.738L59.2273 124.734L71.7281 123.905C72.0469 126.339 72.4319 127.719 72.8832 128.045C73.2842 128.336 74.3914 128.421 76.2046 128.3L83.2481 127.833C85.2937 127.697 86.4665 127.481 86.7665 127.184C87.1521 126.802 87.2794 125.903 87.1482 124.486C87.0353 123.266 86.7533 122.493 86.302 122.167C85.9511 121.913 84.7205 121.757 82.6101 121.699L68.0432 121.239C65.0422 121.161 62.7646 120.56 61.2105 119.436C58.9544 117.803 57.606 114.607 57.1652 109.845C56.7172 105.004 57.6501 101.438 59.9639 99.1469C61.4208 97.7041 63.8694 96.8686 67.3099 96.6404L86.0694 95.3963C90.3466 95.1126 93.2874 95.5511 94.8917 96.7117C96.095 97.5822 97.0306 98.8466 97.6986 100.505C98.3631 102.124 98.8751 104.624 99.2349 108.005L85.4965 108.916C85.2105 106.837 84.8418 105.634 84.3906 105.307C83.9896 105.017 82.9986 104.924 81.4179 105.029L74.4441 105.492C72.8169 105.6 71.8962 105.76 71.6819 105.972C71.3391 106.311 71.2278 107.13 71.348 108.429C71.461 109.649 71.743 110.422 72.1943 110.749C72.4951 110.966 73.7239 111.103 75.8807 111.158L90.5871 111.608C93.5917 111.725 95.8461 112.328 97.3501 113.416C99.556 115.012 100.879 118.191 101.32 122.952Z" fill="url(#paint1_linear_2311_1907)"/>
<path d="M151.408 116.008C151.744 120.143 151.708 123.293 151.3 125.458C150.438 128.185 148.424 127.565 146.68 126.025C144.966 127.722 143.408 124.284 138.898 124.583L133.807 125.975L121.505 134.62C116.949 134.923 115.462 134.229 113.457 132.779C109.654 130.101 107.323 124.118 106.463 114.831C105.603 105.544 106.805 99.3267 110.069 96.1803C111.783 94.4828 114.918 93.483 119.474 93.1809L135.793 92.0986C140.303 91.7995 143.56 92.3754 145.566 93.8262C146.919 94.8054 147.997 96.3376 148.798 98.4225C149.595 100.468 150.205 103.516 150.627 107.566L136.609 108.496C136.135 104.885 135.546 102.825 134.845 102.318C134.443 102.027 133.36 101.941 131.593 102.058L125.386 102.47C123.619 102.587 122.565 102.815 122.222 103.155C121.408 103.961 121.292 107.512 121.875 113.809C122.458 120.105 123.226 123.598 124.178 124.287C124.579 124.577 125.663 124.664 127.43 124.547L133.636 124.135C135.403 124.018 136.458 123.79 136.801 123.45C137.401 122.856 137.597 120.685 137.391 116.937L151.408 116.008Z" fill="url(#paint2_linear_2311_1907)"/>
<path d="M195.863 97.6769L172.431 99.2309L173.19 107.436L189.579 106.349L190.399 115.203L174.01 116.29L174.626 122.95L174.516 121.752L170.777 119.14L167.261 123.438L160.439 126.601L159.721 124.9L156.558 90.7215L194.983 88.1731L195.863 97.6769Z" fill="url(#paint3_linear_2311_1907)"/>
<path d="M36.2356 165.537C36.0368 165.608 35.8288 165.579 35.6113 165.448C35.3599 165.32 35.0785 165.237 34.767 165.2C34.699 165.204 34.652 165.251 34.626 165.34C34.6 165.428 34.5489 165.432 34.4729 165.35C34.5276 165.201 34.4946 165.03 34.3739 164.835C34.3166 164.955 34.2945 165.086 34.3079 165.23C34.1378 165.242 33.9767 165.165 33.8247 165.002C33.8194 164.944 33.831 164.885 33.8597 164.826C33.8571 164.797 33.9421 164.791 34.1148 164.809L34.0828 164.463C34.1195 164.49 34.1352 164.474 34.1299 164.417C34.1245 164.359 34.1572 164.342 34.2279 164.367C34.1912 164.34 34.1872 164.297 34.2159 164.237C34.2106 164.18 34.1726 164.139 34.1019 164.114C34.0705 164.145 34.0732 164.174 34.1099 164.201C34.1492 164.256 34.1546 164.314 34.1259 164.373C34.0865 164.318 34.0118 164.251 33.9018 164.171C33.7944 164.12 33.7081 164.111 33.6427 164.145L33.5827 163.497C33.4334 163.362 33.2513 163.244 33.0366 163.142C32.8245 163.069 32.7888 162.869 32.9296 162.541C33.063 162.503 33.1924 162.422 33.3178 162.298C33.4432 162.174 33.4808 162.026 33.4308 161.856L33.839 161.829C34.1758 161.401 34.514 160.988 34.8535 160.588C35.159 160.192 35.4972 159.778 35.868 159.348C35.1878 159.393 34.4945 159.483 33.7882 159.616C33.0479 159.752 32.4317 159.75 31.9395 159.609C31.8454 159.702 31.7134 159.754 31.5433 159.765C31.3392 159.779 31.1758 159.862 31.0531 160.015C30.9771 159.933 30.9064 159.909 30.841 159.942C30.7757 159.975 30.705 159.951 30.6289 159.869C30.6757 159.634 30.801 159.51 31.0051 159.497C31.1725 159.457 31.3203 159.389 31.4483 159.293C31.3803 159.298 31.3293 159.301 31.2953 159.304C31.2246 159.279 31.1185 159.243 30.9771 159.194C30.8858 159.316 30.7747 159.411 30.644 159.477C30.4766 159.517 30.3642 159.597 30.3068 159.717C30.1234 159.584 29.9507 159.567 29.7886 159.664C29.5899 159.735 29.4605 159.816 29.4005 159.907C29.3951 159.85 29.3755 159.822 29.3415 159.824C29.2734 159.829 29.2367 159.802 29.2314 159.745C29.2234 159.658 29.2691 159.597 29.3685 159.562C29.4339 159.528 29.4299 159.485 29.3565 159.432C29.3432 159.288 29.3745 159.257 29.4505 159.339C29.5266 159.421 29.6143 159.444 29.7136 159.409C29.7083 159.351 29.686 159.294 29.6466 159.239L29.4696 158.99C29.2028 159.066 28.9831 159.095 28.8103 159.077C28.6376 159.06 28.4375 159.117 28.2101 159.248C28.1654 159.135 28.1431 159.078 28.1431 159.078C28.1404 159.049 28.1324 158.963 28.1191 158.819C28.2918 158.837 28.4185 158.727 28.4993 158.49L28.5543 158.529C28.5569 158.558 28.5766 158.586 28.6133 158.612C28.6133 158.612 28.6146 158.627 28.6173 158.656C29.0015 158.369 29.3923 158.155 29.7898 158.013C30.1873 157.871 30.5835 157.714 30.9783 157.543C31.1404 157.446 31.3575 157.388 31.6296 157.37C31.865 157.325 32.0101 157.229 32.0648 157.08C32.1381 157.133 32.2402 157.126 32.3709 157.06C32.4676 156.995 32.554 157.004 32.63 157.086C32.6587 157.026 32.6887 156.981 32.72 156.95C32.7514 156.919 32.7971 156.858 32.8571 156.767C33.1372 156.835 33.3896 156.789 33.6144 156.63C33.8365 156.441 34.102 156.351 34.4107 156.36C34.5128 156.353 34.5585 156.292 34.5478 156.177C34.7152 156.137 34.9023 156.124 35.109 156.139C35.3131 156.126 35.4555 156.001 35.5362 155.764C35.3215 155.662 35.1684 155.672 35.0771 155.794C34.949 155.889 34.8169 155.942 34.6809 155.951C34.7042 155.833 34.7969 155.726 34.959 155.628C35.1184 155.502 35.2975 155.403 35.4963 155.332C35.721 155.172 35.9851 155.068 36.2886 155.018C36.5894 154.941 36.9269 154.889 37.301 154.864C37.369 154.86 37.4187 154.842 37.4501 154.811C37.4447 154.753 37.4564 154.695 37.4851 154.635C37.9846 154.486 38.4161 154.341 38.7796 154.201C39.1405 154.033 39.6543 153.854 40.3213 153.665C40.3553 153.662 40.3696 153.633 40.3643 153.575C40.359 153.517 40.389 153.472 40.4544 153.439C40.5591 153.461 40.6298 153.485 40.6664 153.511C40.7004 153.509 40.7501 153.491 40.8155 153.458C40.8649 153.252 41.0059 153.112 41.2387 153.039C41.4715 152.966 41.5942 152.813 41.6069 152.58C41.811 152.567 41.939 152.471 41.9911 152.294C42.0431 152.117 42.1555 152.037 42.3282 152.054C42.7351 151.274 43.2194 150.59 43.781 150.003C44.3739 149.384 44.8778 148.728 45.2927 148.034C45.4862 147.905 45.5749 147.755 45.5589 147.582C45.5929 147.58 45.6112 147.593 45.6139 147.622C45.6479 147.619 45.6989 147.616 45.767 147.612C45.8057 147.29 45.9544 147.049 46.2132 146.887C46.5033 146.694 46.6638 146.393 46.6945 145.986C47.1387 145.609 47.5082 145.164 47.803 144.652C48.1319 144.138 48.5354 143.691 49.0136 143.312C49.089 143.017 49.1854 142.765 49.3028 142.554C49.4542 142.341 49.607 142.143 49.761 141.959C49.9465 141.744 50.1149 141.53 50.2663 141.317C50.4177 141.104 50.5324 140.865 50.6105 140.599C50.9893 140.255 51.2778 139.859 51.4759 139.412C51.7081 138.962 52.0136 138.565 52.3924 138.221C52.4705 137.955 52.5865 137.73 52.7406 137.546C52.926 137.331 53.0748 137.09 53.1868 136.822C53.6257 136.387 53.9939 135.928 54.2914 135.445C54.5889 134.962 54.9611 134.546 55.408 134.198C55.4366 134.138 55.4666 134.092 55.498 134.061C55.5634 134.028 55.575 133.969 55.533 133.885C56.1 133.355 56.5425 132.775 56.8607 132.146C57.4483 131.47 58.0059 130.839 58.5335 130.254C59.0951 129.666 59.5847 129.04 60.0023 128.375C60.1723 128.363 60.2861 128.298 60.3434 128.178C60.4321 128.027 60.5065 127.907 60.5665 127.816C60.8307 127.711 61.0227 127.568 61.1428 127.387C61.2629 127.205 61.4183 127.035 61.609 126.878C61.7191 126.957 61.8041 126.952 61.8641 126.861C61.9582 126.768 62.0719 126.702 62.2053 126.664C62.2473 126.748 62.2226 126.851 62.1312 126.973C62.0372 127.067 61.9418 127.145 61.8451 127.21C62.0885 127.251 62.3816 127.275 62.7244 127.282C63.0646 127.259 63.3904 127.266 63.7018 127.304C64.0446 127.31 64.3574 127.362 64.6402 127.459C64.9543 127.525 65.2057 127.653 65.3944 127.843C65.3684 127.932 65.3594 128.019 65.3674 128.106C65.3727 128.163 65.323 128.181 65.2183 128.159C65.3257 128.21 65.4384 128.318 65.5564 128.484C65.6718 128.621 65.7778 128.658 65.8745 128.594C66.0186 128.671 66.1129 128.766 66.1576 128.879C66.2363 128.99 66.3647 129.082 66.5427 129.158C66.4854 129.277 66.4974 129.407 66.5787 129.546C66.6914 129.655 66.8185 129.733 66.9598 129.782C66.9605 130.158 66.9938 130.518 67.0598 130.861C67.1231 131.176 67.1708 131.506 67.2027 131.851C67.2661 132.166 67.2784 132.483 67.2397 132.805C67.235 133.124 67.1636 133.461 67.0255 133.818C67.0468 134.048 67.0471 134.237 67.0264 134.383C67.0031 134.5 66.964 134.633 66.9093 134.782C66.886 134.899 66.847 135.032 66.7923 135.181C66.7716 135.327 66.7732 135.529 66.7972 135.789C66.6124 136.38 66.467 137.027 66.3609 137.729C66.2888 138.429 66.142 139.062 65.9205 139.627C66.0125 139.882 66.0222 140.171 65.9494 140.494C65.874 140.789 65.762 141.057 65.6132 141.298C65.6585 141.788 65.6161 142.254 65.486 142.697C65.39 143.138 65.3292 143.591 65.3038 144.056C65.2698 144.059 65.2398 144.104 65.2138 144.193C65.2191 144.25 65.1864 144.267 65.1158 144.243C65.1211 144.3 65.1408 144.328 65.1748 144.326C65.2428 144.321 65.2795 144.348 65.2848 144.405C65.1 144.997 64.9792 145.541 64.9225 146.037C64.8631 146.504 64.826 147.028 64.8113 147.609C64.9267 147.746 65.0511 147.795 65.1845 147.758C65.3152 147.691 65.4486 147.653 65.5846 147.644C65.794 147.688 65.9878 147.748 66.1658 147.823C66.3439 147.898 66.552 147.928 66.7901 147.912C66.9261 147.903 67.0438 147.881 67.1432 147.845C67.2399 147.781 67.3433 147.788 67.4533 147.868C67.5267 147.921 67.562 147.933 67.5594 147.904C67.5567 147.875 67.5894 147.859 67.6574 147.854C67.9848 148.064 68.379 148.255 68.8398 148.428C69.3006 148.6 69.6831 148.85 69.9872 149.177C69.9245 149.239 69.9155 149.327 69.9601 149.44C70.0021 149.524 70.0428 149.593 70.0822 149.649C70.0875 149.706 70.0928 149.764 70.0982 149.822C70.1035 149.879 70.0891 149.909 70.0551 149.911C70.0945 149.967 70.1352 150.036 70.1772 150.12C70.2192 150.205 70.3279 150.27 70.5033 150.316C70.5086 150.374 70.4799 150.434 70.4172 150.496C70.3519 150.529 70.2878 150.577 70.2251 150.639C70.3091 150.807 70.3538 150.92 70.3591 150.977C70.3958 151.004 70.4365 151.074 70.4812 151.187C70.3451 151.196 70.3008 151.271 70.3481 151.413C70.4268 151.523 70.3994 151.598 70.2661 151.635L70.302 152.024C70.2733 152.084 70.2617 152.143 70.267 152.2C70.2697 152.229 70.241 152.289 70.1809 152.38C69.7207 152.584 69.2396 152.746 68.7373 152.866C68.2325 152.958 67.7119 153.065 67.1757 153.187C66.6368 153.281 66.0823 153.39 65.512 153.515C64.9418 153.64 64.3586 153.809 63.7623 154.022C63.7336 154.082 63.7049 154.142 63.6763 154.201C63.6449 154.233 63.6502 154.29 63.6922 154.374C63.4542 154.39 63.3351 154.398 63.3351 154.398C63.2751 154.489 63.2321 154.579 63.206 154.667C63.214 154.754 63.171 154.843 63.077 154.936C63.0936 155.486 62.9952 156.086 62.7817 156.737C62.5682 157.389 62.3311 157.97 62.0702 158.479C61.9182 158.316 61.8799 158.086 61.9553 157.792C62.028 157.468 61.957 157.256 61.7422 157.154C61.6615 157.391 61.6148 157.626 61.6021 157.859C61.6208 158.06 61.6408 158.276 61.6621 158.506C61.594 158.511 61.56 158.513 61.56 158.513C61.492 158.518 61.4737 158.504 61.505 158.473C61.5364 158.442 61.531 158.385 61.489 158.301C61.2956 158.429 61.2632 158.634 61.3919 158.915C61.2612 158.982 61.1828 159.06 61.1568 159.148C61.1308 159.237 61.1048 159.325 61.0788 159.414C61.0894 159.529 61.0647 159.632 61.0047 159.723C60.9814 159.841 60.903 159.918 60.7696 159.956C60.7616 159.87 60.7353 159.77 60.6906 159.657C60.6826 159.571 60.6276 159.531 60.5255 159.538C60.6169 159.416 60.6076 159.315 60.4976 159.235C60.3328 159.304 60.2218 159.398 60.1644 159.518C60.1097 159.667 60.055 159.815 60.0003 159.964C59.9823 160.139 59.9446 160.286 59.8872 160.406C59.8325 160.554 59.7411 160.676 59.6131 160.771C59.5344 160.661 59.4857 160.505 59.4671 160.303C59.4484 160.101 59.4324 159.929 59.4191 159.785C59.3224 159.849 59.299 159.967 59.349 160.137C59.399 160.308 59.3743 160.411 59.275 160.446C59.2096 160.479 59.1573 160.468 59.1179 160.413C59.1126 160.355 59.0759 160.329 59.0079 160.333C58.9452 160.396 58.8825 160.458 58.8198 160.52C58.7938 160.608 58.7861 160.71 58.7967 160.825C58.666 160.892 58.581 160.898 58.5416 160.842C58.505 160.816 58.4526 160.805 58.3846 160.809C58.3713 160.665 58.3593 160.536 58.3486 160.421C58.3746 160.332 58.3823 160.23 58.3717 160.115C58.369 160.086 58.3506 160.073 58.3166 160.075C58.3193 160.104 58.3193 160.104 58.3166 160.075C58.2734 159.238 58.2197 158.474 58.1558 157.783C58.1232 157.061 58.1076 156.338 58.109 155.614C57.3293 155.694 56.381 155.801 55.2638 155.933C54.1467 156.065 53.2024 156.214 52.4307 156.381C52.3313 156.417 52.2673 156.464 52.2386 156.524C52.2439 156.582 52.2153 156.642 52.1526 156.704C52.0819 156.679 52.0609 156.637 52.0896 156.578C52.1182 156.518 52.0986 156.49 52.0305 156.495C52.0359 156.552 51.9849 156.556 51.8775 156.505C51.7674 156.425 51.7191 156.457 51.7324 156.601C51.0495 156.618 50.3916 156.719 49.7586 156.906C49.123 157.064 48.4678 157.194 47.7928 157.297C47.5941 157.368 47.3757 157.412 47.1376 157.427C46.8968 157.414 46.6994 157.5 46.5453 157.684C46.3726 157.666 46.2522 157.66 46.1842 157.664C46.1475 157.638 46.0951 157.627 46.0271 157.631C44.8412 158.869 43.7247 160.116 42.6775 161.373C41.6303 162.63 40.4901 163.807 39.2568 164.902C39.1181 164.882 38.9834 164.906 38.8526 164.972C38.6906 165.07 38.5625 165.165 38.4685 165.259C38.2931 165.212 38.1087 165.254 37.9152 165.382C37.7245 165.54 37.4877 165.57 37.205 165.473C37.0062 165.544 36.8938 165.624 36.8678 165.712C36.6897 165.637 36.517 165.62 36.3496 165.66C36.1482 165.702 36.0108 165.697 35.9375 165.644C36.0028 165.61 36.0525 165.593 36.0865 165.59C36.1205 165.588 36.1702 165.57 36.2356 165.537ZM57.1402 149.03C57.1269 148.886 57.1713 148.81 57.2733 148.804C57.4067 148.766 57.5177 148.672 57.6064 148.521C57.6851 148.632 57.7728 148.655 57.8695 148.59C58.0003 148.524 58.0996 148.488 58.1677 148.484C58.1338 147.009 58.1773 145.63 58.2981 144.347C58.4189 143.065 58.5031 141.756 58.5506 140.42C57.9369 141.185 57.3966 142.003 56.9297 142.874C56.4941 143.714 55.9499 144.488 55.2969 145.198C54.8693 146.124 54.367 146.983 53.79 147.775C53.2131 148.566 52.6361 149.357 52.0592 150.149L52.0791 150.365C52.9422 150.076 53.7792 149.875 54.5902 149.764C55.3985 149.623 56.2485 149.379 57.1402 149.03Z" fill="url(#paint4_linear_2311_1907)"/>
<path d="M68.5748 153.181C68.6049 152.397 68.7763 151.662 69.0892 150.975C69.4021 150.288 69.7699 149.641 70.1928 149.033C70.6497 148.424 71.142 147.826 71.6696 147.241C72.1971 146.655 72.7234 146.056 73.2483 145.441C73.3164 145.437 73.3674 145.433 73.4014 145.431C73.4327 145.4 73.4994 145.381 73.6015 145.374C73.7029 144.991 73.9327 144.701 74.2908 144.503C74.649 144.306 74.8944 144 75.0272 143.585C75.3046 143.625 75.485 143.54 75.5684 143.332C75.6832 143.093 75.8766 142.964 76.1487 142.946C76.4909 142.576 76.837 142.249 77.1872 141.965C77.5347 141.652 77.9005 141.353 78.2847 141.066C78.3527 141.062 78.3671 141.032 78.3277 140.977C78.3224 140.919 78.3367 140.889 78.3707 140.887C78.6215 140.639 78.8593 140.434 79.0841 140.275C79.3429 140.113 79.6173 139.935 79.9074 139.742C80.391 139.42 80.8352 139.043 81.2401 138.611C81.6449 138.179 82.1232 137.799 82.6747 137.473C82.7401 137.44 82.8238 137.42 82.9258 137.413C83.0252 137.377 83.1062 137.329 83.1689 137.266C83.2656 137.202 83.3427 137.11 83.4001 136.99C83.4914 136.868 83.5855 136.775 83.6822 136.711C83.7109 136.651 83.7436 136.634 83.7802 136.661C83.8483 136.657 83.8979 136.639 83.9293 136.608C84.026 136.543 84.0887 136.481 84.1174 136.421C84.1774 136.331 84.2388 136.254 84.3015 136.192C84.3642 136.13 84.4452 136.081 84.5446 136.045C84.644 136.01 84.742 135.96 84.8387 135.896C85.2542 135.578 85.6894 135.289 86.1443 135.027C86.6332 134.763 87.1181 134.455 87.599 134.105C87.7557 133.95 87.8968 133.81 88.0222 133.686C88.1816 133.559 88.341 133.433 88.5004 133.306C88.6911 133.149 88.9512 133.001 89.2807 132.864C89.6102 132.726 89.903 132.562 90.1591 132.371C90.2478 132.22 90.3745 132.11 90.5393 132.041C90.738 131.97 90.8648 131.861 90.9195 131.712C91.0842 131.643 91.2673 131.588 91.4687 131.545C91.6674 131.474 91.8649 131.389 92.0609 131.289C92.2544 131.16 92.3798 131.036 92.4371 130.916C93.036 130.732 93.5263 130.482 93.9078 130.167C94.2893 129.852 94.7598 129.575 95.3194 129.335C95.3141 129.277 95.3271 129.233 95.3584 129.202C95.4211 129.14 95.4145 129.068 95.3384 128.986C95.9033 128.804 96.4029 128.655 96.837 128.539C97.2712 128.423 97.7421 128.334 98.2496 128.271C98.9619 128.572 99.7995 128.748 100.763 128.8C101.723 128.823 102.558 128.97 103.267 129.242C103.375 129.293 103.457 129.258 103.515 129.139C103.771 129.325 104.108 129.447 104.524 129.506C104.94 129.566 105.257 129.661 105.474 129.791C106.035 130.304 106.612 130.802 107.204 131.284C107.796 131.766 108.357 132.279 108.886 132.823C108.824 132.886 108.815 132.973 108.859 133.086C108.938 133.197 109.014 133.278 109.087 133.332C109.093 133.766 109.06 134.144 108.987 134.468C108.914 134.791 108.823 135.102 108.714 135.398C108.605 135.695 108.478 135.993 108.335 136.293C108.223 136.561 108.133 136.885 108.066 137.266C107.932 137.304 107.852 137.367 107.826 137.456C107.834 137.542 107.827 137.644 107.803 137.762C107.735 137.766 107.686 137.784 107.654 137.815C107.657 137.844 107.624 137.861 107.556 137.865C107.63 137.918 107.634 137.961 107.568 137.995C107.503 138.028 107.506 138.057 107.576 138.081C106.897 138.879 106.292 139.73 105.759 140.635C105.227 141.539 104.587 142.393 103.84 143.195C103.851 143.31 103.825 143.399 103.762 143.461C103.697 143.494 103.671 143.583 103.684 143.727C103.459 143.887 103.271 144.073 103.12 144.286C102.966 144.47 102.778 144.656 102.556 144.845C102.127 145.018 101.646 145.18 101.112 145.331C100.576 145.454 100.076 145.603 99.6135 145.778C99.6028 145.663 99.5295 145.61 99.3934 145.619C99.2914 145.626 99.137 145.622 98.9303 145.607C98.8516 145.496 98.7572 145.401 98.6472 145.321C98.5371 145.242 98.3957 145.193 98.223 145.175C98.2384 144.972 98.174 144.831 98.03 144.754C97.8859 144.676 97.7105 144.63 97.5038 144.615C97.3284 144.569 97.153 144.522 96.9776 144.476C96.8362 144.427 96.7575 144.317 96.7415 144.144C96.7335 144.058 96.6445 144.02 96.4744 144.031C96.3011 143.637 96.2638 143.234 96.3625 142.822C96.4613 142.41 96.4893 141.974 96.4467 141.513C96.412 141.139 96.3617 140.78 96.2957 140.437C96.2637 140.091 96.3351 139.753 96.5099 139.423C96.4732 139.397 96.4482 139.311 96.4349 139.167C95.8413 139.41 95.2727 139.737 94.7291 140.15C94.5304 140.221 94.367 140.304 94.2389 140.399C94.1422 140.464 94.0482 140.557 93.9568 140.679C93.3058 141.041 92.6916 141.429 92.114 141.844C91.5704 142.256 91.0098 142.67 90.4322 143.085C90.1421 143.278 89.8349 143.472 89.5108 143.668C89.218 143.832 88.9265 144.011 88.6364 144.204C88.0561 144.59 87.4799 145.019 86.9076 145.491C86.3354 145.964 85.7447 146.423 85.1358 146.869C84.7856 147.153 84.4001 147.425 83.9793 147.684C83.5898 147.913 83.2199 148.169 82.8698 148.453C82.645 148.613 82.4399 148.8 82.2545 149.015C82.1004 149.199 81.911 149.371 81.6862 149.531C81.4354 149.779 81.195 149.955 80.9649 150.057C80.7688 150.157 80.6854 150.365 80.7147 150.682C80.61 150.66 80.5433 150.679 80.5146 150.738C80.486 150.798 80.4179 150.803 80.3106 150.752C79.6836 151.373 79.0763 152.021 78.4887 152.698C77.9011 153.374 77.3318 154.063 76.7808 154.766C76.9562 154.813 77.1159 154.874 77.26 154.952C77.438 155.027 77.6448 155.042 77.8802 154.997C78.0843 154.984 78.2517 154.944 78.3824 154.877C78.5445 154.78 78.7302 154.753 78.9397 154.797C79.0077 154.792 79.0444 154.819 79.0497 154.876C79.0523 154.905 79.0877 154.917 79.1557 154.913C79.3965 154.926 79.6332 154.896 79.866 154.822C80.1328 154.747 80.4022 154.7 80.6743 154.682C80.7737 154.646 80.8758 154.64 80.9805 154.662C81.0852 154.684 81.1885 154.691 81.2906 154.684C81.7274 154.598 82.1459 154.497 82.5461 154.384C82.9776 154.239 83.3974 154.154 83.8056 154.127C83.9757 154.115 84.1131 154.121 84.2178 154.143C84.3565 154.162 84.4532 154.098 84.5079 153.95C85.0835 153.882 85.6693 153.742 86.2656 153.529C86.8619 153.316 87.3967 153.179 87.8703 153.118C87.9383 153.114 87.988 153.096 88.0193 153.065C88.048 153.005 88.095 152.959 88.1604 152.925C88.7333 152.829 89.2368 152.724 89.671 152.608C90.1365 152.461 90.6164 152.284 91.1106 152.078C92.9574 151.695 94.6301 151.28 96.1287 150.833C97.6586 150.355 99.279 149.928 100.99 149.554C102.017 149.196 102.967 148.916 103.838 148.714C104.706 148.482 105.726 148.226 106.898 147.946C107.724 147.63 108.69 147.335 109.793 147.059C110.931 146.78 111.861 146.473 112.582 146.135C113.061 146.132 113.534 146.057 113.999 145.911C114.462 145.735 114.926 145.574 115.392 145.427C115.499 145.478 115.574 145.546 115.616 145.63C115.692 145.712 115.766 145.779 115.84 145.832C115.654 146.047 115.428 146.192 115.161 146.268C114.895 146.344 114.742 146.542 114.703 146.863C114.431 146.881 114.236 146.996 114.119 147.206C114.002 147.417 113.83 147.602 113.606 147.762C113.441 147.831 113.276 147.899 113.112 147.968C112.944 148.008 112.778 148.063 112.613 148.132C112.289 148.327 111.965 148.522 111.641 148.718C111.348 148.882 111.055 149.046 110.762 149.21C110.768 149.268 110.773 149.325 110.778 149.383C110.818 149.438 110.84 149.495 110.845 149.552C110.715 149.619 110.583 149.671 110.449 149.709C110.316 149.747 110.29 149.835 110.371 149.975C110.002 150.057 109.829 150.214 109.85 150.444C109.016 150.673 108.296 150.851 107.692 150.978C107.088 151.105 106.497 151.376 105.919 151.791C105.226 152.069 104.533 152.346 103.84 152.624C103.145 152.873 102.506 153.176 101.923 153.533C101.933 153.649 102.02 153.657 102.182 153.56C102.164 153.735 102.088 153.841 101.955 153.879C101.853 153.886 101.73 153.85 101.586 153.773C100.937 154.164 100.146 154.491 99.2125 154.756C98.2788 155.021 97.4394 155.38 96.6944 155.835C96.4223 155.853 96.1202 155.917 95.7881 156.026C95.4899 156.133 95.2115 156.267 94.9527 156.429C94.8953 156.549 94.9177 156.605 95.0197 156.598C95.1191 156.563 95.1558 156.589 95.1297 156.678C95.075 156.826 95.015 156.917 94.9496 156.95C94.8816 156.955 94.7639 156.977 94.5965 157.017C94.4217 157.348 94.1473 157.525 93.7731 157.55C93.399 157.575 93.1049 157.725 92.8907 157.999C92.4906 158.113 92.0224 158.231 91.4862 158.353C90.984 158.474 90.5918 158.673 90.3097 158.953C90.1396 158.964 90.0362 158.956 89.9995 158.93C89.4846 159.283 88.789 159.532 87.9127 159.677C87.0703 159.819 86.3407 160.071 85.7237 160.43C85.3049 160.342 84.9231 160.469 84.5783 160.81C84.1074 160.899 83.6039 161.005 83.0676 161.128C82.5654 161.248 82.0462 161.369 81.51 161.492C81.0078 161.612 80.4689 161.706 79.8934 161.773C79.3518 161.838 78.8233 161.858 78.3077 161.834C78.2004 161.784 78.1494 161.787 78.1547 161.845C78.1627 161.931 78.1313 161.962 78.0606 161.938C77.5738 161.854 77.104 161.769 76.6511 161.684C76.235 161.624 75.8161 161.536 75.3947 161.419C75.0099 161.329 74.6367 161.18 74.2753 160.972C73.9505 160.791 73.6517 160.521 73.379 160.162C73.3056 160.109 73.2533 160.098 73.2219 160.129C73.2273 160.187 73.1946 160.204 73.1239 160.179C72.6237 159.952 72.1993 159.618 71.8505 159.178C71.5044 158.766 71.1113 158.401 70.6711 158.083C70.6758 157.764 70.5838 157.509 70.3951 157.319C70.2037 157.1 69.9693 156.971 69.6919 156.931C69.7332 156.639 69.7223 156.335 69.6589 156.021C69.5616 155.709 69.4643 155.396 69.3669 155.084C69.2669 154.743 69.1682 154.417 69.0709 154.104C68.9709 153.763 68.9259 153.462 68.9359 153.201C68.8626 153.148 68.8116 153.151 68.7829 153.211C68.7175 153.244 68.6482 153.234 68.5748 153.181Z" fill="url(#paint5_linear_2311_1907)"/>
<path d="M109.281 150.482C109.311 149.698 109.483 148.962 109.796 148.275C110.108 147.588 110.476 146.941 110.899 146.334C111.356 145.724 111.848 145.126 112.376 144.541C112.904 143.956 113.43 143.356 113.955 142.742C114.023 142.737 114.074 142.734 114.108 142.732C114.139 142.701 114.206 142.682 114.308 142.675C114.409 142.292 114.639 142.001 114.997 141.804C115.355 141.606 115.601 141.3 115.734 140.886C116.011 140.925 116.191 140.841 116.275 140.633C116.39 140.393 116.583 140.265 116.855 140.246C117.197 139.876 117.543 139.549 117.894 139.265C118.241 138.952 118.607 138.653 118.991 138.367C119.059 138.362 119.073 138.332 119.034 138.277C119.029 138.219 119.043 138.19 119.077 138.187C119.328 137.939 119.566 137.735 119.79 137.575C120.049 137.413 120.324 137.236 120.614 137.043C121.097 136.721 121.542 136.344 121.946 135.911C122.351 135.479 122.83 135.1 123.381 134.773C123.447 134.74 123.53 134.72 123.632 134.713C123.732 134.678 123.813 134.629 123.875 134.567C123.972 134.502 124.049 134.41 124.106 134.291C124.198 134.169 124.292 134.076 124.389 134.011C124.417 133.951 124.45 133.935 124.487 133.961C124.555 133.957 124.604 133.939 124.636 133.908C124.732 133.844 124.795 133.782 124.824 133.722C124.884 133.631 124.945 133.554 125.008 133.492C125.071 133.43 125.152 133.381 125.251 133.346C125.35 133.31 125.448 133.26 125.545 133.196C125.961 132.879 126.396 132.589 126.851 132.327C127.34 132.063 127.824 131.756 128.305 131.405C128.462 131.25 128.603 131.11 128.729 130.986C128.888 130.86 129.047 130.733 129.207 130.607C129.398 130.449 129.658 130.302 129.987 130.164C130.317 130.026 130.609 129.862 130.866 129.671C130.954 129.52 131.081 129.411 131.246 129.342C131.444 129.271 131.571 129.161 131.626 129.012C131.791 128.944 131.974 128.888 132.175 128.846C132.374 128.775 132.571 128.689 132.767 128.589C132.961 128.46 133.086 128.336 133.144 128.217C133.742 128.032 134.233 127.782 134.614 127.467C134.996 127.152 135.466 126.875 136.026 126.635C136.02 126.577 136.033 126.533 136.065 126.502C136.128 126.44 136.121 126.368 136.045 126.286C136.61 126.104 137.109 125.955 137.543 125.839C137.978 125.723 138.449 125.634 138.956 125.572C139.668 125.872 140.506 126.048 141.469 126.1C142.429 126.123 143.264 126.271 143.974 126.542C144.081 126.593 144.164 126.559 144.221 126.439C144.478 126.625 144.814 126.747 145.23 126.807C145.646 126.866 145.963 126.961 146.181 127.091C146.742 127.604 147.318 128.102 147.91 128.584C148.502 129.066 149.063 129.58 149.593 130.124C149.53 130.186 149.521 130.273 149.566 130.386C149.644 130.497 149.72 130.579 149.794 130.632C149.8 131.066 149.766 131.445 149.694 131.768C149.621 132.092 149.53 132.402 149.42 132.699C149.311 132.996 149.185 133.294 149.041 133.593C148.929 133.861 148.839 134.186 148.772 134.567C148.639 134.605 148.559 134.668 148.533 134.756C148.541 134.843 148.533 134.945 148.51 135.062C148.442 135.067 148.392 135.084 148.361 135.115C148.363 135.144 148.331 135.161 148.263 135.165C148.336 135.218 148.34 135.262 148.275 135.295C148.209 135.328 148.212 135.357 148.283 135.381C147.604 136.18 146.998 137.031 146.466 137.935C145.933 138.839 145.294 139.693 144.547 140.496C144.557 140.611 144.531 140.699 144.469 140.761C144.403 140.795 144.377 140.883 144.391 141.027C144.166 141.187 143.978 141.373 143.826 141.586C143.672 141.77 143.484 141.956 143.262 142.145C142.833 142.318 142.352 142.481 141.819 142.632C141.282 142.754 140.783 142.903 140.32 143.079C140.309 142.964 140.236 142.911 140.1 142.92C139.998 142.926 139.843 142.922 139.637 142.907C139.558 142.796 139.464 142.701 139.354 142.621C139.244 142.542 139.102 142.493 138.929 142.476C138.945 142.272 138.88 142.131 138.736 142.054C138.592 141.977 138.417 141.93 138.21 141.915C138.035 141.869 137.859 141.823 137.684 141.776C137.543 141.728 137.464 141.617 137.448 141.444C137.44 141.358 137.351 141.32 137.181 141.332C137.008 140.938 136.97 140.535 137.069 140.123C137.168 139.71 137.196 139.274 137.153 138.813C137.118 138.439 137.068 138.08 137.002 137.737C136.97 137.392 137.042 137.054 137.216 136.724C137.18 136.697 137.155 136.612 137.141 136.468C136.548 136.71 135.979 137.037 135.436 137.45C135.237 137.521 135.073 137.604 134.945 137.7C134.849 137.764 134.755 137.857 134.663 137.979C134.012 138.341 133.398 138.729 132.82 139.144C132.277 139.557 131.716 139.971 131.139 140.385C130.848 140.578 130.541 140.773 130.217 140.968C129.924 141.132 129.633 141.311 129.343 141.504C128.763 141.89 128.186 142.319 127.614 142.792C127.042 143.264 126.451 143.723 125.842 144.169C125.492 144.453 125.107 144.725 124.686 144.985C124.296 145.213 123.926 145.47 123.576 145.753C123.351 145.913 123.146 146.101 122.961 146.316C122.807 146.5 122.617 146.672 122.393 146.831C122.142 147.08 121.901 147.255 121.671 147.357C121.475 147.457 121.392 147.665 121.421 147.982C121.316 147.96 121.25 147.979 121.221 148.039C121.192 148.099 121.124 148.103 121.017 148.052C120.39 148.673 119.783 149.322 119.195 149.998C118.607 150.674 118.038 151.364 117.487 152.067C117.663 152.113 117.822 152.175 117.966 152.252C118.144 152.327 118.351 152.342 118.587 152.298C118.791 152.284 118.958 152.244 119.089 152.178C119.251 152.08 119.437 152.053 119.646 152.097C119.714 152.093 119.751 152.119 119.756 152.177C119.759 152.206 119.794 152.218 119.862 152.213C120.103 152.226 120.34 152.196 120.572 152.123C120.839 152.047 121.109 152 121.381 151.982C121.48 151.947 121.582 151.94 121.687 151.962C121.792 151.984 121.895 151.992 121.997 151.985C122.434 151.898 122.852 151.798 123.253 151.684C123.684 151.54 124.104 151.454 124.512 151.427C124.682 151.416 124.819 151.421 124.924 151.443C125.063 151.463 125.16 151.398 125.214 151.25C125.79 151.183 126.376 151.043 126.972 150.829C127.568 150.616 128.103 150.479 128.577 150.419C128.645 150.414 128.694 150.396 128.726 150.365C128.754 150.306 128.801 150.259 128.867 150.226C129.44 150.13 129.943 150.024 130.377 149.908C130.843 149.761 131.323 149.585 131.817 149.378C133.664 148.995 135.336 148.58 136.835 148.133C138.365 147.655 139.985 147.229 141.696 146.855C142.724 146.497 143.673 146.217 144.544 146.014C145.413 145.783 146.433 145.527 147.605 145.246C148.431 144.931 149.396 144.635 150.5 144.359C151.638 144.081 152.567 143.773 153.289 143.435C153.768 143.433 154.24 143.358 154.705 143.211C155.168 143.035 155.633 142.874 156.098 142.728C156.205 142.778 156.28 142.846 156.322 142.93C156.398 143.012 156.473 143.079 156.546 143.132C156.361 143.347 156.135 143.493 155.868 143.568C155.601 143.644 155.448 143.842 155.41 144.164C155.138 144.182 154.943 144.296 154.825 144.507C154.708 144.717 154.537 144.902 154.312 145.062C154.147 145.131 153.983 145.2 153.818 145.269C153.651 145.309 153.484 145.363 153.32 145.432C152.996 145.627 152.671 145.823 152.347 146.018C152.054 146.182 151.762 146.346 151.469 146.511C151.474 146.568 151.48 146.626 151.485 146.683C151.524 146.739 151.547 146.795 151.552 146.853C151.421 146.919 151.289 146.972 151.156 147.009C151.022 147.047 150.996 147.136 151.078 147.275C150.709 147.358 150.535 147.514 150.556 147.744C149.722 147.974 149.003 148.152 148.399 148.279C147.794 148.406 147.203 148.676 146.626 149.091C145.933 149.369 145.24 149.647 144.547 149.924C143.851 150.173 143.212 150.476 142.629 150.834C142.64 150.949 142.726 150.958 142.888 150.86C142.87 151.035 142.794 151.141 142.661 151.179C142.559 151.186 142.436 151.151 142.292 151.073C141.644 151.464 140.853 151.792 139.919 152.056C138.985 152.321 138.146 152.681 137.401 153.136C137.129 153.154 136.827 153.217 136.494 153.326C136.196 153.433 135.918 153.567 135.659 153.729C135.602 153.849 135.624 153.905 135.726 153.899C135.825 153.863 135.862 153.89 135.836 153.978C135.781 154.127 135.721 154.218 135.656 154.251C135.588 154.255 135.47 154.278 135.303 154.318C135.128 154.648 134.854 154.825 134.48 154.85C134.105 154.875 133.811 155.025 133.597 155.3C133.197 155.413 132.729 155.531 132.193 155.654C131.69 155.774 131.298 155.974 131.016 156.253C130.846 156.264 130.743 156.257 130.706 156.23C130.191 156.583 129.495 156.832 128.619 156.977C127.777 157.12 127.047 157.371 126.43 157.73C126.011 157.642 125.63 157.769 125.285 158.111C124.814 158.2 124.31 158.306 123.774 158.428C123.272 158.548 122.753 158.67 122.216 158.792C121.714 158.912 121.175 159.006 120.6 159.073C120.058 159.138 119.53 159.158 119.014 159.135C118.907 159.084 118.856 159.087 118.861 159.145C118.869 159.231 118.838 159.262 118.767 159.238C118.28 159.154 117.81 159.07 117.358 158.984C116.941 158.925 116.523 158.836 116.101 158.72C115.716 158.629 115.343 158.48 114.982 158.272C114.657 158.091 114.358 157.821 114.085 157.463C114.012 157.41 113.96 157.399 113.928 157.43C113.934 157.487 113.901 157.504 113.83 157.48C113.33 157.252 112.906 156.918 112.557 156.478C112.211 156.066 111.818 155.701 111.378 155.383C111.382 155.064 111.29 154.809 111.102 154.619C110.91 154.4 110.676 154.271 110.398 154.231C110.44 153.939 110.429 153.635 110.365 153.321C110.268 153.009 110.171 152.697 110.073 152.384C109.973 152.044 109.875 151.717 109.777 151.405C109.677 151.064 109.632 150.763 109.642 150.501C109.569 150.448 109.518 150.452 109.489 150.511C109.424 150.545 109.355 150.535 109.281 150.482Z" fill="url(#paint6_linear_2311_1907)"/>
<path d="M168.595 123.649C168.626 123.618 168.677 123.615 168.748 123.639C168.85 123.633 168.899 123.6 168.893 123.543C168.885 123.456 168.863 123.4 168.826 123.373C168.821 123.316 168.833 123.257 168.861 123.197C168.895 123.195 168.914 123.208 168.916 123.237C168.95 123.235 168.984 123.233 169.018 123.23C169.141 123.077 169.244 122.897 169.327 122.688C169.445 122.478 169.53 122.284 169.582 122.107C169.71 122.011 169.821 121.917 169.915 121.824C170.006 121.702 170.041 121.526 170.02 121.296C170.303 121.393 170.524 121.378 170.683 121.252C170.84 121.096 171.026 121.07 171.24 121.171C171.306 121.138 171.303 121.109 171.232 121.085C171.193 121.029 171.206 120.985 171.271 120.952C171.387 121.089 171.512 121.153 171.649 121.144C171.819 121.133 171.95 121.254 172.042 121.509C172.206 121.44 172.325 121.432 172.399 121.485C172.503 121.507 172.625 121.528 172.764 121.548C172.738 121.637 172.745 121.709 172.784 121.764C172.821 121.791 172.857 121.817 172.894 121.844C172.965 121.868 173.02 121.908 173.059 121.963C173.096 121.99 173.102 122.062 173.079 122.179C173.252 122.196 173.422 122.185 173.589 122.145C173.668 122.256 173.735 122.425 173.79 122.653C173.877 122.85 173.913 123.051 173.897 123.254C174.015 123.42 174.118 123.602 174.204 123.799C174.325 123.994 174.396 124.206 174.417 124.437C174.564 124.543 174.639 124.61 174.641 124.639C174.647 124.696 174.614 124.713 174.543 124.689C174.47 124.636 174.473 124.665 174.551 124.775C174.74 124.965 174.953 125.053 175.192 125.037C175.427 124.992 175.63 124.964 175.8 124.953C176.378 124.915 176.873 124.896 177.283 124.898C177.726 124.869 178.149 124.826 178.555 124.77C178.856 124.693 179.159 124.643 179.465 124.623C179.769 124.574 180.043 124.585 180.29 124.655C180.672 124.717 181.048 124.721 181.42 124.667C181.825 124.611 182.235 124.599 182.648 124.629C182.907 124.467 183.178 124.435 183.461 124.532C183.778 124.627 184.12 124.633 184.489 124.551C184.518 124.491 184.534 124.475 184.536 124.504C184.57 124.502 184.619 124.47 184.681 124.408C185.239 124.515 185.873 124.531 186.585 124.455C186.766 124.559 186.959 124.619 187.166 124.634C187.404 124.618 187.662 124.63 187.939 124.669C188.316 124.673 188.715 124.734 189.137 124.851C189.556 124.939 189.95 124.942 190.318 124.859C190.465 124.965 190.626 125.042 190.802 125.088C191.011 125.132 191.198 125.12 191.363 125.051C191.512 125.186 191.693 125.29 191.905 125.362C192.117 125.435 192.312 125.509 192.49 125.584C192.7 125.628 192.895 125.702 193.075 125.806C193.287 125.879 193.487 125.996 193.673 126.158C193.712 126.213 193.745 126.196 193.771 126.108C193.794 125.99 193.829 126.002 193.877 126.144C194.385 126.458 194.83 126.834 195.213 127.272C195.593 127.681 196.023 128.073 196.502 128.447C196.513 128.562 196.541 128.676 196.585 128.789C196.63 128.902 196.705 128.969 196.81 128.991C196.723 129.171 196.709 129.389 196.767 129.646C196.823 129.874 196.83 130.134 196.788 130.426C196.76 130.486 196.73 130.532 196.698 130.563C196.701 130.592 196.688 130.636 196.659 130.696C196.662 130.724 196.666 130.768 196.671 130.825C196.708 130.852 196.728 130.879 196.73 130.908C196.736 130.966 196.707 131.026 196.644 131.088C196.579 131.121 196.516 131.183 196.456 131.274C196.347 131.571 196.206 131.899 196.034 132.258C195.896 132.615 195.735 132.915 195.553 133.159C195.521 133.19 195.439 133.224 195.306 133.262C195.075 133.364 194.886 133.536 194.737 133.778C194.586 133.991 194.381 134.178 194.122 134.34C194.028 134.433 193.882 134.515 193.683 134.586C193.419 134.691 193.204 134.777 193.04 134.846C192.875 134.915 192.659 134.987 192.392 135.063C192.045 135.376 191.637 135.591 191.169 135.709C190.698 135.798 190.291 136.028 189.949 136.398C189.907 136.314 189.818 136.277 189.682 136.286C189.426 136.476 189.13 136.612 188.796 136.692C188.495 136.77 188.164 136.893 187.803 137.062C187.641 137.16 187.497 137.271 187.372 137.395C187.278 137.488 187.149 137.569 186.984 137.638C186.712 137.656 186.526 137.683 186.427 137.718C186.33 137.782 186.203 137.892 186.047 138.047C185.882 138.116 185.665 138.174 185.395 138.221C185.126 138.268 184.875 138.328 184.642 138.401C184.574 138.406 184.543 138.437 184.548 138.494C184.551 138.523 184.536 138.553 184.505 138.584C184.34 138.653 184.154 138.68 183.948 138.665C183.775 138.647 183.646 138.728 183.559 138.908C183.452 138.857 183.332 138.85 183.198 138.888C183.096 138.895 183.018 138.973 182.963 139.121C182.827 139.13 182.754 139.077 182.743 138.962C182.288 139.224 181.794 139.43 181.26 139.582C180.761 139.731 180.278 139.878 179.813 140.025C179.347 140.172 178.832 140.336 178.267 140.519C177.734 140.67 177.2 140.821 176.667 140.972C176.753 141.169 176.886 141.306 177.064 141.381C177.276 141.453 177.474 141.556 177.657 141.689C178.138 141.715 178.559 141.817 178.917 141.996C179.025 142.047 179.132 142.098 179.239 142.149C179.344 142.171 179.42 142.253 179.468 142.394C179.949 142.42 180.403 142.521 180.83 142.695C181.254 142.841 181.665 143.031 182.063 143.265C182.448 143.355 182.802 143.477 183.124 143.629C183.48 143.779 183.792 144.005 184.059 144.306C184.489 144.509 184.918 144.712 185.348 144.916C185.808 145.088 186.238 145.291 186.636 145.525C187.034 145.76 187.384 146.026 187.685 146.325C188.021 146.621 188.278 146.995 188.457 147.447C188.527 147.471 188.565 147.512 188.571 147.57C188.576 147.627 188.614 147.668 188.685 147.692C188.63 147.841 188.556 147.962 188.461 148.055C188.401 148.146 188.341 148.237 188.281 148.327C188.295 148.471 188.322 148.585 188.364 148.67C188.276 148.82 188.15 148.944 187.988 149.042C187.881 148.991 187.775 148.955 187.67 148.933C187.599 148.909 187.527 148.87 187.454 148.817C187.389 148.85 187.359 148.896 187.364 148.953C187.403 149.008 187.386 149.01 187.313 148.957C187.36 149.098 187.405 149.211 187.447 149.295C187.52 149.348 187.53 149.449 187.475 149.598C187.378 149.662 187.309 149.652 187.267 149.568C187.256 149.453 187.2 149.399 187.098 149.405C186.954 149.705 186.741 149.806 186.459 149.708C186.176 149.611 185.879 149.544 185.567 149.507C185.615 149.649 185.692 149.745 185.799 149.796C185.907 149.846 185.966 149.929 185.976 150.045C185.982 150.102 185.952 150.148 185.886 150.181C185.818 150.185 185.769 150.203 185.737 150.234C185.449 150.08 185.148 149.969 184.834 149.903C184.517 149.808 184.2 149.713 183.884 149.618C183.601 149.521 183.3 149.411 182.98 149.287C182.695 149.161 182.422 148.991 182.163 148.777C182.066 148.841 181.949 148.863 181.81 148.844C181.705 148.822 181.616 148.784 181.543 148.731C181.545 148.76 181.531 148.79 181.5 148.821C181.502 148.849 181.467 148.837 181.394 148.784C181.54 148.89 181.704 148.995 181.885 149.099C182.063 149.174 182.21 149.281 182.325 149.418C182.16 149.487 181.918 149.459 181.599 149.336C181.311 149.181 181.059 149.053 180.844 148.951L180.589 148.968C180.149 148.65 179.633 148.438 179.042 148.332C178.484 148.224 177.987 148.025 177.549 147.736C176.225 147.476 174.911 147.143 173.607 146.737C172.337 146.329 171.069 145.935 169.802 145.556C169.665 145.565 169.6 145.598 169.605 145.655C169.422 145.523 169.171 145.395 168.851 145.271C168.566 145.145 168.284 145.062 168.007 145.023C167.939 145.027 167.872 145.046 167.807 145.08C167.773 145.082 167.72 145.071 167.65 145.047L167.646 145.003L167.591 144.964C167.517 144.91 167.413 144.888 167.277 144.897C167.172 144.875 167.032 144.841 166.856 144.795C166.678 144.72 166.534 144.643 166.424 144.563C166.312 144.455 166.223 144.417 166.157 144.45C166.089 144.455 166.009 144.518 165.918 144.64C165.861 144.76 165.788 144.895 165.699 145.046C165.61 145.196 165.522 145.347 165.433 145.498C165.378 145.646 165.338 145.765 165.312 145.853C165.192 146.035 165.086 146.187 164.995 146.309C164.903 146.431 164.833 146.595 164.783 146.801C164.828 146.914 164.835 146.986 164.803 147.017C164.772 147.048 164.762 147.121 164.772 147.236C164.613 147.363 164.509 147.529 164.459 147.735C164.41 147.941 164.305 148.107 164.146 148.234C164.112 148.236 164.095 148.237 164.095 148.237C164.092 148.208 164.057 148.196 163.989 148.201C163.932 148.32 163.839 148.428 163.711 148.523C163.617 148.616 163.546 148.78 163.5 149.015C163.432 149.02 163.399 149.036 163.402 149.065C163.404 149.094 163.386 149.081 163.347 149.025C163.263 149.234 163.145 149.43 162.99 149.614C162.834 149.769 162.732 149.964 162.685 150.199C162.21 150.983 161.734 151.754 161.257 152.51C160.813 153.263 160.337 154.033 159.828 154.82L159.624 154.834C159.598 154.922 159.553 154.998 159.491 155.06C159.465 155.149 159.439 155.237 159.413 155.326C159.342 155.301 159.274 155.306 159.208 155.339C159.18 155.399 159.129 155.403 159.055 155.349C159.05 155.292 159.076 155.203 159.133 155.084C159.225 154.962 159.282 154.842 159.306 154.725C159.23 154.643 159.158 154.604 159.09 154.609C159.021 154.613 158.935 154.604 158.83 154.582C158.792 154.903 158.681 155.186 158.498 155.43C158.352 155.7 158.296 156.023 158.331 156.397C158.195 156.406 158.115 156.281 158.091 156.022C158.07 155.791 158.089 155.631 158.149 155.54C158.104 155.427 158.031 155.374 157.929 155.381C157.861 155.385 157.777 155.405 157.678 155.441C157.615 155.503 157.57 155.564 157.541 155.624C157.515 155.712 157.54 155.798 157.616 155.879C157.451 155.948 157.315 155.957 157.208 155.907C157.137 155.882 157.064 155.829 156.988 155.747C156.912 155.665 156.834 155.569 156.756 155.459C156.711 155.346 156.652 155.263 156.578 155.21C156.453 155.334 156.432 155.48 156.516 155.648C156.603 155.845 156.636 156.017 156.615 156.163C156.689 156.216 156.753 156.168 156.807 156.02C156.899 155.898 156.981 155.864 157.055 155.917C157 156.065 156.907 156.173 156.776 156.239C156.648 156.335 156.531 156.357 156.423 156.306C156.468 156.419 156.458 156.492 156.392 156.525C156.361 156.557 156.349 156.615 156.357 156.702C156.3 156.821 156.321 156.863 156.42 156.828C156.556 156.819 156.593 156.845 156.53 156.907C156.612 157.047 156.563 157.079 156.385 157.004C156.244 156.955 156.213 156.986 156.291 157.097C156.118 157.08 156.006 156.971 155.953 156.772C155.934 156.57 155.916 156.369 155.897 156.167C155.813 155.999 155.703 155.919 155.567 155.928C155.551 155.756 155.534 155.569 155.515 155.367C155.533 155.192 155.484 155.036 155.369 154.899C155.486 154.688 155.546 154.409 155.548 154.061C155.553 153.742 155.539 153.41 155.507 153.065C155.512 152.746 155.534 152.426 155.572 152.104C155.611 151.783 155.722 151.501 155.905 151.257C155.891 151.113 155.866 151.028 155.83 151.001C155.793 150.975 155.754 150.919 155.712 150.835C156.032 149.858 156.338 148.911 156.629 147.993C156.952 147.045 157.295 146.124 157.657 145.231C157.746 145.081 157.847 144.886 157.962 144.646C158.111 144.405 158.19 144.153 158.2 143.892C158.168 143.546 158.037 143.236 157.806 142.962C157.609 142.685 157.379 142.599 157.115 142.704C157.042 142.651 157.001 142.581 156.993 142.494C156.985 142.408 157.012 142.334 157.075 142.272C156.962 142.163 156.865 142.039 156.784 141.9C156.7 141.732 156.617 141.578 156.536 141.439C156.614 141.173 156.642 140.925 156.621 140.694C156.6 140.464 156.572 140.162 156.537 139.787C156.586 139.581 156.655 139.403 156.744 139.252C156.833 139.101 156.869 138.94 156.853 138.767C157.094 138.78 157.378 138.703 157.704 138.537C158.031 138.37 158.348 138.277 158.654 138.256C158.858 138.243 159.046 138.245 159.219 138.262C159.423 138.249 159.547 138.11 159.591 137.847C159.665 137.9 159.737 137.938 159.807 137.963C159.875 137.958 159.946 137.982 160.019 138.036C160.224 138.022 160.407 137.966 160.569 137.869C160.765 137.769 160.919 137.585 161.031 137.317C161.237 136.955 161.405 136.553 161.535 136.11C161.699 135.665 161.896 135.203 162.126 134.724C162.42 134.212 162.683 133.717 162.912 133.238C163.139 132.73 163.349 132.224 163.541 131.719C162.225 131.545 160.945 131.587 159.703 131.843C158.458 132.071 157.265 132.309 156.124 132.558C156.239 132.319 156.433 132.19 156.705 132.172C156.974 132.125 157.224 132.051 157.454 131.949C157.415 131.893 157.377 131.853 157.34 131.826C157.303 131.799 157.265 131.759 157.226 131.703C156.049 131.926 154.948 132.231 153.923 132.618C152.897 133.004 151.897 133.288 150.921 133.468C150.856 133.502 150.81 133.563 150.784 133.651C150.79 133.709 150.743 133.755 150.643 133.791C150.332 133.754 150.078 133.785 149.882 133.885C149.649 133.958 149.427 133.958 149.215 133.886C149.201 133.742 149.246 133.666 149.348 133.66C149.447 133.624 149.455 133.522 149.371 133.354C149.41 133.409 149.462 133.42 149.528 133.387C149.557 133.327 149.568 133.268 149.563 133.211C149.481 133.071 149.395 133.063 149.304 133.185C149.176 133.28 149.07 133.244 148.986 133.075C148.821 133.144 148.692 133.225 148.597 133.318C148.467 133.385 148.28 133.397 148.036 133.355C147.963 133.302 147.921 133.218 147.91 133.103C147.863 132.961 147.784 132.851 147.674 132.771C147.786 132.503 147.792 132.199 147.692 131.858C147.815 131.705 147.957 131.579 148.119 131.482C148.245 131.357 148.332 131.192 148.382 130.986C148.455 131.039 148.524 131.049 148.59 131.016C148.655 130.983 148.724 130.992 148.798 131.046C149.629 130.788 150.406 130.49 151.128 130.152C151.125 130.124 151.124 130.109 151.124 130.109C151.22 130.045 151.402 129.975 151.669 129.899C151.933 129.795 152.115 129.725 152.214 129.689C152.609 129.518 153.008 129.39 153.411 129.306C153.845 129.19 154.224 129.035 154.548 128.839C155.212 128.621 155.916 128.459 156.659 128.352C157.399 128.216 158.157 128.079 158.931 127.94C160.31 127.675 161.65 127.369 162.953 127.022C164.255 126.675 165.528 126.373 166.77 126.117C166.773 126.146 166.778 126.203 166.786 126.29C166.826 126.345 166.878 126.356 166.943 126.323C167.006 126.261 167.086 126.197 167.182 126.133C167.313 126.066 167.41 126.002 167.472 125.94C167.535 125.878 167.655 125.696 167.833 125.395C168.01 125.093 168.112 124.898 168.138 124.81C168.169 124.778 168.167 124.75 168.13 124.723C168.124 124.666 168.119 124.608 168.114 124.55C168.242 124.455 168.369 124.345 168.494 124.221C168.617 124.068 168.65 123.878 168.595 123.649ZM171.24 135.032C171.51 134.985 171.829 134.921 172.197 134.838C172.566 134.756 172.787 134.553 172.86 134.229C173.121 134.096 173.384 133.977 173.648 133.873C173.944 133.737 174.226 133.646 174.495 133.599C174.731 133.555 174.93 133.484 175.092 133.386C175.254 133.288 175.45 133.189 175.68 133.086C176.043 132.946 176.459 132.817 176.927 132.7C177.43 132.579 177.844 132.436 178.171 132.269C178.226 132.121 178.318 132.013 178.449 131.947C178.625 131.993 178.744 131.985 178.806 131.923C178.903 131.859 179.022 131.851 179.163 131.899C179.676 131.518 180.248 131.234 180.881 131.047C181.514 130.86 182.084 130.547 182.591 130.108C181.937 130.064 181.218 130.069 180.436 130.12C179.688 130.17 178.96 130.262 178.254 130.396C177.783 130.485 177.324 130.515 176.877 130.487C176.429 130.459 176.004 130.487 175.601 130.571C175.028 130.667 174.509 130.789 174.044 130.935C173.575 131.053 173.09 131.173 172.588 131.293C172.434 131.853 172.226 132.374 171.963 132.855C171.699 133.336 171.492 133.871 171.341 134.46C171.349 134.547 171.387 134.588 171.455 134.583C171.521 134.55 171.542 134.592 171.518 134.709C171.421 134.774 171.355 134.793 171.318 134.766C171.281 134.74 171.236 134.801 171.181 134.949C171.22 135.004 171.24 135.032 171.24 135.032ZM196.477 129.839C196.485 129.925 196.478 130.027 196.454 130.144C196.428 130.233 196.452 130.304 196.525 130.357C196.483 130.273 196.492 130.185 196.552 130.094C196.61 129.975 196.585 129.89 196.477 129.839Z" fill="url(#paint7_linear_2311_1907)"/>
<path d="M185.459 155.641C185.26 155.712 185.052 155.682 184.835 155.552C184.584 155.423 184.302 155.341 183.991 155.303C183.923 155.308 183.876 155.355 183.85 155.443C183.824 155.532 183.773 155.535 183.697 155.453C183.751 155.305 183.718 155.133 183.598 154.938C183.54 155.058 183.518 155.19 183.532 155.334C183.361 155.345 183.2 155.269 183.048 155.105C183.043 155.048 183.055 154.989 183.083 154.929C183.081 154.9 183.166 154.895 183.338 154.912L183.307 154.567C183.343 154.593 183.359 154.578 183.354 154.52C183.348 154.463 183.381 154.446 183.452 154.47C183.415 154.444 183.411 154.4 183.44 154.341C183.434 154.283 183.396 154.242 183.326 154.218C183.294 154.249 183.297 154.278 183.334 154.304C183.373 154.36 183.378 154.417 183.35 154.477C183.31 154.422 183.236 154.354 183.125 154.275C183.018 154.224 182.932 154.215 182.866 154.248L182.806 153.601C182.657 153.466 182.475 153.347 182.26 153.246C182.048 153.173 182.012 152.972 182.153 152.644C182.287 152.607 182.416 152.526 182.541 152.401C182.667 152.277 182.705 152.13 182.655 151.959L183.063 151.932C183.4 151.504 183.738 151.091 184.077 150.692C184.383 150.295 184.721 149.882 185.092 149.451C184.411 149.497 183.718 149.586 183.012 149.72C182.272 149.856 181.655 149.853 181.163 149.712C181.069 149.805 180.937 149.857 180.767 149.869C180.563 149.882 180.399 149.965 180.277 150.118C180.201 150.037 180.13 150.012 180.065 150.046C179.999 150.079 179.929 150.055 179.853 149.973C179.899 149.738 180.025 149.614 180.229 149.6C180.396 149.56 180.544 149.492 180.672 149.397C180.604 149.401 180.553 149.405 180.519 149.407C180.448 149.383 180.342 149.346 180.201 149.298C180.109 149.42 179.998 149.514 179.868 149.581C179.7 149.621 179.588 149.701 179.531 149.82C179.347 149.688 179.174 149.67 179.012 149.768C178.814 149.839 178.684 149.92 178.624 150.011C178.619 149.953 178.599 149.926 178.565 149.928C178.497 149.932 178.46 149.906 178.455 149.848C178.447 149.762 178.493 149.701 178.592 149.665C178.658 149.632 178.654 149.589 178.58 149.536C178.567 149.392 178.598 149.361 178.674 149.443C178.75 149.524 178.838 149.548 178.937 149.512C178.932 149.454 178.91 149.398 178.87 149.343L178.693 149.094C178.426 149.169 178.207 149.198 178.034 149.181C177.861 149.163 177.661 149.22 177.434 149.351C177.389 149.238 177.367 149.182 177.367 149.182C177.364 149.153 177.356 149.067 177.343 148.923C177.515 148.94 177.642 148.83 177.723 148.593L177.778 148.633C177.781 148.662 177.8 148.689 177.837 148.716C177.837 148.716 177.838 148.73 177.841 148.759C178.225 148.473 178.616 148.259 179.013 148.117C179.411 147.974 179.807 147.818 180.202 147.647C180.364 147.549 180.581 147.491 180.853 147.473C181.089 147.429 181.234 147.332 181.288 147.184C181.362 147.237 181.464 147.23 181.595 147.163C181.691 147.099 181.778 147.108 181.854 147.19C181.882 147.13 181.912 147.084 181.944 147.053C181.975 147.022 182.021 146.961 182.081 146.87C182.361 146.939 182.613 146.893 182.838 146.733C183.06 146.545 183.326 146.455 183.634 146.463C183.736 146.456 183.782 146.395 183.771 146.28C183.939 146.24 184.126 146.228 184.333 146.243C184.537 146.229 184.679 146.104 184.76 145.867C184.545 145.765 184.392 145.776 184.301 145.898C184.173 145.993 184.041 146.045 183.905 146.054C183.928 145.937 184.021 145.829 184.183 145.732C184.342 145.605 184.521 145.506 184.72 145.435C184.945 145.275 185.209 145.171 185.512 145.122C185.813 145.044 186.151 144.993 186.525 144.968C186.593 144.963 186.642 144.946 186.674 144.915C186.668 144.857 186.68 144.798 186.709 144.738C187.208 144.589 187.64 144.445 188.003 144.305C188.364 144.136 188.878 143.957 189.545 143.768C189.579 143.766 189.593 143.736 189.588 143.678C189.583 143.621 189.613 143.575 189.678 143.542C189.783 143.564 189.853 143.588 189.89 143.615C189.924 143.613 189.974 143.595 190.039 143.562C190.089 143.356 190.23 143.216 190.462 143.143C190.695 143.069 190.818 142.916 190.831 142.684C191.035 142.67 191.163 142.575 191.215 142.397C191.267 142.22 191.379 142.14 191.552 142.158C191.959 141.378 192.443 140.694 193.005 140.106C193.598 139.488 194.102 138.831 194.516 138.138C194.71 138.009 194.799 137.858 194.783 137.685C194.817 137.683 194.835 137.696 194.838 137.725C194.872 137.723 194.923 137.72 194.991 137.715C195.029 137.394 195.178 137.152 195.437 136.99C195.727 136.797 195.887 136.497 195.918 136.089C196.362 135.712 196.732 135.268 197.027 134.756C197.356 134.241 197.759 133.795 198.237 133.415C198.313 133.121 198.409 132.868 198.526 132.657C198.678 132.445 198.831 132.246 198.985 132.062C199.17 131.847 199.339 131.633 199.49 131.42C199.641 131.208 199.756 130.968 199.834 130.702C200.213 130.359 200.501 129.963 200.7 129.515C200.932 129.065 201.237 128.669 201.616 128.325C201.694 128.059 201.81 127.834 201.964 127.65C202.15 127.435 202.298 127.193 202.411 126.925C202.849 126.49 203.218 126.032 203.515 125.548C203.813 125.065 204.185 124.649 204.632 124.301C204.66 124.241 204.69 124.196 204.722 124.165C204.787 124.131 204.799 124.073 204.757 123.989C205.324 123.459 205.766 122.879 206.084 122.249C206.672 121.573 207.23 120.942 207.757 120.357C208.319 119.769 208.808 119.143 209.226 118.478C209.396 118.467 209.51 118.401 209.567 118.282C209.656 118.131 209.73 118.01 209.79 117.919C210.054 117.815 210.246 117.672 210.366 117.49C210.487 117.308 210.642 117.139 210.833 116.981C210.943 117.061 211.028 117.055 211.088 116.964C211.182 116.871 211.296 116.806 211.429 116.768C211.471 116.852 211.446 116.955 211.355 117.077C211.261 117.17 211.165 117.249 211.069 117.313C211.312 117.355 211.605 117.379 211.948 117.385C212.288 117.363 212.614 117.37 212.925 117.407C213.268 117.413 213.581 117.465 213.864 117.562C214.178 117.628 214.429 117.756 214.618 117.947C214.592 118.035 214.583 118.123 214.591 118.209C214.596 118.267 214.547 118.285 214.442 118.263C214.549 118.313 214.662 118.422 214.78 118.588C214.895 118.725 215.001 118.761 215.098 118.697C215.242 118.774 215.337 118.869 215.381 118.982C215.46 119.093 215.588 119.186 215.766 119.261C215.709 119.381 215.721 119.51 215.802 119.65C215.915 119.758 216.042 119.837 216.184 119.885C216.184 120.262 216.217 120.622 216.283 120.965C216.347 121.279 216.394 121.609 216.426 121.955C216.49 122.269 216.502 122.587 216.463 122.908C216.459 123.227 216.387 123.565 216.249 123.922C216.27 124.152 216.271 124.34 216.25 124.486C216.227 124.604 216.188 124.737 216.133 124.885C216.11 125.003 216.071 125.136 216.016 125.284C215.995 125.43 215.997 125.633 216.021 125.892C215.836 126.484 215.691 127.131 215.585 127.833C215.512 128.533 215.366 129.165 215.144 129.73C215.236 129.985 215.246 130.274 215.173 130.598C215.098 130.892 214.986 131.16 214.837 131.402C214.882 131.891 214.84 132.358 214.71 132.801C214.614 133.242 214.553 133.695 214.528 134.16C214.493 134.162 214.463 134.208 214.437 134.296C214.443 134.354 214.41 134.37 214.339 134.346C214.345 134.404 214.364 134.431 214.398 134.429C214.466 134.425 214.503 134.451 214.508 134.509C214.324 135.1 214.203 135.644 214.146 136.14C214.087 136.608 214.05 137.132 214.035 137.712C214.15 137.849 214.275 137.899 214.408 137.861C214.539 137.795 214.672 137.757 214.808 137.748C215.018 137.792 215.211 137.851 215.389 137.926C215.568 138.001 215.776 138.031 216.014 138.015C216.15 138.006 216.267 137.984 216.367 137.948C216.464 137.884 216.567 137.892 216.677 137.971C216.75 138.024 216.786 138.037 216.783 138.008C216.78 137.979 216.813 137.962 216.881 137.958C217.208 138.168 217.603 138.359 218.063 138.531C218.524 138.703 218.907 138.953 219.211 139.281C219.148 139.343 219.139 139.43 219.184 139.543C219.226 139.627 219.266 139.697 219.306 139.752C219.311 139.81 219.316 139.867 219.322 139.925C219.327 139.983 219.313 140.013 219.279 140.015C219.318 140.07 219.359 140.14 219.401 140.224C219.443 140.308 219.552 140.373 219.727 140.42C219.732 140.477 219.704 140.537 219.641 140.599C219.576 140.632 219.511 140.68 219.449 140.742C219.533 140.91 219.577 141.023 219.583 141.081C219.619 141.107 219.66 141.177 219.705 141.29C219.569 141.299 219.524 141.374 219.572 141.516C219.65 141.627 219.623 141.701 219.49 141.739L219.526 142.128C219.497 142.187 219.485 142.246 219.491 142.304C219.493 142.332 219.465 142.392 219.405 142.483C218.944 142.687 218.463 142.85 217.961 142.97C217.456 143.061 216.936 143.168 216.399 143.291C215.86 143.384 215.306 143.494 214.736 143.618C214.165 143.743 213.582 143.912 212.986 144.125C212.957 144.185 212.929 144.245 212.9 144.305C212.869 144.336 212.874 144.394 212.916 144.478C212.678 144.494 212.559 144.501 212.559 144.501C212.499 144.592 212.456 144.682 212.43 144.771C212.438 144.857 212.395 144.947 212.301 145.04C212.317 145.589 212.219 146.19 212.005 146.841C211.792 147.492 211.555 148.073 211.294 148.583C211.142 148.419 211.104 148.19 211.179 147.895C211.252 147.572 211.181 147.359 210.966 147.258C210.885 147.495 210.838 147.729 210.826 147.962C210.844 148.164 210.864 148.38 210.886 148.61C210.818 148.614 210.784 148.617 210.784 148.617C210.716 148.621 210.697 148.608 210.729 148.577C210.76 148.546 210.755 148.488 210.713 148.404C210.519 148.533 210.487 148.738 210.616 149.019C210.485 149.085 210.406 149.163 210.38 149.252C210.354 149.34 210.328 149.429 210.302 149.518C210.313 149.633 210.288 149.736 210.228 149.827C210.205 149.944 210.127 150.022 209.993 150.059C209.985 149.973 209.959 149.873 209.914 149.761C209.906 149.674 209.851 149.634 209.749 149.641C209.841 149.519 209.831 149.418 209.721 149.339C209.556 149.408 209.445 149.502 209.388 149.622C209.333 149.77 209.279 149.919 209.224 150.067C209.206 150.242 209.168 150.389 209.111 150.509C209.056 150.657 208.965 150.779 208.837 150.875C208.758 150.764 208.709 150.608 208.691 150.407C208.672 150.205 208.656 150.032 208.643 149.888C208.546 149.953 208.523 150.07 208.573 150.241C208.623 150.411 208.598 150.514 208.499 150.55C208.433 150.583 208.381 150.572 208.342 150.517C208.336 150.459 208.3 150.432 208.232 150.437C208.169 150.499 208.106 150.561 208.043 150.623C208.017 150.712 208.01 150.814 208.02 150.929C207.89 150.996 207.805 151.001 207.765 150.946C207.729 150.919 207.676 150.908 207.608 150.913C207.595 150.769 207.583 150.639 207.572 150.524C207.598 150.436 207.606 150.334 207.595 150.218C207.593 150.19 207.574 150.176 207.54 150.179C207.543 150.207 207.543 150.207 207.54 150.179C207.497 149.341 207.443 148.577 207.379 147.886C207.347 147.164 207.331 146.441 207.333 145.717C206.553 145.798 205.605 145.904 204.488 146.036C203.37 146.168 202.426 146.318 201.654 146.485C201.555 146.52 201.491 146.568 201.462 146.628C201.468 146.685 201.439 146.745 201.376 146.807C201.306 146.783 201.285 146.741 201.313 146.681C201.342 146.621 201.322 146.594 201.254 146.598C201.26 146.656 201.209 146.659 201.101 146.608C200.991 146.529 200.943 146.561 200.956 146.705C200.273 146.721 199.615 146.823 198.982 147.009C198.347 147.167 197.691 147.298 197.016 147.401C196.818 147.472 196.599 147.515 196.361 147.531C196.12 147.518 195.923 147.603 195.769 147.787C195.596 147.77 195.476 147.763 195.408 147.768C195.371 147.741 195.319 147.73 195.251 147.735C194.065 148.972 192.948 150.219 191.901 151.477C190.854 152.734 189.714 153.91 188.48 155.006C188.342 154.986 188.207 155.009 188.076 155.076C187.914 155.174 187.786 155.269 187.692 155.362C187.517 155.316 187.332 155.357 187.139 155.486C186.948 155.643 186.711 155.673 186.429 155.576C186.23 155.647 186.117 155.727 186.091 155.816C185.913 155.741 185.741 155.723 185.573 155.763C185.372 155.806 185.234 155.8 185.161 155.747C185.226 155.714 185.276 155.696 185.31 155.694C185.344 155.692 185.394 155.674 185.459 155.641ZM206.364 139.133C206.351 138.989 206.395 138.914 206.497 138.907C206.63 138.869 206.741 138.775 206.83 138.624C206.909 138.735 206.996 138.758 207.093 138.694C207.224 138.627 207.323 138.592 207.391 138.587C207.357 137.112 207.401 135.733 207.522 134.451C207.643 133.168 207.727 131.859 207.774 130.523C207.161 131.288 206.62 132.106 206.153 132.977C205.718 133.817 205.174 134.592 204.521 135.302C204.093 136.228 203.591 137.087 203.014 137.878C202.437 138.67 201.86 139.461 201.283 140.252L201.303 140.468C202.166 140.179 203.003 139.979 203.814 139.867C204.622 139.727 205.472 139.482 206.364 139.133Z" fill="url(#paint8_linear_2311_1907)"/>
<defs>
<linearGradient id="paint0_linear_2311_1907" x1="16" y1="128.5" x2="241" y2="128.5" gradientUnits="userSpaceOnUse">
<stop stop-color="#F8F8F8"/>
<stop offset="1" stop-color="#ADADAD"/>
</linearGradient>
<linearGradient id="paint1_linear_2311_1907" x1="16" y1="128.5" x2="241" y2="128.5" gradientUnits="userSpaceOnUse">
<stop stop-color="#F8F8F8"/>
<stop offset="1" stop-color="#ADADAD"/>
</linearGradient>
<linearGradient id="paint2_linear_2311_1907" x1="16" y1="128.5" x2="241" y2="128.5" gradientUnits="userSpaceOnUse">
<stop stop-color="#F8F8F8"/>
<stop offset="1" stop-color="#ADADAD"/>
</linearGradient>
<linearGradient id="paint3_linear_2311_1907" x1="16" y1="128.5" x2="241" y2="128.5" gradientUnits="userSpaceOnUse">
<stop stop-color="#F8F8F8"/>
<stop offset="1" stop-color="#ADADAD"/>
</linearGradient>
<linearGradient id="paint4_linear_2311_1907" x1="16" y1="128.5" x2="241" y2="128.5" gradientUnits="userSpaceOnUse">
<stop stop-color="#F8F8F8"/>
<stop offset="1" stop-color="#ADADAD"/>
</linearGradient>
<linearGradient id="paint5_linear_2311_1907" x1="16" y1="128.5" x2="241" y2="128.5" gradientUnits="userSpaceOnUse">
<stop stop-color="#F8F8F8"/>
<stop offset="1" stop-color="#ADADAD"/>
</linearGradient>
<linearGradient id="paint6_linear_2311_1907" x1="16" y1="128.5" x2="241" y2="128.5" gradientUnits="userSpaceOnUse">
<stop stop-color="#F8F8F8"/>
<stop offset="1" stop-color="#ADADAD"/>
</linearGradient>
<linearGradient id="paint7_linear_2311_1907" x1="16" y1="128.5" x2="241" y2="128.5" gradientUnits="userSpaceOnUse">
<stop stop-color="#F8F8F8"/>
<stop offset="1" stop-color="#ADADAD"/>
</linearGradient>
<linearGradient id="paint8_linear_2311_1907" x1="16" y1="128.5" x2="241" y2="128.5" gradientUnits="userSpaceOnUse">
<stop stop-color="#F8F8F8"/>
<stop offset="1" stop-color="#ADADAD"/>
</linearGradient>
</defs>
</svg>
