<svg width="32" height="32" viewBox="0 0 32 32" fill="none" xmlns="http://www.w3.org/2000/svg">
<path fill-rule="evenodd" clip-rule="evenodd" d="M16.2173 20.9636C23.119 21.2768 28.8406 19.5323 28.9967 17.0671C29.1529 14.6019 23.6845 12.3496 16.7827 12.0364C9.88097 11.7232 4.15941 13.4677 4.00326 15.9329C3.84712 18.3981 9.31552 20.6504 16.2173 20.9636ZM16.2273 20.8054C22.6983 21.0991 28.0661 19.4095 28.2168 17.0317C28.3674 14.6539 23.2437 12.4882 16.7727 12.1946C10.3017 11.9009 4.93386 13.5905 4.78325 15.9683C4.63264 18.3461 9.75631 20.5118 16.2273 20.8054Z" fill="url(#paint0_linear_2311_1911)"/>
<path d="M13.48 15.8836C13.533 16.4564 13.5828 16.2859 13.0058 16.4401C12.4287 16.5943 12.1615 16.9311 11.7689 16.9571L11.2046 17.4797L9.86874 17.5683C9.39865 17.5995 10.0031 17.1673 9.81931 17.0343C9.71162 16.2886 9.12654 16.1601 8.77639 16.4343C8.70611 16.2366 8.84937 16.5822 8.81335 16.1931L8.80303 16.0816L10.192 15.9895C10.2274 16.2599 10.2702 16.4132 10.3204 16.4495C10.3649 16.4817 10.4879 16.4912 10.6894 16.4778L11.472 16.4259C11.6993 16.4108 11.8296 16.3868 11.8629 16.3538C11.9058 16.3113 11.9199 16.2114 11.9054 16.054C11.8928 15.9185 11.8615 15.8326 11.8113 15.7963C11.7723 15.7681 11.6356 15.7507 11.4011 15.7443L9.78258 15.6933C9.44913 15.6846 9.19607 15.6178 9.02338 15.4928C8.77271 15.3115 8.62289 14.9563 8.57391 14.4272C8.52413 13.8894 8.62779 13.4932 8.88488 13.2385C9.04676 13.0782 9.31883 12.9854 9.7011 12.96L11.7855 12.8218C12.2607 12.7903 12.5875 12.839 12.7657 12.968C12.8994 13.0647 13.0034 13.2052 13.0776 13.3894C13.1515 13.5693 13.2084 13.8471 13.2483 14.2228L11.7218 14.324C11.6901 14.093 11.6491 13.9593 11.599 13.923C11.5544 13.8908 11.4443 13.8805 11.2687 13.8921L10.4938 13.9435C10.313 13.9555 10.2107 13.9733 10.1869 13.9969C10.1488 14.0346 10.1364 14.1256 10.1498 14.2699C10.1623 14.4055 10.1937 14.4914 10.2438 14.5276C10.2772 14.5518 10.4138 14.567 10.6534 14.5731L12.2875 14.6231C12.6213 14.6361 12.8718 14.7031 13.0389 14.824C13.284 15.0013 13.431 15.3545 13.48 15.8836Z" fill="url(#paint1_linear_2311_1911)"/>
<path d="M19.0453 15.112C19.0827 15.5714 19.0787 15.9214 19.0334 16.162C18.9376 16.465 18.7138 16.3961 18.52 16.225C18.3296 16.4136 18.1564 16.0316 17.6553 16.0648L17.0896 16.2194L15.7228 17.1801C15.2165 17.2136 15.0514 17.1366 14.8285 16.9754C14.406 16.6779 14.147 16.0131 14.0514 14.9812C13.9559 13.9493 14.0895 13.2585 14.4521 12.9089C14.6426 12.7203 14.9909 12.6092 15.4972 12.5757L17.3103 12.4554C17.8114 12.4222 18.1734 12.4862 18.3962 12.6474C18.5466 12.7562 18.6663 12.9264 18.7553 13.1581C18.8439 13.3854 18.9117 13.724 18.9585 14.174L17.401 14.2773C17.3483 13.8761 17.2829 13.6473 17.2049 13.5908C17.1604 13.5586 17.04 13.549 16.8437 13.562L16.154 13.6077C15.9577 13.6208 15.8405 13.6461 15.8024 13.6838C15.712 13.7734 15.6991 14.168 15.7639 14.8676C15.8286 15.5673 15.9139 15.9553 16.0198 16.0319C16.0644 16.0641 16.1848 16.0738 16.3811 16.0607L17.0707 16.015C17.267 16.002 17.3842 15.9766 17.4223 15.9389C17.489 15.8729 17.5108 15.6317 17.4878 15.2152L19.0453 15.112Z" fill="url(#paint2_linear_2311_1911)"/>
<path d="M23.9848 13.0752L21.3812 13.2479L21.4656 14.1596L23.2865 14.0388L23.3776 15.0226L21.5567 15.1434L21.6252 15.8833L21.6129 15.7503L21.1974 15.46L20.8068 15.9376L20.0487 16.289L19.969 16.0999L19.6175 12.3024L23.887 12.0192L23.9848 13.0752Z" fill="url(#paint3_linear_2311_1911)"/>
<path d="M6.2484 20.6152C6.22631 20.6231 6.20319 20.6198 6.17904 20.6053C6.1511 20.5911 6.11983 20.5819 6.08523 20.5778C6.07767 20.5783 6.07244 20.5834 6.06955 20.5933C6.06666 20.6031 6.06099 20.6035 6.05255 20.5944C6.05862 20.5779 6.05496 20.5589 6.04155 20.5372C6.03517 20.5505 6.03273 20.5652 6.03421 20.5812C6.01531 20.5824 5.99742 20.5739 5.98052 20.5557C5.97993 20.5493 5.98123 20.5428 5.98441 20.5362C5.98412 20.533 5.99357 20.5324 6.01276 20.5343L6.00921 20.4959C6.01328 20.4989 6.01502 20.4971 6.01443 20.4907C6.01384 20.4843 6.01747 20.4825 6.02532 20.4852C6.02125 20.4822 6.0208 20.4774 6.02399 20.4708C6.0234 20.4644 6.01918 20.4598 6.01132 20.4571C6.00784 20.4606 6.00813 20.4638 6.01221 20.4667C6.01658 20.4729 6.01717 20.4793 6.01399 20.4859C6.00961 20.4798 6.00132 20.4723 5.98909 20.4635C5.97716 20.4578 5.96756 20.4568 5.9603 20.4605L5.95364 20.3886C5.93704 20.3736 5.91681 20.3604 5.89295 20.3491C5.86939 20.341 5.86543 20.3188 5.88107 20.2823C5.89589 20.2781 5.91026 20.2691 5.9242 20.2553C5.93813 20.2415 5.94232 20.2252 5.93676 20.2062L5.98211 20.2032C6.01954 20.1557 6.05711 20.1097 6.09484 20.0654C6.12878 20.0213 6.16635 19.9753 6.20756 19.9276C6.13197 19.9326 6.05494 19.9425 5.97647 19.9574C5.89421 19.9725 5.82574 19.9722 5.77105 19.9565C5.7606 19.9668 5.74593 19.9727 5.72703 19.9739C5.70436 19.9754 5.6862 19.9847 5.67257 20.0017C5.66412 19.9926 5.65627 19.9899 5.649 19.9936C5.64174 19.9973 5.63389 19.9946 5.62544 19.9855C5.63063 19.9594 5.64456 19.9456 5.66724 19.9441C5.68584 19.9396 5.70225 19.9321 5.71648 19.9215C5.70892 19.922 5.70325 19.9224 5.69947 19.9226C5.69162 19.9199 5.67984 19.9159 5.66413 19.9105C5.65397 19.924 5.64164 19.9345 5.62711 19.9419C5.60851 19.9464 5.59602 19.9552 5.58965 19.9685C5.56927 19.9538 5.55008 19.9518 5.53207 19.9627C5.50999 19.9706 5.49561 19.9796 5.48894 19.9897C5.48835 19.9833 5.48616 19.9802 5.48238 19.9805C5.47483 19.981 5.47075 19.978 5.47016 19.9716C5.46927 19.962 5.47435 19.9553 5.48539 19.9513C5.49265 19.9476 5.49221 19.9428 5.48406 19.9369C5.48257 19.9209 5.48606 19.9175 5.4945 19.9266C5.50295 19.9357 5.5127 19.9382 5.52374 19.9343C5.52315 19.9279 5.52066 19.9216 5.51629 19.9155L5.49662 19.8878C5.46698 19.8962 5.44256 19.8994 5.42337 19.8975C5.40418 19.8955 5.38195 19.9018 5.35667 19.9164C5.35171 19.9038 5.34923 19.8976 5.34923 19.8976C5.34893 19.8944 5.34804 19.8848 5.34656 19.8688C5.36576 19.8707 5.37984 19.8585 5.38881 19.8322L5.39492 19.8366C5.39522 19.8398 5.3974 19.8429 5.40148 19.8458C5.40148 19.8458 5.40162 19.8474 5.40192 19.8506C5.44461 19.8188 5.48803 19.795 5.5322 19.7792C5.57637 19.7634 5.62039 19.746 5.66426 19.727C5.68226 19.7162 5.70638 19.7097 5.73662 19.7077C5.76278 19.7028 5.7789 19.6921 5.78497 19.6756C5.79312 19.6815 5.80446 19.6807 5.81899 19.6733C5.82973 19.6662 5.83933 19.6671 5.84778 19.6762C5.85096 19.6696 5.8543 19.6645 5.85778 19.6611C5.86126 19.6576 5.86634 19.6509 5.87301 19.6408C5.90413 19.6483 5.93218 19.6433 5.95716 19.6255C5.98183 19.6046 6.01133 19.5946 6.04564 19.5955C6.05698 19.5948 6.06205 19.588 6.06087 19.5752C6.07947 19.5707 6.10025 19.5694 6.12323 19.5711C6.1459 19.5696 6.16172 19.5556 6.17069 19.5293C6.14683 19.518 6.12983 19.5191 6.11967 19.5327C6.10544 19.5433 6.09077 19.5491 6.07565 19.5501C6.07825 19.537 6.08855 19.5251 6.10656 19.5142C6.12427 19.5002 6.14417 19.4892 6.16625 19.4813C6.19123 19.4636 6.22057 19.4519 6.25429 19.4465C6.28771 19.4378 6.32521 19.4321 6.36678 19.4294C6.37434 19.4289 6.37986 19.4269 6.38334 19.4235C6.38275 19.4171 6.38405 19.4105 6.38723 19.4039C6.44274 19.3873 6.49068 19.3713 6.53107 19.3557C6.57116 19.337 6.62826 19.3171 6.70236 19.2961C6.70614 19.2958 6.70774 19.2925 6.70715 19.2861C6.70655 19.2797 6.70989 19.2747 6.71715 19.271C6.72878 19.2734 6.73664 19.2761 6.74071 19.2791C6.74449 19.2788 6.75001 19.2768 6.75728 19.2731C6.76276 19.2502 6.77844 19.2347 6.8043 19.2266C6.83016 19.2184 6.8438 19.2014 6.84521 19.1756C6.86788 19.1741 6.88211 19.1635 6.8879 19.1438C6.89368 19.1241 6.90616 19.1152 6.92536 19.1171C6.97057 19.0305 7.02437 18.9545 7.08677 18.8892C7.15266 18.8204 7.20865 18.7475 7.25475 18.6704C7.27624 18.6561 7.2861 18.6394 7.28432 18.6202C7.2881 18.62 7.29014 18.6214 7.29043 18.6246C7.29421 18.6244 7.29988 18.624 7.30744 18.6235C7.31174 18.5878 7.32827 18.561 7.35702 18.543C7.38926 18.5215 7.40708 18.4882 7.4105 18.4429C7.45985 18.401 7.50091 18.3516 7.53367 18.2947C7.57021 18.2375 7.61504 18.1879 7.66818 18.1458C7.67656 18.113 7.68727 18.0849 7.70031 18.0616C7.71713 18.0379 7.73411 18.0159 7.75123 17.9954C7.77183 17.9715 7.79054 17.9477 7.80737 17.9241C7.82419 17.9005 7.83694 17.8739 7.84561 17.8443C7.8877 17.8061 7.91976 17.7622 7.94177 17.7124C7.96756 17.6624 8.00151 17.6183 8.0436 17.5801C8.05227 17.5506 8.06517 17.5256 8.08229 17.5052C8.10289 17.4813 8.11942 17.4544 8.13187 17.4246C8.18064 17.3763 8.22155 17.3253 8.2546 17.2716C8.28766 17.218 8.32901 17.1718 8.37866 17.1331C8.38185 17.1264 8.38518 17.1214 8.38867 17.1179C8.39593 17.1142 8.39723 17.1077 8.39256 17.0983C8.45555 17.0395 8.50472 16.975 8.54008 16.9051C8.60537 16.83 8.66733 16.7599 8.72595 16.6948C8.78835 16.6295 8.84275 16.56 8.88914 16.4861C8.90804 16.4848 8.92067 16.4775 8.92705 16.4642C8.9369 16.4475 8.94517 16.4341 8.95184 16.424C8.98118 16.4124 9.00253 16.3965 9.01587 16.3763C9.02921 16.3561 9.04648 16.3372 9.06767 16.3197C9.0799 16.3286 9.08935 16.328 9.09602 16.3179C9.10647 16.3075 9.1191 16.3002 9.13392 16.296C9.13859 16.3054 9.13585 16.3168 9.12569 16.3304C9.11524 16.3407 9.10465 16.3495 9.0939 16.3566C9.12095 16.3613 9.15351 16.3639 9.1916 16.3646C9.2294 16.3621 9.2656 16.3629 9.3002 16.3671C9.33829 16.3678 9.37304 16.3735 9.40446 16.3843C9.43936 16.3916 9.4673 16.4059 9.48827 16.427C9.48538 16.4369 9.48438 16.4466 9.48526 16.4562C9.48586 16.4626 9.48034 16.4646 9.4687 16.4621C9.48063 16.4678 9.49315 16.4798 9.50627 16.4983C9.51909 16.5135 9.53087 16.5175 9.54161 16.5104C9.55762 16.519 9.5681 16.5296 9.57307 16.5421C9.58181 16.5544 9.59607 16.5647 9.61586 16.5731C9.60949 16.5864 9.61082 16.6007 9.61986 16.6162C9.63238 16.6283 9.64649 16.637 9.6622 16.6424C9.66227 16.6842 9.66598 16.7242 9.67331 16.7624C9.68034 16.7973 9.68564 16.834 9.68919 16.8723C9.69623 16.9073 9.6976 16.9426 9.6933 16.9783C9.69277 17.0137 9.68484 17.0513 9.6695 17.0909C9.67187 17.1165 9.6719 17.1374 9.6696 17.1537C9.66701 17.1667 9.66267 17.1815 9.65659 17.198C9.654 17.211 9.64966 17.2258 9.64358 17.2423C9.64129 17.2585 9.64147 17.2811 9.64413 17.3098C9.6236 17.3756 9.60744 17.4475 9.59565 17.5255C9.58764 17.6033 9.57133 17.6735 9.54672 17.7363C9.55695 17.7646 9.55802 17.7967 9.54994 17.8327C9.54156 17.8654 9.52911 17.8952 9.51258 17.9221C9.51761 17.9764 9.5129 18.0282 9.49845 18.0775C9.48777 18.1265 9.48103 18.1768 9.47821 18.2285C9.47443 18.2287 9.47109 18.2338 9.4682 18.2436C9.46879 18.25 9.46516 18.2519 9.45731 18.2492C9.4579 18.2556 9.46008 18.2587 9.46386 18.2584C9.47142 18.2579 9.4755 18.2609 9.47609 18.2673C9.45556 18.333 9.44214 18.3934 9.43583 18.4486C9.42923 18.5005 9.42512 18.5587 9.42348 18.6232C9.4363 18.6384 9.45012 18.6439 9.46494 18.6397C9.47946 18.6323 9.49429 18.6281 9.5094 18.6271C9.53267 18.632 9.5542 18.6386 9.57398 18.647C9.59377 18.6553 9.61689 18.6586 9.64334 18.6569C9.65846 18.6559 9.67154 18.6534 9.68258 18.6494C9.69332 18.6423 9.70481 18.6431 9.71704 18.652C9.72519 18.6579 9.72911 18.6592 9.72882 18.656C9.72852 18.6528 9.73215 18.651 9.73971 18.6505C9.77609 18.6738 9.81989 18.6951 9.87109 18.7142C9.92229 18.7333 9.96479 18.7611 9.99858 18.7975C9.99161 18.8044 9.99061 18.8141 9.99557 18.8266C10.0002 18.836 10.0048 18.8437 10.0091 18.8499C10.0097 18.8563 10.0103 18.8627 10.0109 18.8691C10.0115 18.8755 10.0099 18.8788 10.0061 18.879C10.0105 18.8852 10.015 18.8929 10.0197 18.9023C10.0244 18.9116 10.0364 18.9189 10.0559 18.924C10.0565 18.9304 10.0533 18.9371 10.0464 18.944C10.0391 18.9477 10.032 18.953 10.025 18.9599C10.0343 18.9785 10.0393 18.9911 10.0399 18.9975C10.044 19.0004 10.0485 19.0082 10.0535 19.0207C10.0383 19.0217 10.0334 19.0301 10.0387 19.0458C10.0474 19.0581 10.0444 19.0664 10.0296 19.0706L10.0336 19.1138C10.0304 19.1204 10.0291 19.127 10.0297 19.1333C10.03 19.1365 10.0268 19.1432 10.0201 19.1533C9.96897 19.176 9.91551 19.194 9.85971 19.2074C9.80361 19.2175 9.74577 19.2294 9.68619 19.243C9.62631 19.2534 9.5647 19.2656 9.50134 19.2794C9.43798 19.2933 9.37317 19.3121 9.30692 19.3358C9.30374 19.3424 9.30055 19.3491 9.29736 19.3557C9.29388 19.3592 9.29447 19.3656 9.29914 19.3749C9.27268 19.3767 9.25946 19.3775 9.25946 19.3775C9.25279 19.3876 9.24801 19.3976 9.24512 19.4075C9.246 19.4171 9.24122 19.427 9.23077 19.4374C9.23262 19.4984 9.22168 19.5651 9.19796 19.6375C9.17424 19.7099 9.14789 19.7744 9.11892 19.831C9.10202 19.8128 9.09776 19.7874 9.10614 19.7546C9.11422 19.7187 9.10633 19.6951 9.08247 19.6838C9.0735 19.7101 9.06831 19.7362 9.0669 19.7621C9.06897 19.7845 9.0712 19.8084 9.07356 19.834C9.06601 19.8345 9.06223 19.8348 9.06223 19.8348C9.05467 19.8353 9.05263 19.8338 9.05611 19.8304C9.0596 19.8269 9.059 19.8205 9.05434 19.8112C9.03285 19.8255 9.02925 19.8482 9.04355 19.8795C9.02902 19.8869 9.02032 19.8955 9.01742 19.9053C9.01453 19.9152 9.01164 19.925 9.00875 19.9349C9.00994 19.9477 9.00719 19.9591 9.00052 19.9692C8.99793 19.9823 8.98922 19.9909 8.9744 19.9951C8.97351 19.9855 8.97059 19.9744 8.96562 19.9619C8.96473 19.9523 8.95862 19.9479 8.94728 19.9486C8.95744 19.9351 8.9564 19.9239 8.94417 19.915C8.92587 19.9227 8.91353 19.9332 8.90716 19.9465C8.90108 19.963 8.895 19.9794 8.88892 19.9959C8.88692 20.0154 8.88273 20.0318 8.87636 20.0451C8.87028 20.0616 8.86013 20.0751 8.8459 20.0857C8.83715 20.0734 8.83175 20.0561 8.82967 20.0337C8.8276 20.0113 8.82582 19.9921 8.82434 19.9761C8.8136 19.9832 8.811 19.9963 8.81656 20.0152C8.82211 20.0342 8.81937 20.0456 8.80833 20.0496C8.80107 20.0533 8.79525 20.052 8.79088 20.0459C8.79029 20.0395 8.78621 20.0366 8.77865 20.0371C8.77169 20.044 8.76472 20.0509 8.75775 20.0578C8.75486 20.0676 8.75401 20.0789 8.75519 20.0917C8.74067 20.0991 8.73122 20.0997 8.72685 20.0936C8.72277 20.0906 8.71696 20.0894 8.7094 20.0899C8.70792 20.0739 8.70659 20.0595 8.7054 20.0467C8.70829 20.0369 8.70915 20.0256 8.70796 20.0128C8.70767 20.0096 8.70563 20.0081 8.70185 20.0084C8.70214 20.0116 8.70214 20.0116 8.70185 20.0084C8.69704 19.9153 8.69108 19.8304 8.68398 19.7537C8.68035 19.6734 8.67862 19.5931 8.67878 19.5126C8.59215 19.5216 8.48677 19.5334 8.36265 19.5481C8.23853 19.5627 8.13359 19.5793 8.04786 19.5979C8.03681 19.6019 8.0297 19.6072 8.02651 19.6138C8.02711 19.6202 8.02392 19.6269 8.01695 19.6337C8.0091 19.6311 8.00676 19.6264 8.00995 19.6197C8.01314 19.6131 8.01095 19.61 8.00339 19.6105C8.00399 19.6169 7.99832 19.6173 7.98639 19.6116C7.97416 19.6028 7.96879 19.6064 7.97027 19.6224C7.89439 19.6242 7.82128 19.6355 7.75096 19.6562C7.68034 19.6738 7.60753 19.6883 7.53254 19.6997C7.51045 19.7076 7.48618 19.7124 7.45973 19.7142C7.43298 19.7127 7.41104 19.7222 7.39392 19.7427C7.37473 19.7407 7.36136 19.74 7.3538 19.7405C7.34972 19.7375 7.3439 19.7363 7.33635 19.7368C7.20458 19.8743 7.08052 20.0129 6.96416 20.1526C6.84781 20.2922 6.72112 20.4229 6.58409 20.5447C6.56868 20.5425 6.55371 20.5451 6.53918 20.5525C6.52118 20.5633 6.50695 20.5739 6.4965 20.5843C6.47701 20.5791 6.45652 20.5837 6.43503 20.598C6.41383 20.6155 6.38753 20.6189 6.35611 20.6081C6.33402 20.616 6.32154 20.6249 6.31865 20.6347C6.29886 20.6264 6.27967 20.6244 6.26107 20.6289C6.23869 20.6336 6.22342 20.633 6.21527 20.6271C6.22254 20.6234 6.22806 20.6214 6.23184 20.6212C6.23561 20.6209 6.24114 20.6189 6.2484 20.6152ZM8.57114 18.7811C8.56966 18.7651 8.57458 18.7567 8.58592 18.756C8.60074 18.7518 8.61308 18.7413 8.62294 18.7245C8.63168 18.7368 8.64143 18.7394 8.65217 18.7323C8.6667 18.7249 8.67774 18.7209 8.6853 18.7204C8.68153 18.5565 8.68636 18.4033 8.69979 18.2608C8.71322 18.1183 8.72257 17.9728 8.72784 17.8244C8.65966 17.9094 8.59963 18.0003 8.54775 18.0971C8.49935 18.1904 8.43887 18.2765 8.36632 18.3553C8.31881 18.4583 8.263 18.5537 8.19889 18.6416C8.13479 18.7296 8.07068 18.8175 8.00657 18.9054L8.00879 18.9294C8.10469 18.8973 8.19769 18.8751 8.2878 18.8626C8.37761 18.847 8.47206 18.8198 8.57114 18.7811Z" fill="url(#paint4_linear_2311_1911)"/>
<path d="M9.84164 19.2424C9.84499 19.1553 9.86404 19.0735 9.8988 18.9972C9.93356 18.9209 9.97444 18.8489 10.0214 18.7815C10.0722 18.7137 10.1269 18.6473 10.1855 18.5823C10.2441 18.5173 10.3026 18.4506 10.3609 18.3824C10.3685 18.3819 10.3742 18.3815 10.3779 18.3812C10.3814 18.3778 10.3888 18.3757 10.4002 18.3749C10.4114 18.3324 10.437 18.3001 10.4768 18.2781C10.5166 18.2562 10.5438 18.2222 10.5586 18.1761C10.5894 18.1805 10.6094 18.1712 10.6187 18.148C10.6315 18.1214 10.653 18.1071 10.6832 18.1051C10.7212 18.064 10.7597 18.0276 10.7986 17.9961C10.8372 17.9613 10.8778 17.9281 10.9205 17.8963C10.9281 17.8958 10.9297 17.8924 10.9253 17.8863C10.9247 17.8799 10.9263 17.8766 10.9301 17.8763C10.9579 17.8487 10.9844 17.8261 11.0093 17.8083C11.0381 17.7903 11.0686 17.7706 11.1008 17.7491C11.1546 17.7134 11.2039 17.6715 11.2489 17.6234C11.2939 17.5754 11.347 17.5333 11.4083 17.497C11.4156 17.4933 11.4249 17.4911 11.4362 17.4903C11.4472 17.4864 11.4562 17.4809 11.4632 17.474C11.474 17.4669 11.4825 17.4567 11.4889 17.4434C11.499 17.4298 11.5095 17.4195 11.5202 17.4123C11.5234 17.4057 11.5271 17.4038 11.5311 17.4068C11.5387 17.4063 11.5442 17.4043 11.5477 17.4009C11.5584 17.3937 11.5654 17.3868 11.5686 17.3802C11.5753 17.3701 11.5821 17.3616 11.5891 17.3547C11.596 17.3478 11.605 17.3423 11.6161 17.3384C11.6271 17.3344 11.638 17.3289 11.6487 17.3217C11.6949 17.2865 11.7433 17.2543 11.7938 17.2252C11.8481 17.1959 11.902 17.1617 11.9554 17.1228C11.9729 17.1055 11.9885 17.09 12.0025 17.0762C12.0202 17.0621 12.0379 17.0481 12.0556 17.034C12.0768 17.0165 12.1057 17.0001 12.1423 16.9848C12.1789 16.9695 12.2114 16.9513 12.2399 16.9301C12.2498 16.9133 12.2638 16.9012 12.2821 16.8935C12.3042 16.8856 12.3183 16.8734 12.3244 16.8569C12.3427 16.8493 12.363 16.8431 12.3854 16.8384C12.4075 16.8305 12.4294 16.821 12.4512 16.8099C12.4727 16.7956 12.4866 16.7818 12.493 16.7685C12.5596 16.748 12.614 16.7202 12.6564 16.6852C12.6988 16.6502 12.7511 16.6194 12.8133 16.5927C12.8127 16.5863 12.8141 16.5814 12.8176 16.578C12.8246 16.5711 12.8238 16.5631 12.8154 16.554C12.8781 16.5337 12.9337 16.5172 12.9819 16.5043C13.0301 16.4915 13.0825 16.4816 13.1388 16.4746C13.218 16.508 13.3111 16.5275 13.4181 16.5333C13.5248 16.5359 13.6175 16.5523 13.6964 16.5825C13.7083 16.5881 13.7175 16.5843 13.7238 16.571C13.7524 16.5916 13.7898 16.6052 13.836 16.6118C13.8822 16.6184 13.9174 16.6289 13.9416 16.6434C14.0039 16.7005 14.068 16.7558 14.1338 16.8093C14.1996 16.8629 14.2619 16.9199 14.3207 16.9804C14.3137 16.9873 14.3127 16.997 14.3177 17.0096C14.3264 17.0218 14.3349 17.0309 14.343 17.0368C14.3437 17.0851 14.34 17.1272 14.3319 17.1631C14.3238 17.199 14.3137 17.2335 14.3016 17.2665C14.2894 17.2995 14.2754 17.3326 14.2594 17.3658C14.247 17.3956 14.237 17.4317 14.2295 17.474C14.2147 17.4782 14.2058 17.4853 14.2029 17.4951C14.2038 17.5047 14.203 17.516 14.2004 17.5291C14.1928 17.5296 14.1873 17.5316 14.1838 17.535C14.1841 17.5382 14.1805 17.5401 14.1729 17.5406C14.1811 17.5465 14.1815 17.5513 14.1743 17.555C14.167 17.5587 14.1673 17.5619 14.1751 17.5646C14.0997 17.6532 14.0324 17.7478 13.9733 17.8483C13.9141 17.9488 13.843 18.0436 13.76 18.1328C13.7612 18.1456 13.7583 18.1554 13.7514 18.1623C13.7441 18.166 13.7412 18.1759 13.7427 18.1919C13.7177 18.2096 13.6968 18.2303 13.68 18.254C13.6629 18.2744 13.642 18.2951 13.6173 18.3161C13.5697 18.3353 13.5162 18.3534 13.4569 18.3702C13.3973 18.3838 13.3418 18.4003 13.2904 18.4198C13.2892 18.407 13.2811 18.4011 13.2659 18.4021C13.2546 18.4029 13.2374 18.4024 13.2145 18.4007C13.2057 18.3884 13.1952 18.3779 13.183 18.369C13.1708 18.3602 13.1551 18.3548 13.1359 18.3528C13.1376 18.3302 13.1304 18.3146 13.1144 18.306C13.0984 18.2974 13.0789 18.2922 13.056 18.2905C13.0365 18.2854 13.017 18.2802 12.9975 18.2751C12.9818 18.2697 12.9731 18.2574 12.9713 18.2382C12.9704 18.2286 12.9605 18.2245 12.9416 18.2257C12.9223 18.1819 12.9182 18.1371 12.9292 18.0913C12.9401 18.0456 12.9433 17.9971 12.9385 17.9459C12.9347 17.9043 12.9291 17.8644 12.9217 17.8263C12.9182 17.7879 12.9261 17.7504 12.9455 17.7137C12.9415 17.7107 12.9387 17.7013 12.9372 17.6853C12.8713 17.7122 12.8081 17.7486 12.7477 17.7944C12.7256 17.8023 12.7074 17.8116 12.6932 17.8222C12.6825 17.8293 12.672 17.8397 12.6619 17.8532C12.5895 17.8934 12.5213 17.9366 12.4571 17.9826C12.3967 18.0285 12.3344 18.0745 12.2702 18.1206C12.238 18.142 12.2039 18.1636 12.1679 18.1853C12.1353 18.2035 12.1029 18.2234 12.0707 18.2448C12.0062 18.2877 11.9422 18.3354 11.8786 18.3879C11.815 18.4404 11.7494 18.4914 11.6818 18.541C11.6428 18.5725 11.6 18.6027 11.5533 18.6316C11.51 18.657 11.4689 18.6855 11.43 18.717C11.405 18.7348 11.3822 18.7556 11.3616 18.7795C11.3445 18.7999 11.3234 18.819 11.2985 18.8368C11.2706 18.8644 11.2439 18.8838 11.2183 18.8952C11.1965 18.9063 11.1873 18.9294 11.1905 18.9646C11.1789 18.9622 11.1715 18.9643 11.1683 18.9709C11.1651 18.9776 11.1575 18.9781 11.1456 18.9724C11.076 19.0414 11.0085 19.1135 10.9432 19.1886C10.8779 19.2638 10.8146 19.3404 10.7534 19.4185C10.7729 19.4236 10.7907 19.4305 10.8067 19.4391C10.8264 19.4474 10.8494 19.4491 10.8756 19.4442C10.8983 19.4427 10.9169 19.4382 10.9314 19.4308C10.9494 19.42 10.97 19.417 10.9933 19.4219C11.0009 19.4214 11.0049 19.4243 11.0055 19.4307C11.0058 19.4339 11.0097 19.4353 11.0173 19.4348C11.0441 19.4362 11.0704 19.4329 11.0962 19.4247C11.1259 19.4163 11.1558 19.4111 11.186 19.4091C11.1971 19.4051 11.2084 19.4044 11.2201 19.4068C11.2317 19.4093 11.2432 19.4101 11.2545 19.4094C11.303 19.3997 11.3495 19.3886 11.394 19.376C11.442 19.3599 11.4886 19.3504 11.534 19.3474C11.5529 19.3461 11.5681 19.3467 11.5798 19.3492C11.5952 19.3514 11.6059 19.3442 11.612 19.3277C11.6759 19.3203 11.741 19.3047 11.8073 19.281C11.8735 19.2573 11.933 19.2421 11.9856 19.2354C11.9931 19.2349 11.9987 19.2329 12.0021 19.2294C12.0053 19.2228 12.0106 19.2176 12.0178 19.2139C12.0815 19.2033 12.1374 19.1915 12.1857 19.1786C12.2374 19.1623 12.2907 19.1427 12.3456 19.1198C12.5508 19.0772 12.7367 19.0311 12.9032 18.9814C13.0732 18.9283 13.2532 18.8809 13.4433 18.8394C13.5575 18.7996 13.663 18.7685 13.7598 18.746C13.8562 18.7203 13.9696 18.6918 14.0998 18.6606C14.1916 18.6256 14.2988 18.5927 14.4215 18.5621C14.5479 18.5312 14.6512 18.4969 14.7314 18.4594C14.7846 18.4591 14.8371 18.4508 14.8888 18.4345C14.9402 18.415 14.9918 18.3971 15.0435 18.3808C15.0554 18.3865 15.0637 18.3939 15.0684 18.4033C15.0769 18.4124 15.0852 18.4199 15.0933 18.4258C15.0727 18.4497 15.0476 18.4658 15.0179 18.4742C14.9883 18.4826 14.9713 18.5047 14.967 18.5404C14.9368 18.5424 14.9152 18.5551 14.9021 18.5785C14.8891 18.6019 14.8701 18.6224 14.8451 18.6402C14.8268 18.6478 14.8085 18.6555 14.7902 18.6631C14.7716 18.6676 14.7531 18.6736 14.7348 18.6813C14.6988 18.703 14.6628 18.7247 14.6268 18.7464C14.5942 18.7646 14.5617 18.7829 14.5292 18.8011C14.5298 18.8075 14.5303 18.8139 14.5309 18.8203C14.5353 18.8265 14.5378 18.8328 14.5384 18.8392C14.5239 18.8466 14.5092 18.8524 14.4944 18.8566C14.4795 18.8608 14.4767 18.8706 14.4857 18.8861C14.4447 18.8953 14.4254 18.9126 14.4278 18.9382C14.3351 18.9637 14.2552 18.9835 14.188 18.9976C14.1209 19.0117 14.0552 19.0418 13.991 19.0879C13.914 19.1187 13.8371 19.1496 13.7601 19.1804C13.6828 19.2081 13.6117 19.2418 13.547 19.2815C13.5481 19.2943 13.5577 19.2953 13.5758 19.2844C13.5737 19.3038 13.5653 19.3157 13.5505 19.3199C13.5392 19.3206 13.5255 19.3167 13.5095 19.3081C13.4375 19.3515 13.3496 19.3879 13.2458 19.4173C13.1421 19.4467 13.0488 19.4867 12.966 19.5373C12.9358 19.5393 12.9022 19.5463 12.8653 19.5584C12.8322 19.5703 12.8013 19.5852 12.7725 19.6032C12.7661 19.6165 12.7686 19.6228 12.78 19.622C12.791 19.6181 12.7951 19.621 12.7922 19.6309C12.7861 19.6474 12.7794 19.6575 12.7722 19.6612C12.7646 19.6617 12.7515 19.6641 12.7329 19.6686C12.7135 19.7053 12.683 19.725 12.6415 19.7278C12.5999 19.7305 12.5672 19.7472 12.5434 19.7777C12.499 19.7903 12.4469 19.8034 12.3874 19.817C12.3316 19.8304 12.288 19.8526 12.2566 19.8836C12.2377 19.8849 12.2262 19.884 12.2222 19.8811C12.165 19.9203 12.0877 19.948 11.9903 19.9641C11.8967 19.9799 11.8156 20.0078 11.7471 20.0478C11.7005 20.038 11.6581 20.0521 11.6198 20.09C11.5675 20.0999 11.5115 20.1117 11.452 20.1253C11.3962 20.1386 11.3385 20.1521 11.2789 20.1657C11.2231 20.1791 11.1632 20.1895 11.0993 20.197C11.0391 20.2042 10.9804 20.2065 10.9231 20.2038C10.9112 20.1982 10.9055 20.1985 10.9061 20.2049C10.907 20.2145 10.9035 20.218 10.8956 20.2153C10.8415 20.206 10.7893 20.1966 10.739 20.1871C10.6928 20.1805 10.6462 20.1707 10.5994 20.1577C10.5567 20.1477 10.5152 20.1311 10.475 20.108C10.4389 20.0879 10.4057 20.0579 10.3754 20.0181C10.3673 20.0122 10.3615 20.0109 10.358 20.0144C10.3586 20.0208 10.355 20.0226 10.3471 20.0199C10.2915 19.9947 10.2444 19.9575 10.2056 19.9086C10.1672 19.8629 10.1235 19.8223 10.0746 19.787C10.0751 19.7515 10.0649 19.7232 10.0439 19.7021C10.0226 19.6778 9.99659 19.6634 9.96576 19.659C9.97036 19.6265 9.96914 19.5928 9.96211 19.5579C9.95129 19.5232 9.94047 19.4885 9.92966 19.4538C9.91855 19.4159 9.90758 19.3796 9.89677 19.3449C9.88566 19.307 9.88066 19.2736 9.88177 19.2445C9.87362 19.2386 9.86795 19.239 9.86476 19.2457C9.8575 19.2494 9.8498 19.2483 9.84164 19.2424Z" fill="url(#paint5_linear_2311_1911)"/>
<path d="M14.3646 18.9424C14.3679 18.8553 14.387 18.7736 14.4217 18.6972C14.4565 18.6209 14.4974 18.549 14.5444 18.4815C14.5951 18.4138 14.6498 18.3474 14.7084 18.2823C14.7671 18.2173 14.8255 18.1507 14.8839 18.0824C14.8914 18.0819 14.8971 18.0815 14.9009 18.0813C14.9044 18.0778 14.9118 18.0757 14.9231 18.075C14.9344 18.0324 14.9599 18.0001 14.9997 17.9782C15.0395 17.9562 15.0668 17.9222 15.0815 17.8762C15.1123 17.8806 15.1324 17.8712 15.1417 17.8481C15.1544 17.8215 15.1759 17.8072 15.2061 17.8052C15.2441 17.764 15.2826 17.7277 15.3215 17.6961C15.3601 17.6614 15.4008 17.6281 15.4435 17.5963C15.451 17.5958 15.4526 17.5925 15.4482 17.5863C15.4476 17.5799 15.4492 17.5766 15.453 17.5764C15.4809 17.5488 15.5073 17.5261 15.5323 17.5083C15.561 17.4903 15.5915 17.4706 15.6238 17.4492C15.6775 17.4134 15.7268 17.3715 15.7718 17.3235C15.8168 17.2754 15.87 17.2333 15.9312 17.197C15.9385 17.1933 15.9478 17.1911 15.9591 17.1904C15.9702 17.1864 15.9792 17.181 15.9862 17.1741C15.9969 17.1669 16.0055 17.1567 16.0118 17.1434C16.022 17.1299 16.0324 17.1195 16.0432 17.1124C16.0464 17.1057 16.05 17.1039 16.0541 17.1068C16.0616 17.1063 16.0672 17.1043 16.0706 17.1009C16.0814 17.0937 16.0883 17.0868 16.0915 17.0802C16.0982 17.0701 16.105 17.0616 16.112 17.0547C16.119 17.0478 16.128 17.0424 16.139 17.0384C16.15 17.0345 16.1609 17.0289 16.1717 17.0218C16.2179 16.9865 16.2662 16.9544 16.3167 16.9253C16.3711 16.8959 16.4249 16.8618 16.4784 16.8228C16.4958 16.8056 16.5115 16.79 16.5254 16.7762C16.5431 16.7622 16.5608 16.7481 16.5785 16.7341C16.5997 16.7166 16.6286 16.7002 16.6652 16.6849C16.7018 16.6696 16.7344 16.6513 16.7628 16.6301C16.7727 16.6134 16.7868 16.6012 16.8051 16.5935C16.8272 16.5856 16.8412 16.5734 16.8473 16.5569C16.8656 16.5493 16.886 16.5431 16.9083 16.5384C16.9304 16.5305 16.9524 16.521 16.9742 16.5099C16.9956 16.4956 17.0096 16.4818 17.016 16.4685C17.0825 16.448 17.137 16.4203 17.1794 16.3853C17.2217 16.3503 17.274 16.3194 17.3362 16.2928C17.3356 16.2864 17.3371 16.2815 17.3405 16.278C17.3475 16.2711 17.3468 16.2631 17.3383 16.254C17.4011 16.2338 17.4566 16.2172 17.5048 16.2044C17.5531 16.1915 17.6054 16.1816 17.6618 16.1746C17.7409 16.208 17.834 16.2276 17.941 16.2334C18.0477 16.2359 18.1405 16.2523 18.2193 16.2825C18.2313 16.2881 18.2404 16.2843 18.2468 16.271C18.2753 16.2917 18.3127 16.3053 18.3589 16.3119C18.4052 16.3184 18.4404 16.329 18.4645 16.3435C18.5268 16.4005 18.5909 16.4558 18.6567 16.5094C18.7225 16.5629 18.7848 16.62 18.8436 16.6804C18.8367 16.6873 18.8357 16.697 18.8406 16.7096C18.8494 16.7219 18.8578 16.731 18.866 16.7369C18.8666 16.7851 18.8629 16.8272 18.8548 16.8631C18.8468 16.8991 18.8366 16.9335 18.8245 16.9665C18.8123 16.9995 18.7983 17.0326 18.7824 17.0659C18.7699 17.0957 18.7599 17.1317 18.7524 17.1741C18.7376 17.1783 18.7288 17.1853 18.7259 17.1952C18.7268 17.2048 18.7259 17.2161 18.7233 17.2291C18.7158 17.2296 18.7102 17.2316 18.7068 17.2351C18.7071 17.2382 18.7034 17.2401 18.6959 17.2406C18.704 17.2465 18.7045 17.2513 18.6972 17.255C18.6899 17.2587 18.6902 17.2619 18.6981 17.2646C18.6226 17.3533 18.5553 17.4479 18.4962 17.5483C18.4371 17.6488 18.366 17.7437 18.283 17.8328C18.2842 17.8456 18.2813 17.8555 18.2743 17.8624C18.267 17.8661 18.2642 17.8759 18.2656 17.8919C18.2407 17.9097 18.2198 17.9304 18.2029 17.954C18.1858 17.9745 18.1649 17.9952 18.1402 18.0161C18.0926 18.0354 18.0391 18.0534 17.9798 18.0702C17.9203 18.0838 17.8648 18.1004 17.8133 18.1199C17.8121 18.1071 17.804 18.1012 17.7889 18.1022C17.7775 18.1029 17.7604 18.1025 17.7374 18.1008C17.7287 18.0885 17.7182 18.0779 17.706 18.0691C17.6937 18.0602 17.678 18.0548 17.6588 18.0529C17.6605 18.0302 17.6534 18.0146 17.6374 18.006C17.6214 17.9974 17.6019 17.9923 17.5789 17.9906C17.5594 17.9854 17.5399 17.9803 17.5204 17.9751C17.5047 17.9697 17.496 17.9575 17.4942 17.9383C17.4933 17.9287 17.4834 17.9245 17.4645 17.9257C17.4453 17.882 17.4411 17.8372 17.4521 17.7914C17.4631 17.7456 17.4662 17.6971 17.4615 17.6459C17.4576 17.6043 17.452 17.5645 17.4447 17.5263C17.4411 17.488 17.4491 17.4504 17.4685 17.4137C17.4644 17.4108 17.4616 17.4013 17.4601 17.3853C17.3942 17.4122 17.331 17.4486 17.2706 17.4944C17.2485 17.5023 17.2304 17.5116 17.2162 17.5222C17.2054 17.5293 17.195 17.5397 17.1848 17.5532C17.1125 17.5934 17.0442 17.6366 16.98 17.6827C16.9196 17.7285 16.8574 17.7745 16.7932 17.8206C16.7609 17.8421 16.7268 17.8636 16.6908 17.8853C16.6583 17.9036 16.6259 17.9234 16.5936 17.9449C16.5292 17.9878 16.4651 18.0355 16.4016 18.088C16.338 18.1405 16.2724 18.1915 16.2047 18.241C16.1658 18.2726 16.123 18.3028 16.0762 18.3316C16.0329 18.357 15.9918 18.3855 15.9529 18.4171C15.9279 18.4348 15.9051 18.4556 15.8845 18.4795C15.8674 18.5 15.8464 18.5191 15.8214 18.5368C15.7935 18.5644 15.7668 18.5839 15.7413 18.5952C15.7195 18.6063 15.7102 18.6295 15.7135 18.6647C15.7018 18.6622 15.6944 18.6643 15.6912 18.671C15.688 18.6776 15.6805 18.6781 15.6686 18.6725C15.5989 18.7415 15.5314 18.8135 15.4661 18.8887C15.4008 18.9638 15.3376 19.0404 15.2764 19.1185C15.2958 19.1237 15.3136 19.1305 15.3296 19.1391C15.3494 19.1475 15.3724 19.1492 15.3985 19.1442C15.4212 19.1427 15.4398 19.1382 15.4543 19.1308C15.4723 19.12 15.493 19.117 15.5162 19.1219C15.5238 19.1214 15.5279 19.1244 15.5285 19.1308C15.5288 19.134 15.5327 19.1353 15.5402 19.1348C15.567 19.1363 15.5933 19.1329 15.6192 19.1247C15.6488 19.1163 15.6787 19.1111 15.709 19.1091C15.72 19.1052 15.7314 19.1044 15.743 19.1069C15.7546 19.1093 15.7661 19.1102 15.7774 19.1094C15.826 19.0998 15.8725 19.0886 15.9169 19.076C15.9649 19.06 16.0115 19.0504 16.0569 19.0474C16.0758 19.0462 16.0911 19.0468 16.1027 19.0492C16.1181 19.0514 16.1288 19.0443 16.1349 19.0278C16.1989 19.0203 16.264 19.0047 16.3302 18.981C16.3965 18.9573 16.4559 18.9421 16.5085 18.9354C16.5161 18.9349 16.5216 18.9329 16.5251 18.9295C16.5283 18.9228 16.5335 18.9177 16.5408 18.914C16.6044 18.9033 16.6604 18.8915 16.7086 18.8787C16.7603 18.8624 16.8136 18.8428 16.8686 18.8198C17.0738 18.7772 17.2596 18.7311 17.4261 18.6814C17.5961 18.6283 17.7762 18.581 17.9662 18.5394C18.0804 18.4996 18.1859 18.4685 18.2827 18.446C18.3792 18.4203 18.4925 18.3919 18.6227 18.3607C18.7145 18.3256 18.8218 18.2928 18.9444 18.2621C19.0708 18.2312 19.1741 18.197 19.2543 18.1595C19.3075 18.1592 19.36 18.1509 19.4117 18.1346C19.4631 18.1151 19.5147 18.0972 19.5665 18.0808C19.5784 18.0865 19.5867 18.094 19.5913 18.1033C19.5998 18.1124 19.6081 18.1199 19.6162 18.1258C19.5956 18.1497 19.5705 18.1659 19.5409 18.1743C19.5112 18.1827 19.4943 18.2047 19.49 18.2404C19.4597 18.2424 19.4381 18.2551 19.425 18.2785C19.412 18.3019 19.393 18.3225 19.368 18.3402C19.3497 18.3479 19.3314 18.3555 19.3131 18.3632C19.2945 18.3676 19.2761 18.3737 19.2577 18.3813C19.2217 18.403 19.1857 18.4247 19.1497 18.4464C19.1172 18.4647 19.0846 18.4829 19.0521 18.5012C19.0527 18.5076 19.0533 18.514 19.0539 18.5204C19.0582 18.5265 19.0607 18.5328 19.0613 18.5392C19.0468 18.5466 19.0321 18.5524 19.0173 18.5566C19.0025 18.5608 18.9996 18.5707 19.0086 18.5861C18.9677 18.5953 18.9483 18.6127 18.9507 18.6383C18.858 18.6637 18.7781 18.6835 18.711 18.6976C18.6438 18.7117 18.5782 18.7418 18.514 18.7879C18.437 18.8188 18.36 18.8496 18.283 18.8805C18.2057 18.9081 18.1347 18.9418 18.0699 18.9815C18.0711 18.9943 18.0807 18.9953 18.0987 18.9844C18.0967 19.0039 18.0883 19.0157 18.0735 19.0199C18.0621 19.0207 18.0484 19.0167 18.0324 19.0081C17.9604 19.0515 17.8725 19.088 17.7688 19.1174C17.665 19.1468 17.5718 19.1868 17.489 19.2373C17.4587 19.2393 17.4252 19.2464 17.3883 19.2585C17.3552 19.2703 17.3242 19.2852 17.2955 19.3032C17.2891 19.3165 17.2916 19.3228 17.3029 19.3221C17.3139 19.3181 17.318 19.3211 17.3151 19.3309C17.3091 19.3474 17.3024 19.3575 17.2951 19.3612C17.2876 19.3617 17.2745 19.3642 17.2559 19.3686C17.2365 19.4053 17.206 19.425 17.1644 19.4278C17.1228 19.4306 17.0901 19.4472 17.0664 19.4778C17.0219 19.4904 16.9699 19.5035 16.9103 19.5171C16.8545 19.5304 16.8109 19.5526 16.7796 19.5837C16.7607 19.5849 16.7492 19.5841 16.7451 19.5811C16.6879 19.6203 16.6106 19.648 16.5132 19.6641C16.4196 19.68 16.3386 19.7079 16.27 19.7478C16.2235 19.738 16.1811 19.7521 16.1427 19.7901C16.0904 19.8 16.0345 19.8117 15.9749 19.8253C15.9191 19.8387 15.8614 19.8522 15.8018 19.8658C15.746 19.8791 15.6861 19.8895 15.6222 19.897C15.562 19.9042 15.5033 19.9065 15.446 19.9039C15.4341 19.8982 15.4284 19.8986 15.429 19.905C15.4299 19.9146 15.4264 19.918 15.4186 19.9153C15.3645 19.906 15.3123 19.8966 15.2619 19.8871C15.2157 19.8805 15.1692 19.8707 15.1223 19.8577C15.0796 19.8477 15.0381 19.8311 14.998 19.808C14.9619 19.7879 14.9287 19.7579 14.8984 19.7181C14.8902 19.7122 14.8844 19.711 14.8809 19.7144C14.8815 19.7208 14.8779 19.7227 14.87 19.72C14.8145 19.6947 14.7673 19.6576 14.7285 19.6087C14.6901 19.5629 14.6464 19.5224 14.5975 19.487C14.598 19.4516 14.5878 19.4233 14.5668 19.4021C14.5456 19.3778 14.5195 19.3634 14.4887 19.359C14.4933 19.3265 14.4921 19.2928 14.485 19.2579C14.4742 19.2232 14.4634 19.1885 14.4526 19.1538C14.4415 19.1159 14.4305 19.0797 14.4197 19.045C14.4086 19.0071 14.4036 18.9736 14.4047 18.9446C14.3966 18.9387 14.3909 18.9391 14.3877 18.9457C14.3804 18.9494 14.3727 18.9483 14.3646 18.9424Z" fill="url(#paint6_linear_2311_1911)"/>
<path d="M20.955 15.9611C20.9585 15.9576 20.9642 15.9572 20.972 15.9599C20.9834 15.9592 20.9887 15.9556 20.9881 15.9492C20.9872 15.9396 20.9848 15.9333 20.9807 15.9304C20.9801 15.924 20.9814 15.9175 20.9846 15.9108C20.9884 15.9106 20.9904 15.912 20.9907 15.9152C20.9945 15.915 20.9983 15.9147 21.002 15.9145C21.0157 15.8975 21.0271 15.8774 21.0364 15.8543C21.0494 15.8309 21.0588 15.8093 21.0646 15.7896C21.0789 15.779 21.0912 15.7686 21.1016 15.7582C21.1118 15.7447 21.1157 15.7251 21.1133 15.6995C21.1447 15.7103 21.1693 15.7087 21.187 15.6946C21.2044 15.6774 21.2251 15.6744 21.2489 15.6857C21.2562 15.682 21.2559 15.6788 21.248 15.6761C21.2437 15.6699 21.2451 15.665 21.2524 15.6613C21.2652 15.6766 21.2792 15.6837 21.2943 15.6827C21.3132 15.6814 21.3277 15.6949 21.338 15.7232C21.3563 15.7156 21.3695 15.7147 21.3776 15.7206C21.3893 15.723 21.4028 15.7254 21.4182 15.7276C21.4153 15.7374 21.4161 15.7454 21.4204 15.7516C21.4245 15.7545 21.4286 15.7575 21.4327 15.7604C21.4405 15.7631 21.4466 15.7675 21.451 15.7737C21.4551 15.7766 21.4558 15.7846 21.4532 15.7977C21.4724 15.7996 21.4913 15.7984 21.5099 15.7939C21.5187 15.8062 21.5261 15.825 21.5322 15.8504C21.5419 15.8722 21.5458 15.8945 21.5441 15.9172C21.5572 15.9356 21.5686 15.9558 21.5783 15.9777C21.5917 15.9993 21.5996 16.0229 21.6019 16.0485C21.6182 16.0603 21.6265 16.0678 21.6268 16.071C21.6274 16.0774 21.6238 16.0792 21.6159 16.0765C21.6078 16.0706 21.6081 16.0738 21.6168 16.0861C21.6378 16.1073 21.6615 16.117 21.6879 16.1152C21.7141 16.1103 21.7366 16.1072 21.7555 16.1059C21.8198 16.1016 21.8747 16.0996 21.9204 16.0998C21.9695 16.0965 22.0166 16.0918 22.0617 16.0856C22.0951 16.077 22.1288 16.0715 22.1628 16.0692C22.1965 16.0638 22.2271 16.065 22.2544 16.0728C22.2969 16.0797 22.3387 16.0801 22.38 16.0741C22.4251 16.0679 22.4706 16.0665 22.5165 16.0699C22.5452 16.0519 22.5753 16.0483 22.6068 16.0591C22.642 16.0696 22.68 16.0703 22.721 16.0612C22.7242 16.0545 22.7259 16.0528 22.7262 16.056C22.73 16.0558 22.7354 16.0522 22.7424 16.0453C22.8043 16.0573 22.8748 16.059 22.9539 16.0506C22.974 16.0621 22.9955 16.0687 23.0185 16.0704C23.0449 16.0687 23.0736 16.07 23.1044 16.0744C23.1463 16.0748 23.1906 16.0815 23.2374 16.0945C23.284 16.1043 23.3277 16.1046 23.3687 16.0955C23.385 16.1073 23.4029 16.1157 23.4224 16.1209C23.4457 16.1258 23.4664 16.1244 23.4848 16.1167C23.5014 16.1317 23.5214 16.1433 23.545 16.1514C23.5686 16.1595 23.5902 16.1677 23.61 16.176C23.6333 16.1809 23.655 16.1891 23.675 16.2007C23.6986 16.2088 23.7207 16.2218 23.7414 16.2397C23.7458 16.2459 23.7494 16.244 23.7523 16.2342C23.7549 16.2211 23.7588 16.2225 23.7641 16.2382C23.8205 16.2731 23.87 16.3149 23.9126 16.3636C23.9548 16.409 24.0026 16.4525 24.0558 16.4941C24.057 16.5069 24.0601 16.5195 24.0651 16.5321C24.07 16.5446 24.0783 16.5521 24.0899 16.5546C24.0804 16.5745 24.0788 16.5988 24.0853 16.6273C24.0914 16.6526 24.0922 16.6816 24.0876 16.714C24.0844 16.7207 24.0811 16.7257 24.0776 16.7292C24.0779 16.7324 24.0764 16.7373 24.0733 16.744C24.0736 16.7472 24.074 16.752 24.0746 16.7584C24.0787 16.7613 24.0809 16.7644 24.0811 16.7676C24.0817 16.774 24.0786 16.7806 24.0716 16.7875C24.0643 16.7912 24.0574 16.7981 24.0507 16.8082C24.0385 16.8412 24.0229 16.8777 24.0038 16.9175C23.9884 16.9572 23.9706 16.9906 23.9503 17.0177C23.9468 17.0211 23.9377 17.0249 23.9228 17.0291C23.8973 17.0405 23.8762 17.0596 23.8597 17.0864C23.8429 17.1101 23.8201 17.1309 23.7913 17.1489C23.7809 17.1592 23.7646 17.1684 23.7425 17.1763C23.7132 17.1879 23.6894 17.1975 23.6711 17.2051C23.6528 17.2128 23.6288 17.2208 23.5991 17.2292C23.5605 17.264 23.5152 17.2879 23.4632 17.301C23.4109 17.3109 23.3657 17.3364 23.3277 17.3776C23.323 17.3682 23.3131 17.3641 23.298 17.3651C23.2696 17.3863 23.2367 17.4013 23.1995 17.4102C23.1661 17.4189 23.1293 17.4326 23.0893 17.4513C23.0712 17.4622 23.0553 17.4745 23.0413 17.4883C23.0309 17.4987 23.0165 17.5077 22.9982 17.5153C22.968 17.5173 22.9473 17.5203 22.9363 17.5242C22.9256 17.5314 22.9115 17.5436 22.8941 17.5608C22.8758 17.5685 22.8516 17.5749 22.8217 17.5801C22.7918 17.5853 22.7639 17.592 22.738 17.6001C22.7304 17.6007 22.727 17.6041 22.7275 17.6105C22.7278 17.6137 22.7262 17.617 22.7228 17.6205C22.7045 17.6281 22.6838 17.6311 22.6608 17.6294C22.6417 17.6275 22.6273 17.6365 22.6177 17.6564C22.6058 17.6508 22.5924 17.65 22.5776 17.6542C22.5663 17.655 22.5575 17.6636 22.5515 17.6801C22.5364 17.6811 22.5282 17.6752 22.527 17.6624C22.4765 17.6915 22.4216 17.7145 22.3623 17.7313C22.3068 17.7478 22.2532 17.7643 22.2014 17.7806C22.1497 17.7969 22.0925 17.8152 22.0297 17.8354C21.9704 17.8522 21.9111 17.869 21.8518 17.8858C21.8615 17.9077 21.8762 17.9228 21.896 17.9312C21.9195 17.9393 21.9415 17.9507 21.9619 17.9654C22.0154 17.9683 22.0621 17.9797 22.1019 17.9996C22.1139 18.0052 22.1258 18.0109 22.1377 18.0165C22.1494 18.019 22.1578 18.0281 22.1631 18.0438C22.2166 18.0467 22.267 18.0578 22.3145 18.0772C22.3616 18.0934 22.4073 18.1145 22.4515 18.1406C22.4943 18.1506 22.5335 18.1641 22.5693 18.181C22.6089 18.1977 22.6435 18.2228 22.6732 18.2562C22.721 18.2788 22.7687 18.3014 22.8164 18.324C22.8676 18.3431 22.9153 18.3657 22.9596 18.3917C23.0038 18.4177 23.0427 18.4474 23.0762 18.4805C23.1134 18.5135 23.142 18.555 23.1618 18.6052C23.1697 18.6079 23.1739 18.6124 23.1745 18.6188C23.1751 18.6252 23.1793 18.6298 23.1872 18.6325C23.1811 18.649 23.1728 18.6624 23.1624 18.6728C23.1557 18.6829 23.149 18.693 23.1424 18.7031C23.1439 18.719 23.1469 18.7317 23.1516 18.7411C23.1417 18.7578 23.1278 18.7716 23.1098 18.7825C23.0979 18.7768 23.0861 18.7728 23.0745 18.7703C23.0666 18.7676 23.0586 18.7633 23.0504 18.7574C23.0432 18.7611 23.0399 18.7662 23.0404 18.7726C23.0448 18.7787 23.0429 18.7788 23.0348 18.7729C23.04 18.7887 23.045 18.8012 23.0497 18.8106C23.0578 18.8165 23.0589 18.8277 23.0528 18.8442C23.042 18.8513 23.0343 18.8502 23.0297 18.8409C23.0285 18.8281 23.0222 18.8221 23.0109 18.8228C22.9949 18.8561 22.9713 18.8673 22.9398 18.8565C22.9084 18.8457 22.8754 18.8382 22.8408 18.8341C22.8461 18.8498 22.8547 18.8605 22.8666 18.8662C22.8785 18.8718 22.8851 18.881 22.8863 18.8938C22.8869 18.9002 22.8835 18.9053 22.8763 18.909C22.8687 18.9095 22.8632 18.9115 22.8597 18.9149C22.8277 18.8977 22.7942 18.8855 22.7593 18.8781C22.7241 18.8676 22.6889 18.857 22.6537 18.8465C22.6223 18.8357 22.5889 18.8234 22.5534 18.8097C22.5216 18.7957 22.4914 18.7768 22.4626 18.753C22.4518 18.7601 22.4387 18.7626 22.4233 18.7604C22.4117 18.7579 22.4018 18.7538 22.3936 18.7479C22.3939 18.7511 22.3923 18.7544 22.3889 18.7579C22.3892 18.7611 22.3852 18.7597 22.3771 18.7538C22.3934 18.7656 22.4116 18.7773 22.4317 18.7888C22.4514 18.7972 22.4677 18.8089 22.4806 18.8242C22.4623 18.8318 22.4354 18.8288 22.3999 18.8151C22.3678 18.7979 22.3399 18.7836 22.3161 18.7723L22.2877 18.7742C22.2388 18.7388 22.1815 18.7153 22.1158 18.7035C22.0538 18.6916 21.9985 18.6695 21.9499 18.6373C21.8028 18.6084 21.6567 18.5715 21.5119 18.5263C21.3708 18.481 21.2298 18.4372 21.0891 18.3951C21.0739 18.3961 21.0667 18.3998 21.0673 18.4062C21.0469 18.3914 21.019 18.3772 20.9835 18.3634C20.9517 18.3495 20.9205 18.3403 20.8897 18.3359C20.8821 18.3364 20.8747 18.3385 20.8674 18.3422C20.8636 18.3424 20.8578 18.3412 20.85 18.3385L20.8495 18.3337L20.8434 18.3293C20.8353 18.3234 20.8236 18.3209 20.8085 18.3219C20.7969 18.3195 20.7813 18.3157 20.7618 18.3106C20.742 18.3022 20.726 18.2936 20.7138 18.2848C20.7013 18.2727 20.6914 18.2686 20.6841 18.2723C20.6766 18.2728 20.6677 18.2798 20.6576 18.2933C20.6512 18.3066 20.6431 18.3216 20.6332 18.3384C20.6234 18.3551 20.6135 18.3719 20.6036 18.3886C20.5976 18.4051 20.5931 18.4183 20.5902 18.4281C20.5769 18.4483 20.5651 18.4652 20.555 18.4788C20.5448 18.4923 20.537 18.5105 20.5315 18.5334C20.5365 18.546 20.5372 18.554 20.5337 18.5574C20.5302 18.5609 20.5291 18.569 20.5303 18.5818C20.5126 18.5958 20.501 18.6143 20.4955 18.6372C20.49 18.6601 20.4784 18.6786 20.4607 18.6926C20.4569 18.6929 20.455 18.693 20.455 18.693C20.4547 18.6898 20.4508 18.6884 20.4432 18.6889C20.4368 18.7022 20.4265 18.7142 20.4123 18.7248C20.4019 18.7351 20.3941 18.7534 20.3889 18.7795C20.3813 18.78 20.3777 18.7818 20.378 18.785C20.3783 18.7882 20.3762 18.7867 20.3719 18.7806C20.3626 18.8037 20.3494 18.8255 20.3323 18.846C20.3149 18.8632 20.3036 18.8849 20.2984 18.911C20.2456 18.9982 20.1927 19.0837 20.1396 19.1677C20.0903 19.2515 20.0374 19.337 19.9809 19.4245L19.9582 19.426C19.9553 19.4358 19.9504 19.4442 19.9434 19.4511C19.9405 19.4609 19.9376 19.4708 19.9347 19.4806C19.9269 19.4779 19.9193 19.4784 19.9121 19.4821C19.9089 19.4888 19.9032 19.4892 19.895 19.4833C19.8945 19.4769 19.8973 19.467 19.9037 19.4537C19.9139 19.4402 19.9202 19.4269 19.9228 19.4138C19.9144 19.4047 19.9064 19.4004 19.8988 19.4009C19.8913 19.4015 19.8817 19.4005 19.87 19.398C19.8657 19.4337 19.8534 19.4651 19.8331 19.4922C19.8169 19.5223 19.8107 19.5581 19.8146 19.5997C19.7994 19.6007 19.7906 19.5868 19.7879 19.558C19.7855 19.5324 19.7877 19.5145 19.7943 19.5044C19.7894 19.4919 19.7812 19.486 19.7699 19.4867C19.7623 19.4872 19.753 19.4895 19.742 19.4934C19.735 19.5003 19.7299 19.5071 19.7268 19.5137C19.7239 19.5236 19.7266 19.5331 19.7351 19.5422C19.7168 19.5498 19.7017 19.5508 19.6897 19.5452C19.6819 19.5425 19.6737 19.5366 19.6653 19.5275C19.6568 19.5184 19.6482 19.5077 19.6395 19.4954C19.6345 19.4828 19.628 19.4736 19.6198 19.4677C19.6059 19.4815 19.6036 19.4978 19.6129 19.5165C19.6226 19.5384 19.6262 19.5574 19.6239 19.5737C19.6321 19.5796 19.6392 19.5743 19.6453 19.5578C19.6554 19.5442 19.6646 19.5404 19.6727 19.5463C19.6667 19.5628 19.6564 19.5747 19.6418 19.5821C19.6276 19.5927 19.6145 19.5952 19.6026 19.5896C19.6076 19.6021 19.6064 19.6102 19.5991 19.6139C19.5957 19.6174 19.5944 19.6239 19.5953 19.6335C19.5889 19.6468 19.5912 19.6515 19.6023 19.6475C19.6174 19.6465 19.6214 19.6495 19.6145 19.6564C19.6235 19.6719 19.6181 19.6754 19.5984 19.6671C19.5827 19.6617 19.5792 19.6652 19.5879 19.6774C19.5687 19.6755 19.5562 19.6635 19.5503 19.6413C19.5483 19.6189 19.5462 19.5965 19.5441 19.5741C19.5348 19.5554 19.5226 19.5466 19.5074 19.5476C19.5057 19.5284 19.5037 19.5076 19.5017 19.4852C19.5037 19.4658 19.4983 19.4484 19.4855 19.4332C19.4985 19.4098 19.5051 19.3788 19.5054 19.3401C19.5059 19.3047 19.5044 19.2678 19.5008 19.2294C19.5013 19.194 19.5037 19.1584 19.508 19.1227C19.5123 19.087 19.5246 19.0556 19.545 19.0285C19.5435 19.0125 19.5407 19.0031 19.5366 19.0001C19.5325 18.9972 19.5282 18.991 19.5235 18.9817C19.5591 18.8731 19.5931 18.7679 19.6255 18.6659C19.6613 18.5606 19.6994 18.4583 19.7397 18.359C19.7495 18.3423 19.7608 18.3206 19.7736 18.294C19.7901 18.2672 19.7989 18.2392 19.8 18.2102C19.7965 18.1718 19.7819 18.1374 19.7562 18.1069C19.7344 18.0761 19.7088 18.0666 19.6794 18.0782C19.6713 18.0723 19.6668 18.0645 19.6659 18.0549C19.665 18.0453 19.668 18.0371 19.675 18.0302C19.6625 18.0182 19.6517 18.0044 19.6426 17.9889C19.6333 17.9702 19.6241 17.9531 19.6151 17.9376C19.6238 17.9081 19.6269 17.8805 19.6245 17.8549C19.6222 17.8293 19.6191 17.7957 19.6152 17.7541C19.6207 17.7313 19.6284 17.7114 19.6382 17.6947C19.6481 17.6779 19.6521 17.66 19.6503 17.6408C19.6771 17.6422 19.7086 17.6337 19.7449 17.6152C19.7813 17.5967 19.8164 17.5863 19.8504 17.5841C19.8731 17.5826 19.894 17.5828 19.9132 17.5847C19.9359 17.5832 19.9497 17.5678 19.9546 17.5385C19.9627 17.5444 19.9707 17.5487 19.9786 17.5514C19.9862 17.5509 19.994 17.5536 20.0022 17.5595C20.0248 17.558 20.0452 17.5518 20.0632 17.541C20.085 17.5299 20.1021 17.5094 20.1145 17.4796C20.1374 17.4395 20.1561 17.3948 20.1706 17.3456C20.1888 17.2961 20.2107 17.2447 20.2362 17.1916C20.2689 17.1347 20.2981 17.0796 20.3236 17.0264C20.3488 16.9701 20.3721 16.9138 20.3935 16.8577C20.2472 16.8384 20.105 16.843 19.967 16.8715C19.8286 16.8967 19.6961 16.9232 19.5694 16.9509C19.5821 16.9243 19.6036 16.91 19.6339 16.908C19.6638 16.9028 19.6915 16.8946 19.7171 16.8832C19.7127 16.8771 19.7085 16.8725 19.7044 16.8696C19.7004 16.8666 19.6961 16.8621 19.6918 16.8559C19.561 16.8807 19.4386 16.9145 19.3247 16.9575C19.2108 17.0005 19.0997 17.032 18.9913 17.052C18.984 17.0557 18.9789 17.0625 18.976 17.0724C18.9766 17.0788 18.9714 17.0839 18.9604 17.0879C18.9258 17.0837 18.8976 17.0872 18.8758 17.0983C18.8499 17.1065 18.8252 17.1065 18.8016 17.0984C18.8001 17.0824 18.8051 17.074 18.8164 17.0733C18.8275 17.0693 18.8283 17.058 18.819 17.0393C18.8233 17.0455 18.8292 17.0467 18.8364 17.043C18.8396 17.0363 18.8409 17.0298 18.8403 17.0234C18.8313 17.0079 18.8217 17.007 18.8115 17.0205C18.7973 17.0311 18.7855 17.0271 18.7762 17.0084C18.7579 17.016 18.7435 17.025 18.7331 17.0354C18.7185 17.0428 18.6977 17.0441 18.6707 17.0395C18.6625 17.0336 18.6579 17.0243 18.6567 17.0115C18.6514 16.9957 18.6427 16.9834 18.6305 16.9746C18.6429 16.9448 18.6436 16.9109 18.6325 16.8731C18.6461 16.8561 18.6619 16.8421 18.6799 16.8313C18.6939 16.8175 18.7036 16.7991 18.7091 16.7762C18.7172 16.7821 18.7249 16.7832 18.7322 16.7795C18.7394 16.7758 18.7472 16.7769 18.7553 16.7828C18.8477 16.7542 18.934 16.7211 19.0142 16.6836C19.0139 16.6804 19.0138 16.6788 19.0138 16.6788C19.0245 16.6716 19.0447 16.6639 19.0743 16.6555C19.1037 16.6439 19.1239 16.6361 19.1349 16.6321C19.1788 16.6131 19.2231 16.5989 19.2679 16.5895C19.3161 16.5767 19.3582 16.5594 19.3942 16.5377C19.4681 16.5135 19.5462 16.4954 19.6288 16.4835C19.711 16.4684 19.7952 16.4532 19.8812 16.4378C20.0344 16.4083 20.1833 16.3743 20.3281 16.3358C20.4728 16.2972 20.6142 16.2637 20.7522 16.2352C20.7525 16.2384 20.7531 16.2448 20.754 16.2544C20.7584 16.2605 20.7642 16.2618 20.7715 16.2581C20.7784 16.2512 20.7873 16.2441 20.798 16.237C20.8126 16.2296 20.8233 16.2224 20.8303 16.2155C20.8372 16.2086 20.8506 16.1885 20.8703 16.155C20.89 16.1215 20.9013 16.0998 20.9042 16.0899C20.9077 16.0865 20.9074 16.0833 20.9033 16.0804C20.9027 16.074 20.9021 16.0676 20.9015 16.0612C20.9158 16.0506 20.9298 16.0384 20.9438 16.0246C20.9574 16.0076 20.9612 15.9864 20.955 15.9611ZM21.2489 17.2258C21.2788 17.2206 21.3143 17.2134 21.3553 17.2042C21.3963 17.1951 21.4208 17.1725 21.4289 17.1366C21.4579 17.1218 21.4871 17.1086 21.5165 17.097C21.5493 17.0819 21.5807 17.0718 21.6106 17.0666C21.6368 17.0617 21.6588 17.0538 21.6769 17.0429C21.6949 17.0321 21.7167 17.021 21.7422 17.0096C21.7826 16.994 21.8288 16.9797 21.8808 16.9666C21.9366 16.9533 21.9827 16.9373 22.019 16.9188C22.0251 16.9023 22.0354 16.8904 22.0499 16.883C22.0694 16.8881 22.0826 16.8872 22.0896 16.8803C22.1003 16.8732 22.1136 16.8723 22.1293 16.8777C22.1862 16.8353 22.2498 16.8037 22.3201 16.783C22.3905 16.7622 22.4538 16.7275 22.5101 16.6787C22.4374 16.6738 22.3576 16.6743 22.2707 16.6801C22.1875 16.6856 22.1067 16.6958 22.0282 16.7106C21.9759 16.7205 21.9249 16.7239 21.8752 16.7208C21.8255 16.7176 21.7782 16.7208 21.7335 16.7302C21.6698 16.7408 21.6121 16.7543 21.5604 16.7706C21.5084 16.7837 21.4545 16.7969 21.3987 16.8103C21.3816 16.8726 21.3584 16.9304 21.3292 16.9839C21.2999 17.0373 21.2769 17.0968 21.2601 17.1623C21.261 17.1719 21.2652 17.1764 21.2728 17.1759C21.2801 17.1722 21.2824 17.1769 21.2798 17.1899C21.2691 17.1971 21.2616 17.1992 21.2576 17.1962C21.2535 17.1933 21.2484 17.2001 21.2423 17.2166C21.2467 17.2227 21.2489 17.2258 21.2489 17.2258ZM24.053 16.6487C24.0539 16.6583 24.0531 16.6697 24.0505 16.6827C24.0476 16.6926 24.0502 16.7004 24.0584 16.7063C24.0537 16.697 24.0547 16.6873 24.0614 16.6772C24.0677 16.6639 24.065 16.6544 24.053 16.6487Z" fill="url(#paint7_linear_2311_1911)"/>
<path d="M22.8288 19.5156C22.8067 19.5235 22.7836 19.5202 22.7594 19.5057C22.7315 19.4915 22.7002 19.4823 22.6656 19.4782C22.6581 19.4787 22.6529 19.4838 22.65 19.4937C22.6471 19.5035 22.6414 19.5039 22.633 19.4948C22.639 19.4783 22.6354 19.4592 22.622 19.4376C22.6156 19.4509 22.6131 19.4655 22.6146 19.4815C22.5957 19.4828 22.5778 19.4743 22.5609 19.4561C22.5603 19.4497 22.5616 19.4432 22.5648 19.4366C22.5645 19.4334 22.574 19.4327 22.5932 19.4347L22.5896 19.3963C22.5937 19.3992 22.5954 19.3975 22.5948 19.3911C22.5942 19.3847 22.5979 19.3829 22.6057 19.3856C22.6017 19.3826 22.6012 19.3778 22.6044 19.3712C22.6038 19.3648 22.5996 19.3602 22.5917 19.3575C22.5882 19.361 22.5885 19.3642 22.5926 19.3671C22.597 19.3733 22.5976 19.3797 22.5944 19.3863C22.59 19.3802 22.5817 19.3727 22.5695 19.3638C22.5576 19.3582 22.548 19.3572 22.5407 19.3609L22.534 19.2889C22.5174 19.274 22.4972 19.2608 22.4734 19.2495C22.4498 19.2414 22.4458 19.2192 22.4615 19.1827C22.4763 19.1785 22.4907 19.1695 22.5046 19.1557C22.5185 19.1419 22.5227 19.1255 22.5172 19.1066L22.5625 19.1036C22.5999 19.0561 22.6375 19.0101 22.6752 18.9658C22.7092 18.9217 22.7468 18.8757 22.788 18.8279C22.7124 18.833 22.6353 18.8429 22.5569 18.8578C22.4746 18.8729 22.4061 18.8726 22.3515 18.8569C22.341 18.8672 22.3263 18.873 22.3074 18.8743C22.2848 18.8758 22.2666 18.885 22.253 18.902C22.2445 18.8929 22.2367 18.8903 22.2294 18.894C22.2221 18.8977 22.2143 18.895 22.2058 18.8859C22.211 18.8598 22.225 18.846 22.2476 18.8445C22.2662 18.84 22.2827 18.8325 22.2969 18.8219C22.2893 18.8224 22.2837 18.8228 22.2799 18.823C22.272 18.8203 22.2602 18.8163 22.2445 18.8109C22.2344 18.8244 22.222 18.8349 22.2075 18.8423C22.1889 18.8467 22.1764 18.8556 22.1701 18.8689C22.1497 18.8542 22.1305 18.8522 22.1125 18.8631C22.0904 18.871 22.076 18.88 22.0693 18.8901C22.0688 18.8837 22.0666 18.8806 22.0628 18.8809C22.0552 18.8814 22.0512 18.8784 22.0506 18.872C22.0497 18.8624 22.0548 18.8556 22.0658 18.8517C22.0731 18.848 22.0726 18.8432 22.0645 18.8373C22.063 18.8213 22.0665 18.8179 22.0749 18.827C22.0834 18.836 22.0931 18.8386 22.1041 18.8347C22.1036 18.8283 22.1011 18.822 22.0967 18.8159L22.077 18.7882C22.0474 18.7966 22.023 18.7998 22.0038 18.7979C21.9846 18.7959 21.9624 18.8022 21.9371 18.8168C21.9321 18.8042 21.9296 18.798 21.9296 18.798C21.9293 18.7948 21.9285 18.7852 21.927 18.7692C21.9462 18.7711 21.9602 18.7589 21.9692 18.7326L21.9753 18.737C21.9756 18.7402 21.9778 18.7433 21.9819 18.7462C21.9819 18.7462 21.982 18.7478 21.9823 18.751C22.025 18.7192 22.0684 18.6954 22.1126 18.6796C22.1568 18.6638 22.2008 18.6464 22.2447 18.6274C22.2627 18.6166 22.2868 18.6101 22.317 18.6081C22.3432 18.6032 22.3593 18.5924 22.3654 18.576C22.3735 18.5818 22.3849 18.5811 22.3994 18.5737C22.4101 18.5665 22.4197 18.5675 22.4282 18.5766C22.4314 18.57 22.4347 18.5649 22.4382 18.5615C22.4417 18.558 22.4467 18.5512 22.4534 18.5411C22.4845 18.5487 22.5126 18.5437 22.5376 18.5259C22.5622 18.505 22.5917 18.495 22.626 18.4959C22.6374 18.4951 22.6425 18.4884 22.6413 18.4756C22.6599 18.4711 22.6807 18.4697 22.7036 18.4714C22.7263 18.4699 22.7421 18.456 22.7511 18.4297C22.7272 18.4184 22.7102 18.4195 22.7001 18.4331C22.6859 18.4437 22.6712 18.4495 22.6561 18.4505C22.6587 18.4374 22.669 18.4255 22.687 18.4146C22.7047 18.4006 22.7246 18.3896 22.7467 18.3817C22.7716 18.3639 22.801 18.3523 22.8347 18.3469C22.8681 18.3382 22.9056 18.3325 22.9472 18.3298C22.9547 18.3293 22.9603 18.3273 22.9637 18.3238C22.9632 18.3174 22.9645 18.3109 22.9676 18.3043C23.0231 18.2877 23.0711 18.2717 23.1115 18.2561C23.1516 18.2374 23.2087 18.2175 23.2828 18.1965C23.2866 18.1962 23.2881 18.1929 23.2876 18.1865C23.287 18.1801 23.2903 18.1751 23.2976 18.1714C23.3092 18.1738 23.317 18.1765 23.3211 18.1794C23.3249 18.1792 23.3304 18.1772 23.3377 18.1735C23.3432 18.1506 23.3588 18.1351 23.3847 18.1269C23.4106 18.1188 23.4242 18.1018 23.4256 18.076C23.4483 18.0745 23.4625 18.0639 23.4683 18.0442C23.4741 18.0245 23.4866 18.0156 23.5058 18.0175C23.551 17.9309 23.6048 17.8549 23.6672 17.7896C23.7331 17.7208 23.7891 17.6479 23.8352 17.5708C23.8566 17.5565 23.8665 17.5398 23.8647 17.5206C23.8685 17.5203 23.8705 17.5218 23.8708 17.525C23.8746 17.5248 23.8803 17.5244 23.8878 17.5239C23.8921 17.4882 23.9087 17.4614 23.9374 17.4434C23.9697 17.4219 23.9875 17.3885 23.9909 17.3433C24.0403 17.3014 24.0813 17.252 24.1141 17.1951C24.1506 17.1379 24.1955 17.0883 24.2486 17.0461C24.257 17.0134 24.2677 16.9853 24.2807 16.9619C24.2975 16.9383 24.3145 16.9163 24.3316 16.8958C24.3522 16.8719 24.371 16.8481 24.3878 16.8245C24.4046 16.8008 24.4173 16.7743 24.426 16.7447C24.4681 16.7065 24.5002 16.6625 24.5222 16.6128C24.548 16.5628 24.5819 16.5187 24.624 16.4805C24.6327 16.451 24.6456 16.426 24.6627 16.4055C24.6833 16.3816 24.6998 16.3548 24.7123 16.325C24.761 16.2767 24.802 16.2257 24.835 16.172C24.8681 16.1183 24.9094 16.0722 24.9591 16.0335C24.9623 16.0268 24.9656 16.0218 24.9691 16.0183C24.9763 16.0146 24.9776 16.0081 24.973 15.9987C25.036 15.9398 25.0851 15.8754 25.1205 15.8055C25.1858 15.7304 25.2477 15.6603 25.3064 15.5952C25.3688 15.5299 25.4232 15.4603 25.4695 15.3865C25.4884 15.3852 25.5011 15.3779 25.5075 15.3646C25.5173 15.3479 25.5256 15.3345 25.5322 15.3244C25.5616 15.3128 25.5829 15.2969 25.5963 15.2767C25.6096 15.2565 25.6269 15.2376 25.6481 15.2201C25.6603 15.229 25.6698 15.2283 25.6764 15.2182C25.6869 15.2079 25.6995 15.2006 25.7143 15.1964C25.719 15.2058 25.7163 15.2172 25.7061 15.2308C25.6957 15.2411 25.6851 15.2499 25.6743 15.257C25.7014 15.2617 25.7339 15.2643 25.772 15.265C25.8098 15.2625 25.846 15.2633 25.8806 15.2675C25.9187 15.2682 25.9535 15.2739 25.9849 15.2847C26.0198 15.292 26.0477 15.3063 26.0687 15.3274C26.0658 15.3373 26.0648 15.347 26.0657 15.3566C26.0663 15.363 26.0607 15.365 26.0491 15.3625C26.061 15.3682 26.0736 15.3802 26.0867 15.3986C26.0995 15.4139 26.1113 15.4179 26.122 15.4108C26.138 15.4194 26.1485 15.4299 26.1535 15.4425C26.1622 15.4548 26.1765 15.4651 26.1963 15.4734C26.1899 15.4867 26.1912 15.5011 26.2003 15.5166C26.2128 15.5287 26.2269 15.5374 26.2426 15.5428C26.2427 15.5846 26.2464 15.6246 26.2537 15.6628C26.2608 15.6977 26.266 15.7344 26.2696 15.7727C26.2766 15.8077 26.278 15.843 26.2737 15.8787C26.2732 15.9141 26.2652 15.9517 26.2499 15.9913C26.2523 16.0169 26.2523 16.0378 26.25 16.0541C26.2474 16.0671 26.2431 16.0819 26.237 16.0984C26.2344 16.1114 26.2301 16.1262 26.224 16.1427C26.2217 16.1589 26.2219 16.1814 26.2245 16.2102C26.204 16.276 26.1878 16.3478 26.1761 16.4259C26.168 16.5037 26.1517 16.5739 26.1271 16.6367C26.1374 16.665 26.1384 16.6971 26.1303 16.7331C26.122 16.7658 26.1095 16.7956 26.093 16.8224C26.098 16.8768 26.0933 16.9286 26.0789 16.9779C26.0682 17.0269 26.0614 17.0772 26.0586 17.1289C26.0548 17.1291 26.0515 17.1342 26.0486 17.144C26.0492 17.1504 26.0456 17.1523 26.0377 17.1496C26.0383 17.156 26.0405 17.159 26.0443 17.1588C26.0518 17.1583 26.0559 17.1612 26.0565 17.1676C26.036 17.2334 26.0225 17.2938 26.0162 17.3489C26.0096 17.4009 26.0055 17.4591 26.0039 17.5236C26.0167 17.5388 26.0305 17.5443 26.0453 17.5401C26.0599 17.5327 26.0747 17.5285 26.0898 17.5275C26.1131 17.5324 26.1346 17.539 26.1544 17.5474C26.1742 17.5557 26.1973 17.559 26.2237 17.5573C26.2389 17.5563 26.2519 17.5538 26.263 17.5498C26.2737 17.5427 26.2852 17.5435 26.2974 17.5524C26.3056 17.5583 26.3095 17.5596 26.3092 17.5564C26.3089 17.5532 26.3126 17.5514 26.3201 17.5509C26.3565 17.5742 26.4003 17.5954 26.4515 17.6146C26.5027 17.6337 26.5452 17.6615 26.579 17.6979C26.572 17.7047 26.571 17.7145 26.576 17.727C26.5806 17.7364 26.5852 17.7441 26.5895 17.7503C26.5901 17.7567 26.5907 17.7631 26.5913 17.7694C26.5919 17.7758 26.5903 17.7792 26.5865 17.7794C26.5909 17.7856 26.5954 17.7933 26.6001 17.8027C26.6048 17.812 26.6168 17.8193 26.6363 17.8244C26.6369 17.8308 26.6337 17.8374 26.6268 17.8443C26.6195 17.848 26.6124 17.8533 26.6054 17.8602C26.6148 17.8789 26.6197 17.8915 26.6203 17.8979C26.6244 17.9008 26.6289 17.9086 26.6339 17.9211C26.6188 17.9221 26.6138 17.9305 26.6191 17.9462C26.6278 17.9585 26.6248 17.9668 26.61 17.971L26.614 18.0142C26.6108 18.0208 26.6095 18.0273 26.6101 18.0337C26.6104 18.0369 26.6072 18.0436 26.6005 18.0537C26.5494 18.0764 26.4959 18.0944 26.4401 18.1078C26.384 18.1179 26.3262 18.1298 26.2666 18.1434C26.2067 18.1538 26.1451 18.166 26.0817 18.1798C26.0184 18.1937 25.9536 18.2125 25.8873 18.2362C25.8841 18.2428 25.881 18.2495 25.8778 18.2561C25.8743 18.2596 25.8749 18.266 25.8795 18.2753C25.8531 18.2771 25.8399 18.2779 25.8399 18.2779C25.8332 18.288 25.8284 18.298 25.8255 18.3079C25.8264 18.3174 25.8216 18.3274 25.8112 18.3378C25.813 18.3988 25.8021 18.4655 25.7784 18.5379C25.7547 18.6103 25.7283 18.6748 25.6993 18.7314C25.6824 18.7132 25.6782 18.6878 25.6865 18.655C25.6946 18.6191 25.6867 18.5955 25.6629 18.5842C25.6539 18.6105 25.6487 18.6366 25.6473 18.6624C25.6494 18.6848 25.6516 18.7088 25.654 18.7344C25.6464 18.7349 25.6426 18.7352 25.6426 18.7352C25.6351 18.7357 25.633 18.7342 25.6365 18.7308C25.64 18.7273 25.6394 18.7209 25.6347 18.7116C25.6133 18.7259 25.6097 18.7486 25.624 18.7799C25.6094 18.7873 25.6007 18.7959 25.5978 18.8057C25.5949 18.8156 25.5921 18.8254 25.5892 18.8353C25.5903 18.8481 25.5876 18.8595 25.5809 18.8696C25.5783 18.8827 25.5696 18.8913 25.5548 18.8955C25.5539 18.8859 25.551 18.8748 25.546 18.8623C25.5451 18.8527 25.539 18.8483 25.5277 18.849C25.5378 18.8355 25.5368 18.8243 25.5246 18.8154C25.5063 18.8231 25.4939 18.8335 25.4876 18.8468C25.4815 18.8633 25.4754 18.8798 25.4693 18.8963C25.4673 18.9158 25.4631 18.9321 25.4568 18.9454C25.4507 18.9619 25.4405 18.9755 25.4263 18.9861C25.4176 18.9738 25.4122 18.9565 25.4101 18.9341C25.408 18.9117 25.4062 18.8925 25.4048 18.8765C25.394 18.8836 25.3914 18.8967 25.397 18.9156C25.4025 18.9346 25.3998 18.946 25.3887 18.95C25.3815 18.9537 25.3757 18.9524 25.3713 18.9463C25.3707 18.9399 25.3666 18.9369 25.3591 18.9374C25.3521 18.9443 25.3451 18.9512 25.3382 18.9581C25.3353 18.968 25.3344 18.9793 25.3356 18.9921C25.3211 18.9995 25.3116 19.0001 25.3073 18.994C25.3032 18.991 25.2974 18.9898 25.2898 18.9903C25.2883 18.9743 25.287 18.9599 25.2858 18.9471C25.2887 18.9373 25.2896 18.926 25.2884 18.9132C25.2881 18.91 25.286 18.9085 25.2823 18.9087C25.2826 18.9119 25.2826 18.9119 25.2823 18.9087C25.2774 18.8157 25.2715 18.7308 25.2644 18.654C25.2608 18.5738 25.259 18.4935 25.2592 18.413C25.1726 18.422 25.0672 18.4338 24.9431 18.4485C24.8189 18.4631 24.714 18.4797 24.6283 18.4983C24.6172 18.5022 24.6101 18.5075 24.6069 18.5142C24.6075 18.5206 24.6043 18.5272 24.5974 18.5341C24.5895 18.5314 24.5872 18.5268 24.5904 18.5201C24.5935 18.5135 24.5914 18.5104 24.5838 18.5109C24.5844 18.5173 24.5787 18.5177 24.5668 18.512C24.5546 18.5032 24.5492 18.5068 24.5507 18.5228C24.4748 18.5246 24.4017 18.5359 24.3314 18.5566C24.2607 18.5742 24.1879 18.5886 24.1129 18.6001C24.0909 18.608 24.0666 18.6128 24.0401 18.6145C24.0134 18.6131 23.9914 18.6226 23.9743 18.643C23.9551 18.6411 23.9418 18.6404 23.9342 18.6409C23.9301 18.6379 23.9243 18.6367 23.9168 18.6372C23.785 18.7747 23.6609 18.9133 23.5446 19.053C23.4282 19.1926 23.3015 19.3233 23.1645 19.4451C23.1491 19.4429 23.1341 19.4455 23.1196 19.4529C23.1016 19.4637 23.0874 19.4743 23.0769 19.4847C23.0574 19.4795 23.0369 19.4841 23.0154 19.4984C22.9942 19.5159 22.9679 19.5193 22.9365 19.5085C22.9144 19.5164 22.9019 19.5253 22.8991 19.5351C22.8793 19.5268 22.8601 19.5248 22.8415 19.5293C22.8191 19.534 22.8038 19.5334 22.7957 19.5275C22.8029 19.5238 22.8085 19.5218 22.8122 19.5215C22.816 19.5213 22.8215 19.5193 22.8288 19.5156ZM25.1515 17.6815C25.1501 17.6655 25.155 17.6571 25.1663 17.6564C25.1812 17.6522 25.1935 17.6417 25.2033 17.6249C25.2121 17.6372 25.2218 17.6398 25.2326 17.6327C25.2471 17.6253 25.2581 17.6213 25.2657 17.6208C25.2619 17.4569 25.2668 17.3037 25.2802 17.1612C25.2936 17.0187 25.303 16.8732 25.3082 16.7248C25.2401 16.8098 25.18 16.9007 25.1282 16.9975C25.0798 17.0908 25.0193 17.1769 24.9467 17.2557C24.8992 17.3587 24.8434 17.4541 24.7793 17.542C24.7152 17.63 24.6511 17.7179 24.587 17.8058L24.5892 17.8298C24.6851 17.7977 24.7781 17.7754 24.8682 17.763C24.958 17.7474 25.0525 17.7202 25.1515 17.6815Z" fill="url(#paint8_linear_2311_1911)"/>
<defs>
<linearGradient id="paint0_linear_2311_1911" x1="4" y1="16.5" x2="29" y2="16.5" gradientUnits="userSpaceOnUse">
<stop stop-color="#F8F8F8"/>
<stop offset="1" stop-color="#ADADAD"/>
</linearGradient>
<linearGradient id="paint1_linear_2311_1911" x1="4" y1="16.5" x2="29" y2="16.5" gradientUnits="userSpaceOnUse">
<stop stop-color="#F8F8F8"/>
<stop offset="1" stop-color="#ADADAD"/>
</linearGradient>
<linearGradient id="paint2_linear_2311_1911" x1="4" y1="16.5" x2="29" y2="16.5" gradientUnits="userSpaceOnUse">
<stop stop-color="#F8F8F8"/>
<stop offset="1" stop-color="#ADADAD"/>
</linearGradient>
<linearGradient id="paint3_linear_2311_1911" x1="4" y1="16.5" x2="29" y2="16.5" gradientUnits="userSpaceOnUse">
<stop stop-color="#F8F8F8"/>
<stop offset="1" stop-color="#ADADAD"/>
</linearGradient>
<linearGradient id="paint4_linear_2311_1911" x1="4" y1="16.5" x2="29" y2="16.5" gradientUnits="userSpaceOnUse">
<stop stop-color="#F8F8F8"/>
<stop offset="1" stop-color="#ADADAD"/>
</linearGradient>
<linearGradient id="paint5_linear_2311_1911" x1="4" y1="16.5" x2="29" y2="16.5" gradientUnits="userSpaceOnUse">
<stop stop-color="#F8F8F8"/>
<stop offset="1" stop-color="#ADADAD"/>
</linearGradient>
<linearGradient id="paint6_linear_2311_1911" x1="4" y1="16.5" x2="29" y2="16.5" gradientUnits="userSpaceOnUse">
<stop stop-color="#F8F8F8"/>
<stop offset="1" stop-color="#ADADAD"/>
</linearGradient>
<linearGradient id="paint7_linear_2311_1911" x1="4" y1="16.5" x2="29" y2="16.5" gradientUnits="userSpaceOnUse">
<stop stop-color="#F8F8F8"/>
<stop offset="1" stop-color="#ADADAD"/>
</linearGradient>
<linearGradient id="paint8_linear_2311_1911" x1="4" y1="16.5" x2="29" y2="16.5" gradientUnits="userSpaceOnUse">
<stop stop-color="#F8F8F8"/>
<stop offset="1" stop-color="#ADADAD"/>
</linearGradient>
</defs>
</svg>
