<svg width="512" height="512" viewBox="0 0 512 512" fill="none" xmlns="http://www.w3.org/2000/svg">
<path fill-rule="evenodd" clip-rule="evenodd" d="M251.694 332.382C369.024 337.706 466.29 308.049 468.945 266.141C471.599 224.232 378.636 185.943 261.306 180.618C143.976 175.294 46.7099 204.951 44.0555 246.859C41.401 288.768 134.364 327.057 251.694 332.382ZM251.864 329.692C361.871 334.685 453.124 305.962 455.685 265.539C458.245 225.116 371.143 188.3 261.136 183.308C151.129 178.316 59.8756 207.038 57.3152 247.461C54.7549 287.884 141.857 324.7 251.864 329.692Z" fill="url(#paint0_linear_2311_1903)"/>
<path d="M205.16 246.021C206.062 255.759 206.907 252.861 197.098 255.482C187.289 258.103 182.745 263.828 176.071 264.271L166.477 273.155L143.769 274.661C135.777 275.191 146.053 267.844 142.928 265.583C141.098 252.906 131.151 250.722 125.199 255.383C124.004 252.022 126.439 257.898 125.827 251.282L125.652 249.387L149.264 247.821C149.866 252.418 150.594 255.025 151.446 255.641C152.204 256.189 154.295 256.35 157.72 256.123L171.024 255.24C174.888 254.984 177.103 254.575 177.67 254.014C178.398 253.293 178.639 251.594 178.391 248.918C178.178 246.614 177.645 245.153 176.793 244.537C176.13 244.057 173.805 243.763 169.819 243.653L142.304 242.785C136.635 242.638 132.333 241.502 129.398 239.378C125.136 236.295 122.589 230.257 121.757 221.263C120.91 212.12 122.672 205.384 127.043 201.055C129.795 198.33 134.42 196.752 140.919 196.321L176.353 193.971C184.433 193.435 189.987 194.263 193.018 196.455C195.29 198.1 197.058 200.488 198.32 203.62C199.575 206.678 200.542 211.401 201.221 217.787L175.271 219.508C174.731 215.58 174.035 213.308 173.182 212.691C172.425 212.143 170.553 211.968 167.567 212.166L154.394 213.04C151.321 213.244 149.582 213.546 149.177 213.947C148.529 214.588 148.319 216.135 148.546 218.588C148.76 220.893 149.292 222.353 150.145 222.97C150.713 223.381 153.034 223.638 157.108 223.742L184.887 224.592C190.562 224.814 194.82 225.953 197.661 228.008C201.828 231.022 204.328 237.027 205.16 246.021Z" fill="url(#paint1_linear_2311_1903)"/>
<path d="M299.771 232.903C300.405 240.714 300.338 246.664 299.567 250.754C297.939 255.904 294.134 254.734 290.841 251.824C287.603 255.031 284.659 248.537 276.141 249.102L266.524 251.731L243.287 268.061C234.681 268.632 231.873 267.322 228.085 264.582C220.902 259.524 216.498 248.223 214.874 230.681C213.251 213.138 215.521 201.395 221.686 195.452C224.924 192.245 230.846 190.357 239.452 189.786L270.276 187.742C278.794 187.177 284.947 188.265 288.735 191.005C291.292 192.855 293.327 195.749 294.84 199.687C296.347 203.551 297.498 209.308 298.295 216.959L271.818 218.715C270.921 211.893 269.81 208.003 268.484 207.044C267.727 206.496 265.679 206.333 262.342 206.554L250.618 207.332C247.281 207.553 245.289 207.984 244.641 208.625C243.104 210.148 242.885 216.857 243.986 228.75C245.087 240.643 246.537 247.241 248.336 248.542C249.094 249.091 251.141 249.254 254.478 249.033L266.202 248.255C269.539 248.034 271.532 247.602 272.179 246.961C273.312 245.839 273.684 241.738 273.293 234.659L299.771 232.903Z" fill="url(#paint2_linear_2311_1903)"/>
<path d="M383.741 198.279L339.481 201.214L340.915 216.712L371.871 214.659L373.419 231.384L342.464 233.437L343.628 246.016L343.419 243.755L336.356 238.819L329.716 246.939L316.829 252.913L315.474 249.699L309.498 185.141L382.079 180.327L383.741 198.279Z" fill="url(#paint3_linear_2311_1903)"/>
<path d="M82.2228 326.459C81.8474 326.593 81.4543 326.537 81.0437 326.291C80.5688 326.049 80.0372 325.893 79.4489 325.822C79.3204 325.831 79.2315 325.919 79.1824 326.086C79.1333 326.253 79.0369 326.26 78.8933 326.105C78.9966 325.825 78.9343 325.501 78.7063 325.133C78.598 325.359 78.5564 325.608 78.5815 325.88C78.2603 325.901 77.9561 325.757 77.6689 325.448C77.6588 325.339 77.6809 325.228 77.735 325.115C77.73 325.061 77.8906 325.05 78.2169 325.083L78.1565 324.43C78.2258 324.481 78.2554 324.451 78.2453 324.343C78.2352 324.234 78.297 324.202 78.4305 324.248C78.3612 324.198 78.3537 324.116 78.4079 324.003C78.3978 323.895 78.326 323.817 78.1925 323.772C78.1332 323.83 78.1383 323.885 78.2076 323.935C78.2819 324.039 78.2919 324.148 78.2378 324.261C78.1635 324.156 78.0224 324.029 77.8145 323.879C77.6117 323.783 77.4486 323.766 77.3251 323.829L77.2119 322.605C76.9297 322.351 76.5858 322.127 76.1802 321.935C75.7796 321.798 75.7122 321.419 75.9781 320.8C76.2301 320.728 76.4745 320.575 76.7113 320.341C76.9482 320.106 77.0194 319.828 76.9249 319.506L77.6959 319.455C78.3321 318.646 78.9709 317.865 79.6122 317.111C80.1892 316.362 80.828 315.581 81.5285 314.768C80.2435 314.854 78.934 315.023 77.5999 315.275C76.2016 315.532 75.0376 315.527 74.1079 315.261C73.9303 315.436 73.6808 315.535 73.3596 315.556C72.9741 315.582 72.6655 315.739 72.4336 316.028C72.29 315.874 72.1565 315.828 72.033 315.891C71.9096 315.953 71.7761 315.908 71.6325 315.753C71.7207 315.309 71.9575 315.075 72.343 315.049C72.6592 314.974 72.9383 314.846 73.1802 314.665C73.0517 314.674 72.9553 314.68 72.891 314.685C72.7575 314.639 72.5572 314.57 72.2902 314.478C72.1176 314.709 71.9078 314.887 71.6609 315.012C71.3447 315.088 71.1324 315.239 71.024 315.465C70.6776 315.214 70.3514 315.181 70.0452 315.366C69.6698 315.5 69.4254 315.653 69.312 315.825C69.3019 315.716 69.2648 315.664 69.2005 315.668C69.072 315.677 69.0028 315.626 68.9927 315.518C68.9776 315.355 69.0639 315.239 69.2516 315.172C69.3751 315.109 69.3675 315.028 69.2289 314.927C69.2038 314.656 69.263 314.597 69.4066 314.752C69.5502 314.906 69.7158 314.95 69.9035 314.883C69.8935 314.774 69.8513 314.667 69.777 314.563L69.4425 314.093C68.9386 314.235 68.5235 314.29 68.1973 314.257C67.871 314.224 67.4931 314.331 67.0635 314.579C66.9791 314.365 66.9369 314.259 66.9369 314.259C66.9319 314.204 66.9168 314.041 66.8916 313.769C67.2179 313.802 67.4572 313.595 67.6097 313.147L67.7136 313.222C67.7187 313.277 67.7558 313.329 67.8251 313.379C67.8251 313.379 67.8276 313.406 67.8327 313.461C68.5583 312.92 69.2966 312.516 70.0474 312.247C70.7982 311.978 71.5466 311.682 72.2924 311.359C72.5985 311.175 73.0085 311.066 73.5225 311.032C73.9672 310.947 74.2412 310.765 74.3446 310.485C74.4831 310.585 74.6759 310.572 74.9228 310.446C75.1055 310.325 75.2686 310.341 75.4122 310.496C75.4664 310.383 75.5231 310.297 75.5823 310.238C75.6415 310.18 75.7278 310.065 75.8412 309.893C76.3703 310.022 76.8471 309.936 77.2717 309.634C77.6912 309.278 78.1926 309.108 78.7758 309.124C78.9686 309.111 79.0549 308.996 79.0348 308.778C79.351 308.703 79.7043 308.679 80.0948 308.708C80.4803 308.682 80.7493 308.446 80.9018 307.998C80.4962 307.806 80.207 307.825 80.0344 308.055C79.7925 308.236 79.5431 308.334 79.2861 308.351C79.3302 308.129 79.5054 307.926 79.8115 307.742C80.1126 307.503 80.4509 307.316 80.8263 307.182C81.2508 306.88 81.7497 306.683 82.3229 306.59C82.8911 306.443 83.5285 306.346 84.2352 306.299C84.3637 306.291 84.4576 306.257 84.5168 306.199C84.5067 306.09 84.5288 305.979 84.583 305.866C85.5265 305.585 86.3416 305.312 87.0282 305.047C87.7098 304.728 88.6804 304.391 89.9402 304.033C90.0044 304.029 90.0315 303.973 90.0215 303.864C90.0114 303.755 90.0681 303.669 90.1916 303.606C90.3893 303.648 90.5229 303.694 90.5921 303.744C90.6564 303.74 90.7502 303.706 90.8737 303.643C90.967 303.254 91.2334 302.99 91.6731 302.851C92.1128 302.713 92.3446 302.424 92.3686 301.985C92.754 301.959 92.9959 301.779 93.0942 301.444C93.1925 301.109 93.4048 300.958 93.7311 300.991C94.4997 299.518 95.4143 298.226 96.4752 297.116C97.5952 295.948 98.547 294.708 99.3307 293.398C99.6961 293.155 99.8636 292.87 99.8334 292.544C99.8977 292.539 99.9323 292.564 99.9374 292.619C100.002 292.614 100.098 292.608 100.226 292.6C100.3 291.993 100.581 291.536 101.069 291.23C101.617 290.866 101.92 290.299 101.978 289.529C102.818 288.816 103.515 287.977 104.072 287.01C104.694 286.038 105.456 285.194 106.359 284.478C106.501 283.921 106.684 283.444 106.905 283.046C107.191 282.644 107.48 282.27 107.771 281.922C108.121 281.516 108.439 281.112 108.725 280.71C109.011 280.308 109.228 279.856 109.375 279.353C110.091 278.704 110.636 277.957 111.01 277.111C111.449 276.261 112.026 275.512 112.741 274.862C112.889 274.36 113.108 273.935 113.399 273.588C113.749 273.181 114.03 272.725 114.242 272.219C115.071 271.398 115.766 270.531 116.328 269.618C116.89 268.705 117.593 267.92 118.437 267.262C118.491 267.149 118.548 267.063 118.607 267.005C118.731 266.942 118.753 266.831 118.674 266.672C119.744 265.671 120.58 264.576 121.181 263.387C122.291 262.109 123.345 260.918 124.341 259.812C125.402 258.702 126.327 257.519 127.115 256.263C127.437 256.242 127.651 256.118 127.76 255.892C127.927 255.607 128.068 255.379 128.181 255.208C128.68 255.01 129.043 254.74 129.27 254.397C129.497 254.053 129.79 253.733 130.15 253.436C130.358 253.586 130.519 253.575 130.632 253.404C130.81 253.228 131.025 253.104 131.277 253.033C131.356 253.191 131.309 253.386 131.137 253.616C130.959 253.792 130.779 253.941 130.596 254.063C131.056 254.142 131.61 254.187 132.257 254.199C132.9 254.156 133.515 254.17 134.103 254.24C134.751 254.252 135.342 254.35 135.876 254.533C136.469 254.658 136.944 254.9 137.301 255.259C137.251 255.427 137.234 255.592 137.249 255.755C137.26 255.864 137.166 255.898 136.968 255.856C137.171 255.952 137.384 256.157 137.607 256.47C137.824 256.729 138.025 256.798 138.207 256.677C138.48 256.823 138.658 257.002 138.742 257.216C138.891 257.425 139.133 257.6 139.47 257.742C139.361 257.968 139.384 258.213 139.538 258.476C139.75 258.681 139.99 258.829 140.257 258.921C140.259 259.632 140.322 260.312 140.446 260.96C140.566 261.554 140.656 262.177 140.716 262.83C140.836 263.424 140.859 264.024 140.786 264.631C140.777 265.233 140.642 265.872 140.381 266.545C140.422 266.98 140.422 267.336 140.383 267.612C140.339 267.834 140.265 268.085 140.162 268.366C140.118 268.587 140.044 268.839 139.941 269.119C139.902 269.395 139.905 269.778 139.95 270.267C139.601 271.385 139.326 272.607 139.126 273.933C138.99 275.255 138.713 276.45 138.294 277.518C138.468 277.999 138.486 278.544 138.349 279.155C138.207 279.712 137.995 280.219 137.714 280.675C137.799 281.599 137.719 282.48 137.474 283.317C137.292 284.15 137.177 285.006 137.129 285.884C137.065 285.889 137.009 285.974 136.959 286.142C136.969 286.251 136.908 286.282 136.774 286.236C136.784 286.345 136.821 286.397 136.886 286.393C137.014 286.384 137.083 286.435 137.094 286.543C136.744 287.661 136.516 288.688 136.409 289.625C136.297 290.508 136.227 291.498 136.199 292.594C136.417 292.853 136.652 292.947 136.904 292.876C137.151 292.75 137.403 292.678 137.66 292.661C138.055 292.744 138.421 292.857 138.758 292.999C139.094 293.141 139.487 293.197 139.937 293.167C140.194 293.15 140.416 293.108 140.604 293.041C140.786 292.919 140.982 292.933 141.19 293.084C141.328 293.184 141.395 293.207 141.39 293.153C141.385 293.098 141.447 293.067 141.575 293.058C142.194 293.455 142.938 293.816 143.809 294.141C144.679 294.466 145.401 294.938 145.976 295.557C145.857 295.674 145.84 295.839 145.925 296.053C146.004 296.212 146.081 296.343 146.155 296.448C146.165 296.557 146.175 296.665 146.185 296.774C146.195 296.883 146.168 296.939 146.104 296.944C146.178 297.048 146.255 297.18 146.335 297.339C146.414 297.498 146.619 297.621 146.951 297.708C146.961 297.817 146.907 297.93 146.788 298.047C146.665 298.11 146.544 298.2 146.425 298.318C146.584 298.635 146.668 298.849 146.678 298.957C146.748 299.007 146.825 299.139 146.909 299.352C146.652 299.369 146.568 299.512 146.658 299.779C146.806 299.988 146.755 300.129 146.503 300.2L146.57 300.934C146.516 301.047 146.494 301.158 146.504 301.267C146.509 301.321 146.455 301.434 146.342 301.606C145.473 301.992 144.564 302.298 143.615 302.526C142.661 302.698 141.678 302.9 140.665 303.132C139.647 303.308 138.6 303.515 137.523 303.75C136.446 303.986 135.344 304.305 134.218 304.708C134.164 304.821 134.109 304.934 134.055 305.047C133.996 305.106 134.006 305.215 134.085 305.374C133.636 305.403 133.411 305.418 133.411 305.418C133.297 305.59 133.216 305.759 133.167 305.927C133.182 306.09 133.101 306.26 132.923 306.435C132.955 307.473 132.769 308.607 132.365 309.837C131.962 311.068 131.514 312.165 131.022 313.127C130.734 312.818 130.662 312.385 130.804 311.829C130.942 311.218 130.808 310.816 130.402 310.624C130.25 311.072 130.161 311.516 130.137 311.955C130.173 312.336 130.21 312.744 130.251 313.179C130.122 313.187 130.058 313.191 130.058 313.191C129.929 313.2 129.895 313.175 129.954 313.116C130.013 313.058 130.003 312.949 129.924 312.79C129.558 313.033 129.497 313.42 129.74 313.951C129.493 314.077 129.345 314.224 129.296 314.391C129.247 314.558 129.198 314.726 129.149 314.893C129.169 315.111 129.122 315.305 129.009 315.477C128.965 315.699 128.817 315.845 128.565 315.917C128.55 315.754 128.5 315.565 128.416 315.352C128.4 315.189 128.297 315.114 128.104 315.127C128.276 314.896 128.259 314.706 128.051 314.556C127.74 314.686 127.53 314.864 127.422 315.09C127.318 315.37 127.215 315.651 127.112 315.931C127.078 316.262 127.006 316.54 126.898 316.766C126.795 317.046 126.622 317.277 126.38 317.457C126.232 317.248 126.14 316.953 126.104 316.572C126.069 316.192 126.039 315.865 126.014 315.594C125.831 315.715 125.787 315.937 125.882 316.259C125.976 316.581 125.929 316.776 125.742 316.843C125.618 316.906 125.519 316.885 125.445 316.78C125.435 316.672 125.366 316.621 125.237 316.63C125.119 316.747 125 316.864 124.882 316.982C124.833 317.149 124.818 317.342 124.838 317.559C124.591 317.685 124.431 317.696 124.356 317.591C124.287 317.541 124.188 317.52 124.06 317.529C124.035 317.257 124.012 317.012 123.992 316.795C124.041 316.627 124.055 316.435 124.035 316.217C124.03 316.163 123.996 316.138 123.931 316.142C123.936 316.196 123.936 316.196 123.931 316.142C123.85 314.561 123.748 313.117 123.628 311.812C123.566 310.448 123.537 309.082 123.539 307.714C122.067 307.867 120.275 308.068 118.165 308.317C116.055 308.566 114.271 308.849 112.814 309.164C112.626 309.232 112.505 309.322 112.451 309.435C112.461 309.543 112.407 309.656 112.288 309.774C112.155 309.728 112.115 309.648 112.169 309.535C112.223 309.422 112.186 309.37 112.058 309.379C112.068 309.487 111.971 309.494 111.769 309.398C111.561 309.247 111.469 309.308 111.495 309.58C110.205 309.611 108.962 309.803 107.766 310.156C106.566 310.454 105.328 310.7 104.053 310.894C103.678 311.029 103.265 311.111 102.815 311.141C102.361 311.116 101.988 311.278 101.697 311.625C101.37 311.592 101.143 311.58 101.015 311.588C100.945 311.538 100.846 311.517 100.718 311.526C98.4778 313.863 96.3688 316.219 94.3908 318.594C92.4127 320.968 90.259 323.19 87.9295 325.26C87.6675 325.222 87.413 325.267 87.1661 325.392C86.86 325.577 86.6181 325.757 86.4404 325.933C86.1091 325.845 85.7608 325.923 85.3955 326.166C85.0352 326.464 84.5879 326.521 84.0538 326.337C83.6784 326.472 83.4661 326.623 83.417 326.79C83.0806 326.648 82.7544 326.615 82.4382 326.691C82.0577 326.771 81.7982 326.761 81.6596 326.66C81.7831 326.597 81.877 326.564 81.9412 326.56C82.0055 326.555 82.0993 326.522 82.2228 326.459ZM121.709 295.278C121.684 295.007 121.768 294.864 121.961 294.851C122.213 294.78 122.422 294.602 122.59 294.317C122.739 294.526 122.904 294.57 123.087 294.448C123.334 294.323 123.522 294.255 123.65 294.247C123.586 291.461 123.668 288.856 123.896 286.434C124.125 284.011 124.284 281.538 124.373 279.015C123.214 280.46 122.194 282.005 121.312 283.65C120.489 285.237 119.461 286.7 118.227 288.041C117.42 289.79 116.471 291.413 115.381 292.908C114.291 294.403 113.202 295.897 112.112 297.392L112.149 297.8C113.78 297.254 115.361 296.876 116.893 296.665C118.419 296.399 120.025 295.937 121.709 295.278Z" fill="url(#paint4_linear_2311_1903)"/>
<path d="M143.308 303.12C143.365 301.639 143.689 300.25 144.28 298.952C144.871 297.655 145.565 296.432 146.364 295.285C147.227 294.133 148.157 293.005 149.154 291.899C150.15 290.793 151.144 289.66 152.136 288.5C152.264 288.492 152.361 288.485 152.425 288.481C152.484 288.423 152.61 288.387 152.803 288.374C152.994 287.65 153.428 287.101 154.105 286.728C154.781 286.355 155.245 285.777 155.496 284.995C156.02 285.069 156.361 284.91 156.518 284.516C156.735 284.064 157.1 283.821 157.614 283.787C158.261 283.088 158.914 282.47 159.576 281.933C160.232 281.343 160.923 280.777 161.649 280.237C161.777 280.228 161.804 280.172 161.73 280.067C161.72 279.958 161.747 279.902 161.811 279.897C162.285 279.428 162.734 279.043 163.159 278.741C163.648 278.435 164.166 278.1 164.714 277.735C165.627 277.127 166.467 276.415 167.231 275.599C167.996 274.782 168.899 274.065 169.941 273.449C170.065 273.386 170.223 273.348 170.415 273.335C170.603 273.268 170.756 273.176 170.875 273.059C171.057 272.937 171.203 272.763 171.311 272.537C171.484 272.307 171.661 272.131 171.844 272.01C171.898 271.897 171.96 271.865 172.029 271.915C172.158 271.907 172.252 271.873 172.311 271.815C172.494 271.693 172.612 271.576 172.666 271.463C172.78 271.291 172.895 271.147 173.014 271.029C173.132 270.912 173.285 270.82 173.473 270.753C173.661 270.685 173.846 270.591 174.029 270.469C174.814 269.87 175.636 269.323 176.495 268.829C177.418 268.33 178.334 267.749 179.242 267.087C179.539 266.794 179.805 266.53 180.042 266.295C180.343 266.056 180.644 265.818 180.945 265.579C181.305 265.281 181.797 265.003 182.419 264.742C183.041 264.482 183.595 264.172 184.078 263.812C184.246 263.527 184.485 263.32 184.796 263.189C185.172 263.055 185.411 262.848 185.515 262.567C185.826 262.437 186.172 262.332 186.552 262.252C186.927 262.118 187.3 261.956 187.671 261.768C188.036 261.525 188.273 261.29 188.381 261.064C189.513 260.715 190.438 260.244 191.159 259.649C191.88 259.054 192.769 258.53 193.826 258.077C193.815 257.968 193.84 257.884 193.899 257.826C194.018 257.708 194.005 257.572 193.861 257.418C194.929 257.073 195.872 256.792 196.692 256.573C197.512 256.355 198.402 256.186 199.36 256.068C200.706 256.635 202.288 256.968 204.107 257.066C205.921 257.11 207.498 257.389 208.839 257.902C209.041 257.998 209.197 257.933 209.305 257.707C209.79 258.057 210.426 258.289 211.212 258.401C211.998 258.513 212.596 258.692 213.007 258.938C214.066 259.908 215.155 260.848 216.274 261.758C217.392 262.669 218.452 263.639 219.452 264.667C219.333 264.784 219.316 264.949 219.401 265.162C219.549 265.371 219.693 265.526 219.832 265.626C219.843 266.446 219.78 267.162 219.642 267.773C219.505 268.384 219.333 268.97 219.126 269.53C218.92 270.091 218.681 270.654 218.41 271.219C218.198 271.726 218.029 272.339 217.902 273.059C217.65 273.13 217.499 273.25 217.45 273.417C217.465 273.58 217.451 273.773 217.406 273.994C217.278 274.003 217.184 274.037 217.125 274.095C217.13 274.15 217.068 274.181 216.94 274.19C217.078 274.29 217.086 274.371 216.962 274.434C216.839 274.497 216.844 274.552 216.977 274.597C215.695 276.105 214.551 277.713 213.545 279.421C212.54 281.129 211.332 282.741 209.921 284.258C209.941 284.475 209.892 284.643 209.773 284.76C209.65 284.823 209.601 284.99 209.626 285.262C209.201 285.564 208.846 285.916 208.56 286.318C208.269 286.665 207.914 287.017 207.494 287.373C206.684 287.701 205.775 288.007 204.767 288.293C203.754 288.524 202.811 288.806 201.937 289.137C201.916 288.92 201.778 288.819 201.521 288.836C201.328 288.849 201.037 288.841 200.646 288.812C200.497 288.603 200.319 288.424 200.111 288.273C199.903 288.123 199.636 288.031 199.31 287.998C199.339 287.613 199.218 287.348 198.946 287.202C198.673 287.055 198.342 286.968 197.952 286.939C197.62 286.852 197.289 286.764 196.958 286.677C196.691 286.585 196.542 286.376 196.512 286.05C196.497 285.887 196.329 285.816 196.007 285.837C195.68 285.093 195.609 284.331 195.796 283.553C195.982 282.775 196.035 281.95 195.955 281.08C195.889 280.373 195.794 279.696 195.67 279.047C195.609 278.395 195.744 277.757 196.074 277.133C196.005 277.083 195.958 276.922 195.933 276.65C194.811 277.107 193.737 277.725 192.711 278.505C192.335 278.639 192.027 278.796 191.785 278.977C191.602 279.098 191.424 279.274 191.252 279.504C190.022 280.188 188.862 280.921 187.771 281.705C186.744 282.484 185.685 283.266 184.594 284.05C184.046 284.414 183.466 284.781 182.854 285.15C182.301 285.46 181.75 285.798 181.202 286.162C180.106 286.892 179.018 287.702 177.937 288.595C176.856 289.487 175.74 290.355 174.59 291.197C173.928 291.733 173.2 292.247 172.405 292.737C171.67 293.169 170.971 293.653 170.31 294.189C169.885 294.491 169.498 294.845 169.147 295.251C168.856 295.599 168.499 295.923 168.074 296.225C167.6 296.694 167.146 297.025 166.711 297.218C166.341 297.407 166.184 297.801 166.239 298.399C166.041 298.357 165.915 298.393 165.861 298.506C165.807 298.619 165.678 298.627 165.476 298.531C164.291 299.704 163.144 300.929 162.034 302.207C160.924 303.484 159.849 304.787 158.808 306.114C159.14 306.201 159.441 306.318 159.713 306.464C160.05 306.606 160.44 306.635 160.885 306.551C161.27 306.525 161.587 306.45 161.833 306.324C162.14 306.139 162.49 306.089 162.886 306.172C163.015 306.163 163.084 306.213 163.094 306.322C163.099 306.377 163.166 306.4 163.294 306.391C163.749 306.416 164.196 306.359 164.636 306.22C165.14 306.077 165.649 305.989 166.163 305.955C166.35 305.887 166.543 305.875 166.741 305.916C166.939 305.958 167.134 305.972 167.327 305.959C168.152 305.795 168.942 305.606 169.698 305.392C170.513 305.119 171.306 304.957 172.077 304.906C172.398 304.884 172.658 304.895 172.856 304.936C173.118 304.974 173.3 304.852 173.404 304.572C174.491 304.445 175.598 304.18 176.724 303.777C177.85 303.374 178.861 303.115 179.755 303.001C179.883 302.993 179.977 302.959 180.037 302.901C180.091 302.788 180.18 302.7 180.303 302.637C181.385 302.455 182.336 302.256 183.156 302.037C184.036 301.76 184.942 301.426 185.876 301.036C189.364 300.312 192.523 299.528 195.354 298.684C198.244 297.781 201.305 296.976 204.536 296.269C206.477 295.593 208.271 295.064 209.916 294.681C211.556 294.244 213.483 293.761 215.696 293.231C217.257 292.635 219.08 292.076 221.165 291.555C223.314 291.03 225.07 290.448 226.434 289.811C227.338 289.805 228.23 289.664 229.109 289.387C229.984 289.055 230.86 288.751 231.74 288.474C231.943 288.57 232.084 288.697 232.163 288.856C232.307 289.011 232.448 289.138 232.586 289.238C232.236 289.645 231.809 289.919 231.305 290.062C230.801 290.205 230.513 290.58 230.439 291.186C229.925 291.22 229.558 291.436 229.336 291.834C229.114 292.232 228.791 292.581 228.366 292.883C228.055 293.013 227.744 293.143 227.433 293.273C227.117 293.349 226.803 293.452 226.492 293.582C225.88 293.951 225.267 294.32 224.655 294.689C224.102 294.999 223.549 295.309 222.996 295.62C223.006 295.728 223.016 295.837 223.026 295.946C223.1 296.05 223.143 296.157 223.153 296.266C222.906 296.392 222.656 296.49 222.404 296.562C222.152 296.633 222.103 296.8 222.257 297.064C221.56 297.219 221.232 297.515 221.272 297.95C219.696 298.383 218.338 298.719 217.196 298.959C216.055 299.199 214.939 299.71 213.848 300.494C212.539 301.019 211.23 301.543 209.921 302.068C208.607 302.538 207.399 303.11 206.298 303.785C206.318 304.003 206.482 304.019 206.788 303.835C206.754 304.165 206.611 304.366 206.359 304.438C206.166 304.451 205.934 304.384 205.662 304.238C204.437 304.976 202.943 305.595 201.179 306.095C199.415 306.594 197.83 307.274 196.423 308.133C195.909 308.168 195.338 308.288 194.711 308.493C194.148 308.695 193.622 308.948 193.133 309.254C193.025 309.481 193.067 309.587 193.259 309.574C193.447 309.507 193.516 309.557 193.467 309.725C193.364 310.005 193.251 310.177 193.127 310.24C192.999 310.248 192.776 310.29 192.46 310.366C192.13 310.99 191.612 311.325 190.905 311.372C190.198 311.419 189.643 311.702 189.238 312.221C188.482 312.436 187.598 312.658 186.585 312.89C185.636 313.117 184.896 313.494 184.363 314.022C184.041 314.043 183.846 314.029 183.777 313.979C182.804 314.645 181.49 315.115 179.835 315.389C178.244 315.659 176.866 316.133 175.7 316.812C174.909 316.646 174.188 316.885 173.537 317.53C172.647 317.699 171.696 317.899 170.683 318.13C169.735 318.357 168.754 318.586 167.741 318.818C166.793 319.045 165.775 319.222 164.687 319.348C163.665 319.471 162.666 319.51 161.692 319.465C161.49 319.369 161.393 319.375 161.403 319.484C161.418 319.647 161.359 319.706 161.226 319.66C160.306 319.502 159.419 319.342 158.563 319.18C157.777 319.068 156.986 318.902 156.19 318.681C155.463 318.51 154.758 318.229 154.076 317.836C153.462 317.494 152.898 316.984 152.383 316.307C152.244 316.207 152.145 316.186 152.086 316.245C152.096 316.353 152.034 316.385 151.901 316.339C150.956 315.909 150.154 315.278 149.495 314.447C148.842 313.669 148.099 312.98 147.268 312.378C147.277 311.776 147.103 311.295 146.746 310.936C146.385 310.522 145.942 310.278 145.418 310.203C145.496 309.651 145.475 309.077 145.356 308.484C145.172 307.894 144.988 307.304 144.804 306.714C144.615 306.07 144.429 305.454 144.245 304.864C144.056 304.22 143.971 303.651 143.99 303.157C143.852 303.057 143.755 303.063 143.701 303.176C143.578 303.239 143.447 303.221 143.308 303.12Z" fill="url(#paint5_linear_2311_1903)"/>
<path d="M220.198 298.021C220.255 296.54 220.579 295.151 221.17 293.853C221.76 292.555 222.455 291.333 223.254 290.186C224.117 289.034 225.047 287.905 226.044 286.8C227.04 285.694 228.034 284.561 229.026 283.401C229.154 283.392 229.251 283.386 229.315 283.382C229.374 283.323 229.5 283.287 229.693 283.275C229.884 282.551 230.318 282.002 230.995 281.629C231.671 281.256 232.135 280.678 232.386 279.895C232.91 279.97 233.251 279.81 233.408 279.417C233.625 278.965 233.99 278.722 234.504 278.688C235.15 277.988 235.804 277.37 236.466 276.834C237.122 276.243 237.813 275.678 238.539 275.137C238.667 275.129 238.694 275.072 238.62 274.968C238.61 274.859 238.637 274.802 238.701 274.798C239.175 274.329 239.624 273.944 240.049 273.642C240.538 273.336 241.056 273.001 241.604 272.636C242.517 272.028 243.356 271.316 244.121 270.499C244.886 269.682 245.789 268.966 246.831 268.35C246.955 268.287 247.113 268.249 247.305 268.236C247.493 268.169 247.646 268.077 247.765 267.959C247.947 267.838 248.093 267.664 248.201 267.438C248.374 267.208 248.551 267.032 248.734 266.91C248.788 266.797 248.85 266.766 248.919 266.816C249.048 266.807 249.142 266.774 249.201 266.715C249.383 266.594 249.502 266.476 249.556 266.363C249.669 266.192 249.785 266.047 249.904 265.93C250.022 265.813 250.175 265.72 250.363 265.653C250.551 265.586 250.736 265.492 250.919 265.37C251.703 264.771 252.526 264.224 253.385 263.729C254.308 263.23 255.224 262.65 256.132 261.988C256.428 261.694 256.695 261.431 256.932 261.196C257.233 260.957 257.534 260.718 257.835 260.479C258.195 260.182 258.687 259.903 259.309 259.643C259.931 259.383 260.484 259.073 260.968 258.712C261.136 258.428 261.375 258.22 261.686 258.09C262.062 257.956 262.301 257.748 262.404 257.468C262.716 257.338 263.061 257.233 263.442 257.153C263.817 257.019 264.19 256.857 264.561 256.668C264.926 256.425 265.163 256.191 265.271 255.965C266.402 255.616 267.328 255.144 268.049 254.549C268.77 253.954 269.658 253.43 270.715 252.977C270.705 252.869 270.73 252.785 270.789 252.726C270.908 252.609 270.895 252.473 270.751 252.318C271.818 251.974 272.762 251.693 273.582 251.474C274.402 251.255 275.292 251.087 276.25 250.969C277.596 251.536 279.178 251.869 280.997 251.967C282.811 252.011 284.388 252.289 285.728 252.802C285.931 252.898 286.087 252.833 286.195 252.607C286.68 252.958 287.316 253.19 288.102 253.302C288.888 253.414 289.486 253.593 289.897 253.839C290.956 254.808 292.045 255.748 293.164 256.659C294.282 257.57 295.342 258.539 296.342 259.567C296.223 259.684 296.206 259.85 296.291 260.063C296.439 260.272 296.583 260.427 296.722 260.527C296.733 261.347 296.67 262.062 296.532 262.673C296.395 263.284 296.223 263.87 296.016 264.431C295.81 264.992 295.571 265.555 295.3 266.12C295.088 266.627 294.919 267.24 294.792 267.959C294.54 268.031 294.389 268.15 294.34 268.318C294.355 268.481 294.34 268.673 294.296 268.895C294.168 268.904 294.074 268.937 294.015 268.996C294.02 269.05 293.958 269.082 293.83 269.09C293.968 269.19 293.976 269.272 293.852 269.335C293.729 269.398 293.734 269.452 293.867 269.498C292.585 271.006 291.441 272.614 290.435 274.322C289.43 276.03 288.222 277.642 286.811 279.158C286.831 279.376 286.782 279.543 286.663 279.661C286.54 279.723 286.491 279.891 286.516 280.163C286.091 280.465 285.736 280.816 285.45 281.218C285.159 281.566 284.804 281.918 284.384 282.274C283.574 282.601 282.665 282.908 281.657 283.193C280.644 283.425 279.701 283.706 278.827 284.038C278.806 283.82 278.668 283.72 278.411 283.737C278.218 283.75 277.926 283.742 277.536 283.713C277.387 283.504 277.209 283.324 277.001 283.174C276.793 283.024 276.526 282.932 276.2 282.899C276.229 282.514 276.108 282.248 275.835 282.102C275.563 281.956 275.232 281.869 274.842 281.84C274.51 281.752 274.179 281.665 273.848 281.577C273.581 281.486 273.432 281.277 273.402 280.95C273.387 280.787 273.218 280.716 272.897 280.738C272.57 279.993 272.499 279.232 272.686 278.454C272.872 277.675 272.925 276.851 272.845 275.981C272.779 275.274 272.684 274.596 272.56 273.948C272.499 273.295 272.634 272.657 272.964 272.033C272.895 271.983 272.848 271.822 272.822 271.55C271.701 272.008 270.627 272.626 269.601 273.406C269.225 273.54 268.916 273.697 268.675 273.877C268.492 273.999 268.314 274.175 268.142 274.405C266.912 275.089 265.752 275.822 264.661 276.606C263.634 277.385 262.575 278.167 261.484 278.95C260.936 279.315 260.356 279.682 259.744 280.051C259.191 280.361 258.64 280.698 258.092 281.063C256.996 281.792 255.907 282.603 254.827 283.496C253.746 284.388 252.63 285.255 251.48 286.098C250.818 286.634 250.09 287.147 249.295 287.638C248.559 288.07 247.861 288.554 247.199 289.09C246.775 289.392 246.388 289.746 246.037 290.152C245.746 290.499 245.388 290.824 244.964 291.126C244.49 291.595 244.036 291.926 243.601 292.119C243.231 292.308 243.073 292.701 243.129 293.299C242.931 293.258 242.805 293.294 242.751 293.407C242.697 293.52 242.568 293.528 242.365 293.432C241.181 294.605 240.034 295.83 238.924 297.107C237.814 298.385 236.739 299.687 235.698 301.015C236.029 301.102 236.331 301.219 236.603 301.365C236.94 301.507 237.33 301.536 237.775 301.451C238.16 301.426 238.476 301.35 238.723 301.224C239.03 301.04 239.38 300.989 239.776 301.073C239.904 301.064 239.974 301.114 239.984 301.223C239.989 301.277 240.056 301.3 240.184 301.292C240.639 301.316 241.086 301.259 241.526 301.121C242.03 300.978 242.539 300.889 243.053 300.855C243.24 300.788 243.433 300.775 243.631 300.817C243.829 300.858 244.024 300.873 244.217 300.86C245.042 300.696 245.832 300.507 246.588 300.292C247.403 300.02 248.196 299.858 248.967 299.806C249.288 299.785 249.548 299.795 249.746 299.837C250.008 299.874 250.19 299.753 250.294 299.472C251.381 299.345 252.488 299.08 253.614 298.678C254.74 298.275 255.75 298.016 256.645 297.902C256.773 297.893 256.867 297.86 256.926 297.801C256.981 297.688 257.069 297.6 257.193 297.537C258.275 297.356 259.226 297.156 260.046 296.938C260.926 296.661 261.832 296.327 262.766 295.937C266.254 295.213 269.413 294.429 272.244 293.584C275.134 292.682 278.195 291.877 281.426 291.17C283.367 290.494 285.161 289.965 286.806 289.582C288.446 289.145 290.373 288.662 292.586 288.132C294.147 287.536 295.97 286.977 298.055 286.456C300.204 285.93 301.96 285.349 303.323 284.711C304.228 284.706 305.12 284.565 305.999 284.288C306.874 283.956 307.75 283.652 308.63 283.374C308.832 283.47 308.974 283.598 309.053 283.757C309.197 283.911 309.338 284.039 309.476 284.139C309.126 284.545 308.699 284.82 308.195 284.963C307.691 285.105 307.402 285.48 307.329 286.087C306.815 286.121 306.448 286.337 306.226 286.735C306.004 287.132 305.681 287.482 305.256 287.784C304.945 287.914 304.634 288.044 304.323 288.174C304.007 288.25 303.693 288.353 303.382 288.483C302.769 288.852 302.157 289.221 301.545 289.589C300.992 289.9 300.439 290.21 299.886 290.52C299.896 290.629 299.906 290.738 299.916 290.846C299.99 290.951 300.032 291.058 300.043 291.166C299.796 291.292 299.546 291.391 299.294 291.462C299.042 291.534 298.993 291.701 299.147 291.964C298.45 292.12 298.122 292.415 298.162 292.85C296.586 293.283 295.228 293.62 294.086 293.859C292.945 294.099 291.829 294.611 290.738 295.395C289.429 295.919 288.12 296.444 286.811 296.968C285.497 297.438 284.289 298.011 283.188 298.686C283.208 298.903 283.372 298.92 283.678 298.736C283.644 299.066 283.501 299.267 283.249 299.338C283.056 299.351 282.824 299.285 282.551 299.139C281.327 299.876 279.833 300.495 278.069 300.995C276.305 301.495 274.72 302.175 273.313 303.034C272.799 303.068 272.228 303.188 271.601 303.394C271.038 303.595 270.512 303.849 270.023 304.155C269.914 304.381 269.957 304.488 270.149 304.475C270.337 304.408 270.406 304.458 270.357 304.625C270.254 304.906 270.14 305.078 270.017 305.14C269.889 305.149 269.666 305.191 269.35 305.267C269.02 305.891 268.501 306.226 267.795 306.273C267.088 306.32 266.532 306.603 266.128 307.122C265.372 307.336 264.488 307.559 263.475 307.79C262.526 308.017 261.786 308.395 261.253 308.923C260.931 308.944 260.736 308.929 260.667 308.879C259.694 309.546 258.38 310.016 256.725 310.29C255.134 310.559 253.756 311.034 252.59 311.713C251.799 311.547 251.078 311.786 250.427 312.431C249.537 312.599 248.586 312.799 247.573 313.031C246.625 313.258 245.644 313.487 244.631 313.718C243.682 313.945 242.665 314.122 241.577 314.249C240.554 314.372 239.556 314.41 238.582 314.366C238.38 314.27 238.283 314.276 238.293 314.385C238.308 314.548 238.249 314.607 238.116 314.561C237.196 314.403 236.308 314.243 235.453 314.081C234.667 313.969 233.876 313.802 233.08 313.581C232.353 313.411 231.648 313.129 230.965 312.737C230.352 312.395 229.788 311.885 229.272 311.208C229.134 311.107 229.035 311.087 228.976 311.145C228.986 311.254 228.924 311.285 228.791 311.24C227.846 310.81 227.044 310.179 226.385 309.347C225.732 308.57 224.989 307.88 224.158 307.279C224.167 306.677 223.993 306.196 223.636 305.836C223.275 305.423 222.832 305.178 222.308 305.104C222.386 304.551 222.365 303.978 222.246 303.384C222.062 302.795 221.878 302.205 221.694 301.615C221.505 300.971 221.319 300.354 221.135 299.765C220.946 299.12 220.861 298.552 220.88 298.058C220.741 297.958 220.645 297.964 220.591 298.077C220.467 298.14 220.336 298.121 220.198 298.021Z" fill="url(#paint6_linear_2311_1903)"/>
<path d="M332.235 247.338C332.294 247.279 332.391 247.273 332.524 247.319C332.717 247.306 332.808 247.245 332.798 247.136C332.783 246.973 332.741 246.867 332.672 246.817C332.662 246.708 332.684 246.597 332.738 246.484C332.802 246.48 332.837 246.505 332.842 246.559C332.906 246.555 332.97 246.55 333.035 246.546C333.266 246.257 333.461 245.916 333.619 245.523C333.84 245.125 334 244.759 334.099 244.424C334.341 244.244 334.55 244.066 334.728 243.89C334.901 243.659 334.967 243.327 334.926 242.892C335.461 243.075 335.878 243.047 336.179 242.808C336.475 242.515 336.826 242.465 337.232 242.657C337.355 242.594 337.35 242.539 337.217 242.493C337.142 242.389 337.167 242.305 337.29 242.242C337.508 242.501 337.746 242.623 338.003 242.605C338.324 242.584 338.572 242.814 338.745 243.295C339.057 243.165 339.281 243.15 339.42 243.25C339.618 243.292 339.848 243.331 340.11 243.369C340.06 243.536 340.073 243.672 340.147 243.776C340.217 243.827 340.286 243.877 340.355 243.927C340.489 243.973 340.593 244.048 340.667 244.152C340.736 244.202 340.749 244.338 340.705 244.56C341.031 244.593 341.352 244.572 341.668 244.496C341.817 244.705 341.944 245.025 342.048 245.456C342.212 245.828 342.279 246.207 342.25 246.592C342.473 246.905 342.667 247.248 342.83 247.62C343.058 247.988 343.192 248.389 343.233 248.825C343.51 249.025 343.651 249.152 343.656 249.207C343.666 249.316 343.604 249.347 343.471 249.301C343.332 249.201 343.337 249.255 343.486 249.464C343.842 249.824 344.245 249.988 344.695 249.959C345.14 249.874 345.523 249.822 345.844 249.8C346.936 249.728 347.87 249.693 348.646 249.697C349.482 249.641 350.282 249.561 351.048 249.455C351.616 249.308 352.189 249.215 352.768 249.177C353.341 249.084 353.86 249.105 354.325 249.238C355.047 249.354 355.758 249.362 356.46 249.26C357.226 249.155 357.999 249.131 358.78 249.189C359.269 248.883 359.781 248.821 360.315 249.005C360.913 249.184 361.561 249.196 362.257 249.04C362.312 248.927 362.341 248.898 362.346 248.952C362.41 248.948 362.502 248.887 362.62 248.77C363.673 248.974 364.872 249.004 366.216 248.86C366.557 249.056 366.923 249.168 367.314 249.197C367.764 249.167 368.251 249.19 368.775 249.265C369.486 249.272 370.24 249.386 371.036 249.607C371.828 249.773 372.571 249.779 373.268 249.623C373.545 249.824 373.849 249.968 374.181 250.055C374.576 250.138 374.93 250.115 375.241 249.985C375.523 250.24 375.864 250.436 376.265 250.573C376.666 250.711 377.034 250.851 377.37 250.993C377.766 251.076 378.134 251.215 378.476 251.412C378.876 251.549 379.252 251.771 379.604 252.076C379.678 252.18 379.74 252.149 379.789 251.981C379.833 251.759 379.9 251.782 379.989 252.05C380.949 252.643 381.791 253.353 382.514 254.181C383.232 254.954 384.043 255.693 384.949 256.399C384.969 256.617 385.021 256.832 385.106 257.045C385.19 257.259 385.331 257.386 385.529 257.428C385.367 257.767 385.34 258.179 385.45 258.664C385.554 259.095 385.567 259.586 385.489 260.139C385.435 260.252 385.378 260.338 385.319 260.396C385.324 260.451 385.3 260.534 385.245 260.647C385.25 260.702 385.258 260.783 385.268 260.892C385.337 260.942 385.374 260.994 385.379 261.049C385.39 261.158 385.335 261.271 385.217 261.388C385.093 261.451 384.975 261.568 384.862 261.74C384.655 262.301 384.389 262.92 384.064 263.598C383.803 264.272 383.5 264.839 383.155 265.3C383.096 265.359 382.94 265.424 382.688 265.495C382.254 265.688 381.896 266.013 381.615 266.469C381.329 266.871 380.941 267.225 380.453 267.531C380.275 267.707 379.998 267.862 379.623 267.997C379.124 268.194 378.719 268.357 378.408 268.487C378.097 268.618 377.689 268.754 377.185 268.897C376.529 269.488 375.759 269.894 374.874 270.117C373.985 270.286 373.217 270.719 372.571 271.419C372.491 271.26 372.323 271.189 372.066 271.206C371.582 271.567 371.024 271.822 370.392 271.974C369.824 272.121 369.199 272.354 368.517 272.673C368.211 272.857 367.94 273.067 367.703 273.301C367.525 273.477 367.281 273.63 366.97 273.76C366.456 273.794 366.105 273.845 365.917 273.912C365.734 274.034 365.495 274.241 365.199 274.534C364.888 274.664 364.478 274.773 363.969 274.862C363.46 274.95 362.986 275.064 362.546 275.203C362.417 275.211 362.358 275.27 362.368 275.378C362.373 275.433 362.346 275.489 362.287 275.548C361.976 275.678 361.625 275.729 361.234 275.7C360.908 275.667 360.664 275.82 360.501 276.159C360.298 276.063 360.071 276.051 359.819 276.122C359.626 276.135 359.478 276.281 359.375 276.562C359.118 276.579 358.979 276.479 358.959 276.261C358.1 276.756 357.167 277.146 356.159 277.432C355.215 277.713 354.304 277.993 353.424 278.27C352.545 278.547 351.572 278.858 350.505 279.202C349.497 279.488 348.489 279.773 347.481 280.059C347.645 280.431 347.895 280.688 348.231 280.83C348.632 280.968 349.006 281.162 349.352 281.412C350.262 281.461 351.055 281.655 351.733 281.993C351.936 282.089 352.138 282.185 352.341 282.281C352.539 282.323 352.683 282.477 352.772 282.745C353.682 282.794 354.539 282.983 355.346 283.313C356.147 283.588 356.923 283.947 357.675 284.39C358.402 284.56 359.07 284.789 359.678 285.077C360.351 285.361 360.94 285.787 361.445 286.356C362.256 286.739 363.068 287.123 363.879 287.507C364.749 287.833 365.56 288.216 366.312 288.659C367.065 289.102 367.725 289.605 368.295 290.169C368.928 290.729 369.414 291.435 369.751 292.288C369.885 292.334 369.957 292.412 369.967 292.52C369.977 292.629 370.049 292.706 370.182 292.752C370.079 293.033 369.938 293.261 369.761 293.437C369.647 293.609 369.534 293.78 369.42 293.952C369.446 294.224 369.498 294.439 369.577 294.598C369.41 294.883 369.173 295.117 368.867 295.302C368.664 295.206 368.464 295.137 368.266 295.095C368.132 295.05 367.996 294.977 367.858 294.876C367.734 294.939 367.677 295.025 367.688 295.134C367.762 295.238 367.73 295.24 367.591 295.14C367.681 295.408 367.765 295.621 367.844 295.78C367.983 295.88 368 296.071 367.897 296.351C367.714 296.473 367.583 296.454 367.504 296.295C367.484 296.077 367.378 295.975 367.185 295.988C366.914 296.553 366.511 296.744 365.977 296.56C365.443 296.377 364.882 296.25 364.294 296.18C364.383 296.447 364.529 296.629 364.732 296.725C364.935 296.821 365.046 296.978 365.066 297.195C365.077 297.304 365.02 297.39 364.896 297.453C364.768 297.461 364.674 297.495 364.615 297.554C364.071 297.261 363.502 297.053 362.909 296.928C362.31 296.749 361.712 296.57 361.113 296.39C360.579 296.207 360.011 295.999 359.407 295.765C358.868 295.527 358.353 295.206 357.863 294.8C357.681 294.922 357.458 294.964 357.196 294.927C356.999 294.885 356.83 294.814 356.692 294.714C356.697 294.768 356.67 294.825 356.611 294.883C356.616 294.938 356.549 294.915 356.41 294.815C356.687 295.015 356.997 295.214 357.338 295.41C357.674 295.552 357.952 295.752 358.169 296.011C357.858 296.141 357.401 296.09 356.798 295.856C356.253 295.564 355.779 295.322 355.373 295.13L354.891 295.162C354.06 294.56 353.085 294.16 351.968 293.96C350.915 293.757 349.975 293.381 349.149 292.834C346.647 292.343 344.165 291.715 341.702 290.948C339.303 290.177 336.907 289.433 334.514 288.716C334.257 288.733 334.134 288.796 334.144 288.905C333.797 288.654 333.322 288.412 332.719 288.179C332.18 287.941 331.648 287.784 331.124 287.71C330.996 287.718 330.87 287.754 330.746 287.817C330.682 287.821 330.583 287.8 330.449 287.755L330.442 287.673L330.338 287.598C330.199 287.498 330.002 287.456 329.745 287.473C329.547 287.431 329.282 287.367 328.951 287.279C328.615 287.138 328.343 286.991 328.135 286.841C327.922 286.636 327.754 286.565 327.63 286.628C327.502 286.637 327.351 286.756 327.179 286.987C327.07 287.213 326.932 287.468 326.765 287.753C326.597 288.037 326.43 288.322 326.262 288.607C326.159 288.887 326.082 289.111 326.033 289.279C325.807 289.622 325.607 289.909 325.434 290.139C325.262 290.369 325.129 290.679 325.035 291.068C325.12 291.282 325.132 291.417 325.073 291.476C325.014 291.535 324.994 291.673 325.015 291.89C324.713 292.129 324.516 292.443 324.423 292.832C324.33 293.222 324.133 293.536 323.831 293.774C323.767 293.779 323.735 293.781 323.735 293.781C323.73 293.726 323.663 293.704 323.535 293.712C323.426 293.938 323.251 294.141 323.009 294.321C322.832 294.497 322.699 294.807 322.611 295.251C322.482 295.259 322.42 295.291 322.425 295.345C322.43 295.399 322.396 295.374 322.322 295.27C322.164 295.663 321.94 296.034 321.649 296.381C321.353 296.675 321.161 297.043 321.072 297.487C320.175 298.969 319.276 300.424 318.374 301.851C317.536 303.275 316.636 304.73 315.675 306.216L315.289 306.242C315.24 306.409 315.156 306.551 315.038 306.669C314.989 306.836 314.94 307.004 314.89 307.171C314.757 307.125 314.628 307.134 314.505 307.196C314.451 307.31 314.354 307.316 314.216 307.216C314.206 307.107 314.255 306.939 314.363 306.713C314.536 306.483 314.644 306.257 314.688 306.035C314.545 305.881 314.409 305.808 314.28 305.816C314.152 305.825 313.989 305.808 313.791 305.767C313.718 306.373 313.509 306.907 313.163 307.368C312.887 307.878 312.782 308.487 312.848 309.194C312.591 309.211 312.439 308.975 312.394 308.486C312.354 308.05 312.39 307.747 312.504 307.575C312.419 307.362 312.281 307.262 312.088 307.275C311.96 307.283 311.802 307.321 311.614 307.388C311.495 307.506 311.409 307.621 311.355 307.734C311.306 307.901 311.353 308.062 311.497 308.217C311.185 308.347 310.928 308.364 310.726 308.268C310.592 308.222 310.454 308.122 310.31 307.967C310.166 307.813 310.02 307.631 309.872 307.422C309.787 307.208 309.676 307.052 309.537 306.951C309.3 307.186 309.261 307.462 309.42 307.78C309.584 308.152 309.646 308.476 309.607 308.752C309.745 308.853 309.866 308.763 309.97 308.482C310.142 308.252 310.298 308.187 310.436 308.287C310.333 308.567 310.158 308.771 309.911 308.896C309.669 309.077 309.447 309.119 309.244 309.023C309.328 309.236 309.309 309.374 309.185 309.437C309.126 309.496 309.104 309.607 309.119 309.77C309.011 309.996 309.051 310.075 309.238 310.008C309.495 309.991 309.565 310.041 309.446 310.158C309.6 310.422 309.508 310.483 309.172 310.341C308.905 310.249 308.846 310.308 308.994 310.517C308.668 310.484 308.455 310.279 308.356 309.902C308.321 309.522 308.285 309.141 308.25 308.76C308.091 308.443 307.884 308.292 307.627 308.309C307.596 307.983 307.564 307.629 307.528 307.249C307.563 306.918 307.471 306.623 307.253 306.364C307.474 305.967 307.587 305.439 307.591 304.782C307.6 304.18 307.574 303.552 307.514 302.9C307.523 302.297 307.564 301.693 307.637 301.086C307.71 300.479 307.919 299.946 308.264 299.485C308.239 299.213 308.192 299.052 308.123 299.002C308.053 298.952 307.979 298.847 307.9 298.689C308.504 296.843 309.082 295.054 309.633 293.321C310.243 291.529 310.89 289.79 311.574 288.104C311.742 287.819 311.934 287.45 312.15 286.998C312.431 286.542 312.581 286.067 312.6 285.573C312.54 284.921 312.292 284.335 311.856 283.817C311.484 283.294 311.049 283.132 310.55 283.329C310.412 283.229 310.335 283.097 310.32 282.934C310.305 282.771 310.356 282.631 310.475 282.513C310.262 282.309 310.079 282.075 309.925 281.811C309.766 281.493 309.61 281.203 309.456 280.939C309.604 280.437 309.658 279.969 309.617 279.534C309.577 279.098 309.524 278.527 309.459 277.82C309.552 277.431 309.682 277.094 309.85 276.81C310.017 276.525 310.086 276.219 310.056 275.893C310.511 275.918 311.047 275.773 311.664 275.458C312.281 275.144 312.879 274.967 313.457 274.929C313.843 274.903 314.199 274.907 314.525 274.94C314.91 274.915 315.145 274.653 315.228 274.155C315.367 274.255 315.503 274.328 315.636 274.374C315.765 274.366 315.898 274.411 316.037 274.512C316.422 274.486 316.768 274.381 317.074 274.197C317.445 274.008 317.736 273.66 317.947 273.154C318.337 272.471 318.654 271.712 318.9 270.875C319.21 270.033 319.582 269.161 320.015 268.256C320.572 267.289 321.067 266.354 321.5 265.449C321.929 264.491 322.325 263.534 322.689 262.58C320.203 262.253 317.786 262.331 315.439 262.815C313.087 263.244 310.834 263.695 308.68 264.166C308.896 263.714 309.262 263.471 309.776 263.437C310.285 263.348 310.756 263.207 311.191 263.014C311.117 262.91 311.045 262.833 310.976 262.782C310.906 262.732 310.834 262.655 310.76 262.551C308.537 262.972 306.457 263.547 304.52 264.278C302.584 265.008 300.694 265.543 298.851 265.885C298.728 265.947 298.642 266.063 298.593 266.23C298.603 266.339 298.514 266.427 298.326 266.494C297.738 266.424 297.258 266.483 296.888 266.671C296.448 266.81 296.028 266.81 295.628 266.673C295.603 266.401 295.686 266.259 295.879 266.246C296.067 266.179 296.081 265.986 295.923 265.668C295.997 265.773 296.096 265.794 296.219 265.731C296.273 265.618 296.295 265.507 296.285 265.398C296.132 265.135 295.969 265.118 295.796 265.349C295.554 265.529 295.354 265.46 295.195 265.142C294.884 265.272 294.64 265.425 294.462 265.601C294.215 265.727 293.862 265.75 293.402 265.671C293.263 265.571 293.184 265.412 293.164 265.195C293.074 264.927 292.926 264.718 292.718 264.568C292.93 264.061 292.941 263.486 292.752 262.842C292.984 262.553 293.253 262.316 293.559 262.132C293.796 261.897 293.961 261.585 294.054 261.196C294.193 261.296 294.324 261.315 294.447 261.252C294.571 261.189 294.702 261.208 294.84 261.308C296.411 260.821 297.878 260.259 299.241 259.621C299.236 259.567 299.234 259.54 299.234 259.54C299.416 259.418 299.76 259.286 300.264 259.143C300.763 258.946 301.106 258.814 301.294 258.746C302.039 258.423 302.793 258.182 303.554 258.022C304.374 257.803 305.09 257.51 305.702 257.141C306.957 256.729 308.286 256.422 309.689 256.22C311.088 255.963 312.518 255.704 313.981 255.443C316.585 254.942 319.117 254.363 321.577 253.708C324.038 253.052 326.441 252.482 328.788 251.998C328.793 252.053 328.803 252.162 328.818 252.325C328.893 252.429 328.992 252.45 329.115 252.387C329.233 252.27 329.384 252.15 329.567 252.029C329.814 251.903 329.996 251.782 330.115 251.664C330.233 251.547 330.46 251.204 330.795 250.634C331.13 250.065 331.322 249.697 331.371 249.529C331.431 249.47 331.426 249.416 331.356 249.366C331.346 249.257 331.336 249.148 331.326 249.04C331.568 248.859 331.807 248.652 332.044 248.418C332.276 248.129 332.34 247.769 332.235 247.338ZM337.231 268.838C337.74 268.75 338.343 268.628 339.04 268.472C339.736 268.316 340.153 267.933 340.291 267.322C340.785 267.07 341.281 266.846 341.78 266.649C342.338 266.393 342.871 266.221 343.38 266.132C343.825 266.048 344.2 265.914 344.507 265.729C344.813 265.545 345.183 265.356 345.618 265.163C346.304 264.899 347.09 264.655 347.974 264.432C348.923 264.205 349.706 263.935 350.323 263.62C350.426 263.34 350.601 263.136 350.848 263.011C351.18 263.098 351.405 263.083 351.523 262.966C351.706 262.844 351.931 262.829 352.198 262.921C353.165 262.2 354.247 261.664 355.442 261.311C356.638 260.958 357.714 260.367 358.672 259.537C357.436 259.455 356.079 259.463 354.601 259.561C353.188 259.655 351.814 259.828 350.48 260.08C349.591 260.249 348.723 260.306 347.878 260.253C347.033 260.2 346.23 260.253 345.469 260.413C344.387 260.594 343.406 260.823 342.527 261.1C341.642 261.323 340.726 261.548 339.777 261.775C339.487 262.834 339.094 263.818 338.596 264.726C338.098 265.635 337.707 266.645 337.422 267.759C337.437 267.922 337.509 267.999 337.638 267.991C337.761 267.928 337.801 268.007 337.757 268.229C337.574 268.35 337.448 268.386 337.379 268.336C337.309 268.286 337.223 268.401 337.12 268.681C337.194 268.786 337.231 268.838 337.231 268.838ZM384.902 259.029C384.917 259.192 384.902 259.384 384.858 259.606C384.809 259.774 384.854 259.907 384.992 260.008C384.913 259.849 384.93 259.683 385.043 259.512C385.152 259.286 385.104 259.125 384.902 259.029Z" fill="url(#paint7_linear_2311_1903)"/>
<path d="M364.09 307.766C363.714 307.9 363.321 307.844 362.911 307.597C362.436 307.355 361.904 307.199 361.316 307.129C361.187 307.137 361.098 307.225 361.049 307.393C361 307.56 360.904 307.566 360.76 307.412C360.864 307.131 360.801 306.807 360.573 306.439C360.465 306.665 360.423 306.914 360.448 307.186C360.127 307.208 359.823 307.064 359.536 306.754C359.526 306.646 359.548 306.535 359.602 306.422C359.597 306.367 359.758 306.357 360.084 306.39L360.023 305.737C360.093 305.787 360.122 305.758 360.112 305.649C360.102 305.54 360.164 305.509 360.297 305.555C360.228 305.505 360.221 305.423 360.275 305.31C360.265 305.201 360.193 305.124 360.059 305.078C360 305.137 360.005 305.191 360.074 305.241C360.149 305.346 360.159 305.455 360.105 305.568C360.03 305.463 359.889 305.336 359.681 305.185C359.479 305.089 359.316 305.073 359.192 305.136L359.079 303.912C358.797 303.657 358.453 303.434 358.047 303.242C357.647 303.104 357.579 302.726 357.845 302.106C358.097 302.035 358.341 301.882 358.578 301.647C358.815 301.413 358.886 301.134 358.792 300.812L359.563 300.761C360.199 299.953 360.838 299.172 361.479 298.418C362.056 297.669 362.695 296.887 363.395 296.075C362.11 296.16 360.801 296.329 359.467 296.582C358.069 296.839 356.905 296.834 355.975 296.567C355.797 296.743 355.548 296.842 355.227 296.863C354.841 296.889 354.532 297.046 354.301 297.335C354.157 297.18 354.023 297.134 353.9 297.197C353.777 297.26 353.643 297.214 353.499 297.06C353.588 296.616 353.824 296.381 354.21 296.356C354.526 296.28 354.805 296.152 355.047 295.972C354.919 295.981 354.822 295.987 354.758 295.991C354.624 295.945 354.424 295.877 354.157 295.785C353.984 296.015 353.775 296.193 353.528 296.319C353.212 296.395 352.999 296.546 352.891 296.772C352.545 296.521 352.218 296.488 351.912 296.672C351.537 296.807 351.292 296.96 351.179 297.131C351.169 297.023 351.132 296.97 351.067 296.975C350.939 296.983 350.87 296.933 350.86 296.824C350.845 296.661 350.931 296.546 351.119 296.479C351.242 296.416 351.234 296.334 351.096 296.234C351.071 295.962 351.13 295.904 351.274 296.058C351.417 296.213 351.583 296.257 351.77 296.189C351.76 296.081 351.718 295.974 351.644 295.869L351.309 295.399C350.806 295.542 350.39 295.597 350.064 295.564C349.738 295.531 349.36 295.638 348.93 295.885C348.846 295.672 348.804 295.565 348.804 295.565C348.799 295.511 348.784 295.348 348.759 295.076C349.085 295.109 349.324 294.902 349.477 294.454L349.581 294.529C349.586 294.583 349.623 294.636 349.692 294.686C349.692 294.686 349.695 294.713 349.7 294.767C350.425 294.227 351.163 293.822 351.914 293.553C352.665 293.285 353.413 292.989 354.159 292.666C354.465 292.481 354.875 292.372 355.389 292.338C355.834 292.254 356.108 292.072 356.211 291.791C356.35 291.891 356.543 291.879 356.79 291.753C356.972 291.631 357.136 291.648 357.279 291.802C357.333 291.689 357.39 291.604 357.449 291.545C357.508 291.486 357.595 291.371 357.708 291.199C358.237 291.329 358.714 291.242 359.139 290.94C359.558 290.584 360.06 290.414 360.643 290.43C360.836 290.418 360.922 290.302 360.902 290.085C361.218 290.009 361.571 289.986 361.962 290.015C362.347 289.989 362.616 289.752 362.769 289.304C362.363 289.112 362.074 289.132 361.901 289.362C361.659 289.542 361.41 289.641 361.153 289.658C361.197 289.436 361.372 289.233 361.678 289.048C361.98 288.81 362.318 288.623 362.693 288.489C363.118 288.187 363.617 287.99 364.19 287.897C364.758 287.75 365.395 287.653 366.102 287.606C366.231 287.598 366.324 287.564 366.384 287.505C366.374 287.397 366.396 287.286 366.45 287.173C367.393 286.891 368.209 286.618 368.895 286.354C369.577 286.035 370.547 285.697 371.807 285.34C371.871 285.336 371.898 285.279 371.888 285.17C371.878 285.062 371.935 284.976 372.059 284.913C372.256 284.955 372.39 285 372.459 285.051C372.523 285.046 372.617 285.013 372.741 284.95C372.834 284.561 373.1 284.297 373.54 284.158C373.98 284.02 374.212 283.731 374.236 283.291C374.621 283.266 374.863 283.086 374.961 282.751C375.059 282.416 375.272 282.265 375.598 282.298C376.367 280.825 377.281 279.533 378.342 278.423C379.462 277.254 380.414 276.015 381.198 274.704C381.563 274.461 381.731 274.176 381.7 273.85C381.765 273.846 381.799 273.871 381.804 273.925C381.869 273.921 381.965 273.915 382.093 273.906C382.167 273.299 382.447 272.843 382.936 272.537C383.484 272.172 383.787 271.605 383.845 270.835C384.684 270.123 385.382 269.283 385.939 268.316C386.56 267.345 387.323 266.501 388.226 265.785C388.368 265.228 388.55 264.751 388.772 264.353C389.058 263.951 389.347 263.576 389.638 263.229C389.988 262.822 390.306 262.418 390.592 262.016C390.878 261.614 391.095 261.162 391.242 260.66C391.958 260.011 392.503 259.263 392.877 258.418C393.316 257.568 393.893 256.818 394.608 256.169C394.756 255.667 394.975 255.242 395.266 254.894C395.616 254.488 395.897 254.032 396.109 253.525C396.938 252.704 397.633 251.837 398.195 250.925C398.757 250.012 399.46 249.227 400.304 248.569C400.358 248.456 400.415 248.37 400.474 248.311C400.598 248.248 400.62 248.137 400.54 247.979C401.611 246.977 402.447 245.882 403.048 244.693C404.158 243.416 405.211 242.225 406.208 241.119C407.269 240.009 408.194 238.826 408.982 237.57C409.304 237.549 409.518 237.425 409.627 237.199C409.794 236.914 409.935 236.686 410.048 236.514C410.547 236.317 410.91 236.047 411.137 235.703C411.363 235.36 411.657 235.04 412.017 234.742C412.225 234.893 412.386 234.882 412.499 234.71C412.677 234.534 412.892 234.411 413.144 234.339C413.223 234.498 413.176 234.693 413.004 234.923C412.826 235.099 412.646 235.248 412.463 235.369C412.923 235.448 413.477 235.494 414.124 235.505C414.767 235.463 415.382 235.477 415.97 235.547C416.618 235.559 417.209 235.656 417.743 235.84C418.336 235.965 418.811 236.207 419.167 236.566C419.118 236.733 419.101 236.899 419.116 237.062C419.126 237.171 419.033 237.204 418.835 237.163C419.038 237.259 419.251 237.463 419.474 237.777C419.691 238.036 419.892 238.105 420.074 237.983C420.346 238.129 420.525 238.309 420.609 238.522C420.758 238.731 421 238.907 421.337 239.049C421.228 239.275 421.251 239.519 421.405 239.783C421.617 239.987 421.857 240.136 422.124 240.227C422.126 240.939 422.189 241.618 422.313 242.267C422.433 242.861 422.523 243.484 422.583 244.137C422.703 244.73 422.726 245.331 422.653 245.938C422.644 246.54 422.509 247.178 422.248 247.852C422.289 248.287 422.289 248.643 422.25 248.919C422.206 249.141 422.132 249.392 422.029 249.672C421.985 249.894 421.911 250.145 421.808 250.426C421.769 250.702 421.772 251.085 421.817 251.574C421.468 252.691 421.193 253.913 420.993 255.24C420.857 256.562 420.58 257.757 420.161 258.824C420.335 259.305 420.353 259.851 420.216 260.462C420.073 261.019 419.862 261.525 419.581 261.982C419.666 262.906 419.586 263.787 419.341 264.624C419.159 265.457 419.044 266.312 418.996 267.191C418.932 267.195 418.875 267.281 418.826 267.448C418.836 267.557 418.775 267.589 418.641 267.543C418.651 267.652 418.688 267.704 418.753 267.7C418.881 267.691 418.95 267.741 418.96 267.85C418.611 268.967 418.383 269.995 418.276 270.932C418.164 271.815 418.094 272.804 418.066 273.901C418.284 274.16 418.519 274.254 418.771 274.182C419.018 274.056 419.27 273.985 419.527 273.968C419.922 274.051 420.288 274.164 420.625 274.305C420.961 274.447 421.354 274.503 421.804 274.473C422.061 274.456 422.283 274.414 422.471 274.347C422.653 274.226 422.849 274.24 423.057 274.39C423.195 274.491 423.262 274.514 423.257 274.459C423.252 274.405 423.314 274.373 423.442 274.365C424.061 274.762 424.805 275.122 425.675 275.448C426.546 275.773 427.268 276.245 427.843 276.863C427.724 276.981 427.707 277.146 427.792 277.359C427.871 277.518 427.948 277.65 428.022 277.754C428.032 277.863 428.042 277.972 428.052 278.081C428.062 278.189 428.035 278.246 427.971 278.25C428.045 278.355 428.122 278.486 428.202 278.645C428.281 278.804 428.486 278.927 428.818 279.015C428.828 279.124 428.773 279.237 428.655 279.354C428.532 279.417 428.411 279.507 428.292 279.624C428.451 279.942 428.535 280.155 428.545 280.264C428.615 280.314 428.691 280.446 428.776 280.659C428.519 280.676 428.435 280.818 428.524 281.086C428.673 281.295 428.621 281.435 428.369 281.507L428.437 282.241C428.383 282.354 428.361 282.465 428.371 282.574C428.376 282.628 428.322 282.741 428.209 282.913C427.339 283.299 426.431 283.605 425.482 283.832C424.528 284.005 423.545 284.207 422.532 284.438C421.514 284.615 420.467 284.821 419.39 285.057C418.313 285.292 417.211 285.612 416.085 286.015C416.03 286.128 415.976 286.241 415.922 286.354C415.863 286.412 415.873 286.521 415.952 286.68C415.503 286.71 415.278 286.725 415.278 286.725C415.164 286.897 415.083 287.066 415.034 287.233C415.049 287.397 414.968 287.566 414.79 287.742C414.822 288.78 414.636 289.914 414.232 291.144C413.829 292.375 413.381 293.471 412.888 294.434C412.601 294.125 412.529 293.692 412.671 293.135C412.809 292.524 412.675 292.123 412.269 291.931C412.116 292.379 412.028 292.822 412.004 293.262C412.039 293.642 412.077 294.05 412.118 294.485C411.989 294.494 411.925 294.498 411.925 294.498C411.796 294.507 411.762 294.481 411.821 294.423C411.88 294.364 411.87 294.255 411.791 294.097C411.425 294.34 411.364 294.727 411.607 295.258C411.36 295.384 411.212 295.53 411.163 295.698C411.114 295.865 411.065 296.032 411.016 296.2C411.036 296.417 410.989 296.612 410.876 296.784C410.832 297.005 410.684 297.152 410.432 297.223C410.417 297.06 410.367 296.872 410.283 296.659C410.267 296.496 410.163 296.42 409.971 296.433C410.143 296.203 410.126 296.013 409.918 295.862C409.607 295.992 409.397 296.17 409.289 296.396C409.185 296.677 409.082 296.957 408.979 297.238C408.945 297.568 408.873 297.847 408.765 298.073C408.662 298.353 408.489 298.583 408.247 298.764C408.099 298.555 408.007 298.26 407.971 297.879C407.936 297.498 407.906 297.172 407.881 296.9C407.698 297.022 407.654 297.243 407.748 297.565C407.843 297.888 407.796 298.082 407.609 298.149C407.485 298.212 407.386 298.191 407.312 298.087C407.302 297.978 407.233 297.928 407.104 297.937C406.986 298.054 406.867 298.171 406.749 298.288C406.7 298.456 406.685 298.648 406.705 298.866C406.458 298.992 406.298 299.002 406.223 298.898C406.154 298.848 406.055 298.827 405.927 298.835C405.902 298.563 405.879 298.319 405.859 298.101C405.908 297.934 405.922 297.741 405.902 297.524C405.897 297.469 405.863 297.444 405.798 297.449C405.803 297.503 405.803 297.503 405.798 297.449C405.717 295.867 405.615 294.424 405.495 293.119C405.433 291.755 405.403 290.389 405.406 289.021C403.933 289.173 402.142 289.374 400.032 289.624C397.922 289.873 396.138 290.155 394.68 290.471C394.493 290.538 394.372 290.628 394.318 290.741C394.328 290.85 394.274 290.963 394.155 291.08C394.022 291.035 393.982 290.955 394.036 290.842C394.09 290.729 394.053 290.677 393.925 290.685C393.935 290.794 393.838 290.8 393.635 290.704C393.428 290.554 393.336 290.615 393.362 290.887C392.072 290.918 390.829 291.109 389.633 291.462C388.433 291.761 387.195 292.007 385.92 292.201C385.545 292.335 385.132 292.417 384.682 292.447C384.228 292.423 383.855 292.584 383.564 292.932C383.237 292.899 383.01 292.886 382.882 292.895C382.812 292.845 382.713 292.824 382.585 292.833C380.345 295.17 378.236 297.526 376.258 299.9C374.28 302.275 372.126 304.497 369.796 306.566C369.534 306.529 369.28 306.573 369.033 306.699C368.727 306.883 368.485 307.064 368.307 307.24C367.976 307.152 367.628 307.23 367.262 307.473C366.902 307.77 366.455 307.828 365.921 307.644C365.545 307.778 365.333 307.929 365.284 308.097C364.948 307.955 364.621 307.922 364.305 307.997C363.925 308.077 363.665 308.067 363.527 307.967C363.65 307.904 363.744 307.871 363.808 307.866C363.872 307.862 363.966 307.828 364.09 307.766ZM403.576 276.585C403.551 276.313 403.635 276.171 403.828 276.158C404.08 276.087 404.289 275.909 404.457 275.624C404.606 275.833 404.771 275.877 404.954 275.755C405.201 275.629 405.388 275.562 405.517 275.554C405.453 272.767 405.535 270.163 405.763 267.74C405.992 265.318 406.151 262.845 406.24 260.322C405.081 261.767 404.061 263.312 403.179 264.957C402.356 266.544 401.328 268.007 400.094 269.347C399.287 271.097 398.338 272.719 397.248 274.214C396.158 275.709 395.068 277.204 393.979 278.699L394.016 279.107C395.647 278.561 397.228 278.183 398.759 277.972C400.286 277.706 401.892 277.244 403.576 276.585Z" fill="url(#paint8_linear_2311_1903)"/>
<defs>
<linearGradient id="paint0_linear_2311_1903" x1="44" y1="256.5" x2="469" y2="256.5" gradientUnits="userSpaceOnUse">
<stop stop-color="#F8F8F8"/>
<stop offset="1" stop-color="#ADADAD"/>
</linearGradient>
<linearGradient id="paint1_linear_2311_1903" x1="44" y1="256.5" x2="469" y2="256.5" gradientUnits="userSpaceOnUse">
<stop stop-color="#F8F8F8"/>
<stop offset="1" stop-color="#ADADAD"/>
</linearGradient>
<linearGradient id="paint2_linear_2311_1903" x1="44" y1="256.5" x2="469" y2="256.5" gradientUnits="userSpaceOnUse">
<stop stop-color="#F8F8F8"/>
<stop offset="1" stop-color="#ADADAD"/>
</linearGradient>
<linearGradient id="paint3_linear_2311_1903" x1="44" y1="256.5" x2="469" y2="256.5" gradientUnits="userSpaceOnUse">
<stop stop-color="#F8F8F8"/>
<stop offset="1" stop-color="#ADADAD"/>
</linearGradient>
<linearGradient id="paint4_linear_2311_1903" x1="44" y1="256.5" x2="469" y2="256.5" gradientUnits="userSpaceOnUse">
<stop stop-color="#F8F8F8"/>
<stop offset="1" stop-color="#ADADAD"/>
</linearGradient>
<linearGradient id="paint5_linear_2311_1903" x1="44" y1="256.5" x2="469" y2="256.5" gradientUnits="userSpaceOnUse">
<stop stop-color="#F8F8F8"/>
<stop offset="1" stop-color="#ADADAD"/>
</linearGradient>
<linearGradient id="paint6_linear_2311_1903" x1="44" y1="256.5" x2="469" y2="256.5" gradientUnits="userSpaceOnUse">
<stop stop-color="#F8F8F8"/>
<stop offset="1" stop-color="#ADADAD"/>
</linearGradient>
<linearGradient id="paint7_linear_2311_1903" x1="44" y1="256.5" x2="469" y2="256.5" gradientUnits="userSpaceOnUse">
<stop stop-color="#F8F8F8"/>
<stop offset="1" stop-color="#ADADAD"/>
</linearGradient>
<linearGradient id="paint8_linear_2311_1903" x1="44" y1="256.5" x2="469" y2="256.5" gradientUnits="userSpaceOnUse">
<stop stop-color="#F8F8F8"/>
<stop offset="1" stop-color="#ADADAD"/>
</linearGradient>
</defs>
</svg>
