<svg width="41" height="15" viewBox="0 0 41 15" fill="none" xmlns="http://www.w3.org/2000/svg">
<path fill-rule="evenodd" clip-rule="evenodd" d="M20.0363 14.9394C31.3552 15.4614 40.7386 12.5538 40.9946 8.44518C41.2507 4.33652 32.2825 0.58262 20.9637 0.0606111C9.64478 -0.461397 0.261425 2.44616 0.0053502 6.55482C-0.250724 10.6635 8.71745 14.4174 20.0363 14.9394ZM20.0528 14.6757C30.6652 15.1652 39.4685 12.3492 39.7155 8.3862C39.9625 4.42316 31.5596 0.813729 20.9472 0.324301C10.3348 -0.165126 1.53153 2.65079 1.28453 6.61383C1.03753 10.5769 9.44036 14.1863 20.0528 14.6757Z" fill="#131416"/>
<path d="M15.5472 6.47265C15.6342 7.42732 15.7158 7.14319 14.7695 7.40017C13.8231 7.65714 13.3849 8.21845 12.741 8.26185L11.8155 9.13283L9.62473 9.28048C8.85379 9.33244 9.84515 8.61218 9.54367 8.39054C9.36706 7.14769 8.40753 6.93353 7.83328 7.39048C7.71802 7.06096 7.95297 7.63706 7.8939 6.98847L7.87698 6.80264L10.1549 6.64911C10.213 7.0998 10.2832 7.35536 10.3654 7.41581C10.4385 7.46955 10.6402 7.48528 10.9706 7.46301L12.2541 7.3765C12.6269 7.35138 12.8406 7.31131 12.8952 7.2563C12.9655 7.18558 12.9887 7.01904 12.9648 6.75668C12.9442 6.53077 12.8928 6.38759 12.8106 6.32714C12.7466 6.28012 12.5224 6.25124 12.1378 6.2405L9.48343 6.15544C8.93658 6.14097 8.52155 6.02963 8.23835 5.82141C7.82725 5.51917 7.58153 4.92714 7.50122 4.04535C7.41957 3.14897 7.58957 2.48861 8.01121 2.06424C8.27668 1.79705 8.72288 1.64233 9.3498 1.60008L12.7682 1.36968C13.5476 1.31715 14.0835 1.39835 14.3758 1.61328C14.5951 1.77448 14.7656 2.00862 14.8873 2.31571C15.0084 2.6155 15.1017 3.07848 15.1672 3.70464L12.6638 3.87337C12.6117 3.48827 12.5445 3.2655 12.4623 3.20505C12.3892 3.15132 12.2086 3.13416 11.9206 3.15357L10.6498 3.23922C10.3533 3.2592 10.1855 3.28884 10.1465 3.32813C10.084 3.391 10.0637 3.54268 10.0856 3.78317C10.1062 4.00909 10.1576 4.15227 10.2398 4.21272C10.2947 4.25302 10.5186 4.27825 10.9116 4.28843L13.5914 4.37177C14.1389 4.39353 14.5497 4.50516 14.8238 4.70666C15.2258 5.00219 15.4669 5.59085 15.5472 6.47265Z" fill="#131416"/>
<path d="M24.6743 5.18659C24.7356 5.95236 24.729 6.53572 24.6547 6.93667C24.4976 7.44159 24.1306 7.32691 23.8129 7.04161C23.5006 7.35595 23.2165 6.71932 22.3947 6.77471L21.467 7.03242L19.2253 8.63342C18.3951 8.68937 18.1242 8.56098 17.7588 8.29232C17.0658 7.79643 16.641 6.68856 16.4844 4.96869C16.3277 3.24882 16.5467 2.09755 17.1415 1.51487C17.4538 1.20053 18.0251 1.01538 18.8553 0.959419L21.829 0.759002C22.6507 0.703616 23.2443 0.810255 23.6098 1.07892C23.8564 1.26027 24.0527 1.54399 24.1987 1.9301C24.344 2.30892 24.4551 2.87335 24.532 3.6234L21.9777 3.79556C21.8912 3.12681 21.784 2.74542 21.6561 2.65139C21.583 2.59766 21.3855 2.58164 21.0636 2.60334L19.9326 2.67957C19.6107 2.70126 19.4185 2.74355 19.356 2.80642C19.2076 2.95573 19.1866 3.61339 19.2928 4.7794C19.399 5.94542 19.5389 6.59223 19.7125 6.71985C19.7855 6.77358 19.983 6.7896 20.305 6.7679L21.436 6.69167C21.7579 6.66997 21.9501 6.62769 22.0126 6.56482C22.1219 6.4548 22.1577 6.05278 22.1201 5.35874L24.6743 5.18659Z" fill="#131416"/>
<path d="M32.775 1.79201L28.5052 2.07979L28.6436 3.59925L31.6299 3.39798L31.7793 5.03768L28.7929 5.23896L28.9053 6.47216L28.8851 6.25046L28.2038 5.76659L27.5632 6.56262L26.3199 7.14831L26.1892 6.83325L25.6127 0.503984L32.6147 0.0320612L32.775 1.79201Z" fill="#131416"/>
<path d="M3.68737 14.3587C3.65116 14.3719 3.61324 14.3664 3.57362 14.3422C3.52781 14.3185 3.47653 14.3032 3.41977 14.2963C3.40738 14.2971 3.39881 14.3057 3.39407 14.3222C3.38933 14.3386 3.38003 14.3392 3.36618 14.324C3.37614 14.2965 3.37013 14.2648 3.34814 14.2287C3.33768 14.2509 3.33367 14.2753 3.3361 14.3019C3.30511 14.304 3.27576 14.2899 3.24806 14.2596C3.24709 14.2489 3.24921 14.238 3.25444 14.227C3.25395 14.2216 3.26945 14.2206 3.30092 14.2238L3.2951 14.1599C3.30178 14.1648 3.30464 14.1619 3.30367 14.1512C3.30269 14.1406 3.30865 14.1375 3.32153 14.142C3.31485 14.1371 3.31412 14.1291 3.31935 14.118C3.31837 14.1073 3.31145 14.0997 3.29857 14.0952C3.29285 14.101 3.29334 14.1063 3.30002 14.1112C3.30719 14.1215 3.30816 14.1322 3.30294 14.1432C3.29577 14.133 3.28216 14.1205 3.26211 14.1058C3.24254 14.0963 3.2268 14.0947 3.21489 14.1009L3.20397 13.9809C3.17675 13.9559 3.14357 13.934 3.10444 13.9152C3.0658 13.9017 3.0593 13.8646 3.08495 13.8039C3.10925 13.7969 3.13283 13.7819 3.15568 13.7589C3.17853 13.7359 3.1854 13.7086 3.17629 13.677L3.25066 13.672C3.31204 13.5928 3.37366 13.5162 3.43553 13.4423C3.4912 13.3688 3.55282 13.2922 3.6204 13.2126C3.49644 13.2209 3.3701 13.2375 3.2414 13.2623C3.10651 13.2875 2.99421 13.287 2.90453 13.2608C2.88739 13.2781 2.86333 13.2878 2.83234 13.2898C2.79515 13.2923 2.76537 13.3078 2.74301 13.3361C2.72916 13.3209 2.71627 13.3164 2.70436 13.3226C2.69245 13.3288 2.67957 13.3243 2.66572 13.3091C2.67423 13.2656 2.69708 13.2426 2.73427 13.2401C2.76477 13.2327 2.79169 13.2202 2.81503 13.2025C2.80263 13.2033 2.79333 13.204 2.78714 13.2044C2.77425 13.1999 2.75493 13.1931 2.72917 13.1841C2.71252 13.2067 2.69228 13.2242 2.66846 13.2365C2.63796 13.2439 2.61748 13.2587 2.60702 13.2809C2.57361 13.2563 2.54213 13.2531 2.5126 13.2712C2.47638 13.2843 2.4528 13.2993 2.44186 13.3162C2.44089 13.3055 2.43731 13.3004 2.43111 13.3008C2.41871 13.3016 2.41203 13.2967 2.41106 13.286C2.4096 13.2701 2.41793 13.2588 2.43604 13.2522C2.44795 13.246 2.44722 13.238 2.43385 13.2282C2.43142 13.2015 2.43713 13.1958 2.45099 13.2109C2.46484 13.2261 2.48082 13.2304 2.49893 13.2238C2.49796 13.2131 2.49389 13.2027 2.48672 13.1924L2.45446 13.1463C2.40584 13.1603 2.3658 13.1657 2.33432 13.1625C2.30285 13.1592 2.26639 13.1697 2.22495 13.194C2.21681 13.1731 2.21274 13.1626 2.21274 13.1626C2.21225 13.1573 2.21079 13.1413 2.20837 13.1146C2.23984 13.1179 2.26293 13.0976 2.27764 13.0536L2.28767 13.061C2.28815 13.0663 2.29174 13.0715 2.29842 13.0764C2.29842 13.0764 2.29866 13.0791 2.29915 13.0844C2.36916 13.0314 2.44037 12.9917 2.51281 12.9654C2.58524 12.939 2.65743 12.91 2.72938 12.8784C2.75891 12.8603 2.79847 12.8496 2.84805 12.8462C2.89096 12.838 2.91739 12.8201 2.92736 12.7926C2.94072 12.8024 2.95932 12.8012 2.98314 12.7888C3.00076 12.7769 3.0165 12.7785 3.03035 12.7937C3.03558 12.7826 3.04105 12.7742 3.04676 12.7685C3.05247 12.7627 3.0608 12.7514 3.07174 12.7346C3.12278 12.7472 3.16878 12.7388 3.20974 12.7092C3.25021 12.6743 3.29858 12.6576 3.35485 12.6592C3.37344 12.6579 3.38177 12.6466 3.37982 12.6253C3.41033 12.6179 3.44442 12.6156 3.48209 12.6184C3.51928 12.6159 3.54523 12.5927 3.55994 12.5488C3.52081 12.53 3.49291 12.5319 3.47626 12.5544C3.45293 12.5721 3.42886 12.5818 3.40407 12.5835C3.40833 12.5617 3.42522 12.5418 3.45476 12.5237C3.4838 12.5003 3.51643 12.482 3.55265 12.4688C3.59361 12.4393 3.64174 12.4199 3.69703 12.4108C3.75184 12.3964 3.81334 12.3869 3.88152 12.3823C3.89391 12.3815 3.90297 12.3782 3.90868 12.3724C3.90771 12.3618 3.90983 12.3509 3.91506 12.3398C4.00609 12.3122 4.08472 12.2855 4.15096 12.2595C4.21671 12.2283 4.31035 12.1951 4.43188 12.1601C4.43808 12.1597 4.44069 12.1542 4.43972 12.1435C4.43875 12.1329 4.44422 12.1244 4.45613 12.1183C4.47521 12.1223 4.48809 12.1268 4.49477 12.1318C4.50097 12.1313 4.51002 12.128 4.52193 12.1219C4.53093 12.0837 4.55664 12.0579 4.59905 12.0443C4.64147 12.0307 4.66383 12.0023 4.66614 11.9593C4.70333 11.9568 4.72667 11.9391 4.73615 11.9063C4.74563 11.8735 4.76611 11.8587 4.79758 11.8619C4.87173 11.7174 4.95997 11.5908 5.06231 11.482C5.17036 11.3674 5.26218 11.2459 5.33779 11.1174C5.37303 11.0936 5.3892 11.0657 5.38628 11.0337C5.39248 11.0333 5.39582 11.0357 5.39631 11.041C5.40251 11.0406 5.41181 11.04 5.4242 11.0392C5.43126 10.9797 5.45836 10.9349 5.50552 10.9049C5.55838 10.8692 5.58762 10.8136 5.59321 10.7381C5.67416 10.6683 5.74149 10.586 5.79522 10.4911C5.85514 10.3959 5.92867 10.3132 6.01581 10.2429C6.02955 10.1884 6.04712 10.1416 6.06851 10.1026C6.0961 10.0632 6.12393 10.0264 6.15201 9.99236C6.1858 9.95253 6.21649 9.91291 6.24408 9.8735C6.27167 9.83409 6.29258 9.78977 6.3068 9.74053C6.37583 9.67687 6.4284 9.60359 6.4645 9.5207C6.5068 9.43738 6.56247 9.36389 6.6315 9.30023C6.64573 9.251 6.66688 9.20934 6.69495 9.17526C6.72874 9.13543 6.75585 9.09069 6.77627 9.04104C6.85624 8.96055 6.92333 8.87556 6.97754 8.78608C7.03175 8.69659 7.09957 8.61961 7.181 8.55511C7.18623 8.54403 7.1917 8.53561 7.19741 8.52986C7.20932 8.5237 7.21145 8.51283 7.2038 8.49725C7.3071 8.39909 7.38775 8.29174 7.44573 8.17518C7.55281 8.04995 7.65442 7.93313 7.75055 7.82473C7.85289 7.71591 7.9421 7.59993 8.01819 7.47679C8.04918 7.4747 8.0699 7.46257 8.08036 7.44041C8.09652 7.4125 8.11008 7.39013 8.12102 7.3733C8.16914 7.35396 8.20414 7.32746 8.22602 7.2938C8.2479 7.26014 8.27622 7.22873 8.31098 7.19957C8.33103 7.21431 8.34653 7.21326 8.35747 7.19643C8.3746 7.17919 8.39532 7.16706 8.41963 7.16006C8.42729 7.17564 8.42279 7.19471 8.40614 7.21729C8.389 7.23454 8.37162 7.24912 8.354 7.26104C8.39835 7.26878 8.45176 7.27322 8.51423 7.27438C8.57621 7.2702 8.63558 7.27157 8.69233 7.27847C8.75479 7.27962 8.81179 7.28919 8.86332 7.30718C8.92056 7.31941 8.96637 7.34315 9.00076 7.37838C8.99602 7.39479 8.99438 7.41099 8.99583 7.42699C8.9968 7.43765 8.98775 7.44094 8.96867 7.43687C8.98824 7.44628 9.00877 7.46635 9.03028 7.49708C9.0513 7.52249 9.07062 7.52923 9.08825 7.51732C9.1145 7.53164 9.13169 7.54926 9.13983 7.57017C9.15417 7.59066 9.17756 7.60785 9.21001 7.62176C9.19956 7.64392 9.20174 7.66791 9.21656 7.69374C9.2371 7.71381 9.26025 7.72834 9.28601 7.73734C9.28613 7.80706 9.2922 7.87371 9.30422 7.93727C9.31576 7.9955 9.32445 8.0566 9.33028 8.12058C9.34182 8.17881 9.34406 8.23767 9.337 8.29715C9.33615 8.35621 9.32314 8.41878 9.29798 8.48485C9.30186 8.5275 9.30192 8.56236 9.29815 8.58944C9.29389 8.61118 9.28678 8.6358 9.27681 8.6633C9.27256 8.68504 9.26545 8.70966 9.25548 8.73715C9.25171 8.76423 9.25201 8.80176 9.25638 8.84974C9.22271 8.9593 9.1962 9.0791 9.17687 9.20914C9.16373 9.33877 9.13698 9.45591 9.09663 9.56055C9.11339 9.6077 9.11515 9.66122 9.1019 9.72112C9.08816 9.77569 9.06774 9.82535 9.04063 9.87009C9.04889 9.96072 9.04116 10.0471 9.01746 10.1291C8.99995 10.2108 8.98888 10.2947 8.98426 10.3808C8.97806 10.3812 8.97259 10.3896 8.96785 10.4061C8.96882 10.4167 8.96286 10.4198 8.94998 10.4153C8.95095 10.426 8.95454 10.4311 8.96074 10.4307C8.97313 10.4298 8.97982 10.4348 8.98079 10.4454C8.94711 10.555 8.92511 10.6557 8.91477 10.7476C8.90394 10.8341 8.89719 10.9312 8.89451 11.0386C8.91553 11.064 8.93819 11.0732 8.9625 11.0662C8.98632 11.0539 9.01063 11.0469 9.03542 11.0452C9.07358 11.0534 9.10888 11.0644 9.14133 11.0783C9.17377 11.0922 9.21169 11.0977 9.25508 11.0948C9.27987 11.0931 9.30132 11.089 9.31943 11.0824C9.33705 11.0705 9.35589 11.0719 9.37594 11.0866C9.3893 11.0965 9.39575 11.0987 9.39526 11.0934C9.39477 11.0881 9.40073 11.085 9.41313 11.0841C9.47279 11.123 9.54461 11.1584 9.62859 11.1903C9.71256 11.2222 9.78225 11.2685 9.83766 11.3291C9.82624 11.3406 9.8246 11.3568 9.83274 11.3777C9.84039 11.3933 9.8478 11.4062 9.85497 11.4164C9.85594 11.4271 9.85691 11.4378 9.85789 11.4484C9.85886 11.4591 9.85624 11.4646 9.85005 11.4651C9.85722 11.4753 9.86463 11.4882 9.87228 11.5038C9.87994 11.5194 9.89975 11.5314 9.93171 11.54C9.93268 11.5507 9.92745 11.5618 9.91603 11.5733C9.90412 11.5794 9.89245 11.5883 9.88102 11.5998C9.89633 11.6309 9.90447 11.6518 9.90544 11.6625C9.91213 11.6674 9.91954 11.6803 9.92768 11.7012C9.90289 11.7029 9.89481 11.7168 9.90343 11.7431C9.91777 11.7636 9.91279 11.7773 9.88848 11.7843L9.89504 11.8563C9.88981 11.8674 9.88768 11.8783 9.88865 11.8889C9.88914 11.8942 9.88391 11.9053 9.87297 11.9222C9.78911 11.96 9.70143 11.99 9.60992 12.0123C9.51792 12.0292 9.42306 12.049 9.32535 12.0717C9.22715 12.0891 9.1261 12.1093 9.02219 12.1324C8.91828 12.1555 8.812 12.1868 8.70335 12.2263C8.69813 12.2374 8.6929 12.2485 8.68767 12.2595C8.68196 12.2653 8.68293 12.2759 8.69059 12.2915C8.6472 12.2944 8.62551 12.2959 8.62551 12.2959C8.61457 12.3127 8.60673 12.3294 8.60199 12.3458C8.60345 12.3618 8.59561 12.3784 8.57847 12.3956C8.5815 12.4974 8.56356 12.6085 8.52466 12.7292C8.48576 12.8498 8.44255 12.9573 8.39502 13.0517C8.36732 13.0214 8.36033 12.979 8.37407 12.9244C8.38732 12.8645 8.37438 12.8251 8.33525 12.8063C8.32054 12.8502 8.31203 12.8937 8.30972 12.9368C8.31312 12.9741 8.31676 13.0141 8.32064 13.0567C8.30825 13.0576 8.30205 13.058 8.30205 13.058C8.28966 13.0588 8.28631 13.0564 8.29203 13.0506C8.29774 13.0449 8.29677 13.0342 8.28911 13.0186C8.25387 13.0425 8.24797 13.0804 8.27142 13.1325C8.2476 13.1448 8.23332 13.1592 8.22858 13.1756C8.22383 13.192 8.21909 13.2084 8.21435 13.2248C8.2163 13.2461 8.2118 13.2652 8.20086 13.2821C8.1966 13.3038 8.18232 13.3182 8.15801 13.3252C8.15656 13.3092 8.15176 13.2907 8.14362 13.2698C8.14216 13.2538 8.13214 13.2465 8.11354 13.2477C8.13019 13.2251 8.12849 13.2065 8.10844 13.1917C8.07842 13.2045 8.05819 13.2219 8.04774 13.2441C8.03777 13.2716 8.0278 13.2991 8.01783 13.3266C8.01455 13.359 8.00768 13.3863 7.99722 13.4084C7.98726 13.4359 7.97061 13.4585 7.94727 13.4762C7.93293 13.4557 7.92406 13.4268 7.92066 13.3895C7.91726 13.3521 7.91435 13.3201 7.91192 13.2935C7.8943 13.3054 7.89004 13.3271 7.89916 13.3587C7.90827 13.3903 7.90377 13.4094 7.88566 13.4159C7.87375 13.4221 7.86421 13.4201 7.85704 13.4098C7.85607 13.3992 7.84939 13.3943 7.83699 13.3951C7.82557 13.4066 7.81414 13.4181 7.80272 13.4296C7.79798 13.446 7.79658 13.4649 7.79852 13.4862C7.7747 13.4985 7.7592 13.4996 7.75203 13.4893C7.74535 13.4844 7.73581 13.4824 7.72341 13.4832C7.72099 13.4566 7.7188 13.4326 7.71686 13.4112C7.7216 13.3948 7.723 13.376 7.72106 13.3546C7.72057 13.3493 7.71723 13.3468 7.71103 13.3473C7.71152 13.3526 7.71152 13.3526 7.71103 13.3473C7.70315 13.1922 7.69338 13.0507 7.68172 12.9228C7.67578 12.7891 7.67294 12.6551 7.67319 12.521C7.53112 12.536 7.35831 12.5557 7.15475 12.5801C6.95118 12.6045 6.7791 12.6322 6.63848 12.6632C6.62038 12.6698 6.60871 12.6786 6.60348 12.6897C6.60445 12.7003 6.59923 12.7114 6.5878 12.7229C6.57492 12.7184 6.57109 12.7106 6.57632 12.6996C6.58155 12.6885 6.57796 12.6833 6.56557 12.6842C6.56654 12.6948 6.55724 12.6955 6.53767 12.6861C6.51762 12.6713 6.50881 12.6773 6.51124 12.7039C6.38679 12.707 6.26691 12.7258 6.15157 12.7604C6.03575 12.7896 5.91635 12.8138 5.79336 12.8328C5.75714 12.846 5.71734 12.854 5.67396 12.8569C5.63008 12.8545 5.59411 12.8704 5.56603 12.9044C5.53456 12.9012 5.51262 12.9 5.50023 12.9008C5.49354 12.8959 5.484 12.8939 5.47161 12.8947C5.25551 13.1238 5.05205 13.3548 4.86123 13.5876C4.67041 13.8204 4.46263 14.0382 4.23791 14.2411C4.21263 14.2375 4.18808 14.2418 4.16426 14.2542C4.13473 14.2722 4.11139 14.2899 4.09425 14.3072C4.06229 14.2986 4.02869 14.3062 3.99344 14.33C3.95868 14.3592 3.91554 14.3648 3.86402 14.3468C3.8278 14.36 3.80732 14.3748 3.80258 14.3912C3.77013 14.3773 3.73866 14.374 3.70815 14.3815C3.67145 14.3893 3.64641 14.3883 3.63305 14.3785C3.64496 14.3723 3.65401 14.369 3.66021 14.3686C3.66641 14.3682 3.67546 14.3649 3.68737 14.3587ZM7.49666 11.3018C7.49423 11.2752 7.50232 11.2612 7.52091 11.2599C7.54522 11.2529 7.56545 11.2355 7.58162 11.2076C7.59596 11.2281 7.61194 11.2324 7.62956 11.2204C7.65338 11.2081 7.67149 11.2015 7.68389 11.2007C7.67771 10.9275 7.68564 10.6722 7.70766 10.4347C7.72967 10.1972 7.74501 9.95473 7.75366 9.70739C7.64184 9.84903 7.54339 10.0005 7.4583 10.1618C7.37893 10.3174 7.27975 10.4608 7.16076 10.5922C7.08285 10.7638 6.99132 10.9228 6.88619 11.0694C6.78105 11.2159 6.67591 11.3625 6.57078 11.5091L6.57442 11.549C6.73168 11.4955 6.8842 11.4584 7.03199 11.4377C7.17928 11.4117 7.33417 11.3664 7.49666 11.3018Z" fill="#131416"/>
<path d="M9.5803 12.0706C9.58578 11.9254 9.61702 11.7892 9.67403 11.662C9.73104 11.5348 9.79807 11.4149 9.87513 11.3024C9.95839 11.1895 10.0481 11.0789 10.1442 10.9705C10.2404 10.8621 10.3363 10.751 10.4319 10.6373C10.4443 10.6365 10.4536 10.6358 10.4598 10.6354C10.4655 10.6297 10.4777 10.6262 10.4963 10.6249C10.5147 10.5539 10.5566 10.5001 10.6219 10.4636C10.6871 10.427 10.7319 10.3703 10.7561 10.2936C10.8066 10.3009 10.8395 10.2853 10.8547 10.2467C10.8756 10.2024 10.9108 10.1785 10.9604 10.1752C11.0228 10.1066 11.0859 10.0461 11.1497 9.99348C11.213 9.93556 11.2796 9.88011 11.3497 9.82711C11.3621 9.82628 11.3647 9.82074 11.3575 9.81049C11.3565 9.79983 11.3591 9.79429 11.3653 9.79387C11.411 9.74788 11.4544 9.71009 11.4953 9.68051C11.5425 9.65051 11.5925 9.61763 11.6454 9.58188C11.7335 9.5223 11.8144 9.45247 11.8882 9.3724C11.962 9.29233 12.0491 9.22209 12.1496 9.16167C12.1615 9.1555 12.1768 9.15179 12.1954 9.15054C12.2135 9.14395 12.2282 9.13491 12.2397 9.12341C12.2573 9.1115 12.2713 9.09446 12.2818 9.0723C12.2984 9.04972 12.3156 9.03247 12.3332 9.02055C12.3384 9.00947 12.3444 9.00639 12.3511 9.0113C12.3635 9.01047 12.3725 9.00717 12.3782 9.00142C12.3958 8.98951 12.4073 8.97801 12.4125 8.96693C12.4234 8.9501 12.4346 8.93593 12.446 8.92443C12.4575 8.91294 12.4722 8.90389 12.4903 8.89731C12.5085 8.89072 12.5263 8.88147 12.5439 8.86956C12.6197 8.81081 12.699 8.75719 12.7819 8.70869C12.8709 8.65977 12.9593 8.60285 13.0469 8.53794C13.0755 8.50919 13.1012 8.48332 13.124 8.46032C13.1531 8.43691 13.1821 8.41349 13.2112 8.39008C13.2459 8.36092 13.2933 8.33358 13.3534 8.30808C13.4134 8.28257 13.4668 8.25216 13.5134 8.21683C13.5296 8.18892 13.5527 8.16858 13.5827 8.15583C13.6189 8.14266 13.642 8.12233 13.652 8.09484C13.682 8.08209 13.7154 8.07179 13.7521 8.06395C13.7883 8.05078 13.8243 8.03495 13.86 8.01645C13.8952 7.99261 13.9181 7.96962 13.9285 7.94746C14.0377 7.91328 14.127 7.86703 14.1965 7.8087C14.266 7.75037 14.3518 7.69899 14.4538 7.65457C14.4528 7.64391 14.4552 7.6357 14.4609 7.62995C14.4723 7.61845 14.4711 7.60512 14.4572 7.58997C14.5602 7.55621 14.6512 7.52861 14.7303 7.50719C14.8094 7.48576 14.8952 7.46925 14.9877 7.45765C15.1175 7.51328 15.2701 7.54591 15.4456 7.55554C15.6206 7.55983 15.7728 7.58713 15.9021 7.63742C15.9216 7.64683 15.9366 7.64046 15.9471 7.61829C15.9939 7.65269 16.0552 7.67538 16.131 7.68636C16.2069 7.69734 16.2646 7.71491 16.3042 7.73906C16.4064 7.8341 16.5114 7.92625 16.6194 8.01554C16.7273 8.10482 16.8295 8.19986 16.9259 8.30064C16.9145 8.31214 16.9129 8.32834 16.921 8.34925C16.9354 8.36974 16.9492 8.3849 16.9626 8.39473C16.9637 8.47512 16.9576 8.54527 16.9443 8.60517C16.9311 8.66507 16.9145 8.72251 16.8945 8.7775C16.8746 8.83248 16.8516 8.88768 16.8254 8.94308C16.805 8.99274 16.7887 9.05285 16.7764 9.12341C16.7521 9.13041 16.7376 9.14212 16.7328 9.15853C16.7343 9.17453 16.7329 9.1934 16.7286 9.21514C16.7162 9.21598 16.7072 9.21927 16.7015 9.22502C16.7019 9.23035 16.696 9.23343 16.6836 9.23427C16.697 9.2441 16.6977 9.25209 16.6858 9.25826C16.6739 9.26443 16.6744 9.26976 16.6872 9.27426C16.5635 9.42207 16.4531 9.5797 16.3562 9.74717C16.2592 9.91464 16.1426 10.0727 16.0065 10.2213C16.0084 10.2427 16.0037 10.2591 15.9922 10.2706C15.9803 10.2767 15.9756 10.2932 15.978 10.3198C15.9371 10.3494 15.9028 10.3839 15.8752 10.4233C15.8471 10.4574 15.8128 10.4919 15.7724 10.5268C15.6942 10.5589 15.6065 10.5889 15.5093 10.6169C15.4116 10.6396 15.3206 10.6672 15.2362 10.6997C15.2343 10.6784 15.2209 10.6686 15.1961 10.6702C15.1775 10.6715 15.1494 10.6707 15.1117 10.6679C15.0974 10.6474 15.0802 10.6298 15.0602 10.615C15.0401 10.6003 15.0143 10.5913 14.9829 10.588C14.9857 10.5503 14.9739 10.5243 14.9477 10.51C14.9214 10.4956 14.8895 10.4871 14.8518 10.4842C14.8198 10.4757 14.7879 10.4671 14.7559 10.4585C14.7302 10.4495 14.7158 10.429 14.7129 10.397C14.7114 10.381 14.6952 10.3741 14.6642 10.3762C14.6326 10.3032 14.6258 10.2286 14.6438 10.1522C14.6618 10.0759 14.6669 9.99513 14.6592 9.90982C14.6529 9.84051 14.6437 9.77408 14.6317 9.71052C14.6258 9.64654 14.6388 9.58397 14.6707 9.52282C14.664 9.5179 14.6595 9.50212 14.657 9.47546C14.5489 9.5203 14.4453 9.58093 14.3462 9.65734C14.31 9.67051 14.2802 9.68592 14.2569 9.70359C14.2392 9.71551 14.2221 9.73275 14.2055 9.75533C14.0868 9.82234 13.9749 9.89425 13.8697 9.97108C13.7706 10.0475 13.6685 10.1241 13.5632 10.2009C13.5103 10.2367 13.4544 10.2727 13.3953 10.3088C13.3419 10.3392 13.2888 10.3723 13.236 10.4081C13.1302 10.4796 13.0252 10.5591 12.9209 10.6466C12.8167 10.734 12.709 10.8191 12.5981 10.9017C12.5343 10.9542 12.464 11.0046 12.3873 11.0527C12.3164 11.095 12.249 11.1424 12.1852 11.195C12.1442 11.2246 12.1068 11.2593 12.073 11.2991C12.045 11.3332 12.0104 11.365 11.9695 11.3946C11.9238 11.4406 11.88 11.4731 11.838 11.492C11.8023 11.5105 11.7871 11.5491 11.7925 11.6077C11.7734 11.6036 11.7612 11.6071 11.756 11.6182C11.7508 11.6293 11.7384 11.6301 11.7188 11.6207C11.6046 11.7357 11.4939 11.8558 11.3868 11.9811C11.2797 12.1063 11.176 12.234 11.0756 12.3641C11.1076 12.3727 11.1367 12.3841 11.1629 12.3985C11.1954 12.4124 11.2331 12.4152 11.276 12.4069C11.3131 12.4044 11.3436 12.397 11.3675 12.3847C11.397 12.3666 11.4308 12.3616 11.469 12.3698C11.4814 12.369 11.4881 12.3739 11.4891 12.3845C11.4895 12.3899 11.496 12.3921 11.5084 12.3913C11.5522 12.3937 11.5954 12.3881 11.6378 12.3745C11.6864 12.3605 11.7355 12.3518 11.7851 12.3485C11.8032 12.3419 11.8218 12.3407 11.8409 12.3447C11.86 12.3488 11.8788 12.3502 11.8974 12.349C11.977 12.3329 12.0533 12.3143 12.1262 12.2933C12.2048 12.2666 12.2813 12.2507 12.3557 12.2457C12.3867 12.2436 12.4117 12.2446 12.4308 12.2486C12.4561 12.2523 12.4737 12.2404 12.4837 12.2129C12.5885 12.2005 12.6953 12.1745 12.804 12.135C12.9126 12.0955 13.0101 12.0701 13.0964 12.059C13.1088 12.0581 13.1178 12.0548 13.1235 12.0491C13.1287 12.038 13.1373 12.0294 13.1492 12.0232C13.2536 12.0054 13.3454 11.9858 13.4245 11.9644C13.5093 11.9372 13.5968 11.9045 13.6868 11.8663C14.0233 11.7953 14.3281 11.7184 14.6012 11.6357C14.88 11.5471 15.1753 11.4682 15.487 11.3989C15.6743 11.3327 15.8473 11.2808 16.006 11.2433C16.1642 11.2004 16.3501 11.153 16.5637 11.1011C16.7142 11.0427 16.8901 10.9879 17.0912 10.9368C17.2986 10.8853 17.468 10.8282 17.5995 10.7657C17.6867 10.7652 17.7728 10.7514 17.8576 10.7242C17.9419 10.6917 18.0265 10.6619 18.1114 10.6347C18.1309 10.6441 18.1445 10.6566 18.1522 10.6722C18.166 10.6873 18.1797 10.6998 18.193 10.7096C18.1592 10.7495 18.118 10.7764 18.0694 10.7904C18.0208 10.8044 17.993 10.8411 17.9859 10.9006C17.9363 10.904 17.9008 10.9251 17.8795 10.9641C17.8581 11.0031 17.8269 11.0374 17.7859 11.067C17.7559 11.0797 17.7259 11.0925 17.6959 11.1052C17.6654 11.1127 17.6351 11.1227 17.6051 11.1355C17.546 11.1717 17.487 11.2078 17.4279 11.244C17.3745 11.2744 17.3212 11.3048 17.2678 11.3352C17.2688 11.3459 17.2698 11.3566 17.2707 11.3672C17.2779 11.3775 17.282 11.3879 17.283 11.3986C17.2591 11.4109 17.2351 11.4206 17.2108 11.4276C17.1865 11.4346 17.1817 11.451 17.1965 11.4768C17.1293 11.4921 17.0977 11.5211 17.1016 11.5637C16.9495 11.6061 16.8185 11.6391 16.7083 11.6626C16.5982 11.6861 16.4906 11.7363 16.3853 11.8131C16.259 11.8646 16.1328 11.916 16.0065 11.9674C15.8797 12.0135 15.7632 12.0696 15.657 12.1358C15.659 12.1571 15.6747 12.1588 15.7042 12.1407C15.7009 12.1731 15.6872 12.1928 15.6628 12.1998C15.6443 12.201 15.6218 12.1945 15.5956 12.1802C15.4774 12.2525 15.3333 12.3132 15.1632 12.3622C14.993 12.4112 14.8401 12.4779 14.7043 12.5621C14.6547 12.5654 14.5997 12.5772 14.5392 12.5974C14.4848 12.6171 14.4341 12.642 14.3869 12.672C14.3765 12.6942 14.3806 12.7046 14.3991 12.7034C14.4173 12.6968 14.4239 12.7017 14.4192 12.7181C14.4092 12.7456 14.3983 12.7624 14.3864 12.7686C14.374 12.7694 14.3525 12.7736 14.322 12.781C14.2902 12.8421 14.2402 12.875 14.172 12.8796C14.1038 12.8842 14.0502 12.912 14.0112 12.9629C13.9383 12.9839 13.853 13.0057 13.7553 13.0284C13.6637 13.0507 13.5923 13.0877 13.5409 13.1394C13.5099 13.1415 13.491 13.1401 13.4844 13.1352C13.3905 13.2005 13.2638 13.2466 13.1041 13.2734C12.9506 13.2999 12.8176 13.3464 12.7052 13.413C12.6289 13.3967 12.5593 13.4201 12.4965 13.4834C12.4107 13.4999 12.3189 13.5195 12.2212 13.5422C12.1297 13.5644 12.0351 13.5869 11.9374 13.6096C11.8459 13.6318 11.7477 13.6492 11.6428 13.6616C11.5441 13.6736 11.4478 13.6774 11.3539 13.673C11.3343 13.6636 11.325 13.6642 11.326 13.6749C11.3274 13.6909 11.3217 13.6967 11.3088 13.6922C11.2201 13.6767 11.1345 13.661 11.052 13.6451C10.9761 13.6341 10.8998 13.6178 10.823 13.5962C10.7529 13.5794 10.6849 13.5518 10.619 13.5133C10.5599 13.4798 10.5054 13.4298 10.4557 13.3634C10.4424 13.3536 10.4328 13.3516 10.4271 13.3573C10.4281 13.368 10.4221 13.3711 10.4092 13.3666C10.3181 13.3244 10.2408 13.2626 10.1772 13.181C10.1141 13.1048 10.0425 13.0372 9.9623 12.9783C9.96315 12.9192 9.94639 12.8721 9.912 12.8368C9.87712 12.7963 9.83441 12.7723 9.78385 12.765C9.79139 12.7108 9.78939 12.6547 9.77785 12.5964C9.76011 12.5386 9.74238 12.4808 9.72464 12.423C9.70642 12.3598 9.68844 12.2994 9.6707 12.2416C9.65247 12.1784 9.64428 12.1226 9.6461 12.0742C9.63274 12.0644 9.62344 12.065 9.61821 12.0761C9.6063 12.0823 9.59366 12.0805 9.5803 12.0706Z" fill="#131416"/>
<path d="M16.9979 11.5707C17.0034 11.4255 17.0346 11.2893 17.0916 11.1621C17.1487 11.0348 17.2157 10.915 17.2927 10.8025C17.376 10.6896 17.4657 10.579 17.5618 10.4706C17.658 10.3622 17.7539 10.2511 17.8495 10.1374C17.8619 10.1365 17.8712 10.1359 17.8774 10.1355C17.8831 10.1297 17.8953 10.1262 17.9139 10.125C17.9324 10.054 17.9742 10.0002 18.0395 9.96362C18.1048 9.92704 18.1495 9.87038 18.1737 9.79365C18.2242 9.80097 18.2571 9.78534 18.2723 9.74677C18.2932 9.70244 18.3285 9.67861 18.378 9.67527C18.4404 9.6067 18.5035 9.54612 18.5673 9.49354C18.6306 9.43563 18.6973 9.38018 18.7673 9.32718C18.7797 9.32634 18.7823 9.3208 18.7751 9.31056C18.7741 9.2999 18.7768 9.29435 18.783 9.29394C18.8286 9.24794 18.872 9.21015 18.9129 9.18057C18.9601 9.15057 19.0101 9.1177 19.063 9.08195C19.1511 9.02237 19.232 8.95254 19.3058 8.87247C19.3796 8.7924 19.4667 8.72215 19.5672 8.66173C19.5791 8.65557 19.5944 8.65186 19.613 8.6506C19.6311 8.64402 19.6459 8.63498 19.6573 8.62348C19.6749 8.61156 19.6889 8.59452 19.6994 8.57236C19.7161 8.54978 19.7332 8.53253 19.7508 8.52062C19.756 8.50954 19.762 8.50645 19.7687 8.51137C19.7811 8.51053 19.7901 8.50724 19.7958 8.50149C19.8135 8.48957 19.8249 8.47807 19.8301 8.46699C19.8411 8.45016 19.8522 8.436 19.8637 8.4245C19.8751 8.413 19.8899 8.40396 19.908 8.39738C19.9261 8.39079 19.9439 8.38154 19.9616 8.36962C20.0373 8.31088 20.1166 8.25725 20.1995 8.20875C20.2886 8.15984 20.3769 8.10292 20.4645 8.03801C20.4931 8.00926 20.5188 7.98339 20.5417 7.96039C20.5707 7.93698 20.5997 7.91356 20.6288 7.89015C20.6636 7.86098 20.711 7.83365 20.771 7.80814C20.831 7.78264 20.8844 7.75222 20.9311 7.71689C20.9472 7.68898 20.9703 7.66865 21.0003 7.6559C21.0365 7.64273 21.0596 7.6224 21.0696 7.5949C21.0996 7.58215 21.133 7.57186 21.1697 7.56402C21.2059 7.55085 21.2419 7.53501 21.2776 7.51651C21.3129 7.49268 21.3357 7.46968 21.3462 7.44752C21.4553 7.41334 21.5446 7.36709 21.6141 7.30876C21.6837 7.25043 21.7694 7.19906 21.8714 7.15464C21.8704 7.14397 21.8728 7.13577 21.8785 7.13002C21.8899 7.11852 21.8887 7.10519 21.8748 7.09003C21.9778 7.05627 22.0688 7.02868 22.1479 7.00725C22.227 6.98583 22.3128 6.96932 22.4053 6.95772C22.5351 7.01334 22.6877 7.04597 22.8632 7.0556C23.0382 7.0599 23.1904 7.08719 23.3197 7.13749C23.3393 7.1469 23.3543 7.14052 23.3647 7.11836C23.4115 7.15276 23.4728 7.17545 23.5486 7.18643C23.6245 7.19741 23.6822 7.21498 23.7218 7.23913C23.824 7.33416 23.9291 7.42632 24.037 7.5156C24.1449 7.60489 24.2471 7.69992 24.3436 7.80071C24.3321 7.8122 24.3305 7.82841 24.3386 7.84932C24.353 7.86981 24.3668 7.88497 24.3802 7.89479C24.3813 7.97519 24.3752 8.04533 24.3619 8.10523C24.3487 8.16513 24.3321 8.22258 24.3122 8.27756C24.2922 8.33255 24.2692 8.38774 24.2431 8.44315C24.2226 8.4928 24.2063 8.55291 24.194 8.62348C24.1697 8.63048 24.1552 8.64219 24.1504 8.6586C24.1519 8.67459 24.1505 8.69346 24.1462 8.71521C24.1338 8.71604 24.1248 8.71934 24.1191 8.72508C24.1196 8.73042 24.1136 8.7335 24.1012 8.73433C24.1146 8.74416 24.1153 8.75216 24.1034 8.75833C24.0915 8.76449 24.092 8.76983 24.1049 8.77432C23.9811 8.92213 23.8708 9.07977 23.7738 9.24724C23.6768 9.4147 23.5602 9.57276 23.4241 9.72141C23.426 9.74273 23.4213 9.75914 23.4099 9.77064C23.3979 9.77681 23.3932 9.79322 23.3956 9.81988C23.3547 9.84946 23.3204 9.88396 23.2928 9.92337C23.2647 9.95745 23.2305 9.99194 23.19 10.0269C23.1118 10.0589 23.0242 10.089 22.9269 10.117C22.8292 10.1397 22.7382 10.1673 22.6539 10.1998C22.6519 10.1785 22.6385 10.1686 22.6137 10.1703C22.5952 10.1715 22.567 10.1708 22.5293 10.1679C22.515 10.1474 22.4978 10.1298 22.4778 10.1151C22.4577 10.1003 22.432 10.0914 22.4005 10.0881C22.4033 10.0504 22.3915 10.0243 22.3653 10.01C22.3391 9.9957 22.3071 9.98712 22.2694 9.9843C22.2375 9.97572 22.2055 9.96715 22.1735 9.95857C22.1478 9.94958 22.1334 9.92909 22.1305 9.8971C22.1291 9.88111 22.1128 9.87415 22.0818 9.87624C22.0503 9.80327 22.0435 9.72863 22.0615 9.65232C22.0794 9.576 22.0846 9.49519 22.0768 9.40989C22.0705 9.34058 22.0613 9.27414 22.0493 9.21058C22.0435 9.1466 22.0565 9.08404 22.0883 9.02288C22.0816 9.01797 22.0771 9.00218 22.0746 8.97553C21.9665 9.02037 21.8629 9.08099 21.7638 9.1574C21.7276 9.17057 21.6978 9.18599 21.6745 9.20366C21.6569 9.21557 21.6397 9.23282 21.6231 9.2554C21.5045 9.3224 21.3925 9.39432 21.2873 9.47115C21.1882 9.54756 21.0861 9.62418 20.9808 9.70101C20.9279 9.73676 20.872 9.77272 20.8129 9.80888C20.7596 9.8393 20.7064 9.87238 20.6536 9.90813C20.5478 9.97963 20.4428 10.0591 20.3386 10.1466C20.2343 10.2341 20.1267 10.3191 20.0157 10.4017C19.9519 10.4543 19.8816 10.5046 19.8049 10.5527C19.734 10.5951 19.6666 10.6425 19.6028 10.6951C19.5618 10.7247 19.5244 10.7594 19.4907 10.7992C19.4626 10.8333 19.4281 10.8651 19.3871 10.8947C19.3414 10.9407 19.2976 10.9731 19.2557 10.9921C19.2199 11.0106 19.2047 11.0491 19.2101 11.1078C19.191 11.1037 19.1788 11.1072 19.1736 11.1183C19.1684 11.1294 19.156 11.1302 19.1364 11.1208C19.0222 11.2358 18.9115 11.3559 18.8044 11.4811C18.6974 11.6064 18.5936 11.734 18.4932 11.8642C18.5252 11.8728 18.5543 11.8842 18.5805 11.8985C18.613 11.9124 18.6507 11.9153 18.6936 11.907C18.7308 11.9045 18.7613 11.8971 18.7851 11.8847C18.8146 11.8667 18.8485 11.8617 18.8866 11.8699C18.899 11.869 18.9057 11.8739 18.9067 11.8846C18.9072 11.8899 18.9136 11.8922 18.926 11.8913C18.9699 11.8938 19.013 11.8882 19.0554 11.8746C19.104 11.8606 19.1531 11.8519 19.2027 11.8486C19.2208 11.842 19.2394 11.8407 19.2585 11.8448C19.2776 11.8489 19.2964 11.8503 19.315 11.849C19.3946 11.8329 19.4709 11.8144 19.5438 11.7934C19.6224 11.7666 19.6989 11.7507 19.7733 11.7457C19.8043 11.7436 19.8293 11.7446 19.8484 11.7487C19.8737 11.7524 19.8913 11.7405 19.9013 11.713C20.0062 11.7005 20.1129 11.6746 20.2216 11.635C20.3302 11.5955 20.4277 11.5702 20.514 11.559C20.5264 11.5582 20.5354 11.5549 20.5411 11.5491C20.5464 11.5381 20.5549 11.5294 20.5668 11.5233C20.6712 11.5055 20.763 11.4859 20.8421 11.4645C20.9269 11.4373 21.0144 11.4046 21.1044 11.3663C21.441 11.2954 21.7458 11.2185 22.0188 11.1357C22.2976 11.0472 22.5929 10.9683 22.9046 10.899C23.0919 10.8327 23.2649 10.7809 23.4236 10.7433C23.5819 10.7005 23.7677 10.6531 23.9813 10.6011C24.1318 10.5427 24.3077 10.488 24.5088 10.4368C24.7162 10.3853 24.8856 10.3283 25.0171 10.2658C25.1043 10.2653 25.1904 10.2514 25.2752 10.2243C25.3596 10.1918 25.4441 10.1619 25.529 10.1347C25.5485 10.1442 25.5622 10.1566 25.5698 10.1722C25.5837 10.1874 25.5973 10.1999 25.6106 10.2097C25.5768 10.2495 25.5356 10.2764 25.487 10.2905C25.4384 10.3045 25.4106 10.3412 25.4035 10.4007C25.354 10.404 25.3185 10.4252 25.2971 10.4642C25.2757 10.5032 25.2445 10.5375 25.2035 10.567C25.1735 10.5798 25.1435 10.5925 25.1135 10.6053C25.083 10.6127 25.0527 10.6228 25.0227 10.6356C24.9636 10.6717 24.9046 10.7079 24.8455 10.7441C24.7922 10.7745 24.7388 10.8049 24.6854 10.8353C24.6864 10.846 24.6874 10.8566 24.6884 10.8673C24.6955 10.8775 24.6996 10.888 24.7006 10.8987C24.6767 10.911 24.6527 10.9207 24.6284 10.9277C24.6041 10.9347 24.5993 10.9511 24.6142 10.9769C24.5469 10.9922 24.5153 11.0211 24.5192 11.0638C24.3671 11.1062 24.2361 11.1392 24.126 11.1627C24.0159 11.1862 23.9082 11.2364 23.8029 11.3132C23.6766 11.3646 23.5504 11.4161 23.4241 11.4675C23.2973 11.5136 23.1809 11.5697 23.0746 11.6359C23.0766 11.6572 23.0923 11.6588 23.1218 11.6407C23.1186 11.6731 23.1048 11.6928 23.0805 11.6999C23.0619 11.7011 23.0394 11.6946 23.0132 11.6802C22.8951 11.7526 22.7509 11.8133 22.5808 11.8623C22.4106 11.9113 22.2577 11.9779 22.1219 12.0622C22.0723 12.0655 22.0173 12.0773 21.9568 12.0974C21.9024 12.1172 21.8517 12.1421 21.8045 12.1721C21.7941 12.1942 21.7982 12.2047 21.8168 12.2034C21.8349 12.1969 21.8416 12.2018 21.8368 12.2182C21.8268 12.2457 21.8159 12.2625 21.804 12.2687C21.7916 12.2695 21.7701 12.2736 21.7396 12.2811C21.7078 12.3422 21.6578 12.3751 21.5896 12.3797C21.5214 12.3843 21.4678 12.412 21.4288 12.4629C21.3559 12.4839 21.2706 12.5058 21.1729 12.5285C21.0814 12.5507 21.0099 12.5877 20.9585 12.6395C20.9275 12.6416 20.9087 12.6401 20.902 12.6352C20.8081 12.7006 20.6814 12.7467 20.5217 12.7735C20.3682 12.7999 20.2353 12.8465 20.1228 12.913C20.0465 12.8967 19.9769 12.9202 19.9141 12.9834C19.8283 12.9999 19.7365 13.0195 19.6388 13.0422C19.5473 13.0645 19.4527 13.0869 19.355 13.1096C19.2635 13.1319 19.1653 13.1492 19.0604 13.1617C18.9617 13.1737 18.8654 13.1775 18.7715 13.1731C18.7519 13.1637 18.7426 13.1643 18.7436 13.175C18.745 13.191 18.7393 13.1967 18.7264 13.1922C18.6377 13.1767 18.5521 13.1611 18.4696 13.1452C18.3938 13.1342 18.3174 13.1179 18.2406 13.0962C18.1705 13.0795 18.1025 13.0519 18.0367 13.0134C17.9775 12.9799 17.923 12.9299 17.8733 12.8635C17.86 12.8537 17.8504 12.8516 17.8447 12.8574C17.8457 12.868 17.8397 12.8711 17.8269 12.8666C17.7357 12.8245 17.6584 12.7626 17.5948 12.6811C17.5318 12.6049 17.4601 12.5373 17.3799 12.4783C17.3808 12.4193 17.364 12.3721 17.3296 12.3369C17.2947 12.2963 17.252 12.2724 17.2015 12.2651C17.209 12.2109 17.207 12.1547 17.1955 12.0965C17.1777 12.0387 17.16 11.9809 17.1423 11.9231C17.124 11.8599 17.1061 11.7994 17.0883 11.7416C17.0701 11.6785 17.0619 11.6227 17.0637 11.5743C17.0504 11.5645 17.0411 11.5651 17.0358 11.5762C17.0239 11.5824 17.0113 11.5805 16.9979 11.5707Z" fill="#131416"/>
<path d="M27.8062 6.60176C27.8119 6.59601 27.8212 6.59538 27.8341 6.59988C27.8527 6.59862 27.8615 6.59266 27.8605 6.582C27.8591 6.56601 27.855 6.55555 27.8483 6.55064C27.8474 6.53998 27.8495 6.5291 27.8547 6.51802C27.8609 6.5176 27.8643 6.52006 27.8647 6.52539C27.8709 6.52498 27.8771 6.52456 27.8833 6.52414C27.9057 6.49581 27.9245 6.46236 27.9397 6.42379C27.9611 6.38479 27.9765 6.34888 27.986 6.31606C28.0093 6.29839 28.0296 6.28094 28.0467 6.26369C28.0633 6.24111 28.0697 6.20849 28.0658 6.16584C28.1174 6.18383 28.1577 6.18111 28.1867 6.1577C28.2153 6.12895 28.2491 6.12399 28.2882 6.14281C28.3002 6.13664 28.2997 6.13131 28.2868 6.12681C28.2796 6.11657 28.282 6.10836 28.2939 6.10219C28.3149 6.1276 28.3378 6.13946 28.3626 6.13779C28.3936 6.1357 28.4175 6.15823 28.4343 6.20538C28.4643 6.19263 28.486 6.19117 28.4993 6.201C28.5184 6.20508 28.5406 6.20895 28.5659 6.21261C28.5611 6.22902 28.5623 6.24235 28.5695 6.25259C28.5762 6.25751 28.5829 6.26242 28.5896 6.26733C28.6024 6.27183 28.6125 6.2792 28.6196 6.28945C28.6263 6.29436 28.6275 6.30769 28.6233 6.32943C28.6548 6.33268 28.6857 6.33059 28.7163 6.32317C28.7306 6.34366 28.7428 6.37502 28.7529 6.41726C28.7687 6.45374 28.7752 6.49085 28.7724 6.52859C28.7939 6.55933 28.8125 6.59294 28.8283 6.62942C28.8503 6.66549 28.8633 6.70485 28.8672 6.7475C28.8939 6.76716 28.9075 6.77965 28.908 6.78499C28.909 6.79565 28.903 6.79873 28.8901 6.79424C28.8767 6.78441 28.8772 6.78974 28.8916 6.81023C28.926 6.84546 28.9648 6.86162 29.0082 6.85869C29.0511 6.85044 29.0881 6.84526 29.1191 6.84318C29.2244 6.83607 29.3145 6.83268 29.3894 6.833C29.47 6.82757 29.5472 6.81968 29.6211 6.80934C29.6759 6.79492 29.7312 6.78583 29.787 6.78207C29.8423 6.77297 29.8924 6.77496 29.9372 6.78803C30.0068 6.79943 30.0755 6.80017 30.1432 6.79024C30.2171 6.7799 30.2917 6.77755 30.3671 6.7832C30.4142 6.7532 30.4635 6.7472 30.5151 6.76518C30.5728 6.78275 30.6353 6.7839 30.7025 6.76864C30.7077 6.75756 30.7106 6.75469 30.711 6.76002C30.7172 6.7596 30.726 6.75364 30.7375 6.74215C30.8391 6.76212 30.9547 6.76505 31.0844 6.75095C31.1173 6.77019 31.1526 6.78122 31.1903 6.78404C31.2337 6.78112 31.2806 6.78332 31.3312 6.79064C31.3999 6.79138 31.4726 6.80257 31.5494 6.82421C31.6257 6.84053 31.6975 6.84105 31.7647 6.8258C31.7914 6.84545 31.8208 6.85957 31.8527 6.86814C31.8909 6.8763 31.925 6.874 31.955 6.86125C31.9822 6.88623 32.0151 6.90547 32.0538 6.91896C32.0924 6.93245 32.128 6.94615 32.1604 6.96005C32.1986 6.96821 32.2341 6.98191 32.2671 7.00114C32.3057 7.01463 32.342 7.03633 32.3759 7.06623C32.3831 7.07647 32.389 7.07339 32.3938 7.05698C32.398 7.03523 32.4045 7.03748 32.4131 7.06372C32.5057 7.12185 32.5869 7.19148 32.6566 7.27261C32.7259 7.3484 32.8042 7.42091 32.8916 7.49012C32.8935 7.51144 32.8985 7.53256 32.9067 7.55347C32.9148 7.57438 32.9284 7.58687 32.9475 7.59095C32.9318 7.62419 32.9293 7.6646 32.9398 7.71216C32.9499 7.7544 32.9512 7.80259 32.9437 7.85674C32.9384 7.86782 32.933 7.87624 32.9272 7.88199C32.9277 7.88732 32.9254 7.89553 32.9201 7.90661C32.9206 7.91194 32.9214 7.91994 32.9223 7.9306C32.929 7.93551 32.9326 7.94064 32.9331 7.94597C32.934 7.95663 32.9288 7.96771 32.9174 7.97921C32.9055 7.98538 32.8941 7.99688 32.8831 8.01371C32.8632 8.06869 32.8375 8.12943 32.8062 8.19591C32.781 8.26198 32.7518 8.31759 32.7185 8.36275C32.7128 8.3685 32.6978 8.37488 32.6735 8.38188C32.6315 8.4008 32.597 8.43263 32.5699 8.47737C32.5423 8.51678 32.5049 8.55149 32.4578 8.58149C32.4406 8.59873 32.414 8.61394 32.3778 8.62711C32.3296 8.64645 32.2906 8.66249 32.2605 8.67524C32.2305 8.688 32.1912 8.70137 32.1426 8.71538C32.0793 8.77329 32.0049 8.81317 31.9196 8.83501C31.8338 8.85152 31.7598 8.89406 31.6974 8.96264C31.6897 8.94706 31.6735 8.94011 31.6487 8.94178C31.6021 8.97711 31.5482 9.0022 31.4872 9.01704C31.4324 9.03146 31.3721 9.0543 31.3064 9.08555C31.2768 9.10363 31.2506 9.12417 31.2278 9.14717C31.2107 9.16442 31.1871 9.17942 31.1571 9.19217C31.1075 9.19551 31.0736 9.20047 31.0555 9.20706C31.0379 9.21898 31.0148 9.23931 30.9863 9.26805C30.9562 9.28081 30.9167 9.29152 30.8676 9.30019C30.8185 9.30886 30.7727 9.32 30.7303 9.33358C30.7179 9.33442 30.7122 9.34017 30.7132 9.35083C30.7137 9.35616 30.711 9.3617 30.7053 9.36745C30.6753 9.3802 30.6415 9.38517 30.6038 9.38234C30.5723 9.3791 30.5487 9.3941 30.5331 9.42734C30.5135 9.41793 30.4916 9.41673 30.4672 9.42373C30.4487 9.42498 30.4344 9.43936 30.4244 9.46685C30.3996 9.46852 30.3862 9.45869 30.3843 9.43737C30.3014 9.48587 30.2114 9.52412 30.1141 9.55213C30.0231 9.57973 29.9352 9.60711 29.8504 9.63428C29.7655 9.66146 29.6716 9.69192 29.5687 9.72568C29.4715 9.75369 29.3742 9.7817 29.277 9.80971C29.2928 9.8462 29.3169 9.8714 29.3494 9.8853C29.388 9.89879 29.4241 9.91782 29.4575 9.94239C29.5452 9.9472 29.6218 9.96618 29.6872 9.99933C29.7067 10.0087 29.7263 10.0181 29.7459 10.0276C29.7649 10.0316 29.7788 10.0468 29.7874 10.073C29.8752 10.0778 29.9579 10.0964 30.0357 10.1287C30.113 10.1557 30.1879 10.1909 30.2605 10.2343C30.3306 10.251 30.395 10.2735 30.4537 10.3017C30.5186 10.3295 30.5754 10.3713 30.6241 10.427C30.7024 10.4647 30.7806 10.5023 30.8589 10.5399C30.9429 10.5718 31.0211 10.6095 31.0937 10.6528C31.1662 10.6962 31.23 10.7456 31.2849 10.8009C31.346 10.8558 31.3929 10.925 31.4254 11.0087C31.4383 11.0132 31.4452 11.0207 31.4462 11.0314C31.4472 11.0421 31.4541 11.0497 31.467 11.0542C31.457 11.0816 31.4435 11.104 31.4263 11.1213C31.4154 11.1381 31.4044 11.1549 31.3935 11.1718C31.3959 11.1984 31.401 11.2195 31.4086 11.2351C31.3925 11.263 31.3696 11.286 31.3401 11.3041C31.3205 11.2947 31.3012 11.2879 31.2821 11.2839C31.2692 11.2794 31.2561 11.2722 31.2427 11.2624C31.2308 11.2685 31.2254 11.277 31.2263 11.2876C31.2335 11.2979 31.2304 11.2981 31.217 11.2882C31.2257 11.3145 31.2338 11.3354 31.2414 11.351C31.2548 11.3608 31.2565 11.3795 31.2465 11.407C31.2289 11.4189 31.2163 11.417 31.2086 11.4015C31.2067 11.3801 31.1964 11.3701 31.1778 11.3714C31.1517 11.4268 31.1129 11.4455 31.0613 11.4275C31.0098 11.4095 30.9557 11.3971 30.8989 11.3902C30.9075 11.4164 30.9216 11.4342 30.9412 11.4436C30.9608 11.453 30.9715 11.4684 30.9735 11.4897C30.9744 11.5004 30.969 11.5088 30.9571 11.515C30.9447 11.5158 30.9356 11.5191 30.9299 11.5249C30.8774 11.4962 30.8225 11.4758 30.7653 11.4635C30.7076 11.446 30.6498 11.4284 30.5921 11.4108C30.5406 11.3928 30.4857 11.3724 30.4275 11.3495C30.3755 11.3262 30.3259 11.2947 30.2786 11.2549C30.261 11.2669 30.2395 11.271 30.2142 11.2673C30.1952 11.2632 30.1789 11.2563 30.1656 11.2465C30.1661 11.2518 30.1634 11.2573 30.1577 11.2631C30.1582 11.2684 30.1518 11.2662 30.1384 11.2563C30.1651 11.276 30.195 11.2954 30.2279 11.3147C30.2604 11.3286 30.2871 11.3482 30.3081 11.3736C30.2781 11.3864 30.234 11.3813 30.1758 11.3584C30.1233 11.3298 30.0775 11.306 30.0383 11.2872L29.9918 11.2904C29.9116 11.2314 29.8176 11.1921 29.7098 11.1726C29.6082 11.1526 29.5176 11.1158 29.4379 11.0622C29.1965 11.0141 28.9571 10.9524 28.7195 10.8772C28.4881 10.8016 28.257 10.7287 28.0261 10.6584C28.0013 10.6601 27.9893 10.6663 27.9903 10.6769C27.9569 10.6524 27.9111 10.6286 27.8529 10.6057C27.8009 10.5824 27.7496 10.5671 27.699 10.5598C27.6866 10.5606 27.6745 10.5641 27.6626 10.5703C27.6564 10.5707 27.6468 10.5687 27.634 10.5642L27.6332 10.5562L27.6232 10.5488C27.6098 10.539 27.5907 10.5349 27.566 10.5366C27.5469 10.5325 27.5214 10.5262 27.4894 10.5176C27.4569 10.5037 27.4307 10.4894 27.4106 10.4746C27.3901 10.4545 27.3739 10.4476 27.362 10.4538C27.3496 10.4546 27.3351 10.4663 27.3184 10.4889C27.308 10.511 27.2946 10.5361 27.2785 10.564C27.2623 10.5919 27.2461 10.6198 27.23 10.6477C27.22 10.6752 27.2127 10.6972 27.2079 10.7136C27.186 10.7472 27.1668 10.7754 27.1501 10.7979C27.1335 10.8205 27.1206 10.8509 27.1117 10.889C27.1198 10.91 27.121 10.9233 27.1153 10.929C27.1096 10.9348 27.1077 10.9483 27.1096 10.9696C27.0806 10.9931 27.0616 11.0238 27.0526 11.062C27.0436 11.1002 27.0246 11.1309 26.9955 11.1544C26.9893 11.1548 26.9862 11.155 26.9862 11.155C26.9857 11.1497 26.9793 11.1474 26.9669 11.1482C26.9564 11.1704 26.9395 11.1903 26.9162 11.208C26.8991 11.2252 26.8862 11.2556 26.8777 11.2991C26.8653 11.2999 26.8594 11.303 26.8599 11.3083C26.8604 11.3137 26.857 11.3112 26.8498 11.301C26.8346 11.3395 26.813 11.3759 26.7849 11.4099C26.7564 11.4387 26.7378 11.4748 26.7293 11.5183C26.6428 11.6636 26.556 11.8062 26.469 11.9462C26.3881 12.0858 26.3014 12.2284 26.2086 12.3741L26.1714 12.3766C26.1667 12.393 26.1586 12.407 26.1472 12.4185C26.1424 12.4349 26.1377 12.4513 26.133 12.4677C26.1201 12.4632 26.1077 12.4641 26.0958 12.4702C26.0905 12.4813 26.0812 12.482 26.0679 12.4721C26.0669 12.4615 26.0716 12.445 26.0821 12.4229C26.0988 12.4003 26.1092 12.3781 26.1135 12.3564C26.0996 12.3412 26.0865 12.3341 26.0741 12.3349C26.0617 12.3358 26.046 12.3341 26.0269 12.3301C26.0198 12.3895 25.9996 12.4419 25.9663 12.487C25.9397 12.5371 25.9296 12.5968 25.9359 12.6661C25.9111 12.6678 25.8965 12.6446 25.8921 12.5966C25.8883 12.554 25.8918 12.5242 25.9027 12.5074C25.8946 12.4865 25.8812 12.4767 25.8626 12.4779C25.8502 12.4787 25.835 12.4825 25.8169 12.489C25.8054 12.5005 25.7971 12.5118 25.7919 12.5229C25.7871 12.5393 25.7917 12.5551 25.8055 12.5703C25.7755 12.583 25.7507 12.5847 25.7312 12.5753C25.7183 12.5708 25.7049 12.561 25.6911 12.5458C25.6772 12.5306 25.6631 12.5128 25.6488 12.4923C25.6406 12.4714 25.6299 12.456 25.6165 12.4462C25.5937 12.4692 25.5899 12.4963 25.6052 12.5274C25.621 12.5639 25.627 12.5957 25.6233 12.6228C25.6366 12.6326 25.6483 12.6238 25.6583 12.5963C25.6749 12.5737 25.6899 12.5673 25.7033 12.5772C25.6933 12.6047 25.6764 12.6246 25.6526 12.6369C25.6293 12.6546 25.6078 12.6587 25.5882 12.6493C25.5964 12.6702 25.5945 12.6837 25.5826 12.6899C25.5769 12.6956 25.5748 12.7065 25.5762 12.7225C25.5658 12.7447 25.5696 12.7525 25.5877 12.7459C25.6125 12.7442 25.6192 12.7491 25.6077 12.7606C25.6226 12.7864 25.6138 12.7924 25.5813 12.7785C25.5555 12.7695 25.5498 12.7753 25.5642 12.7957C25.5327 12.7925 25.5122 12.7724 25.5026 12.7355C25.4992 12.6982 25.4958 12.6609 25.4924 12.6236C25.4771 12.5924 25.457 12.5777 25.4322 12.5793C25.4293 12.5473 25.4261 12.5127 25.4227 12.4754C25.426 12.443 25.4172 12.4141 25.3961 12.3887C25.4175 12.3497 25.4284 12.298 25.4288 12.2336C25.4296 12.1745 25.4272 12.113 25.4213 12.049C25.4222 11.9899 25.4261 11.9307 25.4332 11.8712C25.4402 11.8117 25.4604 11.7594 25.4937 11.7142C25.4913 11.6876 25.4867 11.6718 25.4801 11.6669C25.4734 11.662 25.4662 11.6517 25.4586 11.6361C25.5169 11.4552 25.5726 11.2798 25.6258 11.1099C25.6846 10.9343 25.747 10.7638 25.813 10.5984C25.8292 10.5705 25.8477 10.5344 25.8686 10.49C25.8957 10.4453 25.9102 10.3987 25.912 10.3503C25.9062 10.2863 25.8823 10.2289 25.8402 10.1781C25.8044 10.1269 25.7624 10.111 25.7143 10.1303C25.7009 10.1205 25.6935 10.1076 25.692 10.0916C25.6906 10.0756 25.6956 10.0618 25.707 10.0503C25.6864 10.0303 25.6688 10.0073 25.6539 9.98149C25.6386 9.95033 25.6236 9.92184 25.6087 9.89602C25.623 9.84678 25.6281 9.80084 25.6242 9.75819C25.6204 9.71553 25.6153 9.65955 25.6089 9.59024C25.6179 9.55209 25.6305 9.51905 25.6467 9.49114C25.6629 9.46323 25.6695 9.43328 25.6666 9.40129C25.7104 9.4037 25.7622 9.38948 25.8217 9.35865C25.8813 9.32781 25.9389 9.31052 25.9947 9.30676C26.0319 9.30425 26.0662 9.30462 26.0977 9.30786C26.1349 9.30535 26.1575 9.27969 26.1655 9.23087C26.1789 9.2407 26.192 9.24786 26.2049 9.25236C26.2173 9.25152 26.2302 9.25602 26.2435 9.26585C26.2807 9.26334 26.3141 9.25305 26.3436 9.23496C26.3794 9.21646 26.4074 9.18238 26.4279 9.13273C26.4654 9.06582 26.496 8.99134 26.5197 8.90928C26.5497 8.8268 26.5855 8.74124 26.6273 8.65259C26.681 8.55778 26.7288 8.46605 26.7706 8.3774C26.812 8.28342 26.8502 8.18965 26.8853 8.09609C26.6454 8.06398 26.4123 8.07165 26.1859 8.11909C25.959 8.16121 25.7416 8.20536 25.5338 8.25155C25.5547 8.20723 25.5899 8.1834 25.6395 8.18005C25.6886 8.17138 25.7341 8.15758 25.7761 8.13867C25.7689 8.12842 25.762 8.12084 25.7553 8.11593C25.7486 8.11101 25.7417 8.10343 25.7345 8.09319C25.52 8.13447 25.3194 8.1909 25.1326 8.2625C24.9458 8.3341 24.7635 8.38662 24.5857 8.42006C24.5738 8.42622 24.5654 8.43751 24.5607 8.45393C24.5617 8.46459 24.5531 8.47321 24.535 8.4798C24.4782 8.47289 24.432 8.47869 24.3963 8.49719C24.3538 8.51078 24.3133 8.51083 24.2747 8.49734C24.2722 8.47069 24.2803 8.45673 24.2989 8.45548C24.317 8.44889 24.3184 8.43002 24.3031 8.39887C24.3103 8.40911 24.3198 8.41115 24.3317 8.40499C24.337 8.3939 24.3391 8.38303 24.3381 8.37237C24.3233 8.34655 24.3076 8.34493 24.2909 8.36751C24.2676 8.38517 24.2482 8.37843 24.2329 8.34727C24.2029 8.36003 24.1793 8.37503 24.1622 8.39227C24.1384 8.40461 24.1043 8.4069 24.0599 8.39917C24.0466 8.38934 24.0389 8.37376 24.037 8.35243C24.0283 8.32619 24.014 8.3057 23.994 8.29096C24.0144 8.24131 24.0155 8.18491 23.9973 8.12177C24.0196 8.09344 24.0456 8.07023 24.0751 8.05215C24.0979 8.02915 24.1139 7.99857 24.1229 7.96042C24.1362 7.97024 24.1489 7.97207 24.1608 7.96591C24.1727 7.95974 24.1853 7.96157 24.1987 7.9714C24.3503 7.92363 24.4918 7.8685 24.6233 7.80599C24.6228 7.80066 24.6225 7.798 24.6225 7.798C24.6402 7.78608 24.6733 7.77312 24.7219 7.75911C24.77 7.73978 24.8031 7.72682 24.8213 7.72023C24.8932 7.68856 24.9659 7.66489 25.0393 7.64921C25.1184 7.62779 25.1875 7.59899 25.2466 7.56282C25.3676 7.52248 25.4958 7.49238 25.6312 7.47253C25.7661 7.44734 25.9041 7.42195 26.0452 7.39635C26.2964 7.34723 26.5407 7.29053 26.778 7.22626C27.0154 7.16198 27.2473 7.10612 27.4737 7.05868C27.4742 7.06401 27.4751 7.07467 27.4766 7.09067C27.4838 7.10091 27.4933 7.10295 27.5052 7.09678C27.5166 7.08528 27.5312 7.07358 27.5488 7.06166C27.5726 7.04933 27.5902 7.03741 27.6016 7.02591C27.6131 7.01441 27.635 6.98075 27.6673 6.92493C27.6996 6.86911 27.7182 6.83299 27.7229 6.81658C27.7286 6.81083 27.7281 6.8055 27.7214 6.80058C27.7205 6.78992 27.7195 6.77926 27.7185 6.7686C27.7419 6.75093 27.7649 6.7306 27.7878 6.7076C27.8102 6.67927 27.8163 6.64399 27.8062 6.60176ZM28.2882 8.70963C28.3373 8.70095 28.3954 8.68899 28.4626 8.67373C28.5299 8.65847 28.5701 8.62089 28.5833 8.56099C28.631 8.53632 28.6789 8.51432 28.727 8.49498C28.7808 8.4699 28.8323 8.45302 28.8814 8.44434C28.9243 8.43609 28.9605 8.42292 28.99 8.40484C29.0196 8.38675 29.0553 8.36825 29.0972 8.34933C29.1635 8.32341 29.2392 8.29953 29.3246 8.27769C29.4161 8.25543 29.4916 8.22888 29.5512 8.19804C29.5611 8.17055 29.578 8.15063 29.6018 8.1383C29.6338 8.14688 29.6555 8.14541 29.6669 8.13391C29.6845 8.122 29.7062 8.12054 29.732 8.12953C29.8253 8.05887 29.9297 8.00624 30.045 7.97164C30.1603 7.93705 30.2642 7.87909 30.3566 7.79776C30.2373 7.7897 30.1065 7.79048 29.9639 7.80009C29.8275 7.80928 29.695 7.82626 29.5663 7.85102C29.4805 7.86753 29.3968 7.87317 29.3153 7.86794C29.2338 7.86271 29.1563 7.86793 29.0829 7.88361C28.9785 7.90137 28.8839 7.92384 28.799 7.95102C28.7137 7.97286 28.6253 7.99491 28.5338 8.01717C28.5058 8.12098 28.4679 8.21741 28.4198 8.30648C28.3718 8.39554 28.3341 8.49464 28.3066 8.60378C28.3081 8.61978 28.315 8.62735 28.3274 8.62652C28.3393 8.62035 28.3431 8.62814 28.3389 8.64988C28.3212 8.6618 28.3091 8.6653 28.3024 8.66039C28.2957 8.65547 28.2874 8.66676 28.2774 8.69426C28.2846 8.7045 28.2882 8.70963 28.2882 8.70963ZM32.887 7.74791C32.8884 7.76391 32.887 7.78278 32.8828 7.80452C32.878 7.82093 32.8823 7.83405 32.8957 7.84388C32.8881 7.8283 32.8897 7.8121 32.9006 7.79527C32.9111 7.77311 32.9065 7.75732 32.887 7.74791Z" fill="#131416"/>
<path d="M30.8792 12.526C30.843 12.5392 30.8051 12.5337 30.7655 12.5096C30.7197 12.4858 30.6684 12.4705 30.6116 12.4636C30.5992 12.4644 30.5907 12.4731 30.5859 12.4895C30.5812 12.5059 30.5719 12.5065 30.558 12.4914C30.568 12.4639 30.562 12.4321 30.54 12.396C30.5296 12.4182 30.5255 12.4426 30.528 12.4692C30.497 12.4713 30.4676 12.4572 30.4399 12.4269C30.439 12.4162 30.4411 12.4054 30.4463 12.3943C30.4458 12.3889 30.4613 12.3879 30.4928 12.3911L30.487 12.3272C30.4936 12.3321 30.4965 12.3292 30.4955 12.3185C30.4946 12.3079 30.5005 12.3048 30.5134 12.3093C30.5067 12.3044 30.506 12.2964 30.5112 12.2853C30.5102 12.2746 30.5033 12.2671 30.4904 12.2626C30.4847 12.2683 30.4852 12.2736 30.4919 12.2786C30.4991 12.2888 30.5 12.2995 30.4948 12.3105C30.4876 12.3003 30.474 12.2878 30.454 12.2731C30.4344 12.2637 30.4187 12.262 30.4068 12.2682L30.3958 12.1482C30.3686 12.1233 30.3354 12.1014 30.2963 12.0825C30.2577 12.069 30.2512 12.0319 30.2768 11.9712C30.3011 11.9642 30.3247 11.9492 30.3475 11.9262C30.3704 11.9032 30.3773 11.8759 30.3682 11.8443L30.4425 11.8393C30.5039 11.7601 30.5655 11.6835 30.6274 11.6096C30.6831 11.5361 30.7447 11.4596 30.8123 11.3799C30.6883 11.3883 30.562 11.4048 30.4333 11.4296C30.2984 11.4548 30.1861 11.4543 30.0964 11.4282C30.0793 11.4454 30.0552 11.4551 30.0242 11.4572C29.987 11.4597 29.9572 11.4751 29.9349 11.5034C29.921 11.4882 29.9081 11.4838 29.8962 11.4899C29.8843 11.4961 29.8714 11.4916 29.8576 11.4764C29.8661 11.4329 29.8889 11.4099 29.9261 11.4074C29.9566 11.4 29.9836 11.3875 30.0069 11.3698C29.9945 11.3706 29.9852 11.3713 29.979 11.3717C29.9661 11.3672 29.9468 11.3605 29.921 11.3515C29.9044 11.374 29.8841 11.3915 29.8603 11.4038C29.8298 11.4112 29.8093 11.426 29.7989 11.4482C29.7655 11.4236 29.734 11.4204 29.7045 11.4385C29.6682 11.4516 29.6447 11.4666 29.6337 11.4835C29.6328 11.4728 29.6292 11.4677 29.623 11.4681C29.6106 11.4689 29.6039 11.464 29.6029 11.4534C29.6015 11.4374 29.6098 11.4261 29.6279 11.4195C29.6398 11.4133 29.6391 11.4053 29.6257 11.3955C29.6233 11.3688 29.629 11.3631 29.6429 11.3783C29.6567 11.3934 29.6727 11.3977 29.6908 11.3911C29.6898 11.3805 29.6858 11.37 29.6786 11.3598L29.6463 11.3136C29.5977 11.3277 29.5577 11.333 29.5262 11.3298C29.4947 11.3265 29.4583 11.3371 29.4168 11.3613C29.4087 11.3404 29.4046 11.3299 29.4046 11.3299C29.4041 11.3246 29.4027 11.3086 29.4002 11.282C29.4317 11.2852 29.4548 11.2649 29.4695 11.221L29.4795 11.2283C29.48 11.2337 29.4836 11.2388 29.4903 11.2437C29.4903 11.2437 29.4905 11.2464 29.491 11.2517C29.561 11.1987 29.6322 11.159 29.7047 11.1327C29.7771 11.1064 29.8493 11.0773 29.9212 11.0457C29.9508 11.0276 29.9903 11.0169 30.0399 11.0135C30.0828 11.0053 30.1093 10.9874 30.1192 10.9599C30.1326 10.9697 30.1512 10.9685 30.175 10.9562C30.1926 10.9442 30.2084 10.9459 30.2222 10.961C30.2274 10.9499 30.2329 10.9415 30.2386 10.9358C30.2443 10.93 30.2527 10.9187 30.2636 10.9019C30.3146 10.9146 30.3606 10.9061 30.4016 10.8765C30.4421 10.8416 30.4904 10.8249 30.5467 10.8265C30.5653 10.8252 30.5736 10.814 30.5717 10.7926C30.6022 10.7852 30.6363 10.7829 30.674 10.7857C30.7111 10.7832 30.7371 10.76 30.7518 10.7161C30.7127 10.6973 30.6848 10.6992 30.6681 10.7218C30.6448 10.7394 30.6207 10.7491 30.5959 10.7508C30.6002 10.729 30.6171 10.7091 30.6466 10.691C30.6757 10.6676 30.7083 10.6493 30.7445 10.6361C30.7855 10.6066 30.8336 10.5872 30.8889 10.5781C30.9437 10.5637 31.0052 10.5542 31.0734 10.5496C31.0858 10.5488 31.0948 10.5455 31.1005 10.5397C31.0996 10.5291 31.1017 10.5182 31.1069 10.5071C31.198 10.4795 31.2766 10.4528 31.3428 10.4268C31.4086 10.3956 31.5022 10.3625 31.6237 10.3275C31.6299 10.327 31.6326 10.3215 31.6316 10.3108C31.6306 10.3002 31.6361 10.2918 31.648 10.2856C31.6671 10.2897 31.68 10.2942 31.6866 10.2991C31.6928 10.2987 31.7019 10.2954 31.7138 10.2892C31.7228 10.251 31.7485 10.2252 31.7909 10.2116C31.8333 10.198 31.8557 10.1697 31.858 10.1266C31.8952 10.1241 31.9185 10.1064 31.928 10.0736C31.9375 10.0408 31.958 10.026 31.9895 10.0292C32.0636 9.88475 32.1518 9.75811 32.2542 9.64929C32.3622 9.53472 32.4541 9.4132 32.5297 9.28473C32.5649 9.26089 32.5811 9.23298 32.5782 9.20099C32.5843 9.20058 32.5877 9.20303 32.5882 9.20837C32.5944 9.20795 32.6037 9.20732 32.6161 9.20649C32.6231 9.147 32.6502 9.10226 32.6974 9.07226C32.7502 9.03651 32.7795 8.9809 32.7851 8.90542C32.866 8.8356 32.9334 8.75328 32.9871 8.65846C33.047 8.56323 33.1205 8.48049 33.2077 8.41025C33.2214 8.35568 33.239 8.3089 33.2604 8.26991C33.288 8.2305 33.3158 8.19375 33.3439 8.15967C33.3777 8.11985 33.4084 8.08023 33.4359 8.04082C33.4635 8.00141 33.4844 7.95708 33.4987 7.90785C33.5677 7.84419 33.6203 7.77091 33.6564 7.68801C33.6987 7.6047 33.7543 7.53121 33.8234 7.46755C33.8376 7.41831 33.8587 7.37665 33.8868 7.34258C33.9206 7.30275 33.9477 7.25801 33.9681 7.20835C34.0481 7.12786 34.1152 7.04287 34.1694 6.95339C34.2236 6.86391 34.2914 6.78692 34.3729 6.72243C34.3781 6.71134 34.3836 6.70293 34.3893 6.69718C34.4012 6.69101 34.4033 6.68014 34.3957 6.66456C34.499 6.56641 34.5796 6.45905 34.6376 6.34249C34.7447 6.21726 34.8463 6.10045 34.9424 5.99204C35.0448 5.88323 35.134 5.76725 35.2101 5.6441C35.241 5.64201 35.2618 5.62989 35.2722 5.60773C35.2884 5.57982 35.3019 5.55745 35.3129 5.54062C35.361 5.52128 35.396 5.49478 35.4179 5.46112C35.4398 5.42746 35.4681 5.39605 35.5028 5.36688C35.5229 5.38162 35.5384 5.38058 35.5493 5.36375C35.5665 5.3465 35.5872 5.33438 35.6115 5.32737C35.6192 5.34295 35.6147 5.36203 35.598 5.38461C35.5809 5.40186 35.5635 5.41644 35.5459 5.42836C35.5902 5.43609 35.6436 5.44054 35.7061 5.4417C35.7681 5.43752 35.8274 5.43888 35.8842 5.44578C35.9467 5.44694 36.0037 5.45651 36.0552 5.47449C36.1124 5.48673 36.1582 5.51046 36.1926 5.54569C36.1879 5.56211 36.1862 5.57831 36.1877 5.5943C36.1887 5.60497 36.1796 5.60826 36.1605 5.60418C36.1801 5.61359 36.2006 5.63366 36.2221 5.6644C36.2432 5.68981 36.2625 5.69655 36.2801 5.68463C36.3064 5.69896 36.3236 5.71657 36.3317 5.73748C36.346 5.75797 36.3694 5.77517 36.4019 5.78908C36.3914 5.81124 36.3936 5.83523 36.4084 5.86105C36.429 5.88113 36.4521 5.89566 36.4779 5.90465C36.478 5.97438 36.4841 6.04102 36.4961 6.10458C36.5076 6.16281 36.5163 6.22392 36.5221 6.2879C36.5337 6.34613 36.5359 6.40498 36.5289 6.46447C36.528 6.52353 36.515 6.5861 36.4898 6.65216C36.4937 6.69482 36.4938 6.72968 36.49 6.75676C36.4858 6.7785 36.4786 6.80312 36.4687 6.83061C36.4644 6.85236 36.4573 6.87697 36.4473 6.90447C36.4436 6.93154 36.4439 6.96907 36.4482 7.01706C36.4146 7.12661 36.3881 7.24641 36.3687 7.37646C36.3556 7.50609 36.3288 7.62322 36.2885 7.72786C36.3053 7.77501 36.307 7.82854 36.2938 7.88844C36.28 7.94301 36.2596 7.99266 36.2325 8.0374C36.2408 8.12804 36.233 8.21439 36.2093 8.29645C36.1918 8.3781 36.1807 8.46199 36.1761 8.54813C36.1699 8.54855 36.1645 8.55696 36.1597 8.57337C36.1607 8.58404 36.1547 8.58712 36.1418 8.58263C36.1428 8.59329 36.1464 8.59841 36.1526 8.59799C36.165 8.59716 36.1717 8.60207 36.1727 8.61273C36.139 8.72229 36.117 8.82301 36.1066 8.9149C36.0958 9.00146 36.0891 9.09847 36.0864 9.20594C36.1074 9.23134 36.1301 9.24055 36.1544 9.23354C36.1782 9.22121 36.2025 9.21421 36.2273 9.21254C36.2654 9.22069 36.3007 9.23172 36.3332 9.24563C36.3656 9.25954 36.4036 9.26503 36.4469 9.2621C36.4717 9.26043 36.4932 9.2563 36.5113 9.24972C36.5289 9.2378 36.5478 9.23922 36.5678 9.25396C36.5812 9.26378 36.5876 9.26603 36.5871 9.2607C36.5866 9.25537 36.5926 9.25229 36.605 9.25145C36.6647 9.29034 36.7365 9.32573 36.8205 9.35763C36.9044 9.38952 36.9741 9.43578 37.0295 9.49642C37.0181 9.50792 37.0165 9.52412 37.0246 9.54503C37.0323 9.5606 37.0397 9.57352 37.0468 9.58376C37.0478 9.59442 37.0488 9.60509 37.0498 9.61575C37.0507 9.62641 37.0481 9.63195 37.0419 9.63237C37.0491 9.64262 37.0565 9.65553 37.0641 9.67111C37.0718 9.68668 37.0916 9.69876 37.1236 9.70733C37.1245 9.718 37.1193 9.72908 37.1079 9.74057C37.096 9.74674 37.0843 9.75557 37.0729 9.76707C37.0882 9.79823 37.0963 9.81914 37.0973 9.8298C37.104 9.83471 37.1114 9.84762 37.1195 9.86853C37.0948 9.8702 37.0867 9.88416 37.0953 9.9104C37.1096 9.93089 37.1047 9.94464 37.0803 9.95164L37.0869 10.0236C37.0817 10.0347 37.0795 10.0456 37.0805 10.0562C37.081 10.0616 37.0758 10.0726 37.0648 10.0895C36.981 10.1273 36.8933 10.1574 36.8018 10.1796C36.7098 10.1966 36.6149 10.2164 36.5172 10.239C36.419 10.2564 36.318 10.2766 36.2141 10.2997C36.1101 10.3228 36.0039 10.3541 35.8952 10.3936C35.89 10.4047 35.8848 10.4158 35.8795 10.4268C35.8738 10.4326 35.8748 10.4433 35.8825 10.4588C35.8391 10.4618 35.8174 10.4632 35.8174 10.4632C35.8064 10.4801 35.7986 10.4967 35.7939 10.5131C35.7953 10.5291 35.7875 10.5457 35.7703 10.563C35.7734 10.6647 35.7554 10.7758 35.7165 10.8965C35.6776 11.0171 35.6344 11.1246 35.5869 11.219C35.5592 11.1887 35.5522 11.1463 35.5659 11.0917C35.5792 11.0318 35.5662 10.9924 35.5271 10.9736C35.5124 11.0175 35.5039 11.061 35.5016 11.1041C35.505 11.1414 35.5086 11.1814 35.5125 11.224C35.5001 11.2249 35.4939 11.2253 35.4939 11.2253C35.4815 11.2261 35.4782 11.2237 35.4839 11.2179C35.4896 11.2122 35.4886 11.2015 35.481 11.1859C35.4457 11.2098 35.4398 11.2477 35.4633 11.2998C35.4395 11.3121 35.4252 11.3265 35.4204 11.3429C35.4157 11.3593 35.411 11.3757 35.4062 11.3921C35.4082 11.4135 35.4037 11.4325 35.3927 11.4494C35.3885 11.4711 35.3742 11.4855 35.3499 11.4925C35.3484 11.4765 35.3436 11.458 35.3355 11.4371C35.334 11.4211 35.324 11.4138 35.3054 11.415C35.3221 11.3924 35.3204 11.3738 35.3003 11.359C35.2703 11.3718 35.2501 11.3893 35.2396 11.4114C35.2296 11.4389 35.2197 11.4664 35.2097 11.4939C35.2064 11.5263 35.1995 11.5536 35.1891 11.5757C35.1791 11.6032 35.1625 11.6258 35.1391 11.6435C35.1248 11.623 35.1159 11.5941 35.1125 11.5568C35.1091 11.5194 35.1062 11.4875 35.1038 11.4608C35.0862 11.4727 35.0819 11.4945 35.091 11.526C35.1001 11.5576 35.0956 11.5767 35.0775 11.5833C35.0656 11.5894 35.0561 11.5874 35.0489 11.5771C35.0479 11.5665 35.0413 11.5616 35.0289 11.5624C35.0174 11.5739 35.006 11.5854 34.9946 11.5969C34.9898 11.6133 34.9884 11.6322 34.9904 11.6535C34.9666 11.6658 34.9511 11.6669 34.9439 11.6566C34.9372 11.6517 34.9277 11.6497 34.9153 11.6505C34.9129 11.6239 34.9107 11.5999 34.9087 11.5785C34.9135 11.5621 34.9149 11.5433 34.9129 11.5219C34.9124 11.5166 34.9091 11.5142 34.9029 11.5146C34.9034 11.5199 34.9034 11.5199 34.9029 11.5146C34.895 11.3595 34.8852 11.218 34.8736 11.0901C34.8676 10.9564 34.8648 10.8225 34.8651 10.6883C34.723 10.7033 34.5502 10.723 34.3466 10.7474C34.143 10.7719 33.971 10.7996 33.8304 10.8305C33.8122 10.8371 33.8006 10.8459 33.7953 10.857C33.7963 10.8677 33.7911 10.8787 33.7797 10.8902C33.7668 10.8857 33.763 10.8779 33.7682 10.8669C33.7734 10.8558 33.7698 10.8507 33.7574 10.8515C33.7584 10.8622 33.7491 10.8628 33.7295 10.8534C33.7095 10.8386 33.7007 10.8446 33.7031 10.8713C33.5787 10.8743 33.4588 10.8931 33.3434 10.9277C33.2276 10.9569 33.1082 10.9811 32.9852 11.0001C32.949 11.0133 32.9092 11.0213 32.8658 11.0242C32.822 11.0218 32.786 11.0377 32.7579 11.0717C32.7264 11.0685 32.7045 11.0673 32.6921 11.0681C32.6854 11.0632 32.6759 11.0612 32.6635 11.062C32.4474 11.2912 32.2439 11.5221 32.0531 11.7549C31.8623 11.9877 31.6545 12.2056 31.4298 12.4085C31.4045 12.4048 31.3799 12.4091 31.3561 12.4215C31.3266 12.4396 31.3033 12.4572 31.2861 12.4745C31.2542 12.4659 31.2206 12.4735 31.1853 12.4974C31.1506 12.5265 31.1074 12.5321 31.0559 12.5141C31.0197 12.5273 30.9992 12.5421 30.9944 12.5585C30.962 12.5446 30.9305 12.5413 30.9 12.5488C30.8633 12.5566 30.8383 12.5556 30.8249 12.5458C30.8368 12.5396 30.8459 12.5363 30.8521 12.5359C30.8583 12.5355 30.8673 12.5322 30.8792 12.526ZM34.6885 9.46913C34.6861 9.44247 34.6942 9.42851 34.7128 9.42726C34.7371 9.42026 34.7573 9.4028 34.7735 9.37489C34.7878 9.39538 34.8038 9.39967 34.8214 9.38775C34.8452 9.37542 34.8634 9.36883 34.8758 9.368C34.8696 9.09483 34.8775 8.8395 34.8995 8.60198C34.9215 8.36447 34.9369 8.12204 34.9455 7.8747C34.8337 8.01635 34.7353 8.16782 34.6502 8.32912C34.5708 8.48467 34.4716 8.62814 34.3526 8.75954C34.2747 8.93108 34.1832 9.09014 34.0781 9.23669C33.9729 9.38325 33.8678 9.52981 33.7626 9.67637L33.7663 9.71635C33.9236 9.66284 34.0761 9.62574 34.2239 9.60505C34.3711 9.57903 34.526 9.53372 34.6885 9.46913Z" fill="#131416"/>
</svg>
