<svg width="263" height="146" viewBox="0 0 263 146" fill="none" xmlns="http://www.w3.org/2000/svg">
<path d="M0.0917969 146V124.545C0.0917969 113.574 0.647273 105.103 1.75822 99.1318C3.00804 93.0216 5.22994 87.6751 8.42393 83.0924C13.1455 76.2879 21.061 71.2886 32.1705 68.0946L67.3737 58.0961C75.1504 55.8742 79.8025 53.6522 81.3301 51.4303C82.7188 49.4862 83.4131 46.4311 83.4131 42.265C83.4131 38.6544 82.7188 36.2242 81.3301 34.9744C79.9414 33.7246 75.9836 33.0997 69.4568 33.0997H60.0831C53.9729 33.0997 50.0846 33.9329 48.4182 35.5993C46.474 37.5435 45.5019 42.8899 45.5019 51.6387H3.63295C3.49408 39.1405 4.18843 29.6279 5.71599 23.1011C7.24354 16.4354 9.81262 11.2973 13.4232 7.68666C18.4225 2.68738 28.1433 0.187744 42.5857 0.187744H91.9535C103.48 0.187744 111.742 2.82625 116.742 8.10327C124.241 15.8799 127.573 28.031 126.74 44.5563C126.046 57.1934 123.268 66.4976 118.408 72.469C113.409 78.7181 104.66 83.6479 92.1618 87.2585L59.4582 96.8405C53.0703 98.6458 48.6959 100.937 46.3351 103.714C44.8076 105.52 44.0438 108.158 44.0438 111.63V112.255H126.532V146H0.0917969Z" fill="white"/>
<path d="M206.73 87.2585H182.15V56.8462H205.897C209.508 56.8462 211.938 56.2213 213.188 54.9715C214.993 52.8885 215.896 49.5556 215.896 44.9729C215.896 40.2514 215.062 37.0574 213.396 35.391C212.007 34.0023 209.438 33.308 205.689 33.308H189.858C184.72 33.308 181.456 33.9329 180.067 35.1827C179.234 36.0159 178.609 37.474 178.193 39.5571C177.915 41.6401 177.568 46.3616 177.151 53.7217H134.449C134.727 41.2235 135.699 31.5027 137.365 24.5592C139.032 17.6158 141.879 12.1305 145.906 8.10327C151.322 2.82625 161.32 0.187744 175.901 0.187744H223.603C236.656 0.187744 246.1 3.10399 251.932 8.93648C258.32 15.4633 261.514 24.9064 261.514 37.2657C261.514 55.1798 253.876 66.5671 238.601 71.4275V71.8441C254.848 75.8713 262.972 87.2585 262.972 106.006C262.972 118.782 259.084 129.058 251.307 136.835C245.197 142.945 235.754 146 222.978 146H174.443C166.389 146 160.14 145.445 155.696 144.334C151.391 143.084 147.711 140.931 144.656 137.876C140.629 133.849 137.782 128.086 136.115 120.587C134.449 112.949 133.477 102.673 133.199 89.7581H175.901C176.596 102.812 177.568 109.894 178.818 111.005C180.345 112.255 183.886 112.88 189.441 112.88H206.522C210.271 112.88 212.84 112.185 214.229 110.797C216.173 108.853 217.145 105.311 217.145 100.173C217.145 94.7574 216.243 91.1468 214.437 89.3415C213.049 87.9529 210.48 87.2585 206.73 87.2585Z" fill="white"/>
</svg>
