<svg width="68" height="68" viewBox="0 0 68 68" fill="none" xmlns="http://www.w3.org/2000/svg">
<path d="M22.6071 45.248C22.0517 44.7301 21.9776 43.8893 22.4043 43.2861L22.5331 43.1279L40.5169 23.8444L27.0818 24.3411C26.2539 24.3718 25.5579 23.7256 25.5272 22.8977C25.4993 22.1451 26.0309 21.5015 26.7497 21.3676L26.9706 21.3432L44.0342 20.7105C44.1433 20.7065 44.2501 20.7142 44.3534 20.7325C44.3838 20.7388 44.4148 20.7453 44.4456 20.7528C44.4727 20.7585 44.4996 20.7659 44.5261 20.7739C44.5641 20.7862 44.6028 20.7997 44.6409 20.8147C44.6708 20.8259 44.6987 20.8379 44.7261 20.8508C44.7598 20.8671 44.7951 20.8853 44.8297 20.9049C44.8541 20.9184 44.8769 20.9321 44.8992 20.9465C44.9322 20.9681 44.9654 20.9914 44.998 21.0162C45.0231 21.0348 45.047 21.0542 45.0703 21.0743C45.0841 21.0869 45.0987 21.0999 45.113 21.1133L45.155 21.1535C45.1758 21.1744 45.1959 21.1959 45.2154 21.218L45.113 21.1133C45.1823 21.1778 45.244 21.2474 45.2983 21.3209C45.3113 21.3384 45.3242 21.3568 45.3368 21.3755C45.3625 21.4141 45.3859 21.4527 45.4074 21.4922C45.4182 21.5117 45.4292 21.5331 45.4397 21.5547C45.4608 21.5983 45.4792 21.6416 45.4956 21.6855C45.5034 21.7061 45.511 21.7281 45.5182 21.7504C45.5298 21.7869 45.5397 21.8226 45.5484 21.8585C45.5545 21.884 45.5603 21.9112 45.5653 21.9386L45.5691 21.9599C45.5801 22.0254 45.5868 22.0916 45.5891 22.158L45.5889 22.1602L46.1496 39.2277C46.1768 40.0557 45.5276 40.7489 44.6996 40.7761C43.9469 40.8009 43.3055 40.2666 43.1747 39.5472L43.1512 39.3262L42.7082 25.8933L24.7271 45.1739C24.1621 45.7798 23.213 45.8129 22.6071 45.248Z" fill="black"/>
</svg>
