<svg width="68" height="68" viewBox="0 0 68 68" fill="none" xmlns="http://www.w3.org/2000/svg">
<path d="M22.6071 45.2482C22.0517 44.7303 21.9776 43.8896 22.4043 43.2864L22.5331 43.1282L40.5169 23.8447L27.0818 24.3414C26.2539 24.3721 25.5579 23.7259 25.5272 22.898C25.4993 22.1454 26.0309 21.5018 26.7497 21.3679L26.9706 21.3434L44.0342 20.7108C44.1433 20.7067 44.2501 20.7145 44.3534 20.7328C44.3838 20.7391 44.4148 20.7456 44.4456 20.7531C44.4727 20.7588 44.4996 20.7661 44.5261 20.7742C44.5641 20.7865 44.6028 20.7999 44.6409 20.815C44.6708 20.8261 44.6987 20.8382 44.7261 20.8511C44.7598 20.8674 44.7951 20.8856 44.8297 20.9052C44.8541 20.9186 44.8769 20.9324 44.8992 20.9467C44.9322 20.9684 44.9654 20.9916 44.998 21.0164C45.0231 21.035 45.047 21.0545 45.0703 21.0746C45.0841 21.0871 45.0987 21.1002 45.113 21.1136L45.155 21.1537C45.1758 21.1747 45.1959 21.1962 45.2154 21.2183L45.113 21.1136C45.1823 21.1781 45.244 21.2477 45.2983 21.3212C45.3113 21.3387 45.3242 21.3571 45.3368 21.3758C45.3625 21.4144 45.3859 21.453 45.4074 21.4925C45.4182 21.512 45.4292 21.5334 45.4397 21.555C45.4608 21.5986 45.4792 21.6419 45.4956 21.6858C45.5034 21.7064 45.511 21.7284 45.5182 21.7507C45.5298 21.7871 45.5397 21.8228 45.5484 21.8588C45.5545 21.8843 45.5603 21.9114 45.5653 21.9389L45.5691 21.9602C45.5801 22.0257 45.5868 22.0919 45.5891 22.1582L45.5889 22.1605L46.1496 39.228C46.1768 40.056 45.5276 40.7492 44.6996 40.7764C43.9469 40.8011 43.3055 40.2669 43.1747 39.5475L43.1512 39.3265L42.7082 25.8936L24.7271 45.1742C24.1621 45.7801 23.213 45.8132 22.6071 45.2482Z" fill="#E6E6E6"/>
</svg>
