<svg width="30" height="30" viewBox="0 0 30 30" fill="none" xmlns="http://www.w3.org/2000/svg">
<path d="M15 19.4688C14.8333 19.4688 14.6771 19.4429 14.5313 19.3913C14.3854 19.3396 14.25 19.2508 14.125 19.125L9.625 14.625C9.39584 14.3958 9.28125 14.1042 9.28125 13.75C9.28125 13.3958 9.39584 13.1042 9.625 12.875C9.85417 12.6458 10.1513 12.5263 10.5163 12.5163C10.8813 12.5063 11.1779 12.6154 11.4063 12.8438L13.75 15.1875V6.25C13.75 5.89584 13.87 5.59875 14.11 5.35875C14.35 5.11875 14.6467 4.99917 15 5C15.3542 5 15.6513 5.12 15.8913 5.36C16.1313 5.6 16.2508 5.89667 16.25 6.25V15.1875L18.5938 12.8438C18.8229 12.6146 19.12 12.505 19.485 12.515C19.85 12.525 20.1467 12.645 20.375 12.875C20.6042 13.1042 20.7188 13.3958 20.7188 13.75C20.7188 14.1042 20.6042 14.3958 20.375 14.625L15.875 19.125C15.75 19.25 15.6146 19.3388 15.4688 19.3913C15.3229 19.4438 15.1667 19.4696 15 19.4688ZM7.5 25C6.8125 25 6.22375 24.755 5.73375 24.265C5.24375 23.775 4.99917 23.1867 5 22.5V20C5 19.6458 5.12 19.3488 5.36 19.1088C5.6 18.8688 5.89667 18.7492 6.25 18.75C6.60417 18.75 6.90125 18.87 7.14125 19.11C7.38125 19.35 7.50084 19.6467 7.5 20V22.5H22.5V20C22.5 19.6458 22.62 19.3488 22.86 19.1088C23.1 18.8688 23.3967 18.7492 23.75 18.75C24.1042 18.75 24.4013 18.87 24.6413 19.11C24.8813 19.35 25.0008 19.6467 25 20V22.5C25 23.1875 24.755 23.7763 24.265 24.2663C23.775 24.7563 23.1867 25.0008 22.5 25H7.5Z" fill="#373B49"/>
</svg>
