<svg width="38" height="38" viewBox="0 0 38 38" fill="none" xmlns="http://www.w3.org/2000/svg">
<path fill-rule="evenodd" clip-rule="evenodd" d="M19.0047 6.33411C25.5533 6.33886 31.4338 10.9289 34.7367 18.6144C34.8665 18.9137 34.8665 19.2525 34.7367 19.5518C31.4354 27.2389 25.5533 31.8289 19.0047 31.8337H18.9952C12.4465 31.8289 6.56601 27.2389 3.26318 19.5518C3.13493 19.2525 3.13493 18.9137 3.26318 18.6144C6.56601 10.9289 12.4481 6.33886 18.9952 6.33411H19.0047ZM18.9999 8.70911C13.5596 8.71069 8.59743 12.5788 5.65243 19.0831C8.59743 25.589 13.558 29.4571 18.9999 29.4587C24.4418 29.4571 29.4024 25.589 32.3474 19.0831C29.4024 12.5788 24.4418 8.71069 18.9999 8.70911ZM18.9995 12.8904C22.4147 12.8904 25.1935 15.6691 25.1935 19.0844C25.1935 22.498 22.4147 25.2752 18.9995 25.2752C15.5842 25.2752 12.807 22.498 12.807 19.0844C12.807 15.6691 15.5842 12.8904 18.9995 12.8904ZM18.9995 15.2654C16.8936 15.2654 15.182 16.9785 15.182 19.0844C15.182 21.1886 16.8936 22.9002 18.9995 22.9002C21.1053 22.9002 22.8185 21.1886 22.8185 19.0844C22.8185 16.9785 21.1053 15.2654 18.9995 15.2654Z" fill="#F3F5F2"/>
</svg>
