<svg width="45" height="45" viewBox="0 0 45 45" fill="none" xmlns="http://www.w3.org/2000/svg">
<g clip-path="url(#clip0_637_225)">
<mask id="mask0_637_225" style="mask-type:luminance" maskUnits="userSpaceOnUse" x="0" y="0" width="45" height="45">
<path d="M0 0H45V45H0V0Z" fill="white"/>
</mask>
<g mask="url(#mask0_637_225)">
<path d="M10.9289 8.49937C9.80394 11.0194 10.2483 15.5344 10.4283 18.6919C9.21332 19.365 7.65332 18.1838 6.77019 18.1838C5.85144 18.1838 4.75457 18.7875 4.58207 19.6875C4.45832 20.3363 4.74894 21.2812 6.83394 22.1044C7.64019 22.4231 9.55832 22.7981 10.0027 23.8444C10.6271 25.3144 6.79644 32.1 0.781443 33.09C0.554348 33.1275 0.349123 33.2476 0.205163 33.4272C0.0612031 33.6069 -0.0113456 33.8333 0.00144337 34.0631C0.106443 35.8912 4.20519 36.6075 6.02207 36.8887C6.20769 37.14 6.35769 38.2012 6.59582 39.0094C6.70269 39.3713 6.97832 39.8044 7.68707 39.8044C8.61144 39.8044 10.1471 39.0919 12.8208 39.5344C15.4421 39.9712 17.9058 43.6875 22.6364 43.6875C27.0333 43.6875 29.6564 39.9544 32.1802 39.5344C33.6408 39.2925 34.8952 39.3694 36.2977 39.6431C37.2633 39.8325 38.1296 39.9375 38.4052 38.9888C38.6471 38.1694 38.7952 37.1287 38.9771 36.8831C40.7771 36.6037 44.8946 35.8894 44.9977 34.0612C45.0105 33.8314 44.9379 33.605 44.794 33.4254C44.65 33.2458 44.4448 33.1257 44.2177 33.0881C38.3039 32.1131 34.3571 25.3481 34.9964 23.8425C35.4389 22.7981 37.3439 22.4269 38.1652 22.1025C39.6914 21.5006 40.4564 20.76 40.4396 19.9031C40.4189 18.8062 39.0989 18.1519 38.1277 18.1519C37.1396 18.1519 35.7202 19.3219 34.5708 18.6881C34.7508 15.5044 35.1933 11.01 34.0702 8.49187C31.9421 3.72375 27.2077 1.3125 22.4752 1.3125C17.7727 1.3125 13.0739 3.69 10.9289 8.49937Z" fill="#140A23"/>
</g>
</g>
<defs>
<clipPath id="clip0_637_225">
<rect width="45" height="45" fill="white"/>
</clipPath>
</defs>
</svg>
