<svg width="24" height="24" viewBox="0 0 24 24" fill="none" xmlns="http://www.w3.org/2000/svg">
<path d="M11.8717 21.765C10.6817 21.765 9.88773 21.203 9.17873 20.708C8.67473 20.351 8.20273 20.012 7.64573 19.918C7.38054 19.8724 7.11182 19.8503 6.84273 19.852C6.37073 19.852 5.99573 19.923 5.72873 19.977C5.55873 20.007 5.41673 20.035 5.30473 20.035C5.18873 20.035 5.04174 20.003 4.98474 19.807C4.93474 19.647 4.90374 19.495 4.87274 19.348C4.79274 18.978 4.72573 18.751 4.58673 18.728C3.09773 18.501 2.20673 18.158 2.03273 17.752C2.01873 17.708 2.00173 17.662 2.00173 17.627C1.99173 17.503 2.08173 17.4 2.20673 17.377C3.38773 17.182 4.44873 16.553 5.34473 15.519C6.04073 14.716 6.37973 13.94 6.41073 13.856C6.41073 13.846 6.41973 13.846 6.41973 13.846C6.58973 13.495 6.62473 13.196 6.52173 12.951C6.32973 12.491 5.69673 12.295 5.26473 12.161C5.15373 12.131 5.05973 12.095 4.97973 12.068C4.60973 11.921 3.99373 11.608 4.07473 11.176C4.13273 10.864 4.54674 10.641 4.88574 10.641C4.97974 10.641 5.05973 10.655 5.12573 10.691C5.50573 10.864 5.84874 10.953 6.14274 10.953C6.50874 10.953 6.68274 10.815 6.72674 10.771C6.71743 10.5732 6.70576 10.3755 6.69173 10.178C6.60173 8.813 6.49974 7.119 6.93174 6.148C8.22974 3.241 10.9847 3.008 11.8007 3.008L12.1567 3H12.2067C13.0217 3 15.7767 3.227 17.0747 6.139C17.5117 7.11 17.4047 8.809 17.3147 10.169L17.3057 10.236C17.2977 10.418 17.2837 10.592 17.2757 10.771C17.3197 10.806 17.4797 10.94 17.8097 10.944C18.0957 10.936 18.4077 10.842 18.7637 10.681C18.8623 10.6384 18.9684 10.616 19.0757 10.615C19.2007 10.615 19.3257 10.645 19.4327 10.681H19.4417C19.7407 10.793 19.9367 11.002 19.9367 11.221C19.9457 11.426 19.7847 11.738 19.0227 12.046C18.9427 12.076 18.8487 12.113 18.7377 12.139C18.3137 12.269 17.6807 12.474 17.4797 12.929C17.3687 13.169 17.4127 13.477 17.5827 13.825C17.5827 13.833 17.5917 13.833 17.5917 13.833C17.6407 13.958 18.9287 16.883 21.7957 17.36C21.8543 17.3699 21.9074 17.4006 21.9451 17.4466C21.9828 17.4926 22.0025 17.5506 22.0007 17.61C22.0014 17.6549 21.9908 17.6993 21.9697 17.739C21.7957 18.149 20.9127 18.483 19.4147 18.715C19.2767 18.737 19.2097 18.965 19.1297 19.335C19.098 19.4892 19.061 19.6423 19.0187 19.794C18.9737 19.941 18.8797 20.021 18.7187 20.021H18.6977C18.5552 20.0182 18.4132 20.0018 18.2737 19.972C17.9072 19.8939 17.5335 19.855 17.1587 19.856C16.89 19.8566 16.6218 19.879 16.3567 19.923C15.8037 20.013 15.3267 20.356 14.8227 20.713C14.1047 21.203 13.3067 21.765 12.1257 21.765H11.8717Z" fill="#FFD233"/>
</svg>
