<svg width="122" height="116" viewBox="0 0 122 116" fill="none" xmlns="http://www.w3.org/2000/svg">
<g filter="url(#filter0_d_2302_2109)">
<path d="M7.99971 62.4554C8.00126 66.6711 9.12127 70.8109 11.2454 74.4523C13.3696 78.0937 16.4218 81.1064 20.0906 83.1828C23.7594 85.2593 27.9135 86.3251 32.1288 86.2717C36.3441 86.2182 40.4698 85.0474 44.0848 82.8786H45.974L42.1829 95.5154C42.0304 96.0236 41.9987 96.5604 42.0906 97.083C42.1824 97.6056 42.3951 98.0995 42.7117 98.5252C43.0284 98.951 43.4402 99.2968 43.9142 99.5352C44.3883 99.7735 44.9115 99.8977 45.4421 99.8978H65.8652C66.3958 99.8977 66.9191 99.7735 67.3931 99.5352C67.8672 99.2968 68.279 98.951 68.5956 98.5252C68.9123 98.0995 69.125 97.6056 69.2168 97.083C69.3086 96.5604 69.277 96.0236 69.1244 95.5154L65.3334 82.8786H67.2225C70.3708 84.7704 73.9138 85.9088 77.5749 86.2049C81.2359 86.5009 84.9158 85.9465 88.3272 84.5851C91.7385 83.2236 94.7889 81.092 97.2401 78.3565C99.6913 75.6211 101.477 72.3561 102.457 68.8164C103.438 65.2767 103.587 61.5583 102.893 57.9515C102.198 54.3447 100.68 50.9473 98.4551 48.0246C96.2306 45.1019 93.3605 42.733 90.0689 41.1031C86.7774 39.4731 83.1536 38.6262 79.4806 38.6284H78.4893C79.5484 35.0724 79.7625 31.3181 79.1143 27.6647C78.4661 24.0113 76.9736 20.5597 74.7558 17.585C72.538 14.6103 69.6561 12.1947 66.3397 10.5306C63.0233 8.86656 59.3641 8 55.6537 8C51.9432 8 48.284 8.86656 44.9676 10.5306C41.6513 12.1947 38.7694 14.6103 36.5515 17.585C34.3337 20.5597 32.8412 24.0113 32.1931 27.6647C31.5449 31.3181 31.7589 35.0724 32.8181 38.6284H31.8267C25.5095 38.6352 19.4529 41.1477 14.9859 45.6147C10.519 50.0816 8.00647 56.1382 7.99971 62.4554Z" fill="#3537A6"/>
<path d="M27.9965 34.8965C27.7042 32.2626 27.7887 29.5919 28.2546 26.9659C29.0116 22.6992 30.7546 18.6682 33.3447 15.1941C35.9349 11.7201 39.3006 8.89893 43.1737 6.95548C47.0468 5.01204 51.3203 4 55.6537 4C59.987 4 64.2605 5.01204 68.1336 6.95548C72.0068 8.89893 75.3725 11.7201 77.9626 15.1941C80.5528 18.6682 82.2958 22.6992 83.0528 26.9659C83.5184 29.5902 83.603 32.2591 83.3114 34.8913C86.2702 35.301 89.1522 36.1855 91.844 37.5185C95.6881 39.4221 99.0401 42.1886 101.638 45.602C104.236 49.0153 106.01 52.9831 106.821 57.1954C107.631 61.4076 107.457 65.7503 106.312 69.8843C105.167 74.0182 103.082 77.8314 100.219 81.026C97.3564 84.2206 93.7939 86.7101 89.8098 88.3002C85.8258 89.8902 81.5281 90.5376 77.2525 90.1919C75.2492 90.0299 73.2761 89.6519 71.3665 89.0687L72.9555 94.3654C73.2874 95.4708 73.3562 96.6384 73.1564 97.7751C72.9567 98.9119 72.494 99.9861 71.8053 100.912C71.1166 101.838 70.2209 102.591 69.1897 103.109C68.1585 103.627 67.0205 103.897 65.8664 103.898H65.8652H45.4421H45.441C44.2869 103.897 43.1488 103.627 42.1176 103.109C41.0864 102.591 40.1908 101.838 39.502 100.912C38.8133 99.9862 38.3506 98.9119 38.1509 97.7751C37.9512 96.6386 38.02 95.4712 38.3516 94.366C38.3517 94.3658 38.3517 94.3656 38.3518 94.3654L39.9422 89.0639C37.4356 89.8282 34.8226 90.2379 32.1795 90.2714C27.2565 90.3338 22.4051 89.089 18.1204 86.6639C13.8357 84.2389 10.271 80.7205 7.79029 76.4678C5.30955 72.215 4.00152 67.3803 3.9997 62.4569L3.99971 62.4511C4.0076 55.0745 6.94144 48.0023 12.1575 42.7862C16.4633 38.4805 22.0339 35.7298 27.9965 34.8965Z" stroke="white" stroke-width="8"/>
</g>
<defs>
<filter id="filter0_d_2302_2109" x="0" y="0" width="121.322" height="115.898" filterUnits="userSpaceOnUse" color-interpolation-filters="sRGB">
<feFlood flood-opacity="0" result="BackgroundImageFix"/>
<feColorMatrix in="SourceAlpha" type="matrix" values="0 0 0 0 0 0 0 0 0 0 0 0 0 0 0 0 0 0 127 0" result="hardAlpha"/>
<feOffset dx="6" dy="4"/>
<feGaussianBlur stdDeviation="2"/>
<feComposite in2="hardAlpha" operator="out"/>
<feColorMatrix type="matrix" values="0 0 0 0 0 0 0 0 0 0 0 0 0 0 0 0 0 0 0.25 0"/>
<feBlend mode="normal" in2="BackgroundImageFix" result="effect1_dropShadow_2302_2109"/>
<feBlend mode="normal" in="SourceGraphic" in2="effect1_dropShadow_2302_2109" result="shape"/>
</filter>
</defs>
</svg>
