<svg width="112" height="134" viewBox="0 0 112 134" fill="none" xmlns="http://www.w3.org/2000/svg">
<g filter="url(#filter0_d_2369_702)">
<path d="M9.49565 58.4998L45.0174 11.0001C45.714 10.0686 46.6172 9.31256 47.6556 8.79183C48.694 8.2711 49.839 8 51 8C52.161 8 53.306 8.2711 54.3444 8.79183C55.3828 9.31256 56.286 10.0686 56.9826 11.0001L92.5044 58.4998C93.4752 59.7981 94 61.3772 94 63C94 64.6229 93.4752 66.2019 92.5044 67.5002L56.9826 115C56.286 115.931 55.3828 116.687 54.3444 117.208C53.306 117.729 52.161 118 51 118C49.839 118 48.694 117.729 47.6556 117.208C46.6172 116.687 45.714 115.931 45.0174 115L9.49565 67.5002C8.52481 66.2019 8 64.6229 8 63C8 61.3772 8.52481 59.7981 9.49565 58.4998Z" fill="#68219F"/>
<path d="M6.29232 56.1042L6.29226 56.1043C4.80368 58.095 4 60.5146 4 63C4 65.4854 4.80367 67.905 6.29226 69.8957L6.29232 69.8958L41.814 117.395C41.814 117.395 41.814 117.395 41.8141 117.395C42.8822 118.824 44.268 119.984 45.8625 120.784C47.4571 121.583 49.2161 122 51 122C52.7839 122 54.5429 121.583 56.1375 120.784C57.7319 119.984 59.1178 118.824 60.1859 117.395C60.186 117.395 60.186 117.395 60.186 117.395L95.7077 69.8958L95.7077 69.8957C97.1963 67.905 98 65.4854 98 63C98 60.5146 97.1963 58.095 95.7077 56.1043L95.7077 56.1042L60.186 8.60467C60.186 8.60464 60.186 8.60461 60.1859 8.60458C59.1178 7.17621 57.7319 6.01584 56.1375 5.21624C54.5429 4.4166 52.7839 4 51 4C49.2161 4 47.4571 4.4166 45.8625 5.21624C44.2681 6.01584 42.8822 7.17622 41.8141 8.60458C41.814 8.60461 41.814 8.60464 41.814 8.60467L6.29232 56.1042Z" stroke="white" stroke-width="8"/>
</g>
<defs>
<filter id="filter0_d_2369_702" x="0" y="0" width="112" height="134" filterUnits="userSpaceOnUse" color-interpolation-filters="sRGB">
<feFlood flood-opacity="0" result="BackgroundImageFix"/>
<feColorMatrix in="SourceAlpha" type="matrix" values="0 0 0 0 0 0 0 0 0 0 0 0 0 0 0 0 0 0 127 0" result="hardAlpha"/>
<feOffset dx="6" dy="4"/>
<feGaussianBlur stdDeviation="2"/>
<feComposite in2="hardAlpha" operator="out"/>
<feColorMatrix type="matrix" values="0 0 0 0 0 0 0 0 0 0 0 0 0 0 0 0 0 0 0.25 0"/>
<feBlend mode="normal" in2="BackgroundImageFix" result="effect1_dropShadow_2369_702"/>
<feBlend mode="normal" in="SourceGraphic" in2="effect1_dropShadow_2369_702" result="shape"/>
</filter>
</defs>
</svg>
