<svg width="500" height="469" viewBox="0 0 500 469" fill="none" xmlns="http://www.w3.org/2000/svg">
<path d="M109.629 33.6363C122.701 33.6363 133.057 45.0551 140.696 67.8928C156.997 82.5404 165.148 92.896 165.148 98.9598L153.808 105.457H152.154C143.728 105.457 129.041 98.3692 108.093 84.1941C102.344 79.8628 96.3594 77.6972 90.1382 77.6972H88.4844L85.1769 81.0047V98.9598C95.0207 105.496 113.527 114.198 140.696 125.066C140.696 126.956 152.115 137.823 174.952 157.668C184.796 173.34 189.718 184.247 189.718 190.389V209.998C181.292 221.968 169.322 227.953 153.808 227.953H148.847C140.735 227.953 129.868 223.031 116.244 213.187V214.841L132.545 255.713H130.892L124.395 260.556H121.087L108.093 254.059C78.6406 186.097 63.9142 144.714 63.9142 129.909V125.066L70.5293 116.915H73.7187L78.68 120.104H81.8694C66.6705 109.237 59.0711 100.535 59.0711 93.9986V77.6972C59.0711 64.1521 67.2218 57.0646 83.5231 56.4346L112.936 64.7034V63.0496L103.132 40.1332C105.337 40.1332 106.44 38.5188 106.44 35.2901L108.093 33.6363H109.629ZM83.5231 120.104V123.412C88.7206 123.412 92.54 131.051 94.9813 146.328C114.826 186.57 131.679 206.69 145.539 206.69C157.509 205.588 163.494 203.422 163.494 200.194V187.082C163.494 173.852 146.642 155.345 112.936 131.563C108.369 131.563 98.5645 127.743 83.5231 120.104ZM203.279 59.3877C215.879 60.3327 228.519 68.3653 241.197 83.4854C241.197 68.6015 245.214 61.1596 253.246 61.1596L263.641 69.7828L265.295 68.0109L268.839 81.8316V145.619L258.444 154.243C246.946 149.675 241.197 143.336 241.197 135.224C241.197 123.569 232.023 107.504 213.674 87.0291H211.902V119.75C211.902 133.61 222.258 158.889 242.969 195.587C242.969 198.737 246.986 204.485 255.018 212.833C257.538 212.518 261.554 202.753 267.067 183.538L275.69 176.568L292.936 186.964V193.815C287.503 221.456 278.289 235.277 265.295 235.277L261.869 238.703L261.869 273.195L258.444 276.621L256.672 274.849L256.672 235.277C239.189 235.277 223.124 216.889 208.477 180.112C193.514 157.983 186.033 137.863 186.033 119.75V73.2084C189.498 63.9946 195.246 59.3877 203.279 59.3877ZM287.243 45.567C287.243 47.142 292.047 50.3314 301.654 55.1352C311.262 73.169 322.956 82.186 336.737 82.186C336.737 83.761 347.92 87.5016 370.285 93.4079C362.804 82.3041 359.063 74.8622 359.063 71.0822L365.442 63.0496H367.096C371.9 67.2234 376.664 69.3497 381.389 69.4284L408.558 112.544V115.734C402.179 118.254 398.99 120.38 398.99 122.112L367.096 112.544V138.059C384.106 141.052 392.611 146.368 392.611 154.006C386.783 158.259 381.98 160.385 378.2 160.385V181.175L375.01 184.365L373.475 182.829V158.85L346.306 155.66V157.196L375.01 229.016L362.253 233.859C351.385 228.032 343.943 218.976 339.927 206.69C327.406 169.442 319.412 150.817 315.947 150.817C308.624 150.817 300.67 146.565 292.086 138.059L300 128.491H304.843L306.379 130.145H308.033V128.491C300.315 99.7473 294.448 85.3754 290.432 85.3754C286.18 85.3754 282.99 82.7372 280.864 77.461L285.707 72.6178L277.675 59.8602V55.1352C280.273 48.7564 283.463 45.567 287.243 45.567ZM323.98 98.133V99.7867C328.311 123.176 334.69 134.87 343.116 134.87L362.253 136.524V109.355L352.684 107.819V120.577L349.495 123.766C348.471 111.009 346.896 104.63 344.77 104.63L323.98 98.133Z" fill="url(#paint0_linear_2613_1774)"/>
<path d="M21.6136 243.321H26.2205C39.6081 246.864 46.3019 256.59 46.3019 272.498C74.9671 348.649 89.2996 390.702 89.2996 398.656L92.3709 429.487L84.6927 435.629H81.6215C71.3839 432.243 66.2651 422.005 66.2651 404.917C66.2651 395.545 62.682 380.661 55.5157 360.265H37.0881V378.693L24.6849 383.3C16.4948 380.543 12.3998 374.401 12.3998 364.872C12.3998 359.438 8.81665 354.831 1.65036 351.051L0.114723 349.516V347.98L1.65036 346.444L4.72163 340.302C9.84041 340.302 12.3998 339.239 12.3998 337.112L12.3998 294.115L15.4711 257.141L15.4711 250.999L21.6136 243.321ZM37.0881 317.149L37.0881 337.112L40.1593 340.302H46.3019L38.6237 317.149H37.0881ZM102.034 228.2C114.634 229.145 127.273 237.178 139.952 252.298C139.952 237.414 143.968 229.972 152.001 229.972L162.396 238.596L164.05 236.824L167.593 250.644V314.432L157.198 323.055C145.701 318.488 139.952 312.148 139.952 304.037C139.952 292.382 130.778 276.317 112.429 255.842H110.657V288.563C110.657 302.423 121.012 327.702 141.724 364.399C141.724 367.549 145.74 373.298 153.773 381.646C156.293 381.331 160.309 371.566 165.821 352.351L174.445 345.381L191.691 355.776V362.628C186.257 390.269 177.043 404.09 164.05 404.09L160.624 407.515L160.624 442.008L157.198 445.434L155.426 443.662L155.426 404.09C137.944 404.09 121.879 385.701 107.231 348.925C92.2685 326.796 84.7872 306.675 84.7872 288.563V242.021C88.2523 232.807 94.0011 228.2 102.034 228.2ZM207.733 228.2C220.333 229.145 232.972 237.178 245.651 252.298C245.651 237.414 249.667 229.972 257.7 229.972L268.095 238.596L269.749 236.824L273.292 250.644V314.432L262.897 323.055C251.4 318.488 245.651 312.148 245.651 304.037C245.651 292.382 236.476 276.317 218.128 255.842H216.356V288.563C216.356 302.423 226.711 327.702 247.423 364.399C247.423 367.549 251.439 373.298 259.472 381.646C261.992 381.331 266.008 371.566 271.52 352.351L280.144 345.381L297.39 355.776V362.628C291.956 390.269 282.742 404.09 269.749 404.09L266.323 407.515L266.323 442.008L262.897 445.434L261.125 443.662L261.125 404.09C243.643 404.09 227.578 385.701 212.93 348.925C197.967 326.796 190.486 306.675 190.486 288.563V242.021C193.951 232.807 199.7 228.2 207.733 228.2ZM292.051 235.406L295.122 241.667L296.658 240.131H298.193L301.264 243.202L302.8 241.667L307.525 252.416L367.415 244.738C377.731 248.833 382.889 253.952 382.889 260.094L355.13 290.807V292.343L389.032 273.915H393.639C403.876 277.616 408.995 283.247 408.995 290.807C404.9 290.807 402.341 305.691 401.317 335.459V338.53C401.317 351.445 404.388 373.495 410.531 404.68H408.995L402.853 410.823C390.568 406.413 384.425 398.223 384.425 386.253C379.306 372.235 376.747 354.28 376.747 332.387L378.282 306.282C348.121 320.614 332.725 328.804 332.095 330.852L352.059 393.931L350.523 395.466H348.987L347.452 393.931L342.845 398.538H339.773C327.488 392.868 321.346 382.591 321.346 367.707L310.596 340.066C305.793 340.066 299.611 336.482 292.051 329.316L301.264 315.495L284.372 276.986C275.159 273.128 270.552 270.056 270.552 267.773V266.237C273.387 260.094 276.97 257.023 281.301 257.023V244.738C284.136 238.517 287.719 235.406 292.051 235.406ZM309.061 273.915C313.156 288.248 316.227 295.414 318.275 295.414L339.773 269.308L309.061 273.915ZM428.344 243.321H432.951C446.339 246.864 453.032 256.59 453.032 272.498C481.698 348.649 496.03 390.702 496.03 398.656L499.101 429.487L491.423 435.629H488.352C478.114 432.243 472.996 422.005 472.996 404.917C472.996 395.545 469.412 380.661 462.246 360.265H443.819V378.693L431.415 383.3C423.225 380.543 419.13 374.401 419.13 364.872C419.13 359.438 415.547 354.831 408.381 351.051L406.845 349.516V347.98L408.381 346.444L411.452 340.302C416.571 340.302 419.13 339.239 419.13 337.112V294.115L422.202 257.141V250.999L428.344 243.321ZM443.819 317.149V337.112L446.89 340.302H453.032L445.354 317.149H443.819Z" fill="url(#paint1_linear_2613_1774)"/>
<defs>
<linearGradient id="paint0_linear_2613_1774" x1="79.5068" y1="150" x2="390.507" y2="150" gradientUnits="userSpaceOnUse">
<stop stop-color="#0DD0FF"/>
<stop offset="0.34" stop-color="#FFC322"/>
<stop offset="1" stop-color="#FFE8B6"/>
</linearGradient>
<linearGradient id="paint1_linear_2613_1774" x1="19.6055" y1="318.813" x2="478.605" y2="318.813" gradientUnits="userSpaceOnUse">
<stop stop-color="#0DD0FF"/>
<stop offset="0.34" stop-color="#FFC322"/>
<stop offset="1" stop-color="#FFE8B6"/>
</linearGradient>
</defs>
</svg>
