<svg width="124" height="135" viewBox="0 0 124 135" fill="none" xmlns="http://www.w3.org/2000/svg">
<g filter="url(#filter0_d_2302_2106)">
<path d="M51.274 93.0955C48.0768 96.8799 43.7811 99.5977 38.9705 100.88C34.1599 102.162 29.0676 101.945 24.3853 100.261C19.7029 98.5761 15.6576 95.5044 12.7986 91.463C9.93969 87.4217 8.40579 82.6064 8.40527 77.6715C8.40527 66.67 16.308 59.5897 26.8449 50.1471C36.0371 41.9063 47.2395 31.8663 56.9307 15.8654C66.622 31.8663 77.8244 41.9063 87.0165 50.1471C97.5535 59.5897 105.456 66.67 105.456 77.6715C105.456 82.6064 103.922 87.4217 101.063 91.463C98.2039 95.5044 94.1585 98.5761 89.4762 100.261C84.7939 101.945 79.7016 102.162 74.891 100.88C70.0804 99.5977 65.7847 96.8799 62.5874 93.0955C65.68 100.039 69.3481 106.716 73.5542 113.059C75.1555 115.462 73.4155 118.876 70.5179 118.876H43.3436C40.439 118.876 38.699 115.462 40.3073 113.059C44.5133 106.716 48.1815 100.039 51.274 93.0955Z" fill="#209681"/>
<path d="M72.9159 104.475C73.2289 104.57 73.544 104.66 73.861 104.745C79.4577 106.236 85.3818 105.985 90.8304 104.025C96.2794 102.064 100.994 98.4871 104.328 93.7731C107.663 89.0586 109.456 83.4369 109.456 77.6719V77.6715C109.456 71.0774 107.044 65.7278 103.37 60.9019C99.8472 56.2736 94.9999 51.93 89.8921 47.3529L89.6866 47.1688C80.5116 38.9433 69.7091 29.2422 60.3521 13.7931L56.9307 8.14418L53.5093 13.7931C44.1526 29.2418 33.3503 38.9429 24.1754 47.1683C24.1752 47.1684 24.175 47.1686 24.1748 47.1688L23.9694 47.3529C18.8615 51.93 14.0142 56.2736 10.491 60.9019C6.81732 65.7278 4.40527 71.0774 4.40527 77.6715V77.6719C4.40588 83.4369 6.19799 89.0586 9.53311 93.7731C12.8679 98.4871 17.5821 102.064 23.0311 104.025C28.4797 105.985 34.4037 106.236 40.0005 104.745C40.3175 104.66 40.6325 104.57 40.9456 104.475C39.6838 106.633 38.3607 108.756 36.9777 110.842C33.682 115.78 37.0977 122.876 43.3436 122.876H70.5179C76.7658 122.876 80.1656 115.774 76.8856 110.845C75.5019 108.758 74.1782 106.634 72.9159 104.475Z" stroke="white" stroke-width="8"/>
</g>
<defs>
<filter id="filter0_d_2302_2106" x="0.405273" y="0.422974" width="123.052" height="134.453" filterUnits="userSpaceOnUse" color-interpolation-filters="sRGB">
<feFlood flood-opacity="0" result="BackgroundImageFix"/>
<feColorMatrix in="SourceAlpha" type="matrix" values="0 0 0 0 0 0 0 0 0 0 0 0 0 0 0 0 0 0 127 0" result="hardAlpha"/>
<feOffset dx="6" dy="4"/>
<feGaussianBlur stdDeviation="2"/>
<feComposite in2="hardAlpha" operator="out"/>
<feColorMatrix type="matrix" values="0 0 0 0 0 0 0 0 0 0 0 0 0 0 0 0 0 0 0.25 0"/>
<feBlend mode="normal" in2="BackgroundImageFix" result="effect1_dropShadow_2302_2106"/>
<feBlend mode="normal" in="SourceGraphic" in2="effect1_dropShadow_2302_2106" result="shape"/>
</filter>
</defs>
</svg>
